<?xml version="1.0" encoding="UTF-8" standalone="no"?>
<!DOCTYPE svg PUBLIC "-//W3C//DTD SVG 1.1//EN"
 "http://www.w3.org/Graphics/SVG/1.1/DTD/svg11.dtd">
<!-- Generated by graphviz version 2.42.4 (0)
 -->
<!-- Title: App\Services\FileExplorerService\isVideo Pages: 1 -->
<svg width="508pt" height="56pt"
 viewBox="0.00 0.00 508.00 56.00" xmlns="http://www.w3.org/2000/svg" xmlns:xlink="http://www.w3.org/1999/xlink">
<g id="graph0" class="graph" transform="scale(1 1) rotate(0) translate(4 52)">
<title>App\Services\FileExplorerService\isVideo</title>
<!-- Node1 -->
<g id="Node000001" class="node">
<title>Node1</title>
<g id="a_Node000001"><a xlink:title=" ">
<polygon fill="#999999" stroke="#666666" points="500,-30 360,-30 360,0 500,0 500,-30"/>
<text text-anchor="start" x="368" y="-18" font-family="Helvetica,sans-Serif" font-size="10.00">App\Services\FileExplorer</text>
<text text-anchor="middle" x="430" y="-7" font-family="Helvetica,sans-Serif" font-size="10.00">Service\isVideo</text>
</a>
</g>
</g>
<!-- Node2 -->
<g id="Node000002" class="node">
<title>Node2</title>
<g id="a_Node000002"><a xlink:href="classApp_1_1Services_1_1FileExplorerService.html#adf13d084070f2ea8c643eb346a69ff65" target="_top" xlink:title="Scan un dossier (1 seul niveau) Retourne uniquement :">
<polygon fill="white" stroke="#666666" points="324,-30 184,-30 184,0 324,0 324,-30"/>
<text text-anchor="start" x="192" y="-18" font-family="Helvetica,sans-Serif" font-size="10.00">App\Services\FileExplorer</text>
<text text-anchor="middle" x="254" y="-7" font-family="Helvetica,sans-Serif" font-size="10.00">Service\scanDisk</text>
</a>
</g>
</g>
<!-- Node1&#45;&gt;Node2 -->
<g id="edge1_Node000001_Node000002" class="edge">
<title>Node1&#45;&gt;Node2</title>
<g id="a_edge1_Node000001_Node000002"><a xlink:title=" ">
<path fill="none" stroke="#63b8ff" d="M349.97,-15C341.38,-15 332.68,-15 324.22,-15"/>
<polygon fill="#63b8ff" stroke="#63b8ff" points="349.98,-18.5 359.98,-15 349.98,-11.5 349.98,-18.5"/>
</a>
</g>
</g>
<!-- Node3 -->
<g id="Node000003" class="node">
<title>Node3</title>
<g id="a_Node000003"><a xlink:href="classApp_1_1Services_1_1FileExplorerService.html#a52c3719a8b86aea98b5ad808069550f7" target="_top" xlink:title=" ">
<polygon fill="white" stroke="#666666" points="148,-30 0,-30 0,0 148,0 148,-30"/>
<text text-anchor="start" x="8" y="-18" font-family="Helvetica,sans-Serif" font-size="10.00">App\Services\FileExplorer</text>
<text text-anchor="middle" x="74" y="-7" font-family="Helvetica,sans-Serif" font-size="10.00">Service\scanDiskRecursive</text>
</a>
</g>
</g>
<!-- Node2&#45;&gt;Node3 -->
<g id="edge2_Node000002_Node000003" class="edge">
<title>Node2&#45;&gt;Node3</title>
<g id="a_edge2_Node000002_Node000003"><a xlink:title=" ">
<path fill="none" stroke="#63b8ff" d="M173.66,-15C165.17,-15 156.57,-15 148.16,-15"/>
<polygon fill="#63b8ff" stroke="#63b8ff" points="173.93,-18.5 183.93,-15 173.93,-11.5 173.93,-18.5"/>
</a>
</g>
</g>
<!-- Node3&#45;&gt;Node3 -->
<g id="edge3_Node000003_Node000003" class="edge">
<title>Node3&#45;&gt;Node3</title>
<g id="a_edge3_Node000003_Node000003"><a xlink:title=" ">
<path fill="none" stroke="#63b8ff" d="M105.51,-40.6C101.2,-44.97 90.7,-48 74,-48 45.88,-48 35.33,-39.41 42.36,-30.28"/>
<polygon fill="#63b8ff" stroke="#63b8ff" points="109.01,-40.32 105.64,-30.28 102.01,-40.23 109.01,-40.32"/>
</a>
</g>
</g>
</g>
</svg>
