<?xml version="1.0" encoding="UTF-8" standalone="no"?>
<!DOCTYPE svg PUBLIC "-//W3C//DTD SVG 1.1//EN"
 "http://www.w3.org/Graphics/SVG/1.1/DTD/svg11.dtd">
<!-- Generated by graphviz version 2.42.4 (0)
 -->
<!-- Title: App\Http\Controllers\AdminController\checkAdminAccess Pages: 1 -->
<svg width="419pt" height="962pt"
 viewBox="0.00 0.00 419.00 962.00" xmlns="http://www.w3.org/2000/svg" xmlns:xlink="http://www.w3.org/1999/xlink">
<g id="graph0" class="graph" transform="scale(1 1) rotate(0) translate(4 958)">
<title>App\Http\Controllers\AdminController\checkAdminAccess</title>
<!-- Node1 -->
<g id="Node000001" class="node">
<title>Node1</title>
<g id="a_Node000001"><a xlink:title="Vérifie que l&#39;utilisateur a accès à l&#39;admin.">
<polygon fill="#999999" stroke="#666666" points="411,-503.5 249,-503.5 249,-462.5 411,-462.5 411,-503.5"/>
<text text-anchor="start" x="257" y="-491.5" font-family="Helvetica,sans-Serif" font-size="10.00">App\Http\Controllers</text>
<text text-anchor="start" x="257" y="-480.5" font-family="Helvetica,sans-Serif" font-size="10.00">\AdminController\checkAdmin</text>
<text text-anchor="middle" x="330" y="-469.5" font-family="Helvetica,sans-Serif" font-size="10.00">Access</text>
</a>
</g>
</g>
<!-- Node2 -->
<g id="Node000002" class="node">
<title>Node2</title>
<g id="a_Node000002"><a xlink:href="classApp_1_1Http_1_1Controllers_1_1AdminController.html#ae9f4bbca527127c44c972c1158156afe" target="_top" xlink:title=" ">
<polygon fill="white" stroke="#666666" points="213,-954 0,-954 0,-924 213,-924 213,-954"/>
<text text-anchor="start" x="8" y="-942" font-family="Helvetica,sans-Serif" font-size="10.00">App\Http\Controllers</text>
<text text-anchor="middle" x="106.5" y="-931" font-family="Helvetica,sans-Serif" font-size="10.00">\AdminController\Ajouterelevedepuiscsv</text>
</a>
</g>
</g>
<!-- Node1&#45;&gt;Node2 -->
<g id="edge1_Node000001_Node000002" class="edge">
<title>Node1&#45;&gt;Node2</title>
<g id="a_edge1_Node000001_Node000002"><a xlink:title=" ">
<path fill="none" stroke="#63b8ff" d="M324.92,-513.48C312.44,-602.32 271.95,-858.28 213,-915 209.48,-918.39 205.59,-921.33 201.43,-923.89"/>
<polygon fill="#63b8ff" stroke="#63b8ff" points="328.4,-513.89 326.31,-503.5 321.47,-512.93 328.4,-513.89"/>
</a>
</g>
</g>
<!-- Node3 -->
<g id="Node000003" class="node">
<title>Node3</title>
<g id="a_Node000003"><a xlink:href="classApp_1_1Http_1_1Controllers_1_1AdminController.html#a6b607c31c2c90208d7b05c091c05ec93" target="_top" xlink:title="Créer un élève.">
<polygon fill="white" stroke="#666666" points="186.5,-906 26.5,-906 26.5,-876 186.5,-876 186.5,-906"/>
<text text-anchor="start" x="34.5" y="-894" font-family="Helvetica,sans-Serif" font-size="10.00">App\Http\Controllers</text>
<text text-anchor="middle" x="106.5" y="-883" font-family="Helvetica,sans-Serif" font-size="10.00">\AdminController\createEleve</text>
</a>
</g>
</g>
<!-- Node1&#45;&gt;Node3 -->
<g id="edge2_Node000001_Node000003" class="edge">
<title>Node1&#45;&gt;Node3</title>
<g id="a_edge2_Node000001_Node000003"><a xlink:title=" ">
<path fill="none" stroke="#63b8ff" d="M329.43,-514.11C328.64,-587.21 315.94,-770.99 213,-867 205.44,-874.05 196.27,-879.17 186.51,-882.88"/>
<polygon fill="#63b8ff" stroke="#63b8ff" points="332.93,-513.76 329.46,-503.75 325.93,-513.74 332.93,-513.76"/>
</a>
</g>
</g>
<!-- Node4 -->
<g id="Node000004" class="node">
<title>Node4</title>
<g id="a_Node000004"><a xlink:href="classApp_1_1Http_1_1Controllers_1_1AdminController.html#a59b0fd82ed26515371ae873da7b78865" target="_top" xlink:title="Créer un professeur.">
<polygon fill="white" stroke="#666666" points="199,-858 14,-858 14,-828 199,-828 199,-858"/>
<text text-anchor="start" x="22" y="-846" font-family="Helvetica,sans-Serif" font-size="10.00">App\Http\Controllers</text>
<text text-anchor="middle" x="106.5" y="-835" font-family="Helvetica,sans-Serif" font-size="10.00">\AdminController\createProfesseur</text>
</a>
</g>
</g>
<!-- Node1&#45;&gt;Node4 -->
<g id="edge3_Node000001_Node000004" class="edge">
<title>Node1&#45;&gt;Node4</title>
<g id="a_edge3_Node000001_Node000004"><a xlink:title=" ">
<path fill="none" stroke="#63b8ff" d="M327.87,-513.91C323.7,-580.32 304.18,-737.24 213,-819 208.8,-822.76 204.14,-825.97 199.18,-828.71"/>
<polygon fill="#63b8ff" stroke="#63b8ff" points="331.38,-513.86 328.44,-503.69 324.39,-513.48 331.38,-513.86"/>
</a>
</g>
</g>
<!-- Node5 -->
<g id="Node000005" class="node">
<title>Node5</title>
<g id="a_Node000005"><a xlink:href="classApp_1_1Http_1_1Controllers_1_1AdminController.html#ac145d64294b267b0628144514fef4a0d" target="_top" xlink:title="Créer un projet.">
<polygon fill="white" stroke="#666666" points="187,-810 26,-810 26,-780 187,-780 187,-810"/>
<text text-anchor="start" x="34" y="-798" font-family="Helvetica,sans-Serif" font-size="10.00">App\Http\Controllers</text>
<text text-anchor="middle" x="106.5" y="-787" font-family="Helvetica,sans-Serif" font-size="10.00">\AdminController\createProjet</text>
</a>
</g>
</g>
<!-- Node1&#45;&gt;Node5 -->
<g id="edge4_Node000001_Node000005" class="edge">
<title>Node1&#45;&gt;Node5</title>
<g id="a_edge4_Node000001_Node000005"><a xlink:title=" ">
<path fill="none" stroke="#63b8ff" d="M325.82,-514.06C318.02,-573.48 292.37,-703.36 213,-771 205.42,-777.46 196.46,-782.27 187.01,-785.84"/>
<polygon fill="#63b8ff" stroke="#63b8ff" points="329.34,-514.16 327.08,-503.81 322.39,-513.31 329.34,-514.16"/>
</a>
</g>
</g>
<!-- Node6 -->
<g id="Node000006" class="node">
<title>Node6</title>
<g id="a_Node000006"><a xlink:href="classApp_1_1Http_1_1Controllers_1_1AdminController.html#ab5be771566760ce250d3bacf00747a7f" target="_top" xlink:title=" ">
<polygon fill="white" stroke="#666666" points="192,-762 21,-762 21,-732 192,-732 192,-762"/>
<text text-anchor="start" x="29" y="-750" font-family="Helvetica,sans-Serif" font-size="10.00">App\Http\Controllers</text>
<text text-anchor="middle" x="106.5" y="-739" font-family="Helvetica,sans-Serif" font-size="10.00">\AdminController\databaseView</text>
</a>
</g>
</g>
<!-- Node1&#45;&gt;Node6 -->
<g id="edge5_Node000001_Node000006" class="edge">
<title>Node1&#45;&gt;Node6</title>
<g id="a_edge5_Node000001_Node000006"><a xlink:title=" ">
<path fill="none" stroke="#63b8ff" d="M323.13,-513.69C311.59,-565.25 280.93,-668.95 213,-723 206.75,-727.97 199.67,-731.95 192.21,-735.14"/>
<polygon fill="#63b8ff" stroke="#63b8ff" points="326.57,-514.31 325.25,-503.8 319.73,-512.85 326.57,-514.31"/>
</a>
</g>
</g>
<!-- Node7 -->
<g id="Node000007" class="node">
<title>Node7</title>
<g id="a_Node000007"><a xlink:href="classApp_1_1Http_1_1Controllers_1_1AdminController.html#adaa33021a8e95e89290bec694489680a" target="_top" xlink:title="Supprimer un élève.">
<polygon fill="white" stroke="#666666" points="186.5,-714 26.5,-714 26.5,-684 186.5,-684 186.5,-714"/>
<text text-anchor="start" x="34.5" y="-702" font-family="Helvetica,sans-Serif" font-size="10.00">App\Http\Controllers</text>
<text text-anchor="middle" x="106.5" y="-691" font-family="Helvetica,sans-Serif" font-size="10.00">\AdminController\deleteEleve</text>
</a>
</g>
</g>
<!-- Node1&#45;&gt;Node7 -->
<g id="edge6_Node000001_Node000007" class="edge">
<title>Node1&#45;&gt;Node7</title>
<g id="a_edge6_Node000001_Node000007"><a xlink:title=" ">
<path fill="none" stroke="#63b8ff" d="M319.32,-513.15C303.94,-556.05 269.7,-634.05 213,-675 205.08,-680.72 196.03,-685.1 186.62,-688.46"/>
<polygon fill="#63b8ff" stroke="#63b8ff" points="322.68,-514.14 322.66,-503.55 316.07,-511.84 322.68,-514.14"/>
</a>
</g>
</g>
<!-- Node8 -->
<g id="Node000008" class="node">
<title>Node8</title>
<g id="a_Node000008"><a xlink:href="classApp_1_1Http_1_1Controllers_1_1AdminController.html#a19ceb0b83a30b0ac427ed92c5cb27732" target="_top" xlink:title="Supprimer un professeur.">
<polygon fill="white" stroke="#666666" points="199,-666 14,-666 14,-636 199,-636 199,-666"/>
<text text-anchor="start" x="22" y="-654" font-family="Helvetica,sans-Serif" font-size="10.00">App\Http\Controllers</text>
<text text-anchor="middle" x="106.5" y="-643" font-family="Helvetica,sans-Serif" font-size="10.00">\AdminController\deleteProfesseur</text>
</a>
</g>
</g>
<!-- Node1&#45;&gt;Node8 -->
<g id="edge7_Node000001_Node000008" class="edge">
<title>Node1&#45;&gt;Node8</title>
<g id="a_edge7_Node000001_Node000008"><a xlink:title=" ">
<path fill="none" stroke="#63b8ff" d="M313.43,-512.38C294.29,-545.52 258.67,-598.48 213,-627 207.5,-630.43 201.57,-633.38 195.42,-635.9"/>
<polygon fill="#63b8ff" stroke="#63b8ff" points="316.52,-514.03 318.38,-503.6 310.42,-510.59 316.52,-514.03"/>
</a>
</g>
</g>
<!-- Node9 -->
<g id="Node000009" class="node">
<title>Node9</title>
<g id="a_Node000009"><a xlink:href="classApp_1_1Http_1_1Controllers_1_1AdminController.html#a53a4f26c463340938bb86ee5d908d822" target="_top" xlink:title="Supprimer un projet.">
<polygon fill="white" stroke="#666666" points="187,-618 26,-618 26,-588 187,-588 187,-618"/>
<text text-anchor="start" x="34" y="-606" font-family="Helvetica,sans-Serif" font-size="10.00">App\Http\Controllers</text>
<text text-anchor="middle" x="106.5" y="-595" font-family="Helvetica,sans-Serif" font-size="10.00">\AdminController\deleteProjet</text>
</a>
</g>
</g>
<!-- Node1&#45;&gt;Node9 -->
<g id="edge8_Node000001_Node000009" class="edge">
<title>Node1&#45;&gt;Node9</title>
<g id="a_edge8_Node000001_Node000009"><a xlink:title=" ">
<path fill="none" stroke="#63b8ff" d="M302.84,-510.89C280.88,-532.65 247.62,-561.96 213,-579 204.91,-582.98 196.15,-586.32 187.24,-589.1"/>
<polygon fill="#63b8ff" stroke="#63b8ff" points="305.57,-513.11 310.12,-503.54 300.59,-508.19 305.57,-513.11"/>
</a>
</g>
</g>
<!-- Node10 -->
<g id="Node000010" class="node">
<title>Node10</title>
<g id="a_Node000010"><a xlink:href="classApp_1_1Http_1_1Controllers_1_1AdminController.html#ad985e4d699e7070910c61afa14033786" target="_top" xlink:title=" ">
<polygon fill="white" stroke="#666666" points="192.5,-570 20.5,-570 20.5,-540 192.5,-540 192.5,-570"/>
<text text-anchor="start" x="28.5" y="-558" font-family="Helvetica,sans-Serif" font-size="10.00">App\Http\Controllers</text>
<text text-anchor="middle" x="106.5" y="-547" font-family="Helvetica,sans-Serif" font-size="10.00">\AdminController\downloadLogs</text>
</a>
</g>
</g>
<!-- Node1&#45;&gt;Node10 -->
<g id="edge9_Node000001_Node000010" class="edge">
<title>Node1&#45;&gt;Node10</title>
<g id="a_edge9_Node000001_Node000010"><a xlink:title=" ">
<path fill="none" stroke="#63b8ff" d="M274.98,-507.57C255.68,-515.75 233.62,-524.44 213,-531 202.71,-534.27 191.72,-537.29 180.86,-539.99"/>
<polygon fill="#63b8ff" stroke="#63b8ff" points="276.4,-510.77 284.21,-503.61 273.64,-504.34 276.4,-510.77"/>
</a>
</g>
</g>
<!-- Node11 -->
<g id="Node000011" class="node">
<title>Node11</title>
<g id="a_Node000011"><a xlink:href="classApp_1_1Http_1_1Controllers_1_1AdminController.html#aac16e56b2b2e2d2ef8722e4ca1f47616" target="_top" xlink:title=" ">
<polygon fill="white" stroke="#666666" points="167.5,-522 45.5,-522 45.5,-492 167.5,-492 167.5,-522"/>
<text text-anchor="start" x="53.5" y="-510" font-family="Helvetica,sans-Serif" font-size="10.00">App\Http\Controllers</text>
<text text-anchor="middle" x="106.5" y="-499" font-family="Helvetica,sans-Serif" font-size="10.00">\AdminController\logs</text>
</a>
</g>
</g>
<!-- Node1&#45;&gt;Node11 -->
<g id="edge10_Node000001_Node000011" class="edge">
<title>Node1&#45;&gt;Node11</title>
<g id="a_edge10_Node000001_Node000011"><a xlink:title=" ">
<path fill="none" stroke="#63b8ff" d="M238.58,-492.8C214.72,-495.38 189.55,-498.11 167.71,-500.48"/>
<polygon fill="#63b8ff" stroke="#63b8ff" points="239.16,-496.26 248.72,-491.7 238.4,-489.3 239.16,-496.26"/>
</a>
</g>
</g>
<!-- Node12 -->
<g id="Node000012" class="node">
<title>Node12</title>
<g id="a_Node000012"><a xlink:href="classApp_1_1Http_1_1Controllers_1_1AdminController.html#acc6c1e0842abf33dc84f80e918ed3f26" target="_top" xlink:title="Gestion des projets.">
<polygon fill="white" stroke="#666666" points="174.5,-474 38.5,-474 38.5,-444 174.5,-444 174.5,-474"/>
<text text-anchor="start" x="46.5" y="-462" font-family="Helvetica,sans-Serif" font-size="10.00">App\Http\Controllers</text>
<text text-anchor="middle" x="106.5" y="-451" font-family="Helvetica,sans-Serif" font-size="10.00">\AdminController\projets</text>
</a>
</g>
</g>
<!-- Node1&#45;&gt;Node12 -->
<g id="edge11_Node000001_Node000012" class="edge">
<title>Node1&#45;&gt;Node12</title>
<g id="a_edge11_Node000001_Node000012"><a xlink:title=" ">
<path fill="none" stroke="#63b8ff" d="M238.66,-473.21C217.3,-470.9 194.88,-468.47 174.75,-466.29"/>
<polygon fill="#63b8ff" stroke="#63b8ff" points="238.4,-476.7 248.72,-474.3 239.16,-469.74 238.4,-476.7"/>
</a>
</g>
</g>
<!-- Node13 -->
<g id="Node000013" class="node">
<title>Node13</title>
<g id="a_Node000013"><a xlink:href="classApp_1_1Http_1_1Controllers_1_1AdminController.html#ac04f159f5297a0484abc22dd98101cff" target="_top" xlink:title=" ">
<polygon fill="white" stroke="#666666" points="190.5,-426 22.5,-426 22.5,-396 190.5,-396 190.5,-426"/>
<text text-anchor="start" x="30.5" y="-414" font-family="Helvetica,sans-Serif" font-size="10.00">App\Http\Controllers</text>
<text text-anchor="middle" x="106.5" y="-403" font-family="Helvetica,sans-Serif" font-size="10.00">\AdminController\reconciliation</text>
</a>
</g>
</g>
<!-- Node1&#45;&gt;Node13 -->
<g id="edge12_Node000001_Node000013" class="edge">
<title>Node1&#45;&gt;Node13</title>
<g id="a_edge12_Node000001_Node000013"><a xlink:title=" ">
<path fill="none" stroke="#63b8ff" d="M274.98,-458.43C255.68,-450.25 233.62,-441.56 213,-435 202.71,-431.73 191.72,-428.71 180.86,-426.01"/>
<polygon fill="#63b8ff" stroke="#63b8ff" points="273.64,-461.66 284.21,-462.39 276.4,-455.23 273.64,-461.66"/>
</a>
</g>
</g>
<!-- Node14 -->
<g id="Node000014" class="node">
<title>Node14</title>
<g id="a_Node000014"><a xlink:href="classApp_1_1Http_1_1Controllers_1_1AdminController.html#a04025e541dfdd35e10173eda5b52bfbd" target="_top" xlink:title=" ">
<polygon fill="white" stroke="#666666" points="183,-378 30,-378 30,-348 183,-348 183,-378"/>
<text text-anchor="start" x="38" y="-366" font-family="Helvetica,sans-Serif" font-size="10.00">App\Http\Controllers</text>
<text text-anchor="middle" x="106.5" y="-355" font-family="Helvetica,sans-Serif" font-size="10.00">\AdminController\runBackup</text>
</a>
</g>
</g>
<!-- Node1&#45;&gt;Node14 -->
<g id="edge13_Node000001_Node000014" class="edge">
<title>Node1&#45;&gt;Node14</title>
<g id="a_edge13_Node000001_Node000014"><a xlink:title=" ">
<path fill="none" stroke="#63b8ff" d="M302.84,-455.11C280.88,-433.35 247.62,-404.04 213,-387 203.65,-382.4 193.39,-378.66 183.06,-375.63"/>
<polygon fill="#63b8ff" stroke="#63b8ff" points="300.59,-457.81 310.12,-462.46 305.57,-452.89 300.59,-457.81"/>
</a>
</g>
</g>
<!-- Node15 -->
<g id="Node000015" class="node">
<title>Node15</title>
<g id="a_Node000015"><a xlink:href="classApp_1_1Http_1_1Controllers_1_1AdminController.html#ab2ff5cb7874dc07b27db64f63f68cd68" target="_top" xlink:title=" ">
<polygon fill="white" stroke="#666666" points="200,-330 13,-330 13,-300 200,-300 200,-330"/>
<text text-anchor="start" x="21" y="-318" font-family="Helvetica,sans-Serif" font-size="10.00">App\Http\Controllers</text>
<text text-anchor="middle" x="106.5" y="-307" font-family="Helvetica,sans-Serif" font-size="10.00">\AdminController\runReconciliation</text>
</a>
</g>
</g>
<!-- Node1&#45;&gt;Node15 -->
<g id="edge14_Node000001_Node000015" class="edge">
<title>Node1&#45;&gt;Node15</title>
<g id="a_edge14_Node000001_Node000015"><a xlink:title=" ">
<path fill="none" stroke="#63b8ff" d="M313.43,-453.62C294.29,-420.48 258.67,-367.52 213,-339 207.5,-335.57 201.57,-332.62 195.42,-330.1"/>
<polygon fill="#63b8ff" stroke="#63b8ff" points="310.42,-455.41 318.38,-462.4 316.52,-451.97 310.42,-455.41"/>
</a>
</g>
</g>
<!-- Node16 -->
<g id="Node000016" class="node">
<title>Node16</title>
<g id="a_Node000016"><a xlink:href="classApp_1_1Http_1_1Controllers_1_1AdminController.html#ab6297a2cede2f08d8c873f43540a26e4" target="_top" xlink:title=" ">
<polygon fill="white" stroke="#666666" points="187,-281.5 26,-281.5 26,-240.5 187,-240.5 187,-281.5"/>
<text text-anchor="start" x="34" y="-269.5" font-family="Helvetica,sans-Serif" font-size="10.00">App\Http\Controllers</text>
<text text-anchor="start" x="34" y="-258.5" font-family="Helvetica,sans-Serif" font-size="10.00">\AdminController\saveBackup</text>
<text text-anchor="middle" x="106.5" y="-247.5" font-family="Helvetica,sans-Serif" font-size="10.00">Settings</text>
</a>
</g>
</g>
<!-- Node1&#45;&gt;Node16 -->
<g id="edge15_Node000001_Node000016" class="edge">
<title>Node1&#45;&gt;Node16</title>
<g id="a_edge15_Node000001_Node000016"><a xlink:title=" ">
<path fill="none" stroke="#63b8ff" d="M318.9,-452.92C303.1,-410.44 268.45,-333.34 213,-291 205.28,-285.11 196.45,-280.37 187.26,-276.56"/>
<polygon fill="#63b8ff" stroke="#63b8ff" points="315.65,-454.22 322.34,-462.43 322.23,-451.84 315.65,-454.22"/>
</a>
</g>
</g>
<!-- Node17 -->
<g id="Node000017" class="node">
<title>Node17</title>
<g id="a_Node000017"><a xlink:href="classApp_1_1Http_1_1Controllers_1_1AdminController.html#aacc2b11a802e1b91daba8cc983e23ff5" target="_top" xlink:title=" ">
<polygon fill="white" stroke="#666666" points="177,-222 36,-222 36,-192 177,-192 177,-222"/>
<text text-anchor="start" x="44" y="-210" font-family="Helvetica,sans-Serif" font-size="10.00">App\Http\Controllers</text>
<text text-anchor="middle" x="106.5" y="-199" font-family="Helvetica,sans-Serif" font-size="10.00">\AdminController\settings</text>
</a>
</g>
</g>
<!-- Node1&#45;&gt;Node17 -->
<g id="edge16_Node000001_Node000017" class="edge">
<title>Node1&#45;&gt;Node17</title>
<g id="a_edge16_Node000001_Node000017"><a xlink:title=" ">
<path fill="none" stroke="#63b8ff" d="M323.82,-452.54C313.11,-399.3 283.39,-289.54 213,-232 202.73,-223.6 190.11,-217.93 177.22,-214.13"/>
<polygon fill="#63b8ff" stroke="#63b8ff" points="320.39,-453.24 325.72,-462.4 327.27,-451.92 320.39,-453.24"/>
</a>
</g>
</g>
<!-- Node18 -->
<g id="Node000018" class="node">
<title>Node18</title>
<g id="a_Node000018"><a xlink:href="classApp_1_1Http_1_1Controllers_1_1AdminController.html#a24f46bcb4ceee895dd7c29a73aa6ef95" target="_top" xlink:title="Mettre à jour les permissions d&#39;un utilisateur.">
<polygon fill="white" stroke="#666666" points="201.5,-174 11.5,-174 11.5,-144 201.5,-144 201.5,-174"/>
<text text-anchor="start" x="19.5" y="-162" font-family="Helvetica,sans-Serif" font-size="10.00">App\Http\Controllers</text>
<text text-anchor="middle" x="106.5" y="-151" font-family="Helvetica,sans-Serif" font-size="10.00">\AdminController\updatePermission</text>
</a>
</g>
</g>
<!-- Node1&#45;&gt;Node18 -->
<g id="edge17_Node000001_Node000018" class="edge">
<title>Node1&#45;&gt;Node18</title>
<g id="a_edge17_Node000001_Node000018"><a xlink:title=" ">
<path fill="none" stroke="#63b8ff" d="M326.39,-451.96C319.52,-390.72 295.3,-254.13 213,-183 209.02,-179.56 204.65,-176.59 200.02,-174.02"/>
<polygon fill="#63b8ff" stroke="#63b8ff" points="322.94,-452.56 327.45,-462.15 329.9,-451.84 322.94,-452.56"/>
</a>
</g>
</g>
<!-- Node19 -->
<g id="Node000019" class="node">
<title>Node19</title>
<g id="a_Node000019"><a xlink:href="classApp_1_1Http_1_1Controllers_1_1AdminController.html#a5977b084c3a2bb70d4df445dd3d01cb5" target="_top" xlink:title="Mettre à jour le rôle d&#39;un utilisateur.">
<polygon fill="white" stroke="#666666" points="185.5,-126 27.5,-126 27.5,-96 185.5,-96 185.5,-126"/>
<text text-anchor="start" x="35.5" y="-114" font-family="Helvetica,sans-Serif" font-size="10.00">App\Http\Controllers</text>
<text text-anchor="middle" x="106.5" y="-103" font-family="Helvetica,sans-Serif" font-size="10.00">\AdminController\updateRole</text>
</a>
</g>
</g>
<!-- Node1&#45;&gt;Node19 -->
<g id="edge18_Node000001_Node000019" class="edge">
<title>Node1&#45;&gt;Node19</title>
<g id="a_edge18_Node000001_Node000019"><a xlink:title=" ">
<path fill="none" stroke="#63b8ff" d="M328.31,-452.42C325.05,-384.52 307.28,-220.46 213,-135 205.14,-127.87 195.61,-122.72 185.53,-119.02"/>
<polygon fill="#63b8ff" stroke="#63b8ff" points="324.82,-452.61 328.72,-462.46 331.81,-452.33 324.82,-452.61"/>
</a>
</g>
</g>
<!-- Node20 -->
<g id="Node000020" class="node">
<title>Node20</title>
<g id="a_Node000020"><a xlink:href="classApp_1_1Http_1_1Controllers_1_1AdminController.html#a6f38af8b92f1669acb33e2314f7af015" target="_top" xlink:title="HANDLE SETTINGS UPDATE.">
<polygon fill="white" stroke="#666666" points="194.5,-78 18.5,-78 18.5,-48 194.5,-48 194.5,-78"/>
<text text-anchor="start" x="26.5" y="-66" font-family="Helvetica,sans-Serif" font-size="10.00">App\Http\Controllers</text>
<text text-anchor="middle" x="106.5" y="-55" font-family="Helvetica,sans-Serif" font-size="10.00">\AdminController\updateSettings</text>
</a>
</g>
</g>
<!-- Node1&#45;&gt;Node20 -->
<g id="edge19_Node000001_Node000020" class="edge">
<title>Node1&#45;&gt;Node20</title>
<g id="a_edge19_Node000001_Node000020"><a xlink:title=" ">
<path fill="none" stroke="#63b8ff" d="M329.76,-451.94C329.81,-377.29 318.94,-186.64 213,-87 207.6,-81.92 201.35,-77.83 194.64,-74.56"/>
<polygon fill="#63b8ff" stroke="#63b8ff" points="326.26,-452.06 329.69,-462.08 333.26,-452.11 326.26,-452.06"/>
</a>
</g>
</g>
<!-- Node21 -->
<g id="Node000021" class="node">
<title>Node21</title>
<g id="a_Node000021"><a xlink:href="classApp_1_1Http_1_1Controllers_1_1AdminController.html#af58acc179cf353eae60e5586f57fc9e8" target="_top" xlink:title=" ">
<polygon fill="white" stroke="#666666" points="170.5,-30 42.5,-30 42.5,0 170.5,0 170.5,-30"/>
<text text-anchor="start" x="50.5" y="-18" font-family="Helvetica,sans-Serif" font-size="10.00">App\Http\Controllers</text>
<text text-anchor="middle" x="106.5" y="-7" font-family="Helvetica,sans-Serif" font-size="10.00">\AdminController\users</text>
</a>
</g>
</g>
<!-- Node1&#45;&gt;Node21 -->
<g id="edge20_Node000001_Node000021" class="edge">
<title>Node1&#45;&gt;Node21</title>
<g id="a_edge20_Node000001_Node000021"><a xlink:title=" ">
<path fill="none" stroke="#63b8ff" d="M325.13,-452.3C313.09,-361.6 273.42,-97.53 213,-39 201.6,-27.96 186.23,-21.59 170.75,-18.01"/>
<polygon fill="#63b8ff" stroke="#63b8ff" points="321.7,-453.02 326.46,-462.48 328.64,-452.11 321.7,-453.02"/>
</a>
</g>
</g>
</g>
</svg>
