<?xml version="1.0" encoding="UTF-8" standalone="no"?>
<!DOCTYPE svg PUBLIC "-//W3C//DTD SVG 1.1//EN"
 "http://www.w3.org/Graphics/SVG/1.1/DTD/svg11.dtd">
<!-- Generated by graphviz version 2.42.4 (0)
 -->
<!-- Title: Tests\Feature\AdminControllerTest Pages: 1 -->
<svg width="189pt" height="434pt"
 viewBox="0.00 0.00 189.00 434.00" xmlns="http://www.w3.org/2000/svg" xmlns:xlink="http://www.w3.org/1999/xlink">
<g id="graph0" class="graph" transform="scale(1 1) rotate(0) translate(4 430)">
<title>Tests\Feature\AdminControllerTest</title>
<!-- Node1 -->
<g id="Node000001" class="node">
<title>Node1</title>
<g id="a_Node000001"><a xlink:title=" ">
<polygon fill="#999999" stroke="transparent" points="181,-256 0,-256 0,0 181,0 181,-256"/>
<text text-anchor="start" x="7.5" y="-244" font-family="Helvetica,sans-Serif" font-size="10.00">Tests\Feature\AdminControllerTest</text>
<text text-anchor="start" x="89" y="-229" font-family="Helvetica,sans-Serif" font-size="10.00"> </text>
<text text-anchor="start" x="4.5" y="-214" font-family="Helvetica,sans-Serif" font-size="10.00">+</text>
<text text-anchor="start" x="17.5" y="-214" font-family="Helvetica,sans-Serif" font-size="10.00">en_tant_que_admin</text>
<text text-anchor="start" x="17.5" y="-203" font-family="Helvetica,sans-Serif" font-size="10.00">_devrait_pouvoir_ajouter</text>
<text text-anchor="start" x="17.5" y="-192" font-family="Helvetica,sans-Serif" font-size="10.00">_un_professeur()</text>
<text text-anchor="start" x="4.5" y="-177" font-family="Helvetica,sans-Serif" font-size="10.00">+</text>
<text text-anchor="start" x="17.5" y="-177" font-family="Helvetica,sans-Serif" font-size="10.00">en_tant_que_admin</text>
<text text-anchor="start" x="17.5" y="-166" font-family="Helvetica,sans-Serif" font-size="10.00">_devrait_pouvoir_supprimer</text>
<text text-anchor="start" x="17.5" y="-155" font-family="Helvetica,sans-Serif" font-size="10.00">_un_professeur()</text>
<text text-anchor="start" x="4.5" y="-140" font-family="Helvetica,sans-Serif" font-size="10.00">+</text>
<text text-anchor="start" x="17.5" y="-140" font-family="Helvetica,sans-Serif" font-size="10.00">en_tant_que_admin</text>
<text text-anchor="start" x="17.5" y="-129" font-family="Helvetica,sans-Serif" font-size="10.00">_devrait_pouvoir_modifier</text>
<text text-anchor="start" x="17.5" y="-118" font-family="Helvetica,sans-Serif" font-size="10.00">_le_role_d_un_professeur()</text>
<text text-anchor="start" x="4.5" y="-103" font-family="Helvetica,sans-Serif" font-size="10.00">+</text>
<text text-anchor="start" x="17.5" y="-103" font-family="Helvetica,sans-Serif" font-size="10.00">en_tant_que_admin</text>
<text text-anchor="start" x="17.5" y="-92" font-family="Helvetica,sans-Serif" font-size="10.00">_devrait_pouvoir_ajouter</text>
<text text-anchor="start" x="17.5" y="-81" font-family="Helvetica,sans-Serif" font-size="10.00">_un_eleve_a_la_bd()</text>
<text text-anchor="start" x="4.5" y="-66" font-family="Helvetica,sans-Serif" font-size="10.00">+</text>
<text text-anchor="start" x="17.5" y="-66" font-family="Helvetica,sans-Serif" font-size="10.00">en_tant_que_admin</text>
<text text-anchor="start" x="17.5" y="-55" font-family="Helvetica,sans-Serif" font-size="10.00">_devrait_pouvoir_supprimer</text>
<text text-anchor="start" x="17.5" y="-44" font-family="Helvetica,sans-Serif" font-size="10.00">_un_eleve_de_la_bd()</text>
<text text-anchor="start" x="4.5" y="-29" font-family="Helvetica,sans-Serif" font-size="10.00">+</text>
<text text-anchor="start" x="17.5" y="-29" font-family="Helvetica,sans-Serif" font-size="10.00">en_tant_que_admin</text>
<text text-anchor="start" x="17.5" y="-18" font-family="Helvetica,sans-Serif" font-size="10.00">_devrait_pouvoir_ajouter</text>
<text text-anchor="start" x="17.5" y="-7" font-family="Helvetica,sans-Serif" font-size="10.00">_un_csv_a_la_base_de_donnee()</text>
<polygon fill="#666666" stroke="#666666" points="0.5,-239 0.5,-239 181.5,-239 181.5,-239 0.5,-239"/>
<polygon fill="#666666" stroke="#666666" points="0.5,-224 0.5,-224 181.5,-224 181.5,-224 0.5,-224"/>
<polygon fill="none" stroke="#666666" points="0,0 0,-256 181,-256 181,0 0,0"/>
</a>
</g>
</g>
<!-- Node2 -->
<g id="Node000002" class="node">
<title>Node2</title>
<g id="a_Node000002"><a xlink:href="classTests_1_1TestCase.html" target="_top" xlink:title=" ">
<polygon fill="white" stroke="transparent" points="131.5,-341 49.5,-341 49.5,-292 131.5,-292 131.5,-341"/>
<text text-anchor="start" x="54.5" y="-328.5" font-family="Helvetica,sans-Serif" font-size="10.00">Tests\TestCase</text>
<text text-anchor="start" x="88.5" y="-313.5" font-family="Helvetica,sans-Serif" font-size="10.00"> </text>
<text text-anchor="start" x="88.5" y="-298.5" font-family="Helvetica,sans-Serif" font-size="10.00"> </text>
<polygon fill="#666666" stroke="#666666" points="49.5,-323.5 49.5,-323.5 131.5,-323.5 131.5,-323.5 49.5,-323.5"/>
<polygon fill="#666666" stroke="#666666" points="49.5,-308.5 49.5,-308.5 131.5,-308.5 131.5,-308.5 49.5,-308.5"/>
<polygon fill="none" stroke="#666666" points="49.5,-292 49.5,-341 131.5,-341 131.5,-292 49.5,-292"/>
</a>
</g>
</g>
<!-- Node2&#45;&gt;Node1 -->
<g id="edge1_Node000001_Node000002" class="edge">
<title>Node2&#45;&gt;Node1</title>
<g id="a_edge1_Node000001_Node000002"><a xlink:title=" ">
<path fill="none" stroke="#63b8ff" d="M90.5,-281.66C90.5,-273.97 90.5,-265.35 90.5,-256.23"/>
<polygon fill="none" stroke="#63b8ff" points="87,-281.88 90.5,-291.88 94,-281.88 87,-281.88"/>
</a>
</g>
</g>
<!-- Node3 -->
<g id="Node000003" class="node">
<title>Node3</title>
<g id="a_Node000003"><a xlink:title=" ">
<polygon fill="white" stroke="transparent" points="129.5,-426 51.5,-426 51.5,-377 129.5,-377 129.5,-426"/>
<text text-anchor="start" x="56.5" y="-413.5" font-family="Helvetica,sans-Serif" font-size="10.00">BaseTestCase</text>
<text text-anchor="start" x="88.5" y="-398.5" font-family="Helvetica,sans-Serif" font-size="10.00"> </text>
<text text-anchor="start" x="88.5" y="-383.5" font-family="Helvetica,sans-Serif" font-size="10.00"> </text>
<polygon fill="#666666" stroke="#666666" points="51.5,-408.5 51.5,-408.5 129.5,-408.5 129.5,-408.5 51.5,-408.5"/>
<polygon fill="#666666" stroke="#666666" points="51.5,-393.5 51.5,-393.5 129.5,-393.5 129.5,-393.5 51.5,-393.5"/>
<polygon fill="none" stroke="#666666" points="51.5,-377 51.5,-426 129.5,-426 129.5,-377 51.5,-377"/>
</a>
</g>
</g>
<!-- Node3&#45;&gt;Node2 -->
<g id="edge2_Node000002_Node000003" class="edge">
<title>Node3&#45;&gt;Node2</title>
<g id="a_edge2_Node000002_Node000003"><a xlink:title=" ">
<path fill="none" stroke="#63b8ff" d="M90.5,-366.77C90.5,-358.17 90.5,-349.1 90.5,-341.12"/>
<polygon fill="none" stroke="#63b8ff" points="87,-366.94 90.5,-376.94 94,-366.94 87,-366.94"/>
</a>
</g>
</g>
</g>
</svg>
