<?xml version="1.0" encoding="UTF-8" standalone="no"?>
<!DOCTYPE svg PUBLIC "-//W3C//DTD SVG 1.1//EN"
 "http://www.w3.org/Graphics/SVG/1.1/DTD/svg11.dtd">
<!-- Generated by graphviz version 2.42.4 (0)
 -->
<!-- Title: Tests\Feature\MediaThumbnailServiceTest\initializeService Pages: 1 -->
<svg width="398pt" height="460pt"
 viewBox="0.00 0.00 398.00 460.00" xmlns="http://www.w3.org/2000/svg" xmlns:xlink="http://www.w3.org/1999/xlink">
<g id="graph0" class="graph" transform="scale(1 1) rotate(0) translate(4 456)">
<title>Tests\Feature\MediaThumbnailServiceTest\initializeService</title>
<!-- Node1 -->
<g id="Node000001" class="node">
<title>Node1</title>
<g id="a_Node000001"><a xlink:title="Helper pour initialiser les propriétés protégées du service.">
<polygon fill="#999999" stroke="#666666" points="390,-241 224,-241 224,-211 390,-211 390,-241"/>
<text text-anchor="start" x="232" y="-229" font-family="Helvetica,sans-Serif" font-size="10.00">Tests\Feature\MediaThumbnail</text>
<text text-anchor="middle" x="307" y="-218" font-family="Helvetica,sans-Serif" font-size="10.00">ServiceTest\initializeService</text>
</a>
</g>
</g>
<!-- Node2 -->
<g id="Node000002" class="node">
<title>Node2</title>
<g id="a_Node000002"><a xlink:href="classTests_1_1Feature_1_1MediaThumbnailServiceTest.html#a282d3875de9b294e907167983f6cd431" target="_top" xlink:title=" ">
<polygon fill="white" stroke="#666666" points="177,-452 11,-452 11,-400 177,-400 177,-452"/>
<text text-anchor="start" x="19" y="-440" font-family="Helvetica,sans-Serif" font-size="10.00">Tests\Feature\MediaThumbnail</text>
<text text-anchor="start" x="19" y="-429" font-family="Helvetica,sans-Serif" font-size="10.00">ServiceTest\it_correctly</text>
<text text-anchor="start" x="19" y="-418" font-family="Helvetica,sans-Serif" font-size="10.00">_builds_ftp_url_from_arch</text>
<text text-anchor="middle" x="94" y="-407" font-family="Helvetica,sans-Serif" font-size="10.00">_and_pad_disks</text>
</a>
</g>
</g>
<!-- Node1&#45;&gt;Node2 -->
<g id="edge1_Node000001_Node000002" class="edge">
<title>Node1&#45;&gt;Node2</title>
<g id="a_edge1_Node000001_Node000002"><a xlink:title=" ">
<path fill="none" stroke="#63b8ff" d="M294.56,-250.2C276.6,-285.78 238.55,-352.18 188,-391 183.76,-394.26 179.18,-397.24 174.41,-399.96"/>
<polygon fill="#63b8ff" stroke="#63b8ff" points="297.8,-251.55 299.09,-241.03 291.52,-248.45 297.8,-251.55"/>
</a>
</g>
</g>
<!-- Node3 -->
<g id="Node000003" class="node">
<title>Node3</title>
<g id="a_Node000003"><a xlink:href="classTests_1_1Feature_1_1MediaThumbnailServiceTest.html#a43ad963f470f95c37b2fb3ce823f5923" target="_top" xlink:title=" ">
<polygon fill="white" stroke="#666666" points="177.5,-381.5 10.5,-381.5 10.5,-340.5 177.5,-340.5 177.5,-381.5"/>
<text text-anchor="start" x="18.5" y="-369.5" font-family="Helvetica,sans-Serif" font-size="10.00">Tests\Feature\MediaThumbnail</text>
<text text-anchor="start" x="18.5" y="-358.5" font-family="Helvetica,sans-Serif" font-size="10.00">ServiceTest\it_deletes_existing</text>
<text text-anchor="middle" x="94" y="-347.5" font-family="Helvetica,sans-Serif" font-size="10.00">_thumbnail_file_successfully</text>
</a>
</g>
</g>
<!-- Node1&#45;&gt;Node3 -->
<g id="edge2_Node000001_Node000003" class="edge">
<title>Node1&#45;&gt;Node3</title>
<g id="a_edge2_Node000001_Node000003"><a xlink:title=" ">
<path fill="none" stroke="#63b8ff" d="M286.16,-248.49C264.26,-272.08 226.92,-308.74 188,-331 181.96,-334.45 175.47,-337.57 168.83,-340.37"/>
<polygon fill="#63b8ff" stroke="#63b8ff" points="288.82,-250.78 292.98,-241.04 283.65,-246.06 288.82,-250.78"/>
</a>
</g>
</g>
<!-- Node4 -->
<g id="Node000004" class="node">
<title>Node4</title>
<g id="a_Node000004"><a xlink:href="classTests_1_1Feature_1_1MediaThumbnailServiceTest.html#aff51e145c96ee5fd40e06b592ef99616" target="_top" xlink:title=" ">
<polygon fill="white" stroke="#666666" points="177,-322 11,-322 11,-270 177,-270 177,-322"/>
<text text-anchor="start" x="19" y="-310" font-family="Helvetica,sans-Serif" font-size="10.00">Tests\Feature\MediaThumbnail</text>
<text text-anchor="start" x="19" y="-299" font-family="Helvetica,sans-Serif" font-size="10.00">ServiceTest\it_generates</text>
<text text-anchor="start" x="19" y="-288" font-family="Helvetica,sans-Serif" font-size="10.00">_thumbnail_from_local_video</text>
<text text-anchor="middle" x="94" y="-277" font-family="Helvetica,sans-Serif" font-size="10.00">_file_when_forced</text>
</a>
</g>
</g>
<!-- Node1&#45;&gt;Node4 -->
<g id="edge3_Node000001_Node000004" class="edge">
<title>Node1&#45;&gt;Node4</title>
<g id="a_edge3_Node000001_Node000004"><a xlink:title=" ">
<path fill="none" stroke="#63b8ff" d="M251.21,-244.18C227.49,-252.05 199.29,-261.4 173.42,-269.98"/>
<polygon fill="#63b8ff" stroke="#63b8ff" points="252.35,-247.49 260.74,-241.02 250.14,-240.84 252.35,-247.49"/>
</a>
</g>
</g>
<!-- Node5 -->
<g id="Node000005" class="node">
<title>Node5</title>
<g id="a_Node000005"><a xlink:href="classTests_1_1Feature_1_1MediaThumbnailServiceTest.html#a9d4bc50559be10557da600e53f4bddcb" target="_top" xlink:title=" ">
<polygon fill="white" stroke="#666666" points="181,-252 7,-252 7,-200 181,-200 181,-252"/>
<text text-anchor="start" x="15" y="-240" font-family="Helvetica,sans-Serif" font-size="10.00">Tests\Feature\MediaThumbnail</text>
<text text-anchor="start" x="15" y="-229" font-family="Helvetica,sans-Serif" font-size="10.00">ServiceTest\it_regenerates</text>
<text text-anchor="start" x="15" y="-218" font-family="Helvetica,sans-Serif" font-size="10.00">_missing_thumbnails_and_skips</text>
<text text-anchor="middle" x="94" y="-207" font-family="Helvetica,sans-Serif" font-size="10.00">_existing_ones</text>
</a>
</g>
</g>
<!-- Node1&#45;&gt;Node5 -->
<g id="edge4_Node000001_Node000005" class="edge">
<title>Node1&#45;&gt;Node5</title>
<g id="a_edge4_Node000001_Node000005"><a xlink:title=" ">
<path fill="none" stroke="#63b8ff" d="M213.56,-226C202.78,-226 191.82,-226 181.14,-226"/>
<polygon fill="#63b8ff" stroke="#63b8ff" points="213.82,-229.5 223.82,-226 213.82,-222.5 213.82,-229.5"/>
</a>
</g>
</g>
<!-- Node6 -->
<g id="Node000006" class="node">
<title>Node6</title>
<g id="a_Node000006"><a xlink:href="classTests_1_1Feature_1_1MediaThumbnailServiceTest.html#a64c9d33832f54b88684145fc2c4af012" target="_top" xlink:title=" ">
<polygon fill="white" stroke="#666666" points="184.5,-182 3.5,-182 3.5,-130 184.5,-130 184.5,-182"/>
<text text-anchor="start" x="11.5" y="-170" font-family="Helvetica,sans-Serif" font-size="10.00">Tests\Feature\MediaThumbnail</text>
<text text-anchor="start" x="11.5" y="-159" font-family="Helvetica,sans-Serif" font-size="10.00">ServiceTest\it_returns_existing</text>
<text text-anchor="start" x="11.5" y="-148" font-family="Helvetica,sans-Serif" font-size="10.00">_thumbnail_without_regenerating</text>
<text text-anchor="middle" x="94" y="-137" font-family="Helvetica,sans-Serif" font-size="10.00">_when_force_is_false</text>
</a>
</g>
</g>
<!-- Node1&#45;&gt;Node6 -->
<g id="edge5_Node000001_Node000006" class="edge">
<title>Node1&#45;&gt;Node6</title>
<g id="a_edge5_Node000001_Node000006"><a xlink:title=" ">
<path fill="none" stroke="#63b8ff" d="M251.21,-207.82C227.49,-199.95 199.29,-190.6 173.42,-182.02"/>
<polygon fill="#63b8ff" stroke="#63b8ff" points="250.14,-211.16 260.74,-210.98 252.35,-204.51 250.14,-211.16"/>
</a>
</g>
</g>
<!-- Node7 -->
<g id="Node000007" class="node">
<title>Node7</title>
<g id="a_Node000007"><a xlink:href="classTests_1_1Feature_1_1MediaThumbnailServiceTest.html#a2a304cacdc02375138fabc543ebe7cec" target="_top" xlink:title=" ">
<polygon fill="white" stroke="#666666" points="188,-111.5 0,-111.5 0,-70.5 188,-70.5 188,-111.5"/>
<text text-anchor="start" x="8" y="-99.5" font-family="Helvetica,sans-Serif" font-size="10.00">Tests\Feature\MediaThumbnail</text>
<text text-anchor="start" x="8" y="-88.5" font-family="Helvetica,sans-Serif" font-size="10.00">ServiceTest\it_returns_null</text>
<text text-anchor="middle" x="94" y="-77.5" font-family="Helvetica,sans-Serif" font-size="10.00">_when_no_video_path_is_available</text>
</a>
</g>
</g>
<!-- Node1&#45;&gt;Node7 -->
<g id="edge6_Node000001_Node000007" class="edge">
<title>Node1&#45;&gt;Node7</title>
<g id="a_edge6_Node000001_Node000007"><a xlink:title=" ">
<path fill="none" stroke="#63b8ff" d="M286.16,-203.51C264.26,-179.92 226.92,-143.26 188,-121 181.96,-117.55 175.47,-114.43 168.83,-111.63"/>
<polygon fill="#63b8ff" stroke="#63b8ff" points="283.65,-205.94 292.98,-210.96 288.82,-201.22 283.65,-205.94"/>
</a>
</g>
</g>
<!-- Node8 -->
<g id="Node000008" class="node">
<title>Node8</title>
<g id="a_Node000008"><a xlink:href="classTests_1_1Feature_1_1MediaThumbnailServiceTest.html#aad0803e7c150380319e60ef2163a76dd" target="_top" xlink:title=" ">
<polygon fill="white" stroke="#666666" points="180.5,-52 7.5,-52 7.5,0 180.5,0 180.5,-52"/>
<text text-anchor="start" x="15.5" y="-40" font-family="Helvetica,sans-Serif" font-size="10.00">Tests\Feature\MediaThumbnail</text>
<text text-anchor="start" x="15.5" y="-29" font-family="Helvetica,sans-Serif" font-size="10.00">ServiceTest\it_returns_true</text>
<text text-anchor="start" x="15.5" y="-18" font-family="Helvetica,sans-Serif" font-size="10.00">_when_deleting_thumbnail_that</text>
<text text-anchor="middle" x="94" y="-7" font-family="Helvetica,sans-Serif" font-size="10.00">_does_not_exist</text>
</a>
</g>
</g>
<!-- Node1&#45;&gt;Node8 -->
<g id="edge7_Node000001_Node000008" class="edge">
<title>Node1&#45;&gt;Node8</title>
<g id="a_edge7_Node000001_Node000008"><a xlink:title=" ">
<path fill="none" stroke="#63b8ff" d="M294.2,-201.47C276.02,-166.06 237.97,-100.64 188,-62 183.34,-58.4 178.28,-55.12 173.01,-52.14"/>
<polygon fill="#63b8ff" stroke="#63b8ff" points="291.18,-203.25 298.8,-210.62 297.44,-200.11 291.18,-203.25"/>
</a>
</g>
</g>
</g>
</svg>
