<?xml version="1.0" encoding="UTF-8" standalone="no"?>
<!DOCTYPE svg PUBLIC "-//W3C//DTD SVG 1.1//EN"
 "http://www.w3.org/Graphics/SVG/1.1/DTD/svg11.dtd">
<!-- Generated by graphviz version 2.42.4 (0)
 -->
<!-- Title: App\Http\Controllers\Controller Pages: 1 -->
<svg width="2354pt" height="399pt"
 viewBox="0.00 0.00 2353.50 399.00" xmlns="http://www.w3.org/2000/svg" xmlns:xlink="http://www.w3.org/1999/xlink">
<g id="graph0" class="graph" transform="scale(1 1) rotate(0) translate(4 395)">
<title>App\Http\Controllers\Controller</title>
<!-- Node1 -->
<g id="Node000001" class="node">
<title>Node1</title>
<g id="a_Node000001"><a xlink:title=" ">
<polygon fill="#999999" stroke="transparent" points="1257,-391 1147,-391 1147,-331 1257,-331 1257,-391"/>
<text text-anchor="start" x="1152" y="-379" font-family="Helvetica,sans-Serif" font-size="10.00">App\Http\Controllers</text>
<text text-anchor="start" x="1176" y="-368" font-family="Helvetica,sans-Serif" font-size="10.00">\Controller</text>
<text text-anchor="start" x="1200" y="-353" font-family="Helvetica,sans-Serif" font-size="10.00"> </text>
<text text-anchor="start" x="1200" y="-338" font-family="Helvetica,sans-Serif" font-size="10.00"> </text>
<polygon fill="#666666" stroke="#666666" points="1147,-363 1147,-363 1257,-363 1257,-363 1147,-363"/>
<polygon fill="#666666" stroke="#666666" points="1147,-348 1147,-348 1257,-348 1257,-348 1147,-348"/>
<polygon fill="none" stroke="#666666" points="1147,-331 1147,-391 1257,-391 1257,-331 1147,-331"/>
</a>
</g>
</g>
<!-- Node2 -->
<g id="Node000002" class="node">
<title>Node2</title>
<g id="a_Node000002"><a xlink:href="classApp_1_1Http_1_1Controllers_1_1AdminController.html" target="_top" xlink:title=" ">
<polygon fill="white" stroke="transparent" points="148,-295 0,-295 0,0 148,0 148,-295"/>
<text text-anchor="start" x="24" y="-282.5" font-family="Helvetica,sans-Serif" font-size="10.00">App\Http\Controllers</text>
<text text-anchor="start" x="32.5" y="-271.5" font-family="Helvetica,sans-Serif" font-size="10.00">\AdminController</text>
<text text-anchor="start" x="72" y="-256.5" font-family="Helvetica,sans-Serif" font-size="10.00"> </text>
<text text-anchor="start" x="4" y="-241.5" font-family="Helvetica,sans-Serif" font-size="10.00">+</text>
<text text-anchor="start" x="17" y="-241.5" font-family="Helvetica,sans-Serif" font-size="10.00">settings()</text>
<text text-anchor="start" x="4" y="-226.5" font-family="Helvetica,sans-Serif" font-size="10.00">+</text>
<text text-anchor="start" x="17" y="-226.5" font-family="Helvetica,sans-Serif" font-size="10.00">updateSettings(Request</text>
<text text-anchor="start" x="17" y="-215.5" font-family="Helvetica,sans-Serif" font-size="10.00"> $request)</text>
<text text-anchor="start" x="4" y="-200.5" font-family="Helvetica,sans-Serif" font-size="10.00">+</text>
<text text-anchor="start" x="17" y="-200.5" font-family="Helvetica,sans-Serif" font-size="10.00">logs()</text>
<text text-anchor="start" x="4" y="-185.5" font-family="Helvetica,sans-Serif" font-size="10.00">+</text>
<text text-anchor="start" x="17" y="-185.5" font-family="Helvetica,sans-Serif" font-size="10.00">users()</text>
<text text-anchor="start" x="4" y="-170.5" font-family="Helvetica,sans-Serif" font-size="10.00">+</text>
<text text-anchor="start" x="17" y="-170.5" font-family="Helvetica,sans-Serif" font-size="10.00">createProfesseur(Request</text>
<text text-anchor="start" x="17" y="-159.5" font-family="Helvetica,sans-Serif" font-size="10.00"> $request)</text>
<text text-anchor="start" x="4" y="-144.5" font-family="Helvetica,sans-Serif" font-size="10.00">+</text>
<text text-anchor="start" x="17" y="-144.5" font-family="Helvetica,sans-Serif" font-size="10.00">deleteProfesseur($id)</text>
<text text-anchor="start" x="4" y="-129.5" font-family="Helvetica,sans-Serif" font-size="10.00">+</text>
<text text-anchor="start" x="17" y="-129.5" font-family="Helvetica,sans-Serif" font-size="10.00">createEleve(Request</text>
<text text-anchor="start" x="17" y="-118.5" font-family="Helvetica,sans-Serif" font-size="10.00"> $request)</text>
<text text-anchor="start" x="4" y="-103.5" font-family="Helvetica,sans-Serif" font-size="10.00">+</text>
<text text-anchor="start" x="17" y="-103.5" font-family="Helvetica,sans-Serif" font-size="10.00">deleteEleve($id)</text>
<text text-anchor="start" x="4" y="-88.5" font-family="Helvetica,sans-Serif" font-size="10.00">+</text>
<text text-anchor="start" x="17" y="-88.5" font-family="Helvetica,sans-Serif" font-size="10.00">projets()</text>
<text text-anchor="start" x="4" y="-73.5" font-family="Helvetica,sans-Serif" font-size="10.00">+</text>
<text text-anchor="start" x="17" y="-73.5" font-family="Helvetica,sans-Serif" font-size="10.00">createProjet(Request</text>
<text text-anchor="start" x="17" y="-62.5" font-family="Helvetica,sans-Serif" font-size="10.00"> $request)</text>
<text text-anchor="start" x="17" y="-47.5" font-family="Helvetica,sans-Serif" font-size="10.00">et 10 de plus...</text>
<text text-anchor="start" x="6.5" y="-32.5" font-family="Helvetica,sans-Serif" font-size="10.00">&#45;</text>
<text text-anchor="start" x="17" y="-32.5" font-family="Helvetica,sans-Serif" font-size="10.00">checkAdminAccess()</text>
<text text-anchor="start" x="6.5" y="-17.5" font-family="Helvetica,sans-Serif" font-size="10.00">&#45;</text>
<text text-anchor="start" x="17" y="-17.5" font-family="Helvetica,sans-Serif" font-size="10.00">updateEnvFile(array</text>
<text text-anchor="start" x="17" y="-6.5" font-family="Helvetica,sans-Serif" font-size="10.00"> $values)</text>
<polygon fill="#666666" stroke="#666666" points="0,-266.5 0,-266.5 148,-266.5 148,-266.5 0,-266.5"/>
<polygon fill="#666666" stroke="#666666" points="0,-251.5 0,-251.5 148,-251.5 148,-251.5 0,-251.5"/>
<polygon fill="none" stroke="#666666" points="0,0 0,-295 148,-295 148,0 0,0"/>
</a>
</g>
</g>
<!-- Node1&#45;&gt;Node2 -->
<g id="edge1_Node000001_Node000002" class="edge">
<title>Node1&#45;&gt;Node2</title>
<g id="a_edge1_Node000001_Node000002"><a xlink:title=" ">
<path fill="none" stroke="#63b8ff" d="M1136.49,-359.52C920.48,-357.43 239.84,-346.79 157,-295 153.9,-293.06 150.91,-290.97 148.02,-288.73"/>
<polygon fill="none" stroke="#63b8ff" points="1136.69,-363.02 1146.72,-359.61 1136.75,-356.02 1136.69,-363.02"/>
</a>
</g>
</g>
<!-- Node3 -->
<g id="Node000003" class="node">
<title>Node3</title>
<g id="a_Node000003"><a xlink:href="classApp_1_1Http_1_1Controllers_1_1Auth_1_1AuthenticatedSessionController.html" target="_top" xlink:title=" ">
<polygon fill="white" stroke="transparent" points="359.5,-198 166.5,-198 166.5,-97 359.5,-97 359.5,-198"/>
<text text-anchor="start" x="172" y="-185.5" font-family="Helvetica,sans-Serif" font-size="10.00">App\Http\Controllers</text>
<text text-anchor="start" x="172" y="-174.5" font-family="Helvetica,sans-Serif" font-size="10.00">\Auth\AuthenticatedSessionController</text>
<text text-anchor="start" x="261.5" y="-159.5" font-family="Helvetica,sans-Serif" font-size="10.00"> </text>
<text text-anchor="start" x="181.5" y="-144.5" font-family="Helvetica,sans-Serif" font-size="10.00">+</text>
<text text-anchor="start" x="205" y="-144.5" font-family="Helvetica,sans-Serif" font-size="10.00">create()</text>
<text text-anchor="start" x="181.5" y="-129.5" font-family="Helvetica,sans-Serif" font-size="10.00">+</text>
<text text-anchor="start" x="205" y="-129.5" font-family="Helvetica,sans-Serif" font-size="10.00">store(LoginRequest</text>
<text text-anchor="start" x="205" y="-118.5" font-family="Helvetica,sans-Serif" font-size="10.00"> $request)</text>
<text text-anchor="start" x="181.5" y="-103.5" font-family="Helvetica,sans-Serif" font-size="10.00">+</text>
<text text-anchor="start" x="205" y="-103.5" font-family="Helvetica,sans-Serif" font-size="10.00">destroy(Request $request)</text>
<polygon fill="#666666" stroke="#666666" points="167,-169.5 167,-169.5 360,-169.5 360,-169.5 167,-169.5"/>
<polygon fill="#666666" stroke="#666666" points="167,-154.5 167,-154.5 360,-154.5 360,-154.5 167,-154.5"/>
<polygon fill="none" stroke="#666666" points="166.5,-97 166.5,-198 359.5,-198 359.5,-97 166.5,-97"/>
</a>
</g>
</g>
<!-- Node1&#45;&gt;Node3 -->
<g id="edge2_Node000001_Node000003" class="edge">
<title>Node1&#45;&gt;Node3</title>
<g id="a_edge2_Node000001_Node000003"><a xlink:title=" ">
<path fill="none" stroke="#63b8ff" d="M1136.76,-358.07C952.01,-352.16 434.35,-332.41 368,-295 329.84,-273.49 302.01,-231.69 284.63,-198.23"/>
<polygon fill="none" stroke="#63b8ff" points="1136.77,-361.57 1146.87,-358.39 1136.99,-354.57 1136.77,-361.57"/>
</a>
</g>
</g>
<!-- Node4 -->
<g id="Node000004" class="node">
<title>Node4</title>
<g id="a_Node000004"><a xlink:href="classApp_1_1Http_1_1Controllers_1_1Auth_1_1NewPasswordController.html" target="_top" xlink:title=" ">
<polygon fill="white" stroke="transparent" points="532.5,-185 377.5,-185 377.5,-110 532.5,-110 532.5,-185"/>
<text text-anchor="start" x="383" y="-172.5" font-family="Helvetica,sans-Serif" font-size="10.00">App\Http\Controllers</text>
<text text-anchor="start" x="383" y="-161.5" font-family="Helvetica,sans-Serif" font-size="10.00">\Auth\NewPasswordController</text>
<text text-anchor="start" x="453.5" y="-146.5" font-family="Helvetica,sans-Serif" font-size="10.00"> </text>
<text text-anchor="start" x="384.5" y="-131.5" font-family="Helvetica,sans-Serif" font-size="10.00">+</text>
<text text-anchor="start" x="400" y="-131.5" font-family="Helvetica,sans-Serif" font-size="10.00">create(Request $request)</text>
<text text-anchor="start" x="384.5" y="-116.5" font-family="Helvetica,sans-Serif" font-size="10.00">+</text>
<text text-anchor="start" x="400" y="-116.5" font-family="Helvetica,sans-Serif" font-size="10.00">store(Request $request)</text>
<polygon fill="#666666" stroke="#666666" points="378,-156.5 378,-156.5 533,-156.5 533,-156.5 378,-156.5"/>
<polygon fill="#666666" stroke="#666666" points="378,-141.5 378,-141.5 533,-141.5 533,-141.5 378,-141.5"/>
<polygon fill="none" stroke="#666666" points="377.5,-110 377.5,-185 532.5,-185 532.5,-110 377.5,-110"/>
</a>
</g>
</g>
<!-- Node1&#45;&gt;Node4 -->
<g id="edge3_Node000001_Node000004" class="edge">
<title>Node1&#45;&gt;Node4</title>
<g id="a_edge3_Node000001_Node000004"><a xlink:title=" ">
<path fill="none" stroke="#63b8ff" d="M1136.79,-360.89C990.14,-361.75 639.54,-357.04 542,-295 502.44,-269.84 478.52,-219.67 466.03,-185.11"/>
<polygon fill="none" stroke="#63b8ff" points="1137.02,-364.39 1146.99,-360.82 1136.97,-357.39 1137.02,-364.39"/>
</a>
</g>
</g>
<!-- Node5 -->
<g id="Node000005" class="node">
<title>Node5</title>
<g id="a_Node000005"><a xlink:href="classApp_1_1Http_1_1Controllers_1_1Auth_1_1PasswordController.html" target="_top" xlink:title=" ">
<polygon fill="white" stroke="transparent" points="699,-177.5 551,-177.5 551,-117.5 699,-117.5 699,-177.5"/>
<text text-anchor="start" x="563.5" y="-165.5" font-family="Helvetica,sans-Serif" font-size="10.00">App\Http\Controllers</text>
<text text-anchor="start" x="563.5" y="-154.5" font-family="Helvetica,sans-Serif" font-size="10.00">\Auth\PasswordController</text>
<text text-anchor="start" x="623" y="-139.5" font-family="Helvetica,sans-Serif" font-size="10.00"> </text>
<text text-anchor="start" x="555" y="-124.5" font-family="Helvetica,sans-Serif" font-size="10.00">+</text>
<text text-anchor="start" x="568" y="-124.5" font-family="Helvetica,sans-Serif" font-size="10.00">update(Request $request)</text>
<polygon fill="#666666" stroke="#666666" points="551,-149.5 551,-149.5 699,-149.5 699,-149.5 551,-149.5"/>
<polygon fill="#666666" stroke="#666666" points="551,-134.5 551,-134.5 699,-134.5 699,-134.5 551,-134.5"/>
<polygon fill="none" stroke="#666666" points="551,-117.5 551,-177.5 699,-177.5 699,-117.5 551,-117.5"/>
</a>
</g>
</g>
<!-- Node1&#45;&gt;Node5 -->
<g id="edge4_Node000001_Node000005" class="edge">
<title>Node1&#45;&gt;Node5</title>
<g id="a_edge4_Node000001_Node000005"><a xlink:title=" ">
<path fill="none" stroke="#63b8ff" d="M1136.3,-358.5C1018.35,-354.66 776.58,-341.23 708,-295 666.79,-267.22 643.71,-211.73 632.86,-177.59"/>
<polygon fill="none" stroke="#63b8ff" points="1136.53,-362.01 1146.64,-358.82 1136.75,-355.01 1136.53,-362.01"/>
</a>
</g>
</g>
<!-- Node6 -->
<g id="Node000006" class="node">
<title>Node6</title>
<g id="a_Node000006"><a xlink:href="classApp_1_1Http_1_1Controllers_1_1Auth_1_1RegisteredUserController.html" target="_top" xlink:title=" ">
<polygon fill="white" stroke="transparent" points="879,-185 717,-185 717,-110 879,-110 879,-185"/>
<text text-anchor="start" x="722" y="-172.5" font-family="Helvetica,sans-Serif" font-size="10.00">App\Http\Controllers</text>
<text text-anchor="start" x="722" y="-161.5" font-family="Helvetica,sans-Serif" font-size="10.00">\Auth\RegisteredUserController</text>
<text text-anchor="start" x="796" y="-146.5" font-family="Helvetica,sans-Serif" font-size="10.00"> </text>
<text text-anchor="start" x="726.5" y="-131.5" font-family="Helvetica,sans-Serif" font-size="10.00">+</text>
<text text-anchor="start" x="745" y="-131.5" font-family="Helvetica,sans-Serif" font-size="10.00">create()</text>
<text text-anchor="start" x="726.5" y="-116.5" font-family="Helvetica,sans-Serif" font-size="10.00">+</text>
<text text-anchor="start" x="745" y="-116.5" font-family="Helvetica,sans-Serif" font-size="10.00">store(Request $request)</text>
<polygon fill="#666666" stroke="#666666" points="717,-156.5 717,-156.5 879,-156.5 879,-156.5 717,-156.5"/>
<polygon fill="#666666" stroke="#666666" points="717,-141.5 717,-141.5 879,-141.5 879,-141.5 717,-141.5"/>
<polygon fill="none" stroke="#666666" points="717,-110 717,-185 879,-185 879,-110 717,-110"/>
</a>
</g>
</g>
<!-- Node1&#45;&gt;Node6 -->
<g id="edge5_Node000001_Node000006" class="edge">
<title>Node1&#45;&gt;Node6</title>
<g id="a_edge5_Node000001_Node000006"><a xlink:title=" ">
<path fill="none" stroke="#63b8ff" d="M1136.95,-352.67C1057.1,-342.65 927.44,-322.68 888,-295 849.64,-268.08 824.48,-219.07 810.76,-185.2"/>
<polygon fill="none" stroke="#63b8ff" points="1136.55,-356.15 1146.91,-353.91 1137.41,-349.2 1136.55,-356.15"/>
</a>
</g>
</g>
<!-- Node7 -->
<g id="Node000007" class="node">
<title>Node7</title>
<g id="a_Node000007"><a xlink:href="classApp_1_1Http_1_1Controllers_1_1DocumentationController.html" target="_top" xlink:title=" ">
<polygon fill="white" stroke="transparent" points="1034.5,-267.5 897.5,-267.5 897.5,-27.5 1034.5,-27.5 1034.5,-267.5"/>
<text text-anchor="start" x="903" y="-255.5" font-family="Helvetica,sans-Serif" font-size="10.00">App\Http\Controllers</text>
<text text-anchor="start" x="903" y="-244.5" font-family="Helvetica,sans-Serif" font-size="10.00">\DocumentationController</text>
<text text-anchor="start" x="964.5" y="-229.5" font-family="Helvetica,sans-Serif" font-size="10.00"> </text>
<text text-anchor="start" x="903.5" y="-214.5" font-family="Helvetica,sans-Serif" font-size="10.00">+</text>
<text text-anchor="start" x="918" y="-214.5" font-family="Helvetica,sans-Serif" font-size="10.00">index()</text>
<text text-anchor="start" x="903.5" y="-199.5" font-family="Helvetica,sans-Serif" font-size="10.00">+</text>
<text text-anchor="start" x="918" y="-199.5" font-family="Helvetica,sans-Serif" font-size="10.00">gettingStarted()</text>
<text text-anchor="start" x="903.5" y="-184.5" font-family="Helvetica,sans-Serif" font-size="10.00">+</text>
<text text-anchor="start" x="918" y="-184.5" font-family="Helvetica,sans-Serif" font-size="10.00">interfaceHomePage()</text>
<text text-anchor="start" x="903.5" y="-169.5" font-family="Helvetica,sans-Serif" font-size="10.00">+</text>
<text text-anchor="start" x="918" y="-169.5" font-family="Helvetica,sans-Serif" font-size="10.00">interfaceNavbar()</text>
<text text-anchor="start" x="903.5" y="-154.5" font-family="Helvetica,sans-Serif" font-size="10.00">+</text>
<text text-anchor="start" x="918" y="-154.5" font-family="Helvetica,sans-Serif" font-size="10.00">interfaceVideoPlayer()</text>
<text text-anchor="start" x="903.5" y="-139.5" font-family="Helvetica,sans-Serif" font-size="10.00">+</text>
<text text-anchor="start" x="918" y="-139.5" font-family="Helvetica,sans-Serif" font-size="10.00">interfaceSearch()</text>
<text text-anchor="start" x="903.5" y="-124.5" font-family="Helvetica,sans-Serif" font-size="10.00">+</text>
<text text-anchor="start" x="918" y="-124.5" font-family="Helvetica,sans-Serif" font-size="10.00">adminOverview()</text>
<text text-anchor="start" x="903.5" y="-109.5" font-family="Helvetica,sans-Serif" font-size="10.00">+</text>
<text text-anchor="start" x="918" y="-109.5" font-family="Helvetica,sans-Serif" font-size="10.00">adminDatabase()</text>
<text text-anchor="start" x="903.5" y="-94.5" font-family="Helvetica,sans-Serif" font-size="10.00">+</text>
<text text-anchor="start" x="918" y="-94.5" font-family="Helvetica,sans-Serif" font-size="10.00">adminTransfers()</text>
<text text-anchor="start" x="903.5" y="-79.5" font-family="Helvetica,sans-Serif" font-size="10.00">+</text>
<text text-anchor="start" x="918" y="-79.5" font-family="Helvetica,sans-Serif" font-size="10.00">adminReconciliation()</text>
<text text-anchor="start" x="903.5" y="-64.5" font-family="Helvetica,sans-Serif" font-size="10.00">+</text>
<text text-anchor="start" x="918" y="-64.5" font-family="Helvetica,sans-Serif" font-size="10.00">adminSettings()</text>
<text text-anchor="start" x="903.5" y="-49.5" font-family="Helvetica,sans-Serif" font-size="10.00">+</text>
<text text-anchor="start" x="918" y="-49.5" font-family="Helvetica,sans-Serif" font-size="10.00">adminUsers()</text>
<text text-anchor="start" x="906" y="-34.5" font-family="Helvetica,sans-Serif" font-size="10.00">&#45;</text>
<text text-anchor="start" x="918" y="-34.5" font-family="Helvetica,sans-Serif" font-size="10.00">checkAdminAccess()</text>
<polygon fill="#666666" stroke="#666666" points="898,-239.5 898,-239.5 1035,-239.5 1035,-239.5 898,-239.5"/>
<polygon fill="#666666" stroke="#666666" points="898,-224.5 898,-224.5 1035,-224.5 1035,-224.5 898,-224.5"/>
<polygon fill="none" stroke="#666666" points="897.5,-27.5 897.5,-267.5 1034.5,-267.5 1034.5,-27.5 897.5,-27.5"/>
</a>
</g>
</g>
<!-- Node1&#45;&gt;Node7 -->
<g id="edge6_Node000001_Node000007" class="edge">
<title>Node1&#45;&gt;Node7</title>
<g id="a_edge6_Node000001_Node000007"><a xlink:title=" ">
<path fill="none" stroke="#63b8ff" d="M1136.89,-344.35C1105.94,-334.31 1070.09,-318.63 1044,-295 1035.14,-286.97 1027.1,-277.7 1019.85,-267.79"/>
<polygon fill="none" stroke="#63b8ff" points="1136.16,-347.79 1146.75,-347.41 1138.24,-341.1 1136.16,-347.79"/>
</a>
</g>
</g>
<!-- Node8 -->
<g id="Node000008" class="node">
<title>Node8</title>
<g id="a_Node000008"><a xlink:href="classApp_1_1Http_1_1Controllers_1_1FileExplorerController.html" target="_top" xlink:title=" ">
<polygon fill="white" stroke="transparent" points="1203,-248 1053,-248 1053,-47 1203,-47 1203,-248"/>
<text text-anchor="start" x="1073.5" y="-235.5" font-family="Helvetica,sans-Serif" font-size="10.00">App\Http\Controllers</text>
<text text-anchor="start" x="1073.5" y="-224.5" font-family="Helvetica,sans-Serif" font-size="10.00">\FileExplorerController</text>
<text text-anchor="start" x="1057" y="-209.5" font-family="Helvetica,sans-Serif" font-size="10.00">#</text>
<text text-anchor="start" x="1070" y="-209.5" font-family="Helvetica,sans-Serif" font-size="10.00">FileExplorerService</text>
<text text-anchor="start" x="1070" y="-198.5" font-family="Helvetica,sans-Serif" font-size="10.00"> $fileExplorer</text>
<text text-anchor="start" x="1057" y="-183.5" font-family="Helvetica,sans-Serif" font-size="10.00">+</text>
<text text-anchor="start" x="1070" y="-183.5" font-family="Helvetica,sans-Serif" font-size="10.00">__construct(FileExplorer</text>
<text text-anchor="start" x="1070" y="-172.5" font-family="Helvetica,sans-Serif" font-size="10.00">Service $fileExplorer)</text>
<text text-anchor="start" x="1057" y="-157.5" font-family="Helvetica,sans-Serif" font-size="10.00">+</text>
<text text-anchor="start" x="1070" y="-157.5" font-family="Helvetica,sans-Serif" font-size="10.00">index()</text>
<text text-anchor="start" x="1057" y="-142.5" font-family="Helvetica,sans-Serif" font-size="10.00">+</text>
<text text-anchor="start" x="1070" y="-142.5" font-family="Helvetica,sans-Serif" font-size="10.00">scan(Request $request)</text>
<text text-anchor="start" x="1057" y="-127.5" font-family="Helvetica,sans-Serif" font-size="10.00">+</text>
<text text-anchor="start" x="1070" y="-127.5" font-family="Helvetica,sans-Serif" font-size="10.00">startScan(Request</text>
<text text-anchor="start" x="1070" y="-116.5" font-family="Helvetica,sans-Serif" font-size="10.00"> $request)</text>
<text text-anchor="start" x="1057" y="-101.5" font-family="Helvetica,sans-Serif" font-size="10.00">+</text>
<text text-anchor="start" x="1070" y="-101.5" font-family="Helvetica,sans-Serif" font-size="10.00">scanStatus(string</text>
<text text-anchor="start" x="1070" y="-90.5" font-family="Helvetica,sans-Serif" font-size="10.00"> $scanId)</text>
<text text-anchor="start" x="1057" y="-75.5" font-family="Helvetica,sans-Serif" font-size="10.00">+</text>
<text text-anchor="start" x="1070" y="-75.5" font-family="Helvetica,sans-Serif" font-size="10.00">scanResults(string</text>
<text text-anchor="start" x="1070" y="-64.5" font-family="Helvetica,sans-Serif" font-size="10.00"> $scanId, FfastransService</text>
<text text-anchor="start" x="1070" y="-53.5" font-family="Helvetica,sans-Serif" font-size="10.00"> $ffastrans)</text>
<polygon fill="#666666" stroke="#666666" points="1053,-219.5 1053,-219.5 1203,-219.5 1203,-219.5 1053,-219.5"/>
<polygon fill="#666666" stroke="#666666" points="1053,-193.5 1053,-193.5 1068,-193.5 1068,-193.5 1053,-193.5"/>
<polygon fill="#666666" stroke="#666666" points="1068,-193.5 1068,-193.5 1203,-193.5 1203,-193.5 1068,-193.5"/>
<polygon fill="none" stroke="#666666" points="1053,-47 1053,-248 1203,-248 1203,-47 1053,-47"/>
</a>
</g>
</g>
<!-- Node1&#45;&gt;Node8 -->
<g id="edge7_Node000001_Node000008" class="edge">
<title>Node1&#45;&gt;Node8</title>
<g id="a_edge7_Node000001_Node000008"><a xlink:title=" ">
<path fill="none" stroke="#63b8ff" d="M1188.35,-320.98C1181.15,-300.42 1171.97,-274.17 1162.95,-248.39"/>
<polygon fill="none" stroke="#63b8ff" points="1185.1,-322.31 1191.71,-330.59 1191.71,-320 1185.1,-322.31"/>
</a>
</g>
</g>
<!-- Node9 -->
<g id="Node000009" class="node">
<title>Node9</title>
<g id="a_Node000009"><a xlink:href="classApp_1_1Http_1_1Controllers_1_1HomeController.html" target="_top" xlink:title=" ">
<polygon fill="white" stroke="transparent" points="1331,-177.5 1221,-177.5 1221,-117.5 1331,-117.5 1331,-177.5"/>
<text text-anchor="start" x="1226" y="-165.5" font-family="Helvetica,sans-Serif" font-size="10.00">App\Http\Controllers</text>
<text text-anchor="start" x="1235.5" y="-154.5" font-family="Helvetica,sans-Serif" font-size="10.00">\HomeController</text>
<text text-anchor="start" x="1274" y="-139.5" font-family="Helvetica,sans-Serif" font-size="10.00"> </text>
<text text-anchor="start" x="1238.5" y="-124.5" font-family="Helvetica,sans-Serif" font-size="10.00">+</text>
<text text-anchor="start" x="1265" y="-124.5" font-family="Helvetica,sans-Serif" font-size="10.00">index()</text>
<polygon fill="#666666" stroke="#666666" points="1221,-149.5 1221,-149.5 1331,-149.5 1331,-149.5 1221,-149.5"/>
<polygon fill="#666666" stroke="#666666" points="1221,-134.5 1221,-134.5 1331,-134.5 1331,-134.5 1221,-134.5"/>
<polygon fill="none" stroke="#666666" points="1221,-117.5 1221,-177.5 1331,-177.5 1331,-117.5 1221,-117.5"/>
</a>
</g>
</g>
<!-- Node1&#45;&gt;Node9 -->
<g id="edge8_Node000001_Node000009" class="edge">
<title>Node1&#45;&gt;Node9</title>
<g id="a_edge8_Node000001_Node000009"><a xlink:title=" ">
<path fill="none" stroke="#63b8ff" d="M1215.61,-321.09C1230.12,-279.64 1252.75,-214.95 1265.8,-177.66"/>
<polygon fill="none" stroke="#63b8ff" points="1212.29,-320 1212.29,-330.59 1218.9,-322.31 1212.29,-320"/>
</a>
</g>
</g>
<!-- Node10 -->
<g id="Node000010" class="node">
<title>Node10</title>
<g id="a_Node000010"><a xlink:href="classApp_1_1Http_1_1Controllers_1_1MediaController.html" target="_top" xlink:title=" ">
<polygon fill="white" stroke="transparent" points="1497,-267 1349,-267 1349,-28 1497,-28 1497,-267"/>
<text text-anchor="start" x="1373" y="-254.5" font-family="Helvetica,sans-Serif" font-size="10.00">App\Http\Controllers</text>
<text text-anchor="start" x="1382" y="-243.5" font-family="Helvetica,sans-Serif" font-size="10.00">\MediaController</text>
<text text-anchor="start" x="1353" y="-228.5" font-family="Helvetica,sans-Serif" font-size="10.00">#</text>
<text text-anchor="start" x="1366" y="-228.5" font-family="Helvetica,sans-Serif" font-size="10.00">$mediaService</text>
<text text-anchor="start" x="1353" y="-213.5" font-family="Helvetica,sans-Serif" font-size="10.00">+</text>
<text text-anchor="start" x="1366" y="-213.5" font-family="Helvetica,sans-Serif" font-size="10.00">__construct(MediaService</text>
<text text-anchor="start" x="1366" y="-202.5" font-family="Helvetica,sans-Serif" font-size="10.00"> $mediaService)</text>
<text text-anchor="start" x="1353" y="-187.5" font-family="Helvetica,sans-Serif" font-size="10.00">+</text>
<text text-anchor="start" x="1366" y="-187.5" font-family="Helvetica,sans-Serif" font-size="10.00">index()</text>
<text text-anchor="start" x="1353" y="-172.5" font-family="Helvetica,sans-Serif" font-size="10.00">+</text>
<text text-anchor="start" x="1366" y="-172.5" font-family="Helvetica,sans-Serif" font-size="10.00">create()</text>
<text text-anchor="start" x="1353" y="-157.5" font-family="Helvetica,sans-Serif" font-size="10.00">+</text>
<text text-anchor="start" x="1366" y="-157.5" font-family="Helvetica,sans-Serif" font-size="10.00">store(Request $request)</text>
<text text-anchor="start" x="1353" y="-142.5" font-family="Helvetica,sans-Serif" font-size="10.00">+</text>
<text text-anchor="start" x="1366" y="-142.5" font-family="Helvetica,sans-Serif" font-size="10.00">show(string $id)</text>
<text text-anchor="start" x="1353" y="-127.5" font-family="Helvetica,sans-Serif" font-size="10.00">+</text>
<text text-anchor="start" x="1366" y="-127.5" font-family="Helvetica,sans-Serif" font-size="10.00">edit(string $id)</text>
<text text-anchor="start" x="1353" y="-112.5" font-family="Helvetica,sans-Serif" font-size="10.00">+</text>
<text text-anchor="start" x="1366" y="-112.5" font-family="Helvetica,sans-Serif" font-size="10.00">update(Request $request,</text>
<text text-anchor="start" x="1366" y="-101.5" font-family="Helvetica,sans-Serif" font-size="10.00"> string $id)</text>
<text text-anchor="start" x="1353" y="-86.5" font-family="Helvetica,sans-Serif" font-size="10.00">+</text>
<text text-anchor="start" x="1366" y="-86.5" font-family="Helvetica,sans-Serif" font-size="10.00">destroy(string $id)</text>
<text text-anchor="start" x="1353" y="-71.5" font-family="Helvetica,sans-Serif" font-size="10.00">+</text>
<text text-anchor="start" x="1366" y="-71.5" font-family="Helvetica,sans-Serif" font-size="10.00">sync()</text>
<text text-anchor="start" x="1353" y="-56.5" font-family="Helvetica,sans-Serif" font-size="10.00">+</text>
<text text-anchor="start" x="1366" y="-56.5" font-family="Helvetica,sans-Serif" font-size="10.00">syncLocalPath(Request</text>
<text text-anchor="start" x="1366" y="-45.5" font-family="Helvetica,sans-Serif" font-size="10.00"> $request, MediaService</text>
<text text-anchor="start" x="1366" y="-34.5" font-family="Helvetica,sans-Serif" font-size="10.00"> $mediaService)</text>
<polygon fill="#666666" stroke="#666666" points="1349,-238.5 1349,-238.5 1497,-238.5 1497,-238.5 1349,-238.5"/>
<polygon fill="#666666" stroke="#666666" points="1349,-223.5 1349,-223.5 1364,-223.5 1364,-223.5 1349,-223.5"/>
<polygon fill="#666666" stroke="#666666" points="1364,-223.5 1364,-223.5 1497,-223.5 1497,-223.5 1364,-223.5"/>
<polygon fill="none" stroke="#666666" points="1349,-28 1349,-267 1497,-267 1497,-28 1349,-28"/>
</a>
</g>
</g>
<!-- Node1&#45;&gt;Node10 -->
<g id="edge9_Node000001_Node000010" class="edge">
<title>Node1&#45;&gt;Node10</title>
<g id="a_edge9_Node000001_Node000010"><a xlink:title=" ">
<path fill="none" stroke="#63b8ff" d="M1266.51,-339.24C1291.56,-328.87 1319.17,-314.32 1340,-295 1348.89,-286.75 1357.09,-277.33 1364.57,-267.32"/>
<polygon fill="none" stroke="#63b8ff" points="1265.04,-336.06 1257.05,-343.02 1267.64,-342.56 1265.04,-336.06"/>
</a>
</g>
</g>
<!-- Node11 -->
<g id="Node000011" class="node">
<title>Node11</title>
<g id="a_Node000011"><a xlink:href="classApp_1_1Http_1_1Controllers_1_1ProfileController.html" target="_top" xlink:title=" ">
<polygon fill="white" stroke="transparent" points="1680.5,-198 1515.5,-198 1515.5,-97 1680.5,-97 1680.5,-198"/>
<text text-anchor="start" x="1548.5" y="-185.5" font-family="Helvetica,sans-Serif" font-size="10.00">App\Http\Controllers</text>
<text text-anchor="start" x="1557.5" y="-174.5" font-family="Helvetica,sans-Serif" font-size="10.00">\ProfileController</text>
<text text-anchor="start" x="1596.5" y="-159.5" font-family="Helvetica,sans-Serif" font-size="10.00"> </text>
<text text-anchor="start" x="1520" y="-144.5" font-family="Helvetica,sans-Serif" font-size="10.00">+</text>
<text text-anchor="start" x="1533" y="-144.5" font-family="Helvetica,sans-Serif" font-size="10.00">edit(Request $request)</text>
<text text-anchor="start" x="1520" y="-129.5" font-family="Helvetica,sans-Serif" font-size="10.00">+</text>
<text text-anchor="start" x="1533" y="-129.5" font-family="Helvetica,sans-Serif" font-size="10.00">update(ProfileUpdateRequest</text>
<text text-anchor="start" x="1533" y="-118.5" font-family="Helvetica,sans-Serif" font-size="10.00"> $request)</text>
<text text-anchor="start" x="1520" y="-103.5" font-family="Helvetica,sans-Serif" font-size="10.00">+</text>
<text text-anchor="start" x="1533" y="-103.5" font-family="Helvetica,sans-Serif" font-size="10.00">destroy(Request $request)</text>
<polygon fill="#666666" stroke="#666666" points="1516,-169.5 1516,-169.5 1681,-169.5 1681,-169.5 1516,-169.5"/>
<polygon fill="#666666" stroke="#666666" points="1516,-154.5 1516,-154.5 1681,-154.5 1681,-154.5 1516,-154.5"/>
<polygon fill="none" stroke="#666666" points="1515.5,-97 1515.5,-198 1680.5,-198 1680.5,-97 1515.5,-97"/>
</a>
</g>
</g>
<!-- Node1&#45;&gt;Node11 -->
<g id="edge10_Node000001_Node000011" class="edge">
<title>Node1&#45;&gt;Node11</title>
<g id="a_edge10_Node000001_Node000011"><a xlink:title=" ">
<path fill="none" stroke="#63b8ff" d="M1267.53,-360.35C1333.35,-357.62 1434.95,-344.7 1506,-295 1539.96,-271.25 1564.04,-230.53 1579.03,-198.04"/>
<polygon fill="none" stroke="#63b8ff" points="1267.15,-356.86 1257.28,-360.7 1267.4,-363.85 1267.15,-356.86"/>
</a>
</g>
</g>
<!-- Node12 -->
<g id="Node000012" class="node">
<title>Node12</title>
<g id="a_Node000012"><a xlink:href="classApp_1_1Http_1_1Controllers_1_1SearchController.html" target="_top" xlink:title=" ">
<polygon fill="white" stroke="transparent" points="1845.5,-203.5 1698.5,-203.5 1698.5,-91.5 1845.5,-91.5 1845.5,-203.5"/>
<text text-anchor="start" x="1722.5" y="-191.5" font-family="Helvetica,sans-Serif" font-size="10.00">App\Http\Controllers</text>
<text text-anchor="start" x="1730" y="-180.5" font-family="Helvetica,sans-Serif" font-size="10.00">\SearchController</text>
<text text-anchor="start" x="1703" y="-165.5" font-family="Helvetica,sans-Serif" font-size="10.00">#</text>
<text text-anchor="start" x="1716" y="-165.5" font-family="Helvetica,sans-Serif" font-size="10.00">$mediaService</text>
<text text-anchor="start" x="1703" y="-150.5" font-family="Helvetica,sans-Serif" font-size="10.00">+</text>
<text text-anchor="start" x="1716" y="-150.5" font-family="Helvetica,sans-Serif" font-size="10.00">__construct(MediaService</text>
<text text-anchor="start" x="1716" y="-139.5" font-family="Helvetica,sans-Serif" font-size="10.00"> $mediaService)</text>
<text text-anchor="start" x="1703" y="-124.5" font-family="Helvetica,sans-Serif" font-size="10.00">+</text>
<text text-anchor="start" x="1716" y="-124.5" font-family="Helvetica,sans-Serif" font-size="10.00">index(Request $request)</text>
<text text-anchor="start" x="1703" y="-109.5" font-family="Helvetica,sans-Serif" font-size="10.00">+</text>
<text text-anchor="start" x="1716" y="-109.5" font-family="Helvetica,sans-Serif" font-size="10.00">autocomplete(Request</text>
<text text-anchor="start" x="1716" y="-98.5" font-family="Helvetica,sans-Serif" font-size="10.00"> $request)</text>
<polygon fill="#666666" stroke="#666666" points="1699,-175.5 1699,-175.5 1846,-175.5 1846,-175.5 1699,-175.5"/>
<polygon fill="#666666" stroke="#666666" points="1699,-160.5 1699,-160.5 1714,-160.5 1714,-160.5 1699,-160.5"/>
<polygon fill="#666666" stroke="#666666" points="1714,-160.5 1714,-160.5 1846,-160.5 1846,-160.5 1714,-160.5"/>
<polygon fill="none" stroke="#666666" points="1698.5,-91.5 1698.5,-203.5 1845.5,-203.5 1845.5,-91.5 1698.5,-91.5"/>
</a>
</g>
</g>
<!-- Node1&#45;&gt;Node12 -->
<g id="edge11_Node000001_Node000012" class="edge">
<title>Node1&#45;&gt;Node12</title>
<g id="a_edge11_Node000001_Node000012"><a xlink:title=" ">
<path fill="none" stroke="#63b8ff" d="M1267.37,-358.42C1384.09,-354.46 1622.48,-340.85 1690,-295 1721.59,-273.55 1742.32,-235.69 1755.04,-203.83"/>
<polygon fill="none" stroke="#63b8ff" points="1267.02,-354.93 1257.14,-358.76 1267.25,-361.93 1267.02,-354.93"/>
</a>
</g>
</g>
<!-- Node13 -->
<g id="Node000013" class="node">
<title>Node13</title>
<g id="a_Node000013"><a xlink:href="classApp_1_1Http_1_1Controllers_1_1StreamController.html" target="_top" xlink:title=" ">
<polygon fill="white" stroke="transparent" points="2030,-277.5 1864,-277.5 1864,-17.5 2030,-17.5 2030,-277.5"/>
<text text-anchor="start" x="1897" y="-265.5" font-family="Helvetica,sans-Serif" font-size="10.00">App\Http\Controllers</text>
<text text-anchor="start" x="1903.5" y="-254.5" font-family="Helvetica,sans-Serif" font-size="10.00">\StreamController</text>
<text text-anchor="start" x="1945" y="-239.5" font-family="Helvetica,sans-Serif" font-size="10.00"> </text>
<text text-anchor="start" x="1868" y="-224.5" font-family="Helvetica,sans-Serif" font-size="10.00">+</text>
<text text-anchor="start" x="1881" y="-224.5" font-family="Helvetica,sans-Serif" font-size="10.00">stream(Request $request,</text>
<text text-anchor="start" x="1881" y="-213.5" font-family="Helvetica,sans-Serif" font-size="10.00"> $mediaId)</text>
<text text-anchor="start" x="1868" y="-198.5" font-family="Helvetica,sans-Serif" font-size="10.00">+</text>
<text text-anchor="start" x="1881" y="-198.5" font-family="Helvetica,sans-Serif" font-size="10.00">segment(Request $request,</text>
<text text-anchor="start" x="1881" y="-187.5" font-family="Helvetica,sans-Serif" font-size="10.00"> $mediaId, $segment)</text>
<text text-anchor="start" x="1870.5" y="-172.5" font-family="Helvetica,sans-Serif" font-size="10.00">&#45;</text>
<text text-anchor="start" x="1881" y="-172.5" font-family="Helvetica,sans-Serif" font-size="10.00">streamMP4($ftpDisk,</text>
<text text-anchor="start" x="1881" y="-161.5" font-family="Helvetica,sans-Serif" font-size="10.00"> $videoPath, Request</text>
<text text-anchor="start" x="1881" y="-150.5" font-family="Helvetica,sans-Serif" font-size="10.00"> $request)</text>
<text text-anchor="start" x="1870.5" y="-135.5" font-family="Helvetica,sans-Serif" font-size="10.00">&#45;</text>
<text text-anchor="start" x="1881" y="-135.5" font-family="Helvetica,sans-Serif" font-size="10.00">streamHLS($ftpDisk,</text>
<text text-anchor="start" x="1881" y="-124.5" font-family="Helvetica,sans-Serif" font-size="10.00"> $m3u8Path)</text>
<text text-anchor="start" x="1870.5" y="-109.5" font-family="Helvetica,sans-Serif" font-size="10.00">&#45;</text>
<text text-anchor="start" x="1881" y="-109.5" font-family="Helvetica,sans-Serif" font-size="10.00">streamLocalVideo(</text>
<text text-anchor="start" x="1881" y="-98.5" font-family="Helvetica,sans-Serif" font-size="10.00">$videoPath, Request</text>
<text text-anchor="start" x="1881" y="-87.5" font-family="Helvetica,sans-Serif" font-size="10.00"> $request)</text>
<text text-anchor="start" x="1870.5" y="-72.5" font-family="Helvetica,sans-Serif" font-size="10.00">&#45;</text>
<text text-anchor="start" x="1881" y="-72.5" font-family="Helvetica,sans-Serif" font-size="10.00">streamLocalMediaVideo</text>
<text text-anchor="start" x="1881" y="-61.5" font-family="Helvetica,sans-Serif" font-size="10.00">(Media $media, Request</text>
<text text-anchor="start" x="1881" y="-50.5" font-family="Helvetica,sans-Serif" font-size="10.00"> $request)</text>
<text text-anchor="start" x="1870.5" y="-35.5" font-family="Helvetica,sans-Serif" font-size="10.00">&#45;</text>
<text text-anchor="start" x="1881" y="-35.5" font-family="Helvetica,sans-Serif" font-size="10.00">streamLocalVideoByMapping</text>
<text text-anchor="start" x="1881" y="-24.5" font-family="Helvetica,sans-Serif" font-size="10.00">($mediaId, Request $request)</text>
<polygon fill="#666666" stroke="#666666" points="1864,-249.5 1864,-249.5 2030,-249.5 2030,-249.5 1864,-249.5"/>
<polygon fill="#666666" stroke="#666666" points="1864,-234.5 1864,-234.5 2030,-234.5 2030,-234.5 1864,-234.5"/>
<polygon fill="none" stroke="#666666" points="1864,-17.5 1864,-277.5 2030,-277.5 2030,-17.5 1864,-17.5"/>
</a>
</g>
</g>
<!-- Node1&#45;&gt;Node13 -->
<g id="edge12_Node000001_Node000013" class="edge">
<title>Node1&#45;&gt;Node13</title>
<g id="a_edge12_Node000001_Node000013"><a xlink:title=" ">
<path fill="none" stroke="#63b8ff" d="M1267.21,-360.64C1412.56,-360.95 1757.94,-355.13 1855,-295 1862.91,-290.1 1870.26,-284.23 1877.06,-277.71"/>
<polygon fill="none" stroke="#63b8ff" points="1267.11,-357.14 1257.1,-360.61 1267.08,-364.14 1267.11,-357.14"/>
</a>
</g>
</g>
<!-- Node14 -->
<g id="Node000014" class="node">
<title>Node14</title>
<g id="a_Node000014"><a xlink:href="classApp_1_1Http_1_1Controllers_1_1ThumbnailController.html" target="_top" xlink:title=" ">
<polygon fill="white" stroke="transparent" points="2164,-177.5 2048,-177.5 2048,-117.5 2164,-117.5 2164,-177.5"/>
<text text-anchor="start" x="2054.5" y="-165.5" font-family="Helvetica,sans-Serif" font-size="10.00">App\Http\Controllers</text>
<text text-anchor="start" x="2054.5" y="-154.5" font-family="Helvetica,sans-Serif" font-size="10.00">\ThumbnailController</text>
<text text-anchor="start" x="2104" y="-139.5" font-family="Helvetica,sans-Serif" font-size="10.00"> </text>
<text text-anchor="start" x="2052" y="-124.5" font-family="Helvetica,sans-Serif" font-size="10.00">+</text>
<text text-anchor="start" x="2065" y="-124.5" font-family="Helvetica,sans-Serif" font-size="10.00">show(int $mediaId)</text>
<polygon fill="#666666" stroke="#666666" points="2048,-149.5 2048,-149.5 2164,-149.5 2164,-149.5 2048,-149.5"/>
<polygon fill="#666666" stroke="#666666" points="2048,-134.5 2048,-134.5 2164,-134.5 2164,-134.5 2048,-134.5"/>
<polygon fill="none" stroke="#666666" points="2048,-117.5 2048,-177.5 2164,-177.5 2164,-117.5 2048,-117.5"/>
</a>
</g>
</g>
<!-- Node1&#45;&gt;Node14 -->
<g id="edge13_Node000001_Node000014" class="edge">
<title>Node1&#45;&gt;Node14</title>
<g id="a_edge13_Node000001_Node000014"><a xlink:title=" ">
<path fill="none" stroke="#63b8ff" d="M1267.21,-358.7C1453.08,-354.49 1976.26,-338.82 2039,-295 2077.98,-267.78 2094.73,-212.11 2101.59,-177.77"/>
<polygon fill="none" stroke="#63b8ff" points="1266.95,-355.21 1257.03,-358.93 1267.11,-362.21 1266.95,-355.21"/>
</a>
</g>
</g>
<!-- Node15 -->
<g id="Node000015" class="node">
<title>Node15</title>
<g id="a_Node000015"><a xlink:href="classApp_1_1Http_1_1Controllers_1_1TransfertController.html" target="_top" xlink:title=" ">
<polygon fill="white" stroke="transparent" points="2345.5,-231.5 2182.5,-231.5 2182.5,-63.5 2345.5,-63.5 2345.5,-231.5"/>
<text text-anchor="start" x="2214.5" y="-219.5" font-family="Helvetica,sans-Serif" font-size="10.00">App\Http\Controllers</text>
<text text-anchor="start" x="2217.5" y="-208.5" font-family="Helvetica,sans-Serif" font-size="10.00">\TransfertController</text>
<text text-anchor="start" x="2187" y="-193.5" font-family="Helvetica,sans-Serif" font-size="10.00">#</text>
<text text-anchor="start" x="2200" y="-193.5" font-family="Helvetica,sans-Serif" font-size="10.00">$ffastrans</text>
<text text-anchor="start" x="2187" y="-178.5" font-family="Helvetica,sans-Serif" font-size="10.00">+</text>
<text text-anchor="start" x="2200" y="-178.5" font-family="Helvetica,sans-Serif" font-size="10.00">__construct(FfastransService</text>
<text text-anchor="start" x="2200" y="-167.5" font-family="Helvetica,sans-Serif" font-size="10.00"> $ffastrans)</text>
<text text-anchor="start" x="2187" y="-152.5" font-family="Helvetica,sans-Serif" font-size="10.00">+</text>
<text text-anchor="start" x="2200" y="-152.5" font-family="Helvetica,sans-Serif" font-size="10.00">index()</text>
<text text-anchor="start" x="2187" y="-137.5" font-family="Helvetica,sans-Serif" font-size="10.00">+</text>
<text text-anchor="start" x="2200" y="-137.5" font-family="Helvetica,sans-Serif" font-size="10.00">list(FfastransService</text>
<text text-anchor="start" x="2200" y="-126.5" font-family="Helvetica,sans-Serif" font-size="10.00"> $ffastrans)</text>
<text text-anchor="start" x="2187" y="-111.5" font-family="Helvetica,sans-Serif" font-size="10.00">+</text>
<text text-anchor="start" x="2200" y="-111.5" font-family="Helvetica,sans-Serif" font-size="10.00">startJob(Request </text>
<text text-anchor="start" x="2200" y="-100.5" font-family="Helvetica,sans-Serif" font-size="10.00">$request)</text>
<text text-anchor="start" x="2187" y="-85.5" font-family="Helvetica,sans-Serif" font-size="10.00">+</text>
<text text-anchor="start" x="2200" y="-85.5" font-family="Helvetica,sans-Serif" font-size="10.00">checkStatus($jobId)</text>
<text text-anchor="start" x="2187" y="-70.5" font-family="Helvetica,sans-Serif" font-size="10.00">+</text>
<text text-anchor="start" x="2200" y="-70.5" font-family="Helvetica,sans-Serif" font-size="10.00">cancel($jobId)</text>
<polygon fill="#666666" stroke="#666666" points="2183,-203.5 2183,-203.5 2346,-203.5 2346,-203.5 2183,-203.5"/>
<polygon fill="#666666" stroke="#666666" points="2183,-188.5 2183,-188.5 2198,-188.5 2198,-188.5 2183,-188.5"/>
<polygon fill="#666666" stroke="#666666" points="2198,-188.5 2198,-188.5 2346,-188.5 2346,-188.5 2198,-188.5"/>
<polygon fill="none" stroke="#666666" points="2182.5,-63.5 2182.5,-231.5 2345.5,-231.5 2345.5,-63.5 2182.5,-63.5"/>
</a>
</g>
</g>
<!-- Node1&#45;&gt;Node15 -->
<g id="edge14_Node000001_Node000015" class="edge">
<title>Node1&#45;&gt;Node15</title>
<g id="a_edge14_Node000001_Node000015"><a xlink:title=" ">
<path fill="none" stroke="#63b8ff" d="M1267.3,-359.05C1472.57,-355.61 2095.73,-341.41 2173,-295 2197.51,-280.28 2216.4,-256.15 2230.45,-231.69"/>
<polygon fill="none" stroke="#63b8ff" points="1267.21,-355.56 1257.27,-359.22 1267.33,-362.55 1267.21,-355.56"/>
</a>
</g>
</g>
</g>
</svg>
