<?xml version="1.0" encoding="UTF-8" standalone="no"?>
<!DOCTYPE svg PUBLIC "-//W3C//DTD SVG 1.1//EN"
 "http://www.w3.org/Graphics/SVG/1.1/DTD/svg11.dtd">
<!-- Generated by graphviz version 2.42.4 (0)
 -->
<!-- Title: App\Http\Controllers\FileExplorerController\scanResults Pages: 1 -->
<svg width="533pt" height="86pt"
 viewBox="0.00 0.00 533.00 86.00" xmlns="http://www.w3.org/2000/svg" xmlns:xlink="http://www.w3.org/1999/xlink">
<g id="graph0" class="graph" transform="scale(1 1) rotate(0) translate(4 82)">
<title>App\Http\Controllers\FileExplorerController\scanResults</title>
<!-- Node1 -->
<g id="Node000001" class="node">
<title>Node1</title>
<g id="a_Node000001"><a xlink:title=" ">
<polygon fill="#999999" stroke="#666666" points="125,-59.5 0,-59.5 0,-18.5 125,-18.5 125,-59.5"/>
<text text-anchor="start" x="8" y="-47.5" font-family="Helvetica,sans-Serif" font-size="10.00">App\Http\Controllers</text>
<text text-anchor="start" x="8" y="-36.5" font-family="Helvetica,sans-Serif" font-size="10.00">\FileExplorerController</text>
<text text-anchor="middle" x="62.5" y="-25.5" font-family="Helvetica,sans-Serif" font-size="10.00">\scanResults</text>
</a>
</g>
</g>
<!-- Node2 -->
<g id="Node000002" class="node">
<title>Node2</title>
<g id="a_Node000002"><a xlink:href="classApp_1_1Services_1_1FfastransService.html#afd12d7538c3acc927dd210eb779caada" target="_top" xlink:title=" ">
<polygon fill="white" stroke="#666666" points="325,-54 161,-54 161,-24 325,-24 325,-54"/>
<text text-anchor="start" x="169" y="-42" font-family="Helvetica,sans-Serif" font-size="10.00">App\Services\FfastransService</text>
<text text-anchor="middle" x="243" y="-31" font-family="Helvetica,sans-Serif" font-size="10.00">\getFullStatusList</text>
</a>
</g>
</g>
<!-- Node1&#45;&gt;Node2 -->
<g id="edge1_Node000001_Node000002" class="edge">
<title>Node1&#45;&gt;Node2</title>
<g id="a_edge1_Node000001_Node000002"><a xlink:title=" ">
<path fill="none" stroke="#63b8ff" d="M125.18,-39C133.44,-39 142.04,-39 150.67,-39"/>
<polygon fill="#63b8ff" stroke="#63b8ff" points="150.8,-42.5 160.8,-39 150.8,-35.5 150.8,-42.5"/>
</a>
</g>
</g>
<!-- Node3 -->
<g id="Node000003" class="node">
<title>Node3</title>
<g id="a_Node000003"><a xlink:href="classApp_1_1Services_1_1FfastransService.html#a24a706eb6b60ac41bec6a63d917f09e5" target="_top" xlink:title=" ">
<polygon fill="white" stroke="#666666" points="525,-78 361,-78 361,-48 525,-48 525,-78"/>
<text text-anchor="start" x="369" y="-66" font-family="Helvetica,sans-Serif" font-size="10.00">App\Services\FfastransService</text>
<text text-anchor="middle" x="443" y="-55" font-family="Helvetica,sans-Serif" font-size="10.00">\client</text>
</a>
</g>
</g>
<!-- Node2&#45;&gt;Node3 -->
<g id="edge2_Node000002_Node000003" class="edge">
<title>Node2&#45;&gt;Node3</title>
<g id="a_edge2_Node000002_Node000003"><a xlink:title=" ">
<path fill="none" stroke="#63b8ff" d="M325.11,-48.83C333.55,-49.85 342.17,-50.9 350.72,-51.94"/>
<polygon fill="#63b8ff" stroke="#63b8ff" points="350.35,-55.42 360.7,-53.15 351.19,-48.47 350.35,-55.42"/>
</a>
</g>
</g>
<!-- Node4 -->
<g id="Node000004" class="node">
<title>Node4</title>
<g id="a_Node000004"><a xlink:href="classApp_1_1Services_1_1FfastransService.html#ae3bec7fff62b23f480d28770b73335e9" target="_top" xlink:title="Helper to translate English statuses to French.">
<polygon fill="white" stroke="#666666" points="525,-30 361,-30 361,0 525,0 525,-30"/>
<text text-anchor="start" x="369" y="-18" font-family="Helvetica,sans-Serif" font-size="10.00">App\Services\FfastransService</text>
<text text-anchor="middle" x="443" y="-7" font-family="Helvetica,sans-Serif" font-size="10.00">\translateStatus</text>
</a>
</g>
</g>
<!-- Node2&#45;&gt;Node4 -->
<g id="edge3_Node000002_Node000004" class="edge">
<title>Node2&#45;&gt;Node4</title>
<g id="a_edge3_Node000002_Node000004"><a xlink:title=" ">
<path fill="none" stroke="#63b8ff" d="M325.11,-29.17C333.55,-28.15 342.17,-27.1 350.72,-26.06"/>
<polygon fill="#63b8ff" stroke="#63b8ff" points="351.19,-29.53 360.7,-24.85 350.35,-22.58 351.19,-29.53"/>
</a>
</g>
</g>
</g>
</svg>
