<?xml version="1.0" encoding="UTF-8" standalone="no"?>
<!DOCTYPE svg PUBLIC "-//W3C//DTD SVG 1.1//EN"
 "http://www.w3.org/Graphics/SVG/1.1/DTD/svg11.dtd">
<!-- Generated by graphviz version 2.42.4 (0)
 -->
<!-- Title: App\Jobs\GenerateMediaThumbnail\handle Pages: 1 -->
<svg width="596pt" height="182pt"
 viewBox="0.00 0.00 596.00 182.00" xmlns="http://www.w3.org/2000/svg" xmlns:xlink="http://www.w3.org/1999/xlink">
<g id="graph0" class="graph" transform="scale(1 1) rotate(0) translate(4 178)">
<title>App\Jobs\GenerateMediaThumbnail\handle</title>
<!-- Node1 -->
<g id="Node000001" class="node">
<title>Node1</title>
<g id="a_Node000001"><a xlink:title=" ">
<polygon fill="#999999" stroke="#666666" points="188,-102 0,-102 0,-72 188,-72 188,-102"/>
<text text-anchor="start" x="8" y="-90" font-family="Helvetica,sans-Serif" font-size="10.00">App\Jobs\GenerateMediaThumbnail</text>
<text text-anchor="middle" x="94" y="-79" font-family="Helvetica,sans-Serif" font-size="10.00">\handle</text>
</a>
</g>
</g>
<!-- Node2 -->
<g id="Node000002" class="node">
<title>Node2</title>
<g id="a_Node000002"><a xlink:href="classApp_1_1Services_1_1MediaThumbnailService.html#ae38ef6cc053f00e0cf9a79ca3e9f14ee" target="_top" xlink:title=" ">
<polygon fill="white" stroke="#666666" points="388,-102 224,-102 224,-72 388,-72 388,-102"/>
<text text-anchor="start" x="232" y="-90" font-family="Helvetica,sans-Serif" font-size="10.00">App\Services\MediaThumbnail</text>
<text text-anchor="middle" x="306" y="-79" font-family="Helvetica,sans-Serif" font-size="10.00">Service\generateThumbnail</text>
</a>
</g>
</g>
<!-- Node1&#45;&gt;Node2 -->
<g id="edge1_Node000001_Node000002" class="edge">
<title>Node1&#45;&gt;Node2</title>
<g id="a_edge1_Node000001_Node000002"><a xlink:title=" ">
<path fill="none" stroke="#63b8ff" d="M188.03,-87C196.53,-87 205.14,-87 213.62,-87"/>
<polygon fill="#63b8ff" stroke="#63b8ff" points="213.9,-90.5 223.9,-87 213.9,-83.5 213.9,-90.5"/>
</a>
</g>
</g>
<!-- Node3 -->
<g id="Node000003" class="node">
<title>Node3</title>
<g id="a_Node000003"><a xlink:href="classApp_1_1Services_1_1MediaThumbnailService.html#a2a4827992588678a676f2e291bf5af66" target="_top" xlink:title=" ">
<polygon fill="white" stroke="#666666" points="588,-174 424,-174 424,-144 588,-144 588,-174"/>
<text text-anchor="start" x="432" y="-162" font-family="Helvetica,sans-Serif" font-size="10.00">App\Services\MediaThumbnail</text>
<text text-anchor="middle" x="506" y="-151" font-family="Helvetica,sans-Serif" font-size="10.00">Service\buildFtpUrl</text>
</a>
</g>
</g>
<!-- Node2&#45;&gt;Node3 -->
<g id="edge2_Node000002_Node000003" class="edge">
<title>Node2&#45;&gt;Node3</title>
<g id="a_edge2_Node000002_Node000003"><a xlink:title=" ">
<path fill="none" stroke="#63b8ff" d="M341.2,-102.1C364.35,-112.06 395.73,-125.04 424,-135 429.58,-136.97 435.42,-138.91 441.29,-140.79"/>
<polygon fill="#63b8ff" stroke="#63b8ff" points="440.57,-144.23 451.16,-143.88 442.67,-137.55 440.57,-144.23"/>
</a>
</g>
</g>
<!-- Node4 -->
<g id="Node000004" class="node">
<title>Node4</title>
<g id="a_Node000004"><a xlink:href="classApp_1_1Services_1_1MediaThumbnailService.html#a572685b91171db3d0abeddcd7f731bad" target="_top" xlink:title=" ">
<polygon fill="white" stroke="#666666" points="588,-126 424,-126 424,-96 588,-96 588,-126"/>
<text text-anchor="start" x="432" y="-114" font-family="Helvetica,sans-Serif" font-size="10.00">App\Services\MediaThumbnail</text>
<text text-anchor="middle" x="506" y="-103" font-family="Helvetica,sans-Serif" font-size="10.00">Service\calculateTimecode</text>
</a>
</g>
</g>
<!-- Node2&#45;&gt;Node4 -->
<g id="edge3_Node000002_Node000004" class="edge">
<title>Node2&#45;&gt;Node4</title>
<g id="a_edge3_Node000002_Node000004"><a xlink:title=" ">
<path fill="none" stroke="#63b8ff" d="M388.11,-96.83C396.55,-97.85 405.17,-98.9 413.72,-99.94"/>
<polygon fill="#63b8ff" stroke="#63b8ff" points="413.35,-103.42 423.7,-101.15 414.19,-96.47 413.35,-103.42"/>
</a>
</g>
</g>
<!-- Node5 -->
<g id="Node000005" class="node">
<title>Node5</title>
<g id="a_Node000005"><a xlink:href="classApp_1_1Services_1_1MediaThumbnailService.html#af62155d768584b3f7493f83176bd4e07" target="_top" xlink:title=" ">
<polygon fill="white" stroke="#666666" points="588,-78 424,-78 424,-48 588,-48 588,-78"/>
<text text-anchor="start" x="432" y="-66" font-family="Helvetica,sans-Serif" font-size="10.00">App\Services\MediaThumbnail</text>
<text text-anchor="middle" x="506" y="-55" font-family="Helvetica,sans-Serif" font-size="10.00">Service\executeFfmpeg</text>
</a>
</g>
</g>
<!-- Node2&#45;&gt;Node5 -->
<g id="edge4_Node000002_Node000005" class="edge">
<title>Node2&#45;&gt;Node5</title>
<g id="a_edge4_Node000002_Node000005"><a xlink:title=" ">
<path fill="none" stroke="#63b8ff" d="M388.11,-77.17C396.55,-76.15 405.17,-75.1 413.72,-74.06"/>
<polygon fill="#63b8ff" stroke="#63b8ff" points="414.19,-77.53 423.7,-72.85 413.35,-70.58 414.19,-77.53"/>
</a>
</g>
</g>
<!-- Node6 -->
<g id="Node000006" class="node">
<title>Node6</title>
<g id="a_Node000006"><a xlink:href="classApp_1_1Services_1_1MediaThumbnailService.html#ad2157721da4b3d3d35e66e557a541b0d" target="_top" xlink:title=" ">
<polygon fill="white" stroke="#666666" points="588,-30 424,-30 424,0 588,0 588,-30"/>
<text text-anchor="start" x="432" y="-18" font-family="Helvetica,sans-Serif" font-size="10.00">App\Services\MediaThumbnail</text>
<text text-anchor="middle" x="506" y="-7" font-family="Helvetica,sans-Serif" font-size="10.00">Service\getVideoDuration</text>
</a>
</g>
</g>
<!-- Node2&#45;&gt;Node6 -->
<g id="edge5_Node000002_Node000006" class="edge">
<title>Node2&#45;&gt;Node6</title>
<g id="a_edge5_Node000002_Node000006"><a xlink:title=" ">
<path fill="none" stroke="#63b8ff" d="M341.2,-71.9C364.35,-61.94 395.73,-48.96 424,-39 429.58,-37.03 435.42,-35.09 441.29,-33.21"/>
<polygon fill="#63b8ff" stroke="#63b8ff" points="442.67,-36.45 451.16,-30.12 440.57,-29.77 442.67,-36.45"/>
</a>
</g>
</g>
</g>
</svg>
