<?xml version="1.0" encoding="UTF-8" standalone="no"?>
<!DOCTYPE svg PUBLIC "-//W3C//DTD SVG 1.1//EN"
 "http://www.w3.org/Graphics/SVG/1.1/DTD/svg11.dtd">
<!-- Generated by graphviz version 2.42.4 (0)
 -->
<!-- Title: App\Http\Controllers\ProfileController Pages: 1 -->
<svg width="173pt" height="205pt"
 viewBox="0.00 0.00 173.00 205.00" xmlns="http://www.w3.org/2000/svg" xmlns:xlink="http://www.w3.org/1999/xlink">
<g id="graph0" class="graph" transform="scale(1 1) rotate(0) translate(4 201)">
<title>App\Http\Controllers\ProfileController</title>
<!-- Node1 -->
<g id="Node000001" class="node">
<title>Node1</title>
<g id="a_Node000001"><a xlink:title=" ">
<polygon fill="#999999" stroke="transparent" points="165,-101 0,-101 0,0 165,0 165,-101"/>
<text text-anchor="start" x="33" y="-88.5" font-family="Helvetica,sans-Serif" font-size="10.00">App\Http\Controllers</text>
<text text-anchor="start" x="42" y="-77.5" font-family="Helvetica,sans-Serif" font-size="10.00">\ProfileController</text>
<text text-anchor="start" x="81" y="-62.5" font-family="Helvetica,sans-Serif" font-size="10.00"> </text>
<text text-anchor="start" x="4.5" y="-47.5" font-family="Helvetica,sans-Serif" font-size="10.00">+</text>
<text text-anchor="start" x="17.5" y="-47.5" font-family="Helvetica,sans-Serif" font-size="10.00">edit(Request $request)</text>
<text text-anchor="start" x="4.5" y="-32.5" font-family="Helvetica,sans-Serif" font-size="10.00">+</text>
<text text-anchor="start" x="17.5" y="-32.5" font-family="Helvetica,sans-Serif" font-size="10.00">update(ProfileUpdateRequest</text>
<text text-anchor="start" x="17.5" y="-21.5" font-family="Helvetica,sans-Serif" font-size="10.00"> $request)</text>
<text text-anchor="start" x="4.5" y="-6.5" font-family="Helvetica,sans-Serif" font-size="10.00">+</text>
<text text-anchor="start" x="17.5" y="-6.5" font-family="Helvetica,sans-Serif" font-size="10.00">destroy(Request $request)</text>
<polygon fill="#666666" stroke="#666666" points="0.5,-72.5 0.5,-72.5 165.5,-72.5 165.5,-72.5 0.5,-72.5"/>
<polygon fill="#666666" stroke="#666666" points="0.5,-57.5 0.5,-57.5 165.5,-57.5 165.5,-57.5 0.5,-57.5"/>
<polygon fill="none" stroke="#666666" points="0,0 0,-101 165,-101 165,0 0,0"/>
</a>
</g>
</g>
<!-- Node2 -->
<g id="Node000002" class="node">
<title>Node2</title>
<g id="a_Node000002"><a xlink:href="classApp_1_1Http_1_1Controllers_1_1Controller.html" target="_top" xlink:title=" ">
<polygon fill="white" stroke="transparent" points="137.5,-197 27.5,-197 27.5,-137 137.5,-137 137.5,-197"/>
<text text-anchor="start" x="32.5" y="-185" font-family="Helvetica,sans-Serif" font-size="10.00">App\Http\Controllers</text>
<text text-anchor="start" x="56.5" y="-174" font-family="Helvetica,sans-Serif" font-size="10.00">\Controller</text>
<text text-anchor="start" x="80.5" y="-159" font-family="Helvetica,sans-Serif" font-size="10.00"> </text>
<text text-anchor="start" x="80.5" y="-144" font-family="Helvetica,sans-Serif" font-size="10.00"> </text>
<polygon fill="#666666" stroke="#666666" points="27.5,-169 27.5,-169 137.5,-169 137.5,-169 27.5,-169"/>
<polygon fill="#666666" stroke="#666666" points="27.5,-154 27.5,-154 137.5,-154 137.5,-154 27.5,-154"/>
<polygon fill="none" stroke="#666666" points="27.5,-137 27.5,-197 137.5,-197 137.5,-137 27.5,-137"/>
</a>
</g>
</g>
<!-- Node2&#45;&gt;Node1 -->
<g id="edge1_Node000001_Node000002" class="edge">
<title>Node2&#45;&gt;Node1</title>
<g id="a_edge1_Node000001_Node000002"><a xlink:title=" ">
<path fill="none" stroke="#63b8ff" d="M82.5,-126.72C82.5,-118.47 82.5,-109.67 82.5,-101.1"/>
<polygon fill="none" stroke="#63b8ff" points="79,-126.81 82.5,-136.81 86,-126.81 79,-126.81"/>
</a>
</g>
</g>
</g>
</svg>
