<?xml version="1.0" encoding="UTF-8" standalone="no"?>
<!DOCTYPE svg PUBLIC "-//W3C//DTD SVG 1.1//EN"
 "http://www.w3.org/Graphics/SVG/1.1/DTD/svg11.dtd">
<!-- Generated by graphviz version 2.42.4 (0)
 -->
<!-- Title: Tests\Feature\MediaThumbnailServiceTest\initializeService Pages: 1 -->
<!--zoomable 460 -->

<svg id="main" version="1.1" xmlns="http://www.w3.org/2000/svg" xmlns:xlink="http://www.w3.org/1999/xlink" xml:space="preserve" onload="init(evt)">
<style type="text/css"><![CDATA[
.node, .edge {opacity: 0.7;}
.node.selected, .edge.selected {opacity: 1;}
.edge:hover path { stroke: red; }
.edge:hover polygon { stroke: red; fill: red; }
]]></style>

<defs>
  <circle id="rim" cx="0" cy="0" r="7"/>
  <circle id="rim2" cx="0" cy="0" r="3.5"/>
  <g id="zoomPlus">
    <use xlink:href="#rim" fill="#404040"><set attributeName="fill" to="#808080" begin="zoomplus.mouseover" end="zoomplus.mouseout"/></use>
    <path d="M-4,0h8M0,-4v8" fill="none" stroke="white" stroke-width="1.5" pointer-events="none"/>
  </g>
  <g id="zoomMin">
    <use xlink:href="#rim" fill="#404040"><set attributeName="fill" to="#808080" begin="zoomminus.mouseover" end="zoomminus.mouseout"/></use>
    <path d="M-4,0h8" fill="none" stroke="white" stroke-width="1.5" pointer-events="none"/>
  </g>
  <g id="arrowUp" transform="translate(30 24)">
    <use xlink:href="#rim"/>
    <path pointer-events="none" fill="none" stroke="white" stroke-width="1.5" d="M0,-3.0v7 M-2.5,-0.5L0,-3.0L2.5,-0.5"/>
  </g>
  <g id="arrowRight" transform="rotate(90) translate(36 -43)">
    <use xlink:href="#rim"/>
    <path pointer-events="none" fill="none" stroke="white" stroke-width="1.5" d="M0,-3.0v7 M-2.5,-0.5L0,-3.0L2.5,-0.5"/>
  </g>
  <g id="arrowDown" transform="rotate(180) translate(-30 -48)">
    <use xlink:href="#rim"/>
    <path pointer-events="none" fill="none" stroke="white" stroke-width="1.5" d="M0,-3.0v7 M-2.5,-0.5L0,-3.0L2.5,-0.5"/>
  </g>
  <g id="arrowLeft" transform="rotate(270) translate(-36 17)">
    <use xlink:href="#rim"/>
    <path pointer-events="none" fill="none" stroke="white" stroke-width="1.5" d="M0,-3.0v7 M-2.5,-0.5L0,-3.0L2.5,-0.5"/>
  </g>
  <g id="resetDef">
    <use xlink:href="#rim2" fill="#404040"><set attributeName="fill" to="#808080" begin="reset.mouseover" end="reset.mouseout"/></use>
  </g>
</defs>
<script type="application/ecmascript">
var viewWidth = 398;
var viewHeight = 460;
var sectionId = 'dynsection-2';
</script>
<script type="application/ecmascript" xlink:href="svg.min.js"/>
<svg id="graph" class="graph">
<g id="viewport">
<title>Tests\Feature\MediaThumbnailServiceTest\initializeService</title>
<!-- Node1 -->
<g id="Node000001" class="node">
<title>Node1</title>
<g id="a_Node000001"><a xlink:title="Helper pour initialiser les propriétés protégées du service.">
<polygon fill="#999999" stroke="#666666" points="390,-241 224,-241 224,-211 390,-211 390,-241"/>
<text text-anchor="start" x="232" y="-229" font-family="Helvetica,sans-Serif" font-size="10.00">Tests\Feature\MediaThumbnail</text>
<text text-anchor="middle" x="307" y="-218" font-family="Helvetica,sans-Serif" font-size="10.00">ServiceTest\initializeService</text>
</a>
</g>
</g>
<!-- Node2 -->
<g id="Node000002" class="node">
<title>Node2</title>
<g id="a_Node000002"><a xlink:href="classTests_1_1Feature_1_1MediaThumbnailServiceTest.html#a282d3875de9b294e907167983f6cd431" target="_top" xlink:title=" ">
<polygon fill="white" stroke="#666666" points="177,-452 11,-452 11,-400 177,-400 177,-452"/>
<text text-anchor="start" x="19" y="-440" font-family="Helvetica,sans-Serif" font-size="10.00">Tests\Feature\MediaThumbnail</text>
<text text-anchor="start" x="19" y="-429" font-family="Helvetica,sans-Serif" font-size="10.00">ServiceTest\it_correctly</text>
<text text-anchor="start" x="19" y="-418" font-family="Helvetica,sans-Serif" font-size="10.00">_builds_ftp_url_from_arch</text>
<text text-anchor="middle" x="94" y="-407" font-family="Helvetica,sans-Serif" font-size="10.00">_and_pad_disks</text>
</a>
</g>
</g>
<!-- Node1&#45;&gt;Node2 -->
<g id="edge1_Node000001_Node000002" class="edge">
<title>Node1&#45;&gt;Node2</title>
<g id="a_edge1_Node000001_Node000002"><a xlink:title=" ">
<path fill="none" stroke="#63b8ff" d="M294.56,-250.2C276.6,-285.78 238.55,-352.18 188,-391 183.76,-394.26 179.18,-397.24 174.41,-399.96"/>
<polygon fill="#63b8ff" stroke="#63b8ff" points="297.8,-251.55 299.09,-241.03 291.52,-248.45 297.8,-251.55"/>
</a>
</g>
</g>
<!-- Node3 -->
<g id="Node000003" class="node">
<title>Node3</title>
<g id="a_Node000003"><a xlink:href="classTests_1_1Feature_1_1MediaThumbnailServiceTest.html#a43ad963f470f95c37b2fb3ce823f5923" target="_top" xlink:title=" ">
<polygon fill="white" stroke="#666666" points="177.5,-381.5 10.5,-381.5 10.5,-340.5 177.5,-340.5 177.5,-381.5"/>
<text text-anchor="start" x="18.5" y="-369.5" font-family="Helvetica,sans-Serif" font-size="10.00">Tests\Feature\MediaThumbnail</text>
<text text-anchor="start" x="18.5" y="-358.5" font-family="Helvetica,sans-Serif" font-size="10.00">ServiceTest\it_deletes_existing</text>
<text text-anchor="middle" x="94" y="-347.5" font-family="Helvetica,sans-Serif" font-size="10.00">_thumbnail_file_successfully</text>
</a>
</g>
</g>
<!-- Node1&#45;&gt;Node3 -->
<g id="edge2_Node000001_Node000003" class="edge">
<title>Node1&#45;&gt;Node3</title>
<g id="a_edge2_Node000001_Node000003"><a xlink:title=" ">
<path fill="none" stroke="#63b8ff" d="M286.16,-248.49C264.26,-272.08 226.92,-308.74 188,-331 181.96,-334.45 175.47,-337.57 168.83,-340.37"/>
<polygon fill="#63b8ff" stroke="#63b8ff" points="288.82,-250.78 292.98,-241.04 283.65,-246.06 288.82,-250.78"/>
</a>
</g>
</g>
<!-- Node4 -->
<g id="Node000004" class="node">
<title>Node4</title>
<g id="a_Node000004"><a xlink:href="classTests_1_1Feature_1_1MediaThumbnailServiceTest.html#aff51e145c96ee5fd40e06b592ef99616" target="_top" xlink:title=" ">
<polygon fill="white" stroke="#666666" points="177,-322 11,-322 11,-270 177,-270 177,-322"/>
<text text-anchor="start" x="19" y="-310" font-family="Helvetica,sans-Serif" font-size="10.00">Tests\Feature\MediaThumbnail</text>
<text text-anchor="start" x="19" y="-299" font-family="Helvetica,sans-Serif" font-size="10.00">ServiceTest\it_generates</text>
<text text-anchor="start" x="19" y="-288" font-family="Helvetica,sans-Serif" font-size="10.00">_thumbnail_from_local_video</text>
<text text-anchor="middle" x="94" y="-277" font-family="Helvetica,sans-Serif" font-size="10.00">_file_when_forced</text>
</a>
</g>
</g>
<!-- Node1&#45;&gt;Node4 -->
<g id="edge3_Node000001_Node000004" class="edge">
<title>Node1&#45;&gt;Node4</title>
<g id="a_edge3_Node000001_Node000004"><a xlink:title=" ">
<path fill="none" stroke="#63b8ff" d="M251.21,-244.18C227.49,-252.05 199.29,-261.4 173.42,-269.98"/>
<polygon fill="#63b8ff" stroke="#63b8ff" points="252.35,-247.49 260.74,-241.02 250.14,-240.84 252.35,-247.49"/>
</a>
</g>
</g>
<!-- Node5 -->
<g id="Node000005" class="node">
<title>Node5</title>
<g id="a_Node000005"><a xlink:href="classTests_1_1Feature_1_1MediaThumbnailServiceTest.html#a9d4bc50559be10557da600e53f4bddcb" target="_top" xlink:title=" ">
<polygon fill="white" stroke="#666666" points="181,-252 7,-252 7,-200 181,-200 181,-252"/>
<text text-anchor="start" x="15" y="-240" font-family="Helvetica,sans-Serif" font-size="10.00">Tests\Feature\MediaThumbnail</text>
<text text-anchor="start" x="15" y="-229" font-family="Helvetica,sans-Serif" font-size="10.00">ServiceTest\it_regenerates</text>
<text text-anchor="start" x="15" y="-218" font-family="Helvetica,sans-Serif" font-size="10.00">_missing_thumbnails_and_skips</text>
<text text-anchor="middle" x="94" y="-207" font-family="Helvetica,sans-Serif" font-size="10.00">_existing_ones</text>
</a>
</g>
</g>
<!-- Node1&#45;&gt;Node5 -->
<g id="edge4_Node000001_Node000005" class="edge">
<title>Node1&#45;&gt;Node5</title>
<g id="a_edge4_Node000001_Node000005"><a xlink:title=" ">
<path fill="none" stroke="#63b8ff" d="M213.56,-226C202.78,-226 191.82,-226 181.14,-226"/>
<polygon fill="#63b8ff" stroke="#63b8ff" points="213.82,-229.5 223.82,-226 213.82,-222.5 213.82,-229.5"/>
</a>
</g>
</g>
<!-- Node6 -->
<g id="Node000006" class="node">
<title>Node6</title>
<g id="a_Node000006"><a xlink:href="classTests_1_1Feature_1_1MediaThumbnailServiceTest.html#a64c9d33832f54b88684145fc2c4af012" target="_top" xlink:title=" ">
<polygon fill="white" stroke="#666666" points="184.5,-182 3.5,-182 3.5,-130 184.5,-130 184.5,-182"/>
<text text-anchor="start" x="11.5" y="-170" font-family="Helvetica,sans-Serif" font-size="10.00">Tests\Feature\MediaThumbnail</text>
<text text-anchor="start" x="11.5" y="-159" font-family="Helvetica,sans-Serif" font-size="10.00">ServiceTest\it_returns_existing</text>
<text text-anchor="start" x="11.5" y="-148" font-family="Helvetica,sans-Serif" font-size="10.00">_thumbnail_without_regenerating</text>
<text text-anchor="middle" x="94" y="-137" font-family="Helvetica,sans-Serif" font-size="10.00">_when_force_is_false</text>
</a>
</g>
</g>
<!-- Node1&#45;&gt;Node6 -->
<g id="edge5_Node000001_Node000006" class="edge">
<title>Node1&#45;&gt;Node6</title>
<g id="a_edge5_Node000001_Node000006"><a xlink:title=" ">
<path fill="none" stroke="#63b8ff" d="M251.21,-207.82C227.49,-199.95 199.29,-190.6 173.42,-182.02"/>
<polygon fill="#63b8ff" stroke="#63b8ff" points="250.14,-211.16 260.74,-210.98 252.35,-204.51 250.14,-211.16"/>
</a>
</g>
</g>
<!-- Node7 -->
<g id="Node000007" class="node">
<title>Node7</title>
<g id="a_Node000007"><a xlink:href="classTests_1_1Feature_1_1MediaThumbnailServiceTest.html#a2a304cacdc02375138fabc543ebe7cec" target="_top" xlink:title=" ">
<polygon fill="white" stroke="#666666" points="188,-111.5 0,-111.5 0,-70.5 188,-70.5 188,-111.5"/>
<text text-anchor="start" x="8" y="-99.5" font-family="Helvetica,sans-Serif" font-size="10.00">Tests\Feature\MediaThumbnail</text>
<text text-anchor="start" x="8" y="-88.5" font-family="Helvetica,sans-Serif" font-size="10.00">ServiceTest\it_returns_null</text>
<text text-anchor="middle" x="94" y="-77.5" font-family="Helvetica,sans-Serif" font-size="10.00">_when_no_video_path_is_available</text>
</a>
</g>
</g>
<!-- Node1&#45;&gt;Node7 -->
<g id="edge6_Node000001_Node000007" class="edge">
<title>Node1&#45;&gt;Node7</title>
<g id="a_edge6_Node000001_Node000007"><a xlink:title=" ">
<path fill="none" stroke="#63b8ff" d="M286.16,-203.51C264.26,-179.92 226.92,-143.26 188,-121 181.96,-117.55 175.47,-114.43 168.83,-111.63"/>
<polygon fill="#63b8ff" stroke="#63b8ff" points="283.65,-205.94 292.98,-210.96 288.82,-201.22 283.65,-205.94"/>
</a>
</g>
</g>
<!-- Node8 -->
<g id="Node000008" class="node">
<title>Node8</title>
<g id="a_Node000008"><a xlink:href="classTests_1_1Feature_1_1MediaThumbnailServiceTest.html#aad0803e7c150380319e60ef2163a76dd" target="_top" xlink:title=" ">
<polygon fill="white" stroke="#666666" points="180.5,-52 7.5,-52 7.5,0 180.5,0 180.5,-52"/>
<text text-anchor="start" x="15.5" y="-40" font-family="Helvetica,sans-Serif" font-size="10.00">Tests\Feature\MediaThumbnail</text>
<text text-anchor="start" x="15.5" y="-29" font-family="Helvetica,sans-Serif" font-size="10.00">ServiceTest\it_returns_true</text>
<text text-anchor="start" x="15.5" y="-18" font-family="Helvetica,sans-Serif" font-size="10.00">_when_deleting_thumbnail_that</text>
<text text-anchor="middle" x="94" y="-7" font-family="Helvetica,sans-Serif" font-size="10.00">_does_not_exist</text>
</a>
</g>
</g>
<!-- Node1&#45;&gt;Node8 -->
<g id="edge7_Node000001_Node000008" class="edge">
<title>Node1&#45;&gt;Node8</title>
<g id="a_edge7_Node000001_Node000008"><a xlink:title=" ">
<path fill="none" stroke="#63b8ff" d="M294.2,-201.47C276.02,-166.06 237.97,-100.64 188,-62 183.34,-58.4 178.28,-55.12 173.01,-52.14"/>
<polygon fill="#63b8ff" stroke="#63b8ff" points="291.18,-203.25 298.8,-210.62 297.44,-200.11 291.18,-203.25"/>
</a>
</g>
</g>
</g>
</svg>

<g id="navigator" transform="translate(0 0)" fill="#404254">
  <rect fill="#f2f5e9" fill-opacity="0.5" stroke="#606060" stroke-width=".5" x="0" y="0" width="60" height="60"/>
  <use id="zoomplus" xlink:href="#zoomPlus" x="17" y="9" onmousedown="handleZoom(evt,'in')"/>
  <use id="zoomminus" xlink:href="#zoomMin" x="42" y="9" onmousedown="handleZoom(evt,'out')"/>
  <use id="reset" xlink:href="#resetDef" x="30" y="36" onmousedown="handleReset()"/>
   <use id="arrowup" xlink:href="#arrowUp" x="0" y="0" onmousedown="handlePan(0,-1)"/>
  <use id="arrowright" xlink:href="#arrowRight" x="0" y="0" onmousedown="handlePan(1,0)"/>
  <use id="arrowdown" xlink:href="#arrowDown" x="0" y="0" onmousedown="handlePan(0,1)"/>
  <use id="arrowleft" xlink:href="#arrowLeft" x="0" y="0" onmousedown="handlePan(-1,0)"/>
</g>
<svg viewBox="0 0 15 15" width="100%" height="30px" preserveAspectRatio="xMaxYMin meet">
 <g id="arrow_out" transform="scale(0.3 0.3)">
  <a xlink:href="classTests_1_1Feature_1_1MediaThumbnailServiceTest_aaa9d9b3ab153bd5d85ea44607219d98f_icgraph_org.svg" target="_base">
   <rect id="button" ry="5" rx="5" y="6" x="6" height="38" width="38"
        fill="#f2f5e9" fill-opacity="0.5" stroke="#606060" stroke-width="1.0"/>
   <path id="arrow"
     d="M 11.500037,31.436501 C 11.940474,20.09759 22.043105,11.32322 32.158766,21.979434 L 37.068811,17.246167 C 37.068811,17.246167 37.088388,32 37.088388,32 L 22.160133,31.978069 C 22.160133,31.978069 26.997745,27.140456 26.997745,27.140456 C 18.528582,18.264221 13.291696,25.230495 11.500037,31.436501 z"
     style="fill:#404040;"/>
  </a>
 </g>
</svg>

<style type='text/css'>
<![CDATA[
[data-mouse-over-selected='false'] { opacity: 0.7; }
[data-mouse-over-selected='true']  { opacity: 1.0; }
]]>
</style>
<script type="application/ecmascript"><![CDATA[
document.addEventListener('DOMContentLoaded', (event) => {
  highlightEdges();
  highlightAdjacentNodes();
});
]]></script>
</svg>
