<?xml version="1.0" encoding="UTF-8" standalone="no"?>
<!DOCTYPE svg PUBLIC "-//W3C//DTD SVG 1.1//EN"
 "http://www.w3.org/Graphics/SVG/1.1/DTD/svg11.dtd">
<!-- Generated by graphviz version 2.42.4 (0)
 -->
<!-- Title: Tests\Feature\MediaThumbnailServiceTest Pages: 1 -->
<svg width="194pt" height="512pt"
 viewBox="0.00 0.00 194.00 512.00" xmlns="http://www.w3.org/2000/svg" xmlns:xlink="http://www.w3.org/1999/xlink">
<g id="graph0" class="graph" transform="scale(1 1) rotate(0) translate(4 508)">
<title>Tests\Feature\MediaThumbnailServiceTest</title>
<!-- Node1 -->
<g id="Node000001" class="node">
<title>Node1</title>
<g id="a_Node000001"><a xlink:title=" ">
<polygon fill="#999999" stroke="transparent" points="186,-334 0,-334 0,0 186,0 186,-334"/>
<text text-anchor="start" x="18" y="-322" font-family="Helvetica,sans-Serif" font-size="10.00">Tests\Feature\MediaThumbnail</text>
<text text-anchor="start" x="65" y="-311" font-family="Helvetica,sans-Serif" font-size="10.00">ServiceTest</text>
<text text-anchor="start" x="4" y="-296" font-family="Helvetica,sans-Serif" font-size="10.00">#</text>
<text text-anchor="start" x="17" y="-296" font-family="Helvetica,sans-Serif" font-size="10.00">string $thumbnailsDir</text>
<text text-anchor="start" x="4" y="-281" font-family="Helvetica,sans-Serif" font-size="10.00">+</text>
<text text-anchor="start" x="17" y="-281" font-family="Helvetica,sans-Serif" font-size="10.00">it_returns_existing</text>
<text text-anchor="start" x="17" y="-270" font-family="Helvetica,sans-Serif" font-size="10.00">_thumbnail_without_regenerating</text>
<text text-anchor="start" x="17" y="-259" font-family="Helvetica,sans-Serif" font-size="10.00">_when_force_is_false()</text>
<text text-anchor="start" x="4" y="-244" font-family="Helvetica,sans-Serif" font-size="10.00">+</text>
<text text-anchor="start" x="17" y="-244" font-family="Helvetica,sans-Serif" font-size="10.00">it_generates_thumbnail</text>
<text text-anchor="start" x="17" y="-233" font-family="Helvetica,sans-Serif" font-size="10.00">_from_local_video_file</text>
<text text-anchor="start" x="17" y="-222" font-family="Helvetica,sans-Serif" font-size="10.00">_when_forced()</text>
<text text-anchor="start" x="4" y="-207" font-family="Helvetica,sans-Serif" font-size="10.00">+</text>
<text text-anchor="start" x="17" y="-207" font-family="Helvetica,sans-Serif" font-size="10.00">it_returns_null_when</text>
<text text-anchor="start" x="17" y="-196" font-family="Helvetica,sans-Serif" font-size="10.00">_no_video_path_is_available()</text>
<text text-anchor="start" x="4" y="-181" font-family="Helvetica,sans-Serif" font-size="10.00">+</text>
<text text-anchor="start" x="17" y="-181" font-family="Helvetica,sans-Serif" font-size="10.00">it_correctly_builds</text>
<text text-anchor="start" x="17" y="-170" font-family="Helvetica,sans-Serif" font-size="10.00">_ftp_url_from_arch_and</text>
<text text-anchor="start" x="17" y="-159" font-family="Helvetica,sans-Serif" font-size="10.00">_pad_disks()</text>
<text text-anchor="start" x="4" y="-144" font-family="Helvetica,sans-Serif" font-size="10.00">+</text>
<text text-anchor="start" x="17" y="-144" font-family="Helvetica,sans-Serif" font-size="10.00">it_deletes_existing</text>
<text text-anchor="start" x="17" y="-133" font-family="Helvetica,sans-Serif" font-size="10.00">_thumbnail_file_successfully()</text>
<text text-anchor="start" x="4" y="-118" font-family="Helvetica,sans-Serif" font-size="10.00">+</text>
<text text-anchor="start" x="17" y="-118" font-family="Helvetica,sans-Serif" font-size="10.00">it_returns_true_when</text>
<text text-anchor="start" x="17" y="-107" font-family="Helvetica,sans-Serif" font-size="10.00">_deleting_thumbnail_that</text>
<text text-anchor="start" x="17" y="-96" font-family="Helvetica,sans-Serif" font-size="10.00">_does_not_exist()</text>
<text text-anchor="start" x="4" y="-81" font-family="Helvetica,sans-Serif" font-size="10.00">+</text>
<text text-anchor="start" x="17" y="-81" font-family="Helvetica,sans-Serif" font-size="10.00">it_regenerates_missing</text>
<text text-anchor="start" x="17" y="-70" font-family="Helvetica,sans-Serif" font-size="10.00">_thumbnails_and_skips</text>
<text text-anchor="start" x="17" y="-59" font-family="Helvetica,sans-Serif" font-size="10.00">_existing_ones()</text>
<text text-anchor="start" x="4" y="-44" font-family="Helvetica,sans-Serif" font-size="10.00">#</text>
<text text-anchor="start" x="17" y="-44" font-family="Helvetica,sans-Serif" font-size="10.00">setUp()</text>
<text text-anchor="start" x="4" y="-29" font-family="Helvetica,sans-Serif" font-size="10.00">#</text>
<text text-anchor="start" x="17" y="-29" font-family="Helvetica,sans-Serif" font-size="10.00">initializeService</text>
<text text-anchor="start" x="17" y="-18" font-family="Helvetica,sans-Serif" font-size="10.00">(MediaThumbnailService</text>
<text text-anchor="start" x="17" y="-7" font-family="Helvetica,sans-Serif" font-size="10.00"> $service)</text>
<polygon fill="#666666" stroke="#666666" points="0,-306 0,-306 186,-306 186,-306 0,-306"/>
<polygon fill="#666666" stroke="#666666" points="0,-291 0,-291 15,-291 15,-291 0,-291"/>
<polygon fill="#666666" stroke="#666666" points="15,-291 15,-291 186,-291 186,-291 15,-291"/>
<polygon fill="none" stroke="#666666" points="0,0 0,-334 186,-334 186,0 0,0"/>
</a>
</g>
</g>
<!-- Node2 -->
<g id="Node000002" class="node">
<title>Node2</title>
<g id="a_Node000002"><a xlink:href="classTests_1_1TestCase.html" target="_top" xlink:title=" ">
<polygon fill="white" stroke="transparent" points="134,-419 52,-419 52,-370 134,-370 134,-419"/>
<text text-anchor="start" x="57" y="-406.5" font-family="Helvetica,sans-Serif" font-size="10.00">Tests\TestCase</text>
<text text-anchor="start" x="91" y="-391.5" font-family="Helvetica,sans-Serif" font-size="10.00"> </text>
<text text-anchor="start" x="91" y="-376.5" font-family="Helvetica,sans-Serif" font-size="10.00"> </text>
<polygon fill="#666666" stroke="#666666" points="52,-401.5 52,-401.5 134,-401.5 134,-401.5 52,-401.5"/>
<polygon fill="#666666" stroke="#666666" points="52,-386.5 52,-386.5 134,-386.5 134,-386.5 52,-386.5"/>
<polygon fill="none" stroke="#666666" points="52,-370 52,-419 134,-419 134,-370 52,-370"/>
</a>
</g>
</g>
<!-- Node2&#45;&gt;Node1 -->
<g id="edge1_Node000001_Node000002" class="edge">
<title>Node2&#45;&gt;Node1</title>
<g id="a_edge1_Node000001_Node000002"><a xlink:title=" ">
<path fill="none" stroke="#63b8ff" d="M93,-359.74C93,-352.15 93,-343.6 93,-334.43"/>
<polygon fill="none" stroke="#63b8ff" points="89.5,-359.79 93,-369.79 96.5,-359.79 89.5,-359.79"/>
</a>
</g>
</g>
<!-- Node3 -->
<g id="Node000003" class="node">
<title>Node3</title>
<g id="a_Node000003"><a xlink:title=" ">
<polygon fill="white" stroke="transparent" points="132,-504 54,-504 54,-455 132,-455 132,-504"/>
<text text-anchor="start" x="59" y="-491.5" font-family="Helvetica,sans-Serif" font-size="10.00">BaseTestCase</text>
<text text-anchor="start" x="91" y="-476.5" font-family="Helvetica,sans-Serif" font-size="10.00"> </text>
<text text-anchor="start" x="91" y="-461.5" font-family="Helvetica,sans-Serif" font-size="10.00"> </text>
<polygon fill="#666666" stroke="#666666" points="54,-486.5 54,-486.5 132,-486.5 132,-486.5 54,-486.5"/>
<polygon fill="#666666" stroke="#666666" points="54,-471.5 54,-471.5 132,-471.5 132,-471.5 54,-471.5"/>
<polygon fill="none" stroke="#666666" points="54,-455 54,-504 132,-504 132,-455 54,-455"/>
</a>
</g>
</g>
<!-- Node3&#45;&gt;Node2 -->
<g id="edge2_Node000002_Node000003" class="edge">
<title>Node3&#45;&gt;Node2</title>
<g id="a_edge2_Node000002_Node000003"><a xlink:title=" ">
<path fill="none" stroke="#63b8ff" d="M93,-444.77C93,-436.17 93,-427.1 93,-419.12"/>
<polygon fill="none" stroke="#63b8ff" points="89.5,-444.94 93,-454.94 96.5,-444.94 89.5,-444.94"/>
</a>
</g>
</g>
</g>
</svg>
