<?xml version="1.0" encoding="UTF-8" standalone="no"?>
<!DOCTYPE svg PUBLIC "-//W3C//DTD SVG 1.1//EN"
 "http://www.w3.org/Graphics/SVG/1.1/DTD/svg11.dtd">
<!-- Generated by graphviz version 2.42.4 (0)
 -->
<!-- Title: Tests\Feature\Auth\AuthenticationTest Pages: 1 -->
<svg width="161pt" height="286pt"
 viewBox="0.00 0.00 161.00 286.00" xmlns="http://www.w3.org/2000/svg" xmlns:xlink="http://www.w3.org/1999/xlink">
<g id="graph0" class="graph" transform="scale(1 1) rotate(0) translate(4 282)">
<title>Tests\Feature\Auth\AuthenticationTest</title>
<!-- Node1 -->
<g id="Node000001" class="node">
<title>Node1</title>
<g id="a_Node000001"><a xlink:title=" ">
<polygon fill="#999999" stroke="transparent" points="153,-108 0,-108 0,0 153,0 153,-108"/>
<text text-anchor="start" x="30" y="-96" font-family="Helvetica,sans-Serif" font-size="10.00">Tests\Feature\Auth</text>
<text text-anchor="start" x="30" y="-85" font-family="Helvetica,sans-Serif" font-size="10.00">\AuthenticationTest</text>
<text text-anchor="start" x="75" y="-70" font-family="Helvetica,sans-Serif" font-size="10.00"> </text>
<text text-anchor="start" x="4.5" y="-55" font-family="Helvetica,sans-Serif" font-size="10.00">+</text>
<text text-anchor="start" x="17.5" y="-55" font-family="Helvetica,sans-Serif" font-size="10.00">test_login_screen</text>
<text text-anchor="start" x="17.5" y="-44" font-family="Helvetica,sans-Serif" font-size="10.00">_can_be_rendered()</text>
<text text-anchor="start" x="4.5" y="-29" font-family="Helvetica,sans-Serif" font-size="10.00">+</text>
<text text-anchor="start" x="17.5" y="-29" font-family="Helvetica,sans-Serif" font-size="10.00">test_users_can_not</text>
<text text-anchor="start" x="17.5" y="-18" font-family="Helvetica,sans-Serif" font-size="10.00">_authenticate_with_invalid</text>
<text text-anchor="start" x="17.5" y="-7" font-family="Helvetica,sans-Serif" font-size="10.00">_password()</text>
<polygon fill="#666666" stroke="#666666" points="0.5,-80 0.5,-80 153.5,-80 153.5,-80 0.5,-80"/>
<polygon fill="#666666" stroke="#666666" points="0.5,-65 0.5,-65 153.5,-65 153.5,-65 0.5,-65"/>
<polygon fill="none" stroke="#666666" points="0,0 0,-108 153,-108 153,0 0,0"/>
</a>
</g>
</g>
<!-- Node2 -->
<g id="Node000002" class="node">
<title>Node2</title>
<g id="a_Node000002"><a xlink:href="classTests_1_1TestCase.html" target="_top" xlink:title=" ">
<polygon fill="white" stroke="transparent" points="117.5,-193 35.5,-193 35.5,-144 117.5,-144 117.5,-193"/>
<text text-anchor="start" x="40.5" y="-180.5" font-family="Helvetica,sans-Serif" font-size="10.00">Tests\TestCase</text>
<text text-anchor="start" x="74.5" y="-165.5" font-family="Helvetica,sans-Serif" font-size="10.00"> </text>
<text text-anchor="start" x="74.5" y="-150.5" font-family="Helvetica,sans-Serif" font-size="10.00"> </text>
<polygon fill="#666666" stroke="#666666" points="35.5,-175.5 35.5,-175.5 117.5,-175.5 117.5,-175.5 35.5,-175.5"/>
<polygon fill="#666666" stroke="#666666" points="35.5,-160.5 35.5,-160.5 117.5,-160.5 117.5,-160.5 35.5,-160.5"/>
<polygon fill="none" stroke="#666666" points="35.5,-144 35.5,-193 117.5,-193 117.5,-144 35.5,-144"/>
</a>
</g>
</g>
<!-- Node2&#45;&gt;Node1 -->
<g id="edge1_Node000001_Node000002" class="edge">
<title>Node2&#45;&gt;Node1</title>
<g id="a_edge1_Node000001_Node000002"><a xlink:title=" ">
<path fill="none" stroke="#63b8ff" d="M76.5,-133.81C76.5,-125.74 76.5,-116.93 76.5,-108.21"/>
<polygon fill="none" stroke="#63b8ff" points="73,-133.92 76.5,-143.92 80,-133.92 73,-133.92"/>
</a>
</g>
</g>
<!-- Node3 -->
<g id="Node000003" class="node">
<title>Node3</title>
<g id="a_Node000003"><a xlink:title=" ">
<polygon fill="white" stroke="transparent" points="115.5,-278 37.5,-278 37.5,-229 115.5,-229 115.5,-278"/>
<text text-anchor="start" x="42.5" y="-265.5" font-family="Helvetica,sans-Serif" font-size="10.00">BaseTestCase</text>
<text text-anchor="start" x="74.5" y="-250.5" font-family="Helvetica,sans-Serif" font-size="10.00"> </text>
<text text-anchor="start" x="74.5" y="-235.5" font-family="Helvetica,sans-Serif" font-size="10.00"> </text>
<polygon fill="#666666" stroke="#666666" points="37.5,-260.5 37.5,-260.5 115.5,-260.5 115.5,-260.5 37.5,-260.5"/>
<polygon fill="#666666" stroke="#666666" points="37.5,-245.5 37.5,-245.5 115.5,-245.5 115.5,-245.5 37.5,-245.5"/>
<polygon fill="none" stroke="#666666" points="37.5,-229 37.5,-278 115.5,-278 115.5,-229 37.5,-229"/>
</a>
</g>
</g>
<!-- Node3&#45;&gt;Node2 -->
<g id="edge2_Node000002_Node000003" class="edge">
<title>Node3&#45;&gt;Node2</title>
<g id="a_edge2_Node000002_Node000003"><a xlink:title=" ">
<path fill="none" stroke="#63b8ff" d="M76.5,-218.77C76.5,-210.17 76.5,-201.1 76.5,-193.12"/>
<polygon fill="none" stroke="#63b8ff" points="73,-218.94 76.5,-228.94 80,-218.94 73,-218.94"/>
</a>
</g>
</g>
</g>
</svg>
