<?xml version="1.0" encoding="UTF-8" standalone="no"?>
<!DOCTYPE svg PUBLIC "-//W3C//DTD SVG 1.1//EN"
 "http://www.w3.org/Graphics/SVG/1.1/DTD/svg11.dtd">
<!-- Generated by graphviz version 2.42.4 (0)
 -->
<!-- Title: App\Services\FfastransService\translateStatus Pages: 1 -->
<svg width="533pt" height="49pt"
 viewBox="0.00 0.00 533.00 49.00" xmlns="http://www.w3.org/2000/svg" xmlns:xlink="http://www.w3.org/1999/xlink">
<g id="graph0" class="graph" transform="scale(1 1) rotate(0) translate(4 45)">
<title>App\Services\FfastransService\translateStatus</title>
<!-- Node1 -->
<g id="Node000001" class="node">
<title>Node1</title>
<g id="a_Node000001"><a xlink:title="Helper to translate English statuses to French.">
<polygon fill="#999999" stroke="#666666" points="525,-35.5 361,-35.5 361,-5.5 525,-5.5 525,-35.5"/>
<text text-anchor="start" x="369" y="-23.5" font-family="Helvetica,sans-Serif" font-size="10.00">App\Services\FfastransService</text>
<text text-anchor="middle" x="443" y="-12.5" font-family="Helvetica,sans-Serif" font-size="10.00">\translateStatus</text>
</a>
</g>
</g>
<!-- Node2 -->
<g id="Node000002" class="node">
<title>Node2</title>
<g id="a_Node000002"><a xlink:href="classApp_1_1Services_1_1FfastransService.html#afd12d7538c3acc927dd210eb779caada" target="_top" xlink:title=" ">
<polygon fill="white" stroke="#666666" points="325,-35.5 161,-35.5 161,-5.5 325,-5.5 325,-35.5"/>
<text text-anchor="start" x="169" y="-23.5" font-family="Helvetica,sans-Serif" font-size="10.00">App\Services\FfastransService</text>
<text text-anchor="middle" x="243" y="-12.5" font-family="Helvetica,sans-Serif" font-size="10.00">\getFullStatusList</text>
</a>
</g>
</g>
<!-- Node1&#45;&gt;Node2 -->
<g id="edge1_Node000001_Node000002" class="edge">
<title>Node1&#45;&gt;Node2</title>
<g id="a_edge1_Node000001_Node000002"><a xlink:title=" ">
<path fill="none" stroke="#63b8ff" d="M350.64,-20.5C342.18,-20.5 333.65,-20.5 325.3,-20.5"/>
<polygon fill="#63b8ff" stroke="#63b8ff" points="350.89,-24 360.89,-20.5 350.89,-17 350.89,-24"/>
</a>
</g>
</g>
<!-- Node3 -->
<g id="Node000003" class="node">
<title>Node3</title>
<g id="a_Node000003"><a xlink:href="classApp_1_1Http_1_1Controllers_1_1FileExplorerController.html#af62cfae650ed7ee6eb832d0d38dffe34" target="_top" xlink:title=" ">
<polygon fill="white" stroke="#666666" points="125,-41 0,-41 0,0 125,0 125,-41"/>
<text text-anchor="start" x="8" y="-29" font-family="Helvetica,sans-Serif" font-size="10.00">App\Http\Controllers</text>
<text text-anchor="start" x="8" y="-18" font-family="Helvetica,sans-Serif" font-size="10.00">\FileExplorerController</text>
<text text-anchor="middle" x="62.5" y="-7" font-family="Helvetica,sans-Serif" font-size="10.00">\scanResults</text>
</a>
</g>
</g>
<!-- Node2&#45;&gt;Node3 -->
<g id="edge2_Node000002_Node000003" class="edge">
<title>Node2&#45;&gt;Node3</title>
<g id="a_edge2_Node000002_Node000003"><a xlink:title=" ">
<path fill="none" stroke="#63b8ff" d="M150.72,-20.5C142.08,-20.5 133.47,-20.5 125.21,-20.5"/>
<polygon fill="#63b8ff" stroke="#63b8ff" points="150.85,-24 160.85,-20.5 150.85,-17 150.85,-24"/>
</a>
</g>
</g>
</g>
</svg>
