<?xml version="1.0" encoding="UTF-8" standalone="no"?>
<!DOCTYPE svg PUBLIC "-//W3C//DTD SVG 1.1//EN"
 "http://www.w3.org/Graphics/SVG/1.1/DTD/svg11.dtd">
<!-- Generated by graphviz version 2.42.4 (0)
 -->
<!-- Title: Tests\Unit\ExampleTest Pages: 1 -->
<svg width="132pt" height="153pt"
 viewBox="0.00 0.00 132.00 153.00" xmlns="http://www.w3.org/2000/svg" xmlns:xlink="http://www.w3.org/1999/xlink">
<g id="graph0" class="graph" transform="scale(1 1) rotate(0) translate(4 149)">
<title>Tests\Unit\ExampleTest</title>
<!-- Node1 -->
<g id="Node000001" class="node">
<title>Node1</title>
<g id="a_Node000001"><a xlink:title=" ">
<polygon fill="#999999" stroke="transparent" points="124,-60 0,-60 0,0 124,0 124,-60"/>
<text text-anchor="start" x="5" y="-48" font-family="Helvetica,sans-Serif" font-size="10.00">Tests\Unit\ExampleTest</text>
<text text-anchor="start" x="60" y="-33" font-family="Helvetica,sans-Serif" font-size="10.00"> </text>
<text text-anchor="start" x="9" y="-18" font-family="Helvetica,sans-Serif" font-size="10.00">+</text>
<text text-anchor="start" x="27" y="-18" font-family="Helvetica,sans-Serif" font-size="10.00">test_that_true_is</text>
<text text-anchor="start" x="27" y="-7" font-family="Helvetica,sans-Serif" font-size="10.00">_true()</text>
<polygon fill="#666666" stroke="#666666" points="0,-43 0,-43 124,-43 124,-43 0,-43"/>
<polygon fill="#666666" stroke="#666666" points="0,-28 0,-28 124,-28 124,-28 0,-28"/>
<polygon fill="none" stroke="#666666" points="0,0 0,-60 124,-60 124,0 0,0"/>
</a>
</g>
</g>
<!-- Node2 -->
<g id="Node000002" class="node">
<title>Node2</title>
<g id="a_Node000002"><a xlink:title=" ">
<polygon fill="white" stroke="transparent" points="89,-145 35,-145 35,-96 89,-96 89,-145"/>
<text text-anchor="start" x="40" y="-132.5" font-family="Helvetica,sans-Serif" font-size="10.00">TestCase</text>
<text text-anchor="start" x="60" y="-117.5" font-family="Helvetica,sans-Serif" font-size="10.00"> </text>
<text text-anchor="start" x="60" y="-102.5" font-family="Helvetica,sans-Serif" font-size="10.00"> </text>
<polygon fill="#666666" stroke="#666666" points="35,-127.5 35,-127.5 89,-127.5 89,-127.5 35,-127.5"/>
<polygon fill="#666666" stroke="#666666" points="35,-112.5 35,-112.5 89,-112.5 89,-112.5 35,-112.5"/>
<polygon fill="none" stroke="#666666" points="35,-96 35,-145 89,-145 89,-96 35,-96"/>
</a>
</g>
</g>
<!-- Node2&#45;&gt;Node1 -->
<g id="edge1_Node000001_Node000002" class="edge">
<title>Node2&#45;&gt;Node1</title>
<g id="a_edge1_Node000001_Node000002"><a xlink:title=" ">
<path fill="none" stroke="#63b8ff" d="M62,-85.55C62,-77.18 62,-68.28 62,-60.16"/>
<polygon fill="none" stroke="#63b8ff" points="58.5,-85.78 62,-95.78 65.5,-85.78 58.5,-85.78"/>
</a>
</g>
</g>
</g>
</svg>
