<?xml version="1.0" encoding="UTF-8" standalone="no"?>
<!DOCTYPE svg PUBLIC "-//W3C//DTD SVG 1.1//EN"
 "http://www.w3.org/Graphics/SVG/1.1/DTD/svg11.dtd">
<!-- Generated by graphviz version 2.42.4 (0)
 -->
<!-- Title: App\Jobs\ScanDiskJob Pages: 1 -->
<svg width="126pt" height="265pt"
 viewBox="0.00 0.00 126.00 265.00" xmlns="http://www.w3.org/2000/svg" xmlns:xlink="http://www.w3.org/1999/xlink">

<svg id="main" version="1.1" xmlns="http://www.w3.org/2000/svg" xmlns:xlink="http://www.w3.org/1999/xlink" xml:space="preserve" onload="init(evt)">
<style type="text/css"><![CDATA[
.node, .edge {opacity: 0.7;}
.node.selected, .edge.selected {opacity: 1;}
.edge:hover path { stroke: red; }
.edge:hover polygon { stroke: red; fill: red; }
]]></style>
<script type="application/ecmascript" xlink:href="svg.min.js"/>
<svg id="graph" class="graph">
<g id="graph0" class="graph" transform="scale(1 1) rotate(0) translate(4 261)">
<title>App\Jobs\ScanDiskJob</title>
<!-- Node1 -->
<g id="Node000001" class="node">
<title>Node1</title>
<g id="a_Node000001"><a xlink:title=" ">
<polygon fill="#999999" stroke="transparent" points="118,-172 0,-172 0,0 118,0 118,-172"/>
<text text-anchor="start" x="6" y="-160" font-family="Helvetica,sans-Serif" font-size="10.00">App\Jobs\ScanDiskJob</text>
<text text-anchor="start" x="4" y="-145" font-family="Helvetica,sans-Serif" font-size="10.00">+</text>
<text text-anchor="start" x="17" y="-145" font-family="Helvetica,sans-Serif" font-size="10.00">string $disk</text>
<text text-anchor="start" x="4" y="-130" font-family="Helvetica,sans-Serif" font-size="10.00">+</text>
<text text-anchor="start" x="17" y="-130" font-family="Helvetica,sans-Serif" font-size="10.00">string $path</text>
<text text-anchor="start" x="4" y="-115" font-family="Helvetica,sans-Serif" font-size="10.00">+</text>
<text text-anchor="start" x="17" y="-115" font-family="Helvetica,sans-Serif" font-size="10.00">string $scanId</text>
<text text-anchor="start" x="4" y="-100" font-family="Helvetica,sans-Serif" font-size="10.00">+</text>
<text text-anchor="start" x="17" y="-100" font-family="Helvetica,sans-Serif" font-size="10.00">$timeout</text>
<text text-anchor="start" x="4" y="-85" font-family="Helvetica,sans-Serif" font-size="10.00">+</text>
<text text-anchor="start" x="17" y="-85" font-family="Helvetica,sans-Serif" font-size="10.00">$tries</text>
<text text-anchor="start" x="4" y="-70" font-family="Helvetica,sans-Serif" font-size="10.00">+</text>
<text text-anchor="start" x="17" y="-70" font-family="Helvetica,sans-Serif" font-size="10.00">__construct(string</text>
<text text-anchor="start" x="17" y="-59" font-family="Helvetica,sans-Serif" font-size="10.00"> $disk, string $path,</text>
<text text-anchor="start" x="17" y="-48" font-family="Helvetica,sans-Serif" font-size="10.00"> string $scanId)</text>
<text text-anchor="start" x="4" y="-33" font-family="Helvetica,sans-Serif" font-size="10.00">+</text>
<text text-anchor="start" x="17" y="-33" font-family="Helvetica,sans-Serif" font-size="10.00">handle()</text>
<text text-anchor="start" x="4" y="-18" font-family="Helvetica,sans-Serif" font-size="10.00">#</text>
<text text-anchor="start" x="17" y="-18" font-family="Helvetica,sans-Serif" font-size="10.00">flushBufferToCache</text>
<text text-anchor="start" x="17" y="-7" font-family="Helvetica,sans-Serif" font-size="10.00">(array $newFiles)</text>
<polygon fill="#666666" stroke="#666666" points="0,-155 0,-155 118,-155 118,-155 0,-155"/>
<polygon fill="#666666" stroke="#666666" points="0,-80 0,-80 15,-80 15,-80 0,-80"/>
<polygon fill="#666666" stroke="#666666" points="15,-80 15,-80 118,-80 118,-80 15,-80"/>
<polygon fill="none" stroke="#666666" points="0,0 0,-172 118,-172 118,0 0,0"/>
</a>
</g>
</g>
<!-- Node2 -->
<g id="Node000002" class="node">
<title>Node2</title>
<g id="a_Node000002"><a xlink:title=" ">
<polygon fill="white" stroke="transparent" points="96.5,-257 21.5,-257 21.5,-208 96.5,-208 96.5,-257"/>
<text text-anchor="start" x="27" y="-244.5" font-family="Helvetica,sans-Serif" font-size="10.00">ShouldQueue</text>
<text text-anchor="start" x="57.5" y="-229.5" font-family="Helvetica,sans-Serif" font-size="10.00"> </text>
<text text-anchor="start" x="57.5" y="-214.5" font-family="Helvetica,sans-Serif" font-size="10.00"> </text>
<polygon fill="#666666" stroke="#666666" points="22,-239.5 22,-239.5 97,-239.5 97,-239.5 22,-239.5"/>
<polygon fill="#666666" stroke="#666666" points="22,-224.5 22,-224.5 97,-224.5 97,-224.5 22,-224.5"/>
<polygon fill="none" stroke="#666666" points="21.5,-208 21.5,-257 96.5,-257 96.5,-208 21.5,-208"/>
</a>
</g>
</g>
<!-- Node2&#45;&gt;Node1 -->
<g id="edge1_Node000001_Node000002" class="edge">
<title>Node2&#45;&gt;Node1</title>
<g id="a_edge1_Node000001_Node000002"><a xlink:title=" ">
<path fill="none" stroke="#63b8ff" d="M59,-197.79C59,-189.9 59,-181.14 59,-172.1"/>
<polygon fill="none" stroke="#63b8ff" points="55.5,-197.96 59,-207.96 62.5,-197.96 55.5,-197.96"/>
</a>
</g>
</g>
</g>
</svg>
</svg>

<style type='text/css'>
<![CDATA[
[data-mouse-over-selected='false'] { opacity: 0.7; }
[data-mouse-over-selected='true']  { opacity: 1.0; }
]]>
</style>
<script type="application/ecmascript"><![CDATA[
document.addEventListener('DOMContentLoaded', (event) => {
  highlightEdges();
  highlightAdjacentNodes();
});
]]></script>
</svg>
