<?xml version="1.0" encoding="UTF-8" standalone="no"?>
<!DOCTYPE svg PUBLIC "-//W3C//DTD SVG 1.1//EN"
 "http://www.w3.org/Graphics/SVG/1.1/DTD/svg11.dtd">
<!-- Generated by graphviz version 2.42.4 (0)
 -->
<!-- Title: Tests\Feature\PermissionsTest Pages: 1 -->
<svg width="166pt" height="275pt"
 viewBox="0.00 0.00 166.00 275.00" xmlns="http://www.w3.org/2000/svg" xmlns:xlink="http://www.w3.org/1999/xlink">
<g id="graph0" class="graph" transform="scale(1 1) rotate(0) translate(4 271)">
<title>Tests\Feature\PermissionsTest</title>
<!-- Node1 -->
<g id="Node000001" class="node">
<title>Node1</title>
<g id="a_Node000001"><a xlink:title=" ">
<polygon fill="#999999" stroke="transparent" points="158,-97 0,-97 0,0 158,0 158,-97"/>
<text text-anchor="start" x="5.5" y="-84.5" font-family="Helvetica,sans-Serif" font-size="10.00">Tests\Feature\PermissionsTest</text>
<text text-anchor="start" x="77" y="-69.5" font-family="Helvetica,sans-Serif" font-size="10.00"> </text>
<text text-anchor="start" x="4" y="-54.5" font-family="Helvetica,sans-Serif" font-size="10.00">+</text>
<text text-anchor="start" x="17" y="-54.5" font-family="Helvetica,sans-Serif" font-size="10.00">un_professeur_ne_peut</text>
<text text-anchor="start" x="17" y="-43.5" font-family="Helvetica,sans-Serif" font-size="10.00">_pas_acceder_aux_reglages</text>
<text text-anchor="start" x="17" y="-32.5" font-family="Helvetica,sans-Serif" font-size="10.00">_admin()</text>
<text text-anchor="start" x="4" y="-17.5" font-family="Helvetica,sans-Serif" font-size="10.00">+</text>
<text text-anchor="start" x="17" y="-17.5" font-family="Helvetica,sans-Serif" font-size="10.00">l_admin_unique_peut</text>
<text text-anchor="start" x="17" y="-6.5" font-family="Helvetica,sans-Serif" font-size="10.00">_acceder_aux_reglages()</text>
<polygon fill="#666666" stroke="#666666" points="0,-79.5 0,-79.5 158,-79.5 158,-79.5 0,-79.5"/>
<polygon fill="#666666" stroke="#666666" points="0,-64.5 0,-64.5 158,-64.5 158,-64.5 0,-64.5"/>
<polygon fill="none" stroke="#666666" points="0,0 0,-97 158,-97 158,0 0,0"/>
</a>
</g>
</g>
<!-- Node2 -->
<g id="Node000002" class="node">
<title>Node2</title>
<g id="a_Node000002"><a xlink:href="classTests_1_1TestCase.html" target="_top" xlink:title=" ">
<polygon fill="white" stroke="transparent" points="120,-182 38,-182 38,-133 120,-133 120,-182"/>
<text text-anchor="start" x="43" y="-169.5" font-family="Helvetica,sans-Serif" font-size="10.00">Tests\TestCase</text>
<text text-anchor="start" x="77" y="-154.5" font-family="Helvetica,sans-Serif" font-size="10.00"> </text>
<text text-anchor="start" x="77" y="-139.5" font-family="Helvetica,sans-Serif" font-size="10.00"> </text>
<polygon fill="#666666" stroke="#666666" points="38,-164.5 38,-164.5 120,-164.5 120,-164.5 38,-164.5"/>
<polygon fill="#666666" stroke="#666666" points="38,-149.5 38,-149.5 120,-149.5 120,-149.5 38,-149.5"/>
<polygon fill="none" stroke="#666666" points="38,-133 38,-182 120,-182 120,-133 38,-133"/>
</a>
</g>
</g>
<!-- Node2&#45;&gt;Node1 -->
<g id="edge1_Node000001_Node000002" class="edge">
<title>Node2&#45;&gt;Node1</title>
<g id="a_edge1_Node000001_Node000002"><a xlink:title=" ">
<path fill="none" stroke="#63b8ff" d="M79,-122.64C79,-114.59 79,-105.85 79,-97.3"/>
<polygon fill="none" stroke="#63b8ff" points="75.5,-122.75 79,-132.75 82.5,-122.75 75.5,-122.75"/>
</a>
</g>
</g>
<!-- Node3 -->
<g id="Node000003" class="node">
<title>Node3</title>
<g id="a_Node000003"><a xlink:title=" ">
<polygon fill="white" stroke="transparent" points="118,-267 40,-267 40,-218 118,-218 118,-267"/>
<text text-anchor="start" x="45" y="-254.5" font-family="Helvetica,sans-Serif" font-size="10.00">BaseTestCase</text>
<text text-anchor="start" x="77" y="-239.5" font-family="Helvetica,sans-Serif" font-size="10.00"> </text>
<text text-anchor="start" x="77" y="-224.5" font-family="Helvetica,sans-Serif" font-size="10.00"> </text>
<polygon fill="#666666" stroke="#666666" points="40,-249.5 40,-249.5 118,-249.5 118,-249.5 40,-249.5"/>
<polygon fill="#666666" stroke="#666666" points="40,-234.5 40,-234.5 118,-234.5 118,-234.5 40,-234.5"/>
<polygon fill="none" stroke="#666666" points="40,-218 40,-267 118,-267 118,-218 40,-218"/>
</a>
</g>
</g>
<!-- Node3&#45;&gt;Node2 -->
<g id="edge2_Node000002_Node000003" class="edge">
<title>Node3&#45;&gt;Node2</title>
<g id="a_edge2_Node000002_Node000003"><a xlink:title=" ">
<path fill="none" stroke="#63b8ff" d="M79,-207.77C79,-199.17 79,-190.1 79,-182.12"/>
<polygon fill="none" stroke="#63b8ff" points="75.5,-207.94 79,-217.94 82.5,-207.94 75.5,-207.94"/>
</a>
</g>
</g>
</g>
</svg>
