<?xml version="1.0" encoding="UTF-8" standalone="no"?>
<!DOCTYPE svg PUBLIC "-//W3C//DTD SVG 1.1//EN"
 "http://www.w3.org/Graphics/SVG/1.1/DTD/svg11.dtd">
<!-- Generated by graphviz version 2.42.4 (0)
 -->
<!-- Title: Graphe hiérarchique des classes Pages: 1 -->
<svg width="446pt" height="625pt"
 viewBox="0.00 0.00 446.00 624.50" xmlns="http://www.w3.org/2000/svg" xmlns:xlink="http://www.w3.org/1999/xlink">
<g id="graph0" class="graph" transform="scale(1 1) rotate(0) translate(4 620.5)">
<title>Graphe hiérarchique des classes</title>
<!-- Node0 -->
<g id="Node000000" class="node">
<title>Node0</title>
<g id="a_Node000000"><a xlink:title=" ">
<polygon fill="#e0e0e0" stroke="#999999" points="84,-300.5 0,-300.5 0,-281.5 84,-281.5 84,-300.5"/>
<text text-anchor="middle" x="42" y="-288.5" font-family="Helvetica,sans-Serif" font-size="10.00">BaseTestCase</text>
</a>
</g>
</g>
<!-- Node1 -->
<g id="Node000001" class="node">
<title>Node1</title>
<g id="a_Node000001"><a xlink:href="classTests_1_1TestCase.html" target="_top" xlink:title=" ">
<polygon fill="white" stroke="#666666" points="208,-300.5 120,-300.5 120,-281.5 208,-281.5 208,-300.5"/>
<text text-anchor="middle" x="164" y="-288.5" font-family="Helvetica,sans-Serif" font-size="10.00">Tests\TestCase</text>
</a>
</g>
</g>
<!-- Node0&#45;&gt;Node1 -->
<g id="edge15_Node000000_Node000001" class="edge">
<title>Node0&#45;&gt;Node1</title>
<g id="a_edge15_Node000000_Node000001"><a xlink:title=" ">
<path fill="none" stroke="#63b8ff" d="M94.5,-291C103,-291 111.73,-291 119.99,-291"/>
<polygon fill="#63b8ff" stroke="#63b8ff" points="94.3,-287.5 84.3,-291 94.3,-294.5 94.3,-287.5"/>
</a>
</g>
</g>
<!-- Node2 -->
<g id="Node000002" class="node">
<title>Node2</title>
<g id="a_Node000002"><a xlink:href="classTests_1_1Feature_1_1AdminControllerTest.html" target="_top" xlink:title=" ">
<polygon fill="white" stroke="#666666" points="432.5,-616.5 249.5,-616.5 249.5,-597.5 432.5,-597.5 432.5,-616.5"/>
<text text-anchor="middle" x="341" y="-604.5" font-family="Helvetica,sans-Serif" font-size="10.00">Tests\Feature\AdminControllerTest</text>
</a>
</g>
</g>
<!-- Node1&#45;&gt;Node2 -->
<g id="edge16_Node000001_Node000002" class="edge">
<title>Node1&#45;&gt;Node2</title>
<g id="a_edge16_Node000001_Node000002"><a xlink:title=" ">
<path fill="none" stroke="#63b8ff" d="M167.51,-310.61C175.56,-370.49 202.68,-549.26 244,-588 247.97,-591.72 252.44,-594.8 257.24,-597.36"/>
<polygon fill="#63b8ff" stroke="#63b8ff" points="170.96,-310.04 166.19,-300.58 164.02,-310.95 170.96,-310.04"/>
</a>
</g>
</g>
<!-- Node3 -->
<g id="Node000003" class="node">
<title>Node3</title>
<g id="a_Node000003"><a xlink:href="classTests_1_1Feature_1_1Auth_1_1AuthenticationTest.html" target="_top" xlink:title=" ">
<polygon fill="white" stroke="#666666" points="396,-579 286,-579 286,-549 396,-549 396,-579"/>
<text text-anchor="start" x="294" y="-567" font-family="Helvetica,sans-Serif" font-size="10.00">Tests\Feature\Auth</text>
<text text-anchor="middle" x="341" y="-556" font-family="Helvetica,sans-Serif" font-size="10.00">\AuthenticationTest</text>
</a>
</g>
</g>
<!-- Node1&#45;&gt;Node3 -->
<g id="edge17_Node000001_Node000003" class="edge">
<title>Node1&#45;&gt;Node3</title>
<g id="a_edge17_Node000001_Node000003"><a xlink:title=" ">
<path fill="none" stroke="#63b8ff" d="M165.13,-310.64C166.57,-357.58 176.98,-477.03 244,-540 255.39,-550.71 270.82,-556.83 285.97,-560.28"/>
<polygon fill="#63b8ff" stroke="#63b8ff" points="168.63,-310.51 164.94,-300.58 161.63,-310.65 168.63,-310.51"/>
</a>
</g>
</g>
<!-- Node4 -->
<g id="Node000004" class="node">
<title>Node4</title>
<g id="a_Node000004"><a xlink:href="classTests_1_1Feature_1_1Auth_1_1PasswordUpdateTest.html" target="_top" xlink:title=" ">
<polygon fill="white" stroke="#666666" points="401,-531 281,-531 281,-501 401,-501 401,-531"/>
<text text-anchor="start" x="289" y="-519" font-family="Helvetica,sans-Serif" font-size="10.00">Tests\Feature\Auth</text>
<text text-anchor="middle" x="341" y="-508" font-family="Helvetica,sans-Serif" font-size="10.00">\PasswordUpdateTest</text>
</a>
</g>
</g>
<!-- Node1&#45;&gt;Node4 -->
<g id="edge18_Node000001_Node000004" class="edge">
<title>Node1&#45;&gt;Node4</title>
<g id="a_edge18_Node000001_Node000004"><a xlink:title=" ">
<path fill="none" stroke="#63b8ff" d="M166.88,-310.89C171.79,-351.35 188.75,-443.48 244,-492 254.33,-501.07 267.57,-506.81 280.91,-510.43"/>
<polygon fill="#63b8ff" stroke="#63b8ff" points="170.33,-310.28 165.77,-300.72 163.37,-311.04 170.33,-310.28"/>
</a>
</g>
</g>
<!-- Node5 -->
<g id="Node000005" class="node">
<title>Node5</title>
<g id="a_Node000005"><a xlink:href="classTests_1_1Feature_1_1FileExplorerControllerTest.html" target="_top" xlink:title=" ">
<polygon fill="white" stroke="#666666" points="412,-483 270,-483 270,-453 412,-453 412,-483"/>
<text text-anchor="start" x="278" y="-471" font-family="Helvetica,sans-Serif" font-size="10.00">Tests\Feature\FileExplorer</text>
<text text-anchor="middle" x="341" y="-460" font-family="Helvetica,sans-Serif" font-size="10.00">ControllerTest</text>
</a>
</g>
</g>
<!-- Node1&#45;&gt;Node5 -->
<g id="edge19_Node000001_Node000005" class="edge">
<title>Node1&#45;&gt;Node5</title>
<g id="a_edge19_Node000001_Node000005"><a xlink:title=" ">
<path fill="none" stroke="#63b8ff" d="M169.46,-310.39C178.04,-343.11 199.99,-409.16 244,-444 251.54,-449.97 260.38,-454.48 269.58,-457.88"/>
<polygon fill="#63b8ff" stroke="#63b8ff" points="172.86,-309.52 167.06,-300.66 166.06,-311.2 172.86,-309.52"/>
</a>
</g>
</g>
<!-- Node6 -->
<g id="Node000006" class="node">
<title>Node6</title>
<g id="a_Node000006"><a xlink:href="classTests_1_1Feature_1_1FileExplorerServiceTest.html" target="_top" xlink:title=" ">
<polygon fill="white" stroke="#666666" points="412,-435 270,-435 270,-405 412,-405 412,-435"/>
<text text-anchor="start" x="278" y="-423" font-family="Helvetica,sans-Serif" font-size="10.00">Tests\Feature\FileExplorer</text>
<text text-anchor="middle" x="341" y="-412" font-family="Helvetica,sans-Serif" font-size="10.00">ServiceTest</text>
</a>
</g>
</g>
<!-- Node1&#45;&gt;Node6 -->
<g id="edge20_Node000001_Node000006" class="edge">
<title>Node1&#45;&gt;Node6</title>
<g id="a_edge20_Node000001_Node000006"><a xlink:title=" ">
<path fill="none" stroke="#63b8ff" d="M173.91,-309.62C186.27,-333.38 210.89,-374.05 244,-396 251.88,-401.22 260.8,-405.31 269.95,-408.5"/>
<polygon fill="#63b8ff" stroke="#63b8ff" points="176.99,-307.94 169.38,-300.57 170.73,-311.08 176.99,-307.94"/>
</a>
</g>
</g>
<!-- Node7 -->
<g id="Node000007" class="node">
<title>Node7</title>
<g id="a_Node000007"><a xlink:href="classTests_1_1Feature_1_1MediaControllerTest.html" target="_top" xlink:title=" ">
<polygon fill="white" stroke="#666666" points="432,-386.5 250,-386.5 250,-367.5 432,-367.5 432,-386.5"/>
<text text-anchor="middle" x="341" y="-374.5" font-family="Helvetica,sans-Serif" font-size="10.00">Tests\Feature\MediaControllerTest</text>
</a>
</g>
</g>
<!-- Node1&#45;&gt;Node7 -->
<g id="edge21_Node000001_Node000007" class="edge">
<title>Node1&#45;&gt;Node7</title>
<g id="a_edge21_Node000001_Node000007"><a xlink:title=" ">
<path fill="none" stroke="#63b8ff" d="M179.98,-307.9C194.71,-323.4 218.62,-345.76 244,-358 252.11,-361.91 260.98,-365.02 269.94,-367.49"/>
<polygon fill="#63b8ff" stroke="#63b8ff" points="182.51,-305.48 173.16,-300.51 177.37,-310.23 182.51,-305.48"/>
</a>
</g>
</g>
<!-- Node8 -->
<g id="Node000008" class="node">
<title>Node8</title>
<g id="a_Node000008"><a xlink:href="classTests_1_1Feature_1_1MediaThumbnailServiceTest.html" target="_top" xlink:title=" ">
<polygon fill="white" stroke="#666666" points="424,-349 258,-349 258,-319 424,-319 424,-349"/>
<text text-anchor="start" x="266" y="-337" font-family="Helvetica,sans-Serif" font-size="10.00">Tests\Feature\MediaThumbnail</text>
<text text-anchor="middle" x="341" y="-326" font-family="Helvetica,sans-Serif" font-size="10.00">ServiceTest</text>
</a>
</g>
</g>
<!-- Node1&#45;&gt;Node8 -->
<g id="edge22_Node000001_Node000008" class="edge">
<title>Node1&#45;&gt;Node8</title>
<g id="a_edge22_Node000001_Node000008"><a xlink:title=" ">
<path fill="none" stroke="#63b8ff" d="M213.75,-302.98C233.95,-307.94 257.59,-313.75 278.93,-318.99"/>
<polygon fill="#63b8ff" stroke="#63b8ff" points="214.38,-299.53 203.84,-300.54 212.71,-306.33 214.38,-299.53"/>
</a>
</g>
</g>
<!-- Node9 -->
<g id="Node000009" class="node">
<title>Node9</title>
<g id="a_Node000009"><a xlink:href="classTests_1_1Feature_1_1PermissionsTest.html" target="_top" xlink:title=" ">
<polygon fill="white" stroke="#666666" points="422.5,-300.5 259.5,-300.5 259.5,-281.5 422.5,-281.5 422.5,-300.5"/>
<text text-anchor="middle" x="341" y="-288.5" font-family="Helvetica,sans-Serif" font-size="10.00">Tests\Feature\PermissionsTest</text>
</a>
</g>
</g>
<!-- Node1&#45;&gt;Node9 -->
<g id="edge23_Node000001_Node000009" class="edge">
<title>Node1&#45;&gt;Node9</title>
<g id="a_edge23_Node000001_Node000009"><a xlink:title=" ">
<path fill="none" stroke="#63b8ff" d="M218.37,-291C231.32,-291 245.46,-291 259.36,-291"/>
<polygon fill="#63b8ff" stroke="#63b8ff" points="218.26,-287.5 208.26,-291 218.26,-294.5 218.26,-287.5"/>
</a>
</g>
</g>
<!-- Node10 -->
<g id="Node000010" class="node">
<title>Node10</title>
<g id="a_Node000010"><a xlink:href="classTests_1_1Feature_1_1ProfileTest.html" target="_top" xlink:title=" ">
<polygon fill="white" stroke="#666666" points="408,-263.5 274,-263.5 274,-244.5 408,-244.5 408,-263.5"/>
<text text-anchor="middle" x="341" y="-251.5" font-family="Helvetica,sans-Serif" font-size="10.00">Tests\Feature\ProfileTest</text>
</a>
</g>
</g>
<!-- Node1&#45;&gt;Node10 -->
<g id="edge24_Node000001_Node000010" class="edge">
<title>Node1&#45;&gt;Node10</title>
<g id="a_edge24_Node000001_Node000010"><a xlink:title=" ">
<path fill="none" stroke="#63b8ff" d="M215.91,-279.18C225.24,-277.07 234.91,-274.94 244,-273 258.96,-269.82 275.26,-266.52 290.12,-263.59"/>
<polygon fill="#63b8ff" stroke="#63b8ff" points="214.93,-275.81 205.95,-281.43 216.48,-282.63 214.93,-275.81"/>
</a>
</g>
</g>
<!-- Node11 -->
<g id="Node000011" class="node">
<title>Node11</title>
<g id="a_Node000011"><a xlink:href="classTests_1_1Feature_1_1SearchControllerTest.html" target="_top" xlink:title=" ">
<polygon fill="white" stroke="#666666" points="433.5,-226.5 248.5,-226.5 248.5,-207.5 433.5,-207.5 433.5,-226.5"/>
<text text-anchor="middle" x="341" y="-214.5" font-family="Helvetica,sans-Serif" font-size="10.00">Tests\Feature\SearchControllerTest</text>
</a>
</g>
</g>
<!-- Node1&#45;&gt;Node11 -->
<g id="edge25_Node000001_Node000011" class="edge">
<title>Node1&#45;&gt;Node11</title>
<g id="a_edge25_Node000001_Node000011"><a xlink:title=" ">
<path fill="none" stroke="#63b8ff" d="M183.69,-274.62C198.92,-262.15 221.5,-245.56 244,-236 253.15,-232.11 263.13,-229.01 273.08,-226.54"/>
<polygon fill="#63b8ff" stroke="#63b8ff" points="181.04,-272.28 175.64,-281.4 185.54,-277.64 181.04,-272.28"/>
</a>
</g>
</g>
<!-- Node12 -->
<g id="Node000012" class="node">
<title>Node12</title>
<g id="a_Node000012"><a xlink:href="classTests_1_1Feature_1_1SearchMediaTest.html" target="_top" xlink:title=" ">
<polygon fill="white" stroke="#666666" points="424.5,-189.5 257.5,-189.5 257.5,-170.5 424.5,-170.5 424.5,-189.5"/>
<text text-anchor="middle" x="341" y="-177.5" font-family="Helvetica,sans-Serif" font-size="10.00">Tests\Feature\SearchMediaTest</text>
</a>
</g>
</g>
<!-- Node1&#45;&gt;Node12 -->
<g id="edge26_Node000001_Node000012" class="edge">
<title>Node1&#45;&gt;Node12</title>
<g id="a_edge26_Node000001_Node000012"><a xlink:title=" ">
<path fill="none" stroke="#63b8ff" d="M175.5,-272.6C188.66,-251.33 213.25,-216.95 244,-199 250.6,-195.15 257.85,-192.06 265.31,-189.59"/>
<polygon fill="#63b8ff" stroke="#63b8ff" points="172.4,-270.96 170.28,-281.34 178.41,-274.55 172.4,-270.96"/>
</a>
</g>
</g>
<!-- Node13 -->
<g id="Node000013" class="node">
<title>Node13</title>
<g id="a_Node000013"><a xlink:href="classTests_1_1Feature_1_1StreamControllerTest.html" target="_top" xlink:title=" ">
<polygon fill="white" stroke="#666666" points="434.5,-152.5 247.5,-152.5 247.5,-133.5 434.5,-133.5 434.5,-152.5"/>
<text text-anchor="middle" x="341" y="-140.5" font-family="Helvetica,sans-Serif" font-size="10.00">Tests\Feature\StreamControllerTest</text>
</a>
</g>
</g>
<!-- Node1&#45;&gt;Node13 -->
<g id="edge27_Node000001_Node000013" class="edge">
<title>Node1&#45;&gt;Node13</title>
<g id="a_edge27_Node000001_Node000013"><a xlink:title=" ">
<path fill="none" stroke="#63b8ff" d="M171.19,-271.64C181.45,-242.86 204.83,-189.28 244,-162 249.44,-158.21 255.45,-155.14 261.73,-152.65"/>
<polygon fill="#63b8ff" stroke="#63b8ff" points="167.8,-270.75 167.9,-281.34 174.43,-273 167.8,-270.75"/>
</a>
</g>
</g>
<!-- Node14 -->
<g id="Node000014" class="node">
<title>Node14</title>
<g id="a_Node000014"><a xlink:href="classTests_1_1Feature_1_1TransfertControllerTest.html" target="_top" xlink:title=" ">
<polygon fill="white" stroke="#666666" points="438,-115.5 244,-115.5 244,-96.5 438,-96.5 438,-115.5"/>
<text text-anchor="middle" x="341" y="-103.5" font-family="Helvetica,sans-Serif" font-size="10.00">Tests\Feature\TransfertControllerTest</text>
</a>
</g>
</g>
<!-- Node1&#45;&gt;Node14 -->
<g id="edge28_Node000001_Node000014" class="edge">
<title>Node1&#45;&gt;Node14</title>
<g id="a_edge28_Node000001_Node000014"><a xlink:title=" ">
<path fill="none" stroke="#63b8ff" d="M168.45,-271.23C175.72,-235.94 196.03,-162.31 244,-125 248.83,-121.25 254.2,-118.17 259.86,-115.66"/>
<polygon fill="#63b8ff" stroke="#63b8ff" points="164.98,-270.77 166.54,-281.25 171.86,-272.08 164.98,-270.77"/>
</a>
</g>
</g>
<!-- Node15 -->
<g id="Node000015" class="node">
<title>Node15</title>
<g id="a_Node000015"><a xlink:href="classTests_1_1Unit_1_1Services_1_1FfastransServiceTest.html" target="_top" xlink:title=" ">
<polygon fill="white" stroke="#666666" points="401.5,-78 280.5,-78 280.5,-48 401.5,-48 401.5,-78"/>
<text text-anchor="start" x="288.5" y="-66" font-family="Helvetica,sans-Serif" font-size="10.00">Tests\Unit\Services</text>
<text text-anchor="middle" x="341" y="-55" font-family="Helvetica,sans-Serif" font-size="10.00">\FfastransServiceTest</text>
</a>
</g>
</g>
<!-- Node1&#45;&gt;Node15 -->
<g id="edge29_Node000001_Node000015" class="edge">
<title>Node1&#45;&gt;Node15</title>
<g id="a_edge29_Node000001_Node000015"><a xlink:title=" ">
<path fill="none" stroke="#63b8ff" d="M166.82,-271.22C171.65,-230.59 188.48,-137.41 244,-88 254.16,-78.95 267.2,-73.11 280.36,-69.36"/>
<polygon fill="#63b8ff" stroke="#63b8ff" points="163.34,-270.89 165.76,-281.21 170.3,-271.63 163.34,-270.89"/>
</a>
</g>
</g>
<!-- Node16 -->
<g id="Node000016" class="node">
<title>Node16</title>
<g id="a_Node000016"><a xlink:href="classTests_1_1Unit_1_1Services_1_1MediaServiceTest.html" target="_top" xlink:title=" ">
<polygon fill="white" stroke="#666666" points="395.5,-30 286.5,-30 286.5,0 395.5,0 395.5,-30"/>
<text text-anchor="start" x="294.5" y="-18" font-family="Helvetica,sans-Serif" font-size="10.00">Tests\Unit\Services</text>
<text text-anchor="middle" x="341" y="-7" font-family="Helvetica,sans-Serif" font-size="10.00">\MediaServiceTest</text>
</a>
</g>
</g>
<!-- Node1&#45;&gt;Node16 -->
<g id="edge30_Node000001_Node000016" class="edge">
<title>Node1&#45;&gt;Node16</title>
<g id="a_edge30_Node000001_Node000016"><a xlink:title=" ">
<path fill="none" stroke="#63b8ff" d="M165.05,-271.12C166.31,-223.63 176.35,-102.78 244,-39 255.5,-28.16 271.13,-22.01 286.44,-18.58"/>
<polygon fill="#63b8ff" stroke="#63b8ff" points="161.55,-271.25 164.89,-281.3 168.55,-271.36 161.55,-271.25"/>
</a>
</g>
</g>
</g>
</svg>
