<?xml version="1.0" encoding="UTF-8" standalone="no"?>
<!DOCTYPE svg PUBLIC "-//W3C//DTD SVG 1.1//EN"
 "http://www.w3.org/Graphics/SVG/1.1/DTD/svg11.dtd">
<!-- Generated by graphviz version 2.42.4 (0)
 -->
<!-- Title: Graphe hiérarchique des classes Pages: 1 -->
<svg width="244pt" height="86pt"
 viewBox="0.00 0.00 244.00 86.00" xmlns="http://www.w3.org/2000/svg" xmlns:xlink="http://www.w3.org/1999/xlink">
<g id="graph0" class="graph" transform="scale(1 1) rotate(0) translate(4 82)">
<title>Graphe hiérarchique des classes</title>
<!-- Node0 -->
<g id="Node000000" class="node">
<title>Node0</title>
<g id="a_Node000000"><a xlink:title=" ">
<polygon fill="#e0e0e0" stroke="#999999" points="73,-48.5 0,-48.5 0,-29.5 73,-29.5 73,-48.5"/>
<text text-anchor="middle" x="36.5" y="-36.5" font-family="Helvetica,sans-Serif" font-size="10.00">Component</text>
</a>
</g>
</g>
<!-- Node1 -->
<g id="Node000001" class="node">
<title>Node1</title>
<g id="a_Node000001"><a xlink:href="classApp_1_1View_1_1Components_1_1AppLayout.html" target="_top" xlink:title=" ">
<polygon fill="white" stroke="#666666" points="236,-78 109,-78 109,-48 236,-48 236,-78"/>
<text text-anchor="start" x="117" y="-66" font-family="Helvetica,sans-Serif" font-size="10.00">App\View\Components</text>
<text text-anchor="middle" x="172.5" y="-55" font-family="Helvetica,sans-Serif" font-size="10.00">\AppLayout</text>
</a>
</g>
</g>
<!-- Node0&#45;&gt;Node1 -->
<g id="edge34_Node000000_Node000001" class="edge">
<title>Node0&#45;&gt;Node1</title>
<g id="a_edge34_Node000000_Node000001"><a xlink:title=" ">
<path fill="none" stroke="#63b8ff" d="M82.93,-47.14C91.26,-48.63 100.09,-50.21 108.82,-51.77"/>
<polygon fill="#63b8ff" stroke="#63b8ff" points="83.52,-43.69 73.06,-45.37 82.28,-50.58 83.52,-43.69"/>
</a>
</g>
</g>
<!-- Node2 -->
<g id="Node000002" class="node">
<title>Node2</title>
<g id="a_Node000002"><a xlink:href="classApp_1_1View_1_1Components_1_1GuestLayout.html" target="_top" xlink:title=" ">
<polygon fill="white" stroke="#666666" points="236,-30 109,-30 109,0 236,0 236,-30"/>
<text text-anchor="start" x="117" y="-18" font-family="Helvetica,sans-Serif" font-size="10.00">App\View\Components</text>
<text text-anchor="middle" x="172.5" y="-7" font-family="Helvetica,sans-Serif" font-size="10.00">\GuestLayout</text>
</a>
</g>
</g>
<!-- Node0&#45;&gt;Node2 -->
<g id="edge35_Node000000_Node000002" class="edge">
<title>Node0&#45;&gt;Node2</title>
<g id="a_edge35_Node000000_Node000002"><a xlink:title=" ">
<path fill="none" stroke="#63b8ff" d="M82.93,-30.86C91.26,-29.37 100.09,-27.79 108.82,-26.23"/>
<polygon fill="#63b8ff" stroke="#63b8ff" points="82.28,-27.42 73.06,-32.63 83.52,-34.31 82.28,-27.42"/>
</a>
</g>
</g>
</g>
</svg>
