<?xml version="1.0" encoding="UTF-8" standalone="no"?>
<!DOCTYPE svg PUBLIC "-//W3C//DTD SVG 1.1//EN"
 "http://www.w3.org/Graphics/SVG/1.1/DTD/svg11.dtd">
<!-- Generated by graphviz version 2.42.4 (0)
 -->
<!-- Title: Graphe hiérarchique des classes Pages: 1 -->
<svg width="359pt" height="614pt"
 viewBox="0.00 0.00 359.00 614.00" xmlns="http://www.w3.org/2000/svg" xmlns:xlink="http://www.w3.org/1999/xlink">
<g id="graph0" class="graph" transform="scale(1 1) rotate(0) translate(4 610)">
<title>Graphe hiérarchique des classes</title>
<!-- Node0 -->
<g id="Node000000" class="node">
<title>Node0</title>
<g id="a_Node000000"><a xlink:href="classApp_1_1Http_1_1Controllers_1_1Controller.html" target="_top" xlink:title=" ">
<polygon fill="white" stroke="#666666" points="116,-318 0,-318 0,-288 116,-288 116,-318"/>
<text text-anchor="start" x="8" y="-306" font-family="Helvetica,sans-Serif" font-size="10.00">App\Http\Controllers</text>
<text text-anchor="middle" x="58" y="-295" font-family="Helvetica,sans-Serif" font-size="10.00">\Controller</text>
</a>
</g>
</g>
<!-- Node1 -->
<g id="Node000001" class="node">
<title>Node1</title>
<g id="a_Node000001"><a xlink:href="classApp_1_1Http_1_1Controllers_1_1AdminController.html" target="_top" xlink:title=" ">
<polygon fill="white" stroke="#666666" points="309.5,-606 193.5,-606 193.5,-576 309.5,-576 309.5,-606"/>
<text text-anchor="start" x="201.5" y="-594" font-family="Helvetica,sans-Serif" font-size="10.00">App\Http\Controllers</text>
<text text-anchor="middle" x="251.5" y="-583" font-family="Helvetica,sans-Serif" font-size="10.00">\AdminController</text>
</a>
</g>
</g>
<!-- Node0&#45;&gt;Node1 -->
<g id="edge1_Node000000_Node000001" class="edge">
<title>Node0&#45;&gt;Node1</title>
<g id="a_edge1_Node000000_Node000001"><a xlink:title=" ">
<path fill="none" stroke="#63b8ff" d="M60.23,-328.38C64.21,-381.07 81.02,-502.77 152,-567 163.42,-577.33 178.54,-583.41 193.5,-586.93"/>
<polygon fill="#63b8ff" stroke="#63b8ff" points="63.71,-327.97 59.56,-318.23 56.73,-328.44 63.71,-327.97"/>
</a>
</g>
</g>
<!-- Node2 -->
<g id="Node000002" class="node">
<title>Node2</title>
<g id="a_Node000002"><a xlink:href="classApp_1_1Http_1_1Controllers_1_1Auth_1_1AuthenticatedSessionController.html" target="_top" xlink:title=" ">
<polygon fill="white" stroke="#666666" points="351,-558 152,-558 152,-528 351,-528 351,-558"/>
<text text-anchor="start" x="160" y="-546" font-family="Helvetica,sans-Serif" font-size="10.00">App\Http\Controllers</text>
<text text-anchor="middle" x="251.5" y="-535" font-family="Helvetica,sans-Serif" font-size="10.00">\Auth\AuthenticatedSessionController</text>
</a>
</g>
</g>
<!-- Node0&#45;&gt;Node2 -->
<g id="edge2_Node000000_Node000002" class="edge">
<title>Node0&#45;&gt;Node2</title>
<g id="a_edge2_Node000000_Node000002"><a xlink:title=" ">
<path fill="none" stroke="#63b8ff" d="M62.45,-328.13C70.04,-373.43 92.51,-468.73 152,-519 156.03,-522.41 160.47,-525.35 165.17,-527.88"/>
<polygon fill="#63b8ff" stroke="#63b8ff" points="65.87,-327.34 60.86,-318 58.95,-328.42 65.87,-327.34"/>
</a>
</g>
</g>
<!-- Node3 -->
<g id="Node000003" class="node">
<title>Node3</title>
<g id="a_Node000003"><a xlink:href="classApp_1_1Http_1_1Controllers_1_1Auth_1_1NewPasswordController.html" target="_top" xlink:title=" ">
<polygon fill="white" stroke="#666666" points="332,-510 171,-510 171,-480 332,-480 332,-510"/>
<text text-anchor="start" x="179" y="-498" font-family="Helvetica,sans-Serif" font-size="10.00">App\Http\Controllers</text>
<text text-anchor="middle" x="251.5" y="-487" font-family="Helvetica,sans-Serif" font-size="10.00">\Auth\NewPasswordController</text>
</a>
</g>
</g>
<!-- Node0&#45;&gt;Node3 -->
<g id="edge3_Node000000_Node000003" class="edge">
<title>Node0&#45;&gt;Node3</title>
<g id="a_edge3_Node000000_Node000003"><a xlink:title=" ">
<path fill="none" stroke="#63b8ff" d="M65.81,-328.03C77.24,-365.12 103.89,-434.26 152,-471 157.74,-475.38 164.16,-478.97 170.91,-481.92"/>
<polygon fill="#63b8ff" stroke="#63b8ff" points="69.05,-326.64 62.87,-318.04 62.34,-328.62 69.05,-326.64"/>
</a>
</g>
</g>
<!-- Node4 -->
<g id="Node000004" class="node">
<title>Node4</title>
<g id="a_Node000004"><a xlink:href="classApp_1_1Http_1_1Controllers_1_1Auth_1_1PasswordController.html" target="_top" xlink:title=" ">
<polygon fill="white" stroke="#666666" points="321,-462 182,-462 182,-432 321,-432 321,-462"/>
<text text-anchor="start" x="190" y="-450" font-family="Helvetica,sans-Serif" font-size="10.00">App\Http\Controllers</text>
<text text-anchor="middle" x="251.5" y="-439" font-family="Helvetica,sans-Serif" font-size="10.00">\Auth\PasswordController</text>
</a>
</g>
</g>
<!-- Node0&#45;&gt;Node4 -->
<g id="edge4_Node000000_Node000004" class="edge">
<title>Node0&#45;&gt;Node4</title>
<g id="a_edge4_Node000000_Node000004"><a xlink:title=" ">
<path fill="none" stroke="#63b8ff" d="M71.2,-327.17C86.35,-354.67 114.81,-398.89 152,-423 161.01,-428.84 171.32,-433.26 181.79,-436.61"/>
<polygon fill="#63b8ff" stroke="#63b8ff" points="74.2,-325.36 66.4,-318.2 68.03,-328.67 74.2,-325.36"/>
</a>
</g>
</g>
<!-- Node5 -->
<g id="Node000005" class="node">
<title>Node5</title>
<g id="a_Node000005"><a xlink:href="classApp_1_1Http_1_1Controllers_1_1DocumentationController.html" target="_top" xlink:title=" ">
<polygon fill="white" stroke="#666666" points="323,-414 180,-414 180,-384 323,-384 323,-414"/>
<text text-anchor="start" x="188" y="-402" font-family="Helvetica,sans-Serif" font-size="10.00">App\Http\Controllers</text>
<text text-anchor="middle" x="251.5" y="-391" font-family="Helvetica,sans-Serif" font-size="10.00">\DocumentationController</text>
</a>
</g>
</g>
<!-- Node0&#45;&gt;Node5 -->
<g id="edge5_Node000000_Node000005" class="edge">
<title>Node0&#45;&gt;Node5</title>
<g id="a_edge5_Node000000_Node000005"><a xlink:title=" ">
<path fill="none" stroke="#63b8ff" d="M81.96,-325.27C99.73,-341.32 125.68,-362.32 152,-375 160.72,-379.2 170.24,-382.7 179.82,-385.62"/>
<polygon fill="#63b8ff" stroke="#63b8ff" points="84.11,-322.5 74.39,-318.28 79.37,-327.64 84.11,-322.5"/>
</a>
</g>
</g>
<!-- Node6 -->
<g id="Node000006" class="node">
<title>Node6</title>
<g id="a_Node000006"><a xlink:href="classApp_1_1Http_1_1Controllers_1_1FileExplorerController.html" target="_top" xlink:title=" ">
<polygon fill="white" stroke="#666666" points="314,-366 189,-366 189,-336 314,-336 314,-366"/>
<text text-anchor="start" x="197" y="-354" font-family="Helvetica,sans-Serif" font-size="10.00">App\Http\Controllers</text>
<text text-anchor="middle" x="251.5" y="-343" font-family="Helvetica,sans-Serif" font-size="10.00">\FileExplorerController</text>
</a>
</g>
</g>
<!-- Node0&#45;&gt;Node6 -->
<g id="edge6_Node000000_Node000006" class="edge">
<title>Node0&#45;&gt;Node6</title>
<g id="a_edge6_Node000000_Node000006"><a xlink:title=" ">
<path fill="none" stroke="#63b8ff" d="M125.87,-320.37C134.65,-322.62 143.54,-324.88 152,-327 163.95,-330 176.73,-333.15 188.99,-336.15"/>
<polygon fill="#63b8ff" stroke="#63b8ff" points="126.58,-316.94 116.02,-317.85 124.84,-323.72 126.58,-316.94"/>
</a>
</g>
</g>
<!-- Node7 -->
<g id="Node000007" class="node">
<title>Node7</title>
<g id="a_Node000007"><a xlink:href="classApp_1_1Http_1_1Controllers_1_1HomeController.html" target="_top" xlink:title=" ">
<polygon fill="white" stroke="#666666" points="309.5,-318 193.5,-318 193.5,-288 309.5,-288 309.5,-318"/>
<text text-anchor="start" x="201.5" y="-306" font-family="Helvetica,sans-Serif" font-size="10.00">App\Http\Controllers</text>
<text text-anchor="middle" x="251.5" y="-295" font-family="Helvetica,sans-Serif" font-size="10.00">\HomeController</text>
</a>
</g>
</g>
<!-- Node0&#45;&gt;Node7 -->
<g id="edge7_Node000000_Node000007" class="edge">
<title>Node0&#45;&gt;Node7</title>
<g id="a_edge7_Node000000_Node000007"><a xlink:title=" ">
<path fill="none" stroke="#63b8ff" d="M126.39,-303C148.23,-303 172.24,-303 193.27,-303"/>
<polygon fill="#63b8ff" stroke="#63b8ff" points="126.2,-299.5 116.2,-303 126.2,-306.5 126.2,-299.5"/>
</a>
</g>
</g>
<!-- Node8 -->
<g id="Node000008" class="node">
<title>Node8</title>
<g id="a_Node000008"><a xlink:href="classApp_1_1Http_1_1Controllers_1_1MediaController.html" target="_top" xlink:title=" ">
<polygon fill="white" stroke="#666666" points="309.5,-270 193.5,-270 193.5,-240 309.5,-240 309.5,-270"/>
<text text-anchor="start" x="201.5" y="-258" font-family="Helvetica,sans-Serif" font-size="10.00">App\Http\Controllers</text>
<text text-anchor="middle" x="251.5" y="-247" font-family="Helvetica,sans-Serif" font-size="10.00">\MediaController</text>
</a>
</g>
</g>
<!-- Node0&#45;&gt;Node8 -->
<g id="edge8_Node000000_Node000008" class="edge">
<title>Node0&#45;&gt;Node8</title>
<g id="a_edge8_Node000000_Node000008"><a xlink:title=" ">
<path fill="none" stroke="#63b8ff" d="M125.87,-285.63C134.65,-283.38 143.54,-281.12 152,-279 165.4,-275.64 179.85,-272.08 193.43,-268.77"/>
<polygon fill="#63b8ff" stroke="#63b8ff" points="124.84,-282.28 116.02,-288.15 126.58,-289.06 124.84,-282.28"/>
</a>
</g>
</g>
<!-- Node9 -->
<g id="Node000009" class="node">
<title>Node9</title>
<g id="a_Node000009"><a xlink:href="classApp_1_1Http_1_1Controllers_1_1ProfileController.html" target="_top" xlink:title=" ">
<polygon fill="white" stroke="#666666" points="309.5,-222 193.5,-222 193.5,-192 309.5,-192 309.5,-222"/>
<text text-anchor="start" x="201.5" y="-210" font-family="Helvetica,sans-Serif" font-size="10.00">App\Http\Controllers</text>
<text text-anchor="middle" x="251.5" y="-199" font-family="Helvetica,sans-Serif" font-size="10.00">\ProfileController</text>
</a>
</g>
</g>
<!-- Node0&#45;&gt;Node9 -->
<g id="edge9_Node000000_Node000009" class="edge">
<title>Node0&#45;&gt;Node9</title>
<g id="a_edge9_Node000000_Node000009"><a xlink:title=" ">
<path fill="none" stroke="#63b8ff" d="M81.96,-280.73C99.73,-264.68 125.68,-243.68 152,-231 164.84,-224.81 179.42,-220.14 193.35,-216.64"/>
<polygon fill="#63b8ff" stroke="#63b8ff" points="79.37,-278.36 74.39,-287.72 84.11,-283.5 79.37,-278.36"/>
</a>
</g>
</g>
<!-- Node10 -->
<g id="Node000010" class="node">
<title>Node10</title>
<g id="a_Node000010"><a xlink:href="classApp_1_1Http_1_1Controllers_1_1SearchController.html" target="_top" xlink:title=" ">
<polygon fill="white" stroke="#666666" points="309.5,-174 193.5,-174 193.5,-144 309.5,-144 309.5,-174"/>
<text text-anchor="start" x="201.5" y="-162" font-family="Helvetica,sans-Serif" font-size="10.00">App\Http\Controllers</text>
<text text-anchor="middle" x="251.5" y="-151" font-family="Helvetica,sans-Serif" font-size="10.00">\SearchController</text>
</a>
</g>
</g>
<!-- Node0&#45;&gt;Node10 -->
<g id="edge10_Node000000_Node000010" class="edge">
<title>Node0&#45;&gt;Node10</title>
<g id="a_edge10_Node000000_Node000010"><a xlink:title=" ">
<path fill="none" stroke="#63b8ff" d="M71.2,-278.83C86.35,-251.33 114.81,-207.11 152,-183 164.33,-175 179.1,-169.67 193.4,-166.11"/>
<polygon fill="#63b8ff" stroke="#63b8ff" points="68.03,-277.33 66.4,-287.8 74.2,-280.64 68.03,-277.33"/>
</a>
</g>
</g>
<!-- Node11 -->
<g id="Node000011" class="node">
<title>Node11</title>
<g id="a_Node000011"><a xlink:href="classApp_1_1Http_1_1Controllers_1_1StreamController.html" target="_top" xlink:title=" ">
<polygon fill="white" stroke="#666666" points="309.5,-126 193.5,-126 193.5,-96 309.5,-96 309.5,-126"/>
<text text-anchor="start" x="201.5" y="-114" font-family="Helvetica,sans-Serif" font-size="10.00">App\Http\Controllers</text>
<text text-anchor="middle" x="251.5" y="-103" font-family="Helvetica,sans-Serif" font-size="10.00">\StreamController</text>
</a>
</g>
</g>
<!-- Node0&#45;&gt;Node11 -->
<g id="edge11_Node000000_Node000011" class="edge">
<title>Node0&#45;&gt;Node11</title>
<g id="a_edge11_Node000000_Node000011"><a xlink:title=" ">
<path fill="none" stroke="#63b8ff" d="M65.81,-277.97C77.24,-240.88 103.89,-171.74 152,-135 163.89,-125.92 178.74,-120.22 193.28,-116.67"/>
<polygon fill="#63b8ff" stroke="#63b8ff" points="62.34,-277.38 62.87,-287.96 69.05,-279.36 62.34,-277.38"/>
</a>
</g>
</g>
<!-- Node12 -->
<g id="Node000012" class="node">
<title>Node12</title>
<g id="a_Node000012"><a xlink:href="classApp_1_1Http_1_1Controllers_1_1ThumbnailController.html" target="_top" xlink:title=" ">
<polygon fill="white" stroke="#666666" points="311,-78 192,-78 192,-48 311,-48 311,-78"/>
<text text-anchor="start" x="200" y="-66" font-family="Helvetica,sans-Serif" font-size="10.00">App\Http\Controllers</text>
<text text-anchor="middle" x="251.5" y="-55" font-family="Helvetica,sans-Serif" font-size="10.00">\ThumbnailController</text>
</a>
</g>
</g>
<!-- Node0&#45;&gt;Node12 -->
<g id="edge12_Node000000_Node000012" class="edge">
<title>Node0&#45;&gt;Node12</title>
<g id="a_edge12_Node000000_Node000012"><a xlink:title=" ">
<path fill="none" stroke="#63b8ff" d="M62.45,-277.87C70.04,-232.57 92.51,-137.27 152,-87 163.23,-77.51 177.61,-71.66 191.89,-68.08"/>
<polygon fill="#63b8ff" stroke="#63b8ff" points="58.95,-277.58 60.86,-288 65.87,-278.66 58.95,-277.58"/>
</a>
</g>
</g>
<!-- Node13 -->
<g id="Node000013" class="node">
<title>Node13</title>
<g id="a_Node000013"><a xlink:href="classApp_1_1Http_1_1Controllers_1_1TransfertController.html" target="_top" xlink:title=" ">
<polygon fill="white" stroke="#666666" points="309.5,-30 193.5,-30 193.5,0 309.5,0 309.5,-30"/>
<text text-anchor="start" x="201.5" y="-18" font-family="Helvetica,sans-Serif" font-size="10.00">App\Http\Controllers</text>
<text text-anchor="middle" x="251.5" y="-7" font-family="Helvetica,sans-Serif" font-size="10.00">\TransfertController</text>
</a>
</g>
</g>
<!-- Node0&#45;&gt;Node13 -->
<g id="edge13_Node000000_Node000013" class="edge">
<title>Node0&#45;&gt;Node13</title>
<g id="a_edge13_Node000000_Node000013"><a xlink:title=" ">
<path fill="none" stroke="#63b8ff" d="M60.23,-277.62C64.21,-224.93 81.02,-103.23 152,-39 163.42,-28.67 178.54,-22.59 193.5,-19.07"/>
<polygon fill="#63b8ff" stroke="#63b8ff" points="56.73,-277.56 59.56,-287.77 63.71,-278.03 56.73,-277.56"/>
</a>
</g>
</g>
</g>
</svg>
