<?xml version="1.0" encoding="UTF-8" standalone="no"?>
<!DOCTYPE svg PUBLIC "-//W3C//DTD SVG 1.1//EN"
 "http://www.w3.org/Graphics/SVG/1.1/DTD/svg11.dtd">
<!-- Generated by graphviz version 2.42.4 (0)
 -->
<!-- Title: Graphe hiérarchique des classes Pages: 1 -->
<svg width="266pt" height="86pt"
 viewBox="0.00 0.00 266.00 86.00" xmlns="http://www.w3.org/2000/svg" xmlns:xlink="http://www.w3.org/1999/xlink">
<g id="graph0" class="graph" transform="scale(1 1) rotate(0) translate(4 82)">
<title>Graphe hiérarchique des classes</title>
<!-- Node0 -->
<g id="Node000000" class="node">
<title>Node0</title>
<g id="a_Node000000"><a xlink:title=" ">
<polygon fill="#e0e0e0" stroke="#999999" points="81,-48.5 0,-48.5 0,-29.5 81,-29.5 81,-48.5"/>
<text text-anchor="middle" x="40.5" y="-36.5" font-family="Helvetica,sans-Serif" font-size="10.00">FormRequest</text>
</a>
</g>
</g>
<!-- Node1 -->
<g id="Node000001" class="node">
<title>Node1</title>
<g id="a_Node000001"><a xlink:href="classApp_1_1Http_1_1Requests_1_1Auth_1_1LoginRequest.html" target="_top" xlink:title=" ">
<polygon fill="white" stroke="#666666" points="254,-78 121,-78 121,-48 254,-48 254,-78"/>
<text text-anchor="start" x="129" y="-66" font-family="Helvetica,sans-Serif" font-size="10.00">App\Http\Requests\Auth</text>
<text text-anchor="middle" x="187.5" y="-55" font-family="Helvetica,sans-Serif" font-size="10.00">\LoginRequest</text>
</a>
</g>
</g>
<!-- Node0&#45;&gt;Node1 -->
<g id="edge36_Node000000_Node000001" class="edge">
<title>Node0&#45;&gt;Node1</title>
<g id="a_edge36_Node000000_Node000001"><a xlink:title=" ">
<path fill="none" stroke="#63b8ff" d="M91.25,-47.23C100.83,-48.82 111,-50.5 120.99,-52.16"/>
<polygon fill="#63b8ff" stroke="#63b8ff" points="91.56,-43.74 81.12,-45.56 90.42,-50.64 91.56,-43.74"/>
</a>
</g>
</g>
<!-- Node2 -->
<g id="Node000002" class="node">
<title>Node2</title>
<g id="a_Node000002"><a xlink:href="classApp_1_1Http_1_1Requests_1_1ProfileUpdateRequest.html" target="_top" xlink:title=" ">
<polygon fill="white" stroke="#666666" points="258,-30 117,-30 117,0 258,0 258,-30"/>
<text text-anchor="start" x="125" y="-18" font-family="Helvetica,sans-Serif" font-size="10.00">App\Http\Requests\Profile</text>
<text text-anchor="middle" x="187.5" y="-7" font-family="Helvetica,sans-Serif" font-size="10.00">UpdateRequest</text>
</a>
</g>
</g>
<!-- Node0&#45;&gt;Node2 -->
<g id="edge37_Node000000_Node000002" class="edge">
<title>Node0&#45;&gt;Node2</title>
<g id="a_edge37_Node000000_Node000002"><a xlink:title=" ">
<path fill="none" stroke="#63b8ff" d="M91.01,-30.81C99.33,-29.43 108.1,-27.98 116.81,-26.53"/>
<polygon fill="#63b8ff" stroke="#63b8ff" points="90.42,-27.36 81.12,-32.44 91.56,-34.26 90.42,-27.36"/>
</a>
</g>
</g>
</g>
</svg>
