<?xml version="1.0" encoding="UTF-8" standalone="no"?>
<!DOCTYPE svg PUBLIC "-//W3C//DTD SVG 1.1//EN"
 "http://www.w3.org/Graphics/SVG/1.1/DTD/svg11.dtd">
<!-- Generated by graphviz version 2.42.4 (0)
 -->
<!-- Title: Graphe hiérarchique des classes Pages: 1 -->
<svg width="439pt" height="683pt"
 viewBox="0.00 0.00 439.00 683.00" xmlns="http://www.w3.org/2000/svg" xmlns:xlink="http://www.w3.org/1999/xlink">
<g id="graph0" class="graph" transform="scale(1 1) rotate(0) translate(4 679)">
<title>Graphe hiérarchique des classes</title>
<!-- Node0 -->
<g id="Node000000" class="node">
<title>Node0</title>
<g id="a_Node000000"><a xlink:title=" ">
<polygon fill="#e0e0e0" stroke="#999999" points="84,-320 0,-320 0,-301 84,-301 84,-320"/>
<text text-anchor="middle" x="42" y="-308" font-family="Helvetica,sans-Serif" font-size="10.00">BaseTestCase</text>
</a>
</g>
</g>
<!-- Node1 -->
<g id="Node000001" class="node">
<title>Node1</title>
<g id="a_Node000001"><a xlink:href="classTests_1_1TestCase.html" target="_top" xlink:title=" ">
<polygon fill="white" stroke="#666666" points="208,-320 120,-320 120,-301 208,-301 208,-320"/>
<text text-anchor="middle" x="164" y="-308" font-family="Helvetica,sans-Serif" font-size="10.00">Tests\TestCase</text>
</a>
</g>
</g>
<!-- Node0&#45;&gt;Node1 -->
<g id="edge16_Node000000_Node000001" class="edge">
<title>Node0&#45;&gt;Node1</title>
<g id="a_edge16_Node000000_Node000001"><a xlink:title=" ">
<path fill="none" stroke="#63b8ff" d="M94.5,-310.5C103,-310.5 111.73,-310.5 119.99,-310.5"/>
<polygon fill="#63b8ff" stroke="#63b8ff" points="94.3,-307 84.3,-310.5 94.3,-314 94.3,-307"/>
</a>
</g>
</g>
<!-- Node2 -->
<g id="Node000002" class="node">
<title>Node2</title>
<g id="a_Node000002"><a xlink:href="classTests_1_1Feature_1_1AdminControllerTest.html" target="_top" xlink:title=" ">
<polygon fill="white" stroke="#666666" points="429,-675 246,-675 246,-656 429,-656 429,-675"/>
<text text-anchor="middle" x="337.5" y="-663" font-family="Helvetica,sans-Serif" font-size="10.00">Tests\Feature\AdminControllerTest</text>
</a>
</g>
</g>
<!-- Node1&#45;&gt;Node2 -->
<g id="edge17_Node000001_Node000002" class="edge">
<title>Node1&#45;&gt;Node2</title>
<g id="a_edge17_Node000001_Node000002"><a xlink:title=" ">
<path fill="none" stroke="#63b8ff" d="M166.91,-330.49C173.57,-395.86 197.89,-601.68 244,-646.5 247.88,-650.27 252.3,-653.39 257.05,-655.95"/>
<polygon fill="#63b8ff" stroke="#63b8ff" points="170.37,-329.91 165.9,-320.3 163.4,-330.6 170.37,-329.91"/>
</a>
</g>
</g>
<!-- Node3 -->
<g id="Node000003" class="node">
<title>Node3</title>
<g id="a_Node000003"><a xlink:href="classTests_1_1Feature_1_1Auth_1_1AuthenticationTest.html" target="_top" xlink:title=" ">
<polygon fill="white" stroke="#666666" points="392.5,-637.5 282.5,-637.5 282.5,-607.5 392.5,-607.5 392.5,-637.5"/>
<text text-anchor="start" x="290.5" y="-625.5" font-family="Helvetica,sans-Serif" font-size="10.00">Tests\Feature\Auth</text>
<text text-anchor="middle" x="337.5" y="-614.5" font-family="Helvetica,sans-Serif" font-size="10.00">\AuthenticationTest</text>
</a>
</g>
</g>
<!-- Node1&#45;&gt;Node3 -->
<g id="edge18_Node000001_Node000003" class="edge">
<title>Node1&#45;&gt;Node3</title>
<g id="a_edge18_Node000001_Node000003"><a xlink:title=" ">
<path fill="none" stroke="#63b8ff" d="M164.17,-330.29C163.12,-382.18 167.81,-523.36 244,-598.5 254.28,-608.64 268.25,-614.65 282.22,-618.18"/>
<polygon fill="#63b8ff" stroke="#63b8ff" points="167.67,-330.21 164.47,-320.11 160.67,-330 167.67,-330.21"/>
</a>
</g>
</g>
<!-- Node4 -->
<g id="Node000004" class="node">
<title>Node4</title>
<g id="a_Node000004"><a xlink:href="classTests_1_1Feature_1_1Auth_1_1EmailVerificationTest.html" target="_top" xlink:title=" ">
<polygon fill="white" stroke="#666666" points="398.5,-589.5 276.5,-589.5 276.5,-559.5 398.5,-559.5 398.5,-589.5"/>
<text text-anchor="start" x="284.5" y="-577.5" font-family="Helvetica,sans-Serif" font-size="10.00">Tests\Feature\Auth</text>
<text text-anchor="middle" x="337.5" y="-566.5" font-family="Helvetica,sans-Serif" font-size="10.00">\EmailVerificationTest</text>
</a>
</g>
</g>
<!-- Node1&#45;&gt;Node4 -->
<g id="edge19_Node000001_Node000004" class="edge">
<title>Node1&#45;&gt;Node4</title>
<g id="a_edge19_Node000001_Node000004"><a xlink:title=" ">
<path fill="none" stroke="#63b8ff" d="M165.47,-330.64C167.67,-376.67 179.7,-490.19 244,-550.5 252.96,-558.9 264.46,-564.45 276.3,-568.09"/>
<polygon fill="#63b8ff" stroke="#63b8ff" points="168.96,-330.34 165.09,-320.47 161.96,-330.59 168.96,-330.34"/>
</a>
</g>
</g>
<!-- Node5 -->
<g id="Node000005" class="node">
<title>Node5</title>
<g id="a_Node000005"><a xlink:href="classTests_1_1Feature_1_1Auth_1_1PasswordConfirmationTest.html" target="_top" xlink:title=" ">
<polygon fill="white" stroke="#666666" points="411.5,-541.5 263.5,-541.5 263.5,-511.5 411.5,-511.5 411.5,-541.5"/>
<text text-anchor="start" x="271.5" y="-529.5" font-family="Helvetica,sans-Serif" font-size="10.00">Tests\Feature\Auth</text>
<text text-anchor="middle" x="337.5" y="-518.5" font-family="Helvetica,sans-Serif" font-size="10.00">\PasswordConfirmationTest</text>
</a>
</g>
</g>
<!-- Node1&#45;&gt;Node5 -->
<g id="edge20_Node000001_Node000005" class="edge">
<title>Node1&#45;&gt;Node5</title>
<g id="a_edge20_Node000001_Node000005"><a xlink:title=" ">
<path fill="none" stroke="#63b8ff" d="M167.32,-330.28C172.96,-369.29 191.09,-456.36 244,-502.5 249.75,-507.52 256.42,-511.5 263.5,-514.67"/>
<polygon fill="#63b8ff" stroke="#63b8ff" points="170.77,-329.67 165.99,-320.21 163.83,-330.59 170.77,-329.67"/>
</a>
</g>
</g>
<!-- Node6 -->
<g id="Node000006" class="node">
<title>Node6</title>
<g id="a_Node000006"><a xlink:href="classTests_1_1Feature_1_1Auth_1_1PasswordResetTest.html" target="_top" xlink:title=" ">
<polygon fill="white" stroke="#666666" points="394,-493.5 281,-493.5 281,-463.5 394,-463.5 394,-493.5"/>
<text text-anchor="start" x="289" y="-481.5" font-family="Helvetica,sans-Serif" font-size="10.00">Tests\Feature\Auth</text>
<text text-anchor="middle" x="337.5" y="-470.5" font-family="Helvetica,sans-Serif" font-size="10.00">\PasswordResetTest</text>
</a>
</g>
</g>
<!-- Node1&#45;&gt;Node6 -->
<g id="edge21_Node000001_Node000006" class="edge">
<title>Node1&#45;&gt;Node6</title>
<g id="a_edge21_Node000001_Node000006"><a xlink:title=" ">
<path fill="none" stroke="#63b8ff" d="M170.23,-330.02C179.61,-361.21 202.33,-422.07 244,-454.5 254.6,-462.75 267.76,-468.19 280.79,-471.76"/>
<polygon fill="#63b8ff" stroke="#63b8ff" points="173.57,-328.98 167.46,-320.32 166.84,-330.9 173.57,-328.98"/>
</a>
</g>
</g>
<!-- Node7 -->
<g id="Node000007" class="node">
<title>Node7</title>
<g id="a_Node000007"><a xlink:href="classTests_1_1Feature_1_1Auth_1_1PasswordUpdateTest.html" target="_top" xlink:title=" ">
<polygon fill="white" stroke="#666666" points="397.5,-445.5 277.5,-445.5 277.5,-415.5 397.5,-415.5 397.5,-445.5"/>
<text text-anchor="start" x="285.5" y="-433.5" font-family="Helvetica,sans-Serif" font-size="10.00">Tests\Feature\Auth</text>
<text text-anchor="middle" x="337.5" y="-422.5" font-family="Helvetica,sans-Serif" font-size="10.00">\PasswordUpdateTest</text>
</a>
</g>
</g>
<!-- Node1&#45;&gt;Node7 -->
<g id="edge22_Node000001_Node000007" class="edge">
<title>Node1&#45;&gt;Node7</title>
<g id="a_edge22_Node000001_Node000007"><a xlink:title=" ">
<path fill="none" stroke="#63b8ff" d="M175.12,-328.76C188.17,-350.59 212.94,-386.67 244,-406.5 254.07,-412.93 265.79,-417.64 277.44,-421.09"/>
<polygon fill="#63b8ff" stroke="#63b8ff" points="178.14,-327 170.11,-320.1 172.08,-330.51 178.14,-327"/>
</a>
</g>
</g>
<!-- Node8 -->
<g id="Node000008" class="node">
<title>Node8</title>
<g id="a_Node000008"><a xlink:href="classTests_1_1Feature_1_1Auth_1_1RegistrationTest.html" target="_top" xlink:title=" ">
<polygon fill="white" stroke="#666666" points="391,-397.5 284,-397.5 284,-367.5 391,-367.5 391,-397.5"/>
<text text-anchor="start" x="292" y="-385.5" font-family="Helvetica,sans-Serif" font-size="10.00">Tests\Feature\Auth</text>
<text text-anchor="middle" x="337.5" y="-374.5" font-family="Helvetica,sans-Serif" font-size="10.00">\RegistrationTest</text>
</a>
</g>
</g>
<!-- Node1&#45;&gt;Node8 -->
<g id="edge23_Node000001_Node000008" class="edge">
<title>Node1&#45;&gt;Node8</title>
<g id="a_edge23_Node000001_Node000008"><a xlink:title=" ">
<path fill="none" stroke="#63b8ff" d="M186.35,-325.84C201.74,-336.29 223.36,-349.78 244,-358.5 256.53,-363.8 270.52,-368.16 283.76,-371.65"/>
<polygon fill="#63b8ff" stroke="#63b8ff" points="188.27,-322.91 178.05,-320.09 184.28,-328.66 188.27,-322.91"/>
</a>
</g>
</g>
<!-- Node9 -->
<g id="Node000009" class="node">
<title>Node9</title>
<g id="a_Node000009"><a xlink:href="classTests_1_1Feature_1_1FileExplorerControllerTest.html" target="_top" xlink:title=" ">
<polygon fill="white" stroke="#666666" points="408.5,-349.5 266.5,-349.5 266.5,-319.5 408.5,-319.5 408.5,-349.5"/>
<text text-anchor="start" x="274.5" y="-337.5" font-family="Helvetica,sans-Serif" font-size="10.00">Tests\Feature\FileExplorer</text>
<text text-anchor="middle" x="337.5" y="-326.5" font-family="Helvetica,sans-Serif" font-size="10.00">ControllerTest</text>
</a>
</g>
</g>
<!-- Node1&#45;&gt;Node9 -->
<g id="edge24_Node000001_Node000009" class="edge">
<title>Node1&#45;&gt;Node9</title>
<g id="a_edge24_Node000001_Node000009"><a xlink:title=" ">
<path fill="none" stroke="#63b8ff" d="M218.46,-317.98C233.58,-320.1 250.26,-322.43 266.21,-324.66"/>
<polygon fill="#63b8ff" stroke="#63b8ff" points="218.67,-314.48 208.28,-316.56 217.7,-321.41 218.67,-314.48"/>
</a>
</g>
</g>
<!-- Node10 -->
<g id="Node000010" class="node">
<title>Node10</title>
<g id="a_Node000010"><a xlink:href="classTests_1_1Feature_1_1FileExplorerServiceTest.html" target="_top" xlink:title=" ">
<polygon fill="white" stroke="#666666" points="408.5,-301.5 266.5,-301.5 266.5,-271.5 408.5,-271.5 408.5,-301.5"/>
<text text-anchor="start" x="274.5" y="-289.5" font-family="Helvetica,sans-Serif" font-size="10.00">Tests\Feature\FileExplorer</text>
<text text-anchor="middle" x="337.5" y="-278.5" font-family="Helvetica,sans-Serif" font-size="10.00">ServiceTest</text>
</a>
</g>
</g>
<!-- Node1&#45;&gt;Node10 -->
<g id="edge25_Node000001_Node000010" class="edge">
<title>Node1&#45;&gt;Node10</title>
<g id="a_edge25_Node000001_Node000010"><a xlink:title=" ">
<path fill="none" stroke="#63b8ff" d="M218.46,-303.02C233.58,-300.9 250.26,-298.57 266.21,-296.34"/>
<polygon fill="#63b8ff" stroke="#63b8ff" points="217.7,-299.59 208.28,-304.44 218.67,-306.52 217.7,-299.59"/>
</a>
</g>
</g>
<!-- Node11 -->
<g id="Node000011" class="node">
<title>Node11</title>
<g id="a_Node000011"><a xlink:href="classTests_1_1Feature_1_1MediaControllerTest.html" target="_top" xlink:title=" ">
<polygon fill="white" stroke="#666666" points="428.5,-253 246.5,-253 246.5,-234 428.5,-234 428.5,-253"/>
<text text-anchor="middle" x="337.5" y="-241" font-family="Helvetica,sans-Serif" font-size="10.00">Tests\Feature\MediaControllerTest</text>
</a>
</g>
</g>
<!-- Node1&#45;&gt;Node11 -->
<g id="edge26_Node000001_Node000011" class="edge">
<title>Node1&#45;&gt;Node11</title>
<g id="a_edge26_Node000001_Node000011"><a xlink:title=" ">
<path fill="none" stroke="#63b8ff" d="M185.94,-295.02C201.29,-284.38 223.02,-270.74 244,-262.5 253.77,-258.66 264.43,-255.56 274.93,-253.06"/>
<polygon fill="#63b8ff" stroke="#63b8ff" points="183.82,-292.24 177.69,-300.88 187.87,-297.94 183.82,-292.24"/>
</a>
</g>
</g>
<!-- Node12 -->
<g id="Node000012" class="node">
<title>Node12</title>
<g id="a_Node000012"><a xlink:href="classTests_1_1Feature_1_1MediaManagerTest.html" target="_top" xlink:title=" ">
<polygon fill="white" stroke="#666666" points="425.5,-216 249.5,-216 249.5,-197 425.5,-197 425.5,-216"/>
<text text-anchor="middle" x="337.5" y="-204" font-family="Helvetica,sans-Serif" font-size="10.00">Tests\Feature\MediaManagerTest</text>
</a>
</g>
</g>
<!-- Node1&#45;&gt;Node12 -->
<g id="edge27_Node000001_Node000012" class="edge">
<title>Node1&#45;&gt;Node12</title>
<g id="a_edge27_Node000001_Node000012"><a xlink:title=" ">
<path fill="none" stroke="#63b8ff" d="M176.68,-292.36C190.36,-272.67 214.89,-241.87 244,-225.5 250.86,-221.64 258.4,-218.56 266.12,-216.11"/>
<polygon fill="#63b8ff" stroke="#63b8ff" points="173.7,-290.52 171.02,-300.77 179.51,-294.43 173.7,-290.52"/>
</a>
</g>
</g>
<!-- Node13 -->
<g id="Node000013" class="node">
<title>Node13</title>
<g id="a_Node000013"><a xlink:href="classTests_1_1Feature_1_1MediaThumbnailServiceTest.html" target="_top" xlink:title=" ">
<polygon fill="white" stroke="#666666" points="420.5,-178.5 254.5,-178.5 254.5,-148.5 420.5,-148.5 420.5,-178.5"/>
<text text-anchor="start" x="262.5" y="-166.5" font-family="Helvetica,sans-Serif" font-size="10.00">Tests\Feature\MediaThumbnail</text>
<text text-anchor="middle" x="337.5" y="-155.5" font-family="Helvetica,sans-Serif" font-size="10.00">ServiceTest</text>
</a>
</g>
</g>
<!-- Node1&#45;&gt;Node13 -->
<g id="edge28_Node000001_Node000013" class="edge">
<title>Node1&#45;&gt;Node13</title>
<g id="a_edge28_Node000001_Node000013"><a xlink:title=" ">
<path fill="none" stroke="#63b8ff" d="M172.2,-291.35C183.37,-264.27 207.46,-215.14 244,-188.5 249.24,-184.68 255.03,-181.44 261.09,-178.7"/>
<polygon fill="#63b8ff" stroke="#63b8ff" points="168.86,-290.27 168.43,-300.86 175.37,-292.85 168.86,-290.27"/>
</a>
</g>
</g>
<!-- Node14 -->
<g id="Node000014" class="node">
<title>Node14</title>
<g id="a_Node000014"><a xlink:href="classTests_1_1Feature_1_1PermissionsTest.html" target="_top" xlink:title=" ">
<polygon fill="white" stroke="#666666" points="419,-130 256,-130 256,-111 419,-111 419,-130"/>
<text text-anchor="middle" x="337.5" y="-118" font-family="Helvetica,sans-Serif" font-size="10.00">Tests\Feature\PermissionsTest</text>
</a>
</g>
</g>
<!-- Node1&#45;&gt;Node14 -->
<g id="edge29_Node000001_Node000014" class="edge">
<title>Node1&#45;&gt;Node14</title>
<g id="a_edge29_Node000001_Node000014"><a xlink:title=" ">
<path fill="none" stroke="#63b8ff" d="M168.19,-290.7C175.11,-254.63 194.98,-178.36 244,-139.5 248.75,-135.73 254.07,-132.66 259.67,-130.15"/>
<polygon fill="#63b8ff" stroke="#63b8ff" points="164.68,-290.44 166.38,-300.9 171.58,-291.66 164.68,-290.44"/>
</a>
</g>
</g>
<!-- Node15 -->
<g id="Node000015" class="node">
<title>Node15</title>
<g id="a_Node000015"><a xlink:href="classTests_1_1Feature_1_1ProfileTest.html" target="_top" xlink:title=" ">
<polygon fill="white" stroke="#666666" points="404.5,-93 270.5,-93 270.5,-74 404.5,-74 404.5,-93"/>
<text text-anchor="middle" x="337.5" y="-81" font-family="Helvetica,sans-Serif" font-size="10.00">Tests\Feature\ProfileTest</text>
</a>
</g>
</g>
<!-- Node1&#45;&gt;Node15 -->
<g id="edge30_Node000001_Node000015" class="edge">
<title>Node1&#45;&gt;Node15</title>
<g id="a_edge30_Node000001_Node000015"><a xlink:title=" ">
<path fill="none" stroke="#63b8ff" d="M166.39,-290.59C170.44,-248.84 185.92,-151.93 244,-102.5 251.49,-96.12 260.55,-91.69 270.03,-88.65"/>
<polygon fill="#63b8ff" stroke="#63b8ff" points="162.88,-290.55 165.53,-300.81 169.86,-291.14 162.88,-290.55"/>
</a>
</g>
</g>
<!-- Node16 -->
<g id="Node000016" class="node">
<title>Node16</title>
<g id="a_Node000016"><a xlink:href="classTests_1_1Feature_1_1SearchMediaTest.html" target="_top" xlink:title=" ">
<polygon fill="white" stroke="#666666" points="421,-56 254,-56 254,-37 421,-37 421,-56"/>
<text text-anchor="middle" x="337.5" y="-44" font-family="Helvetica,sans-Serif" font-size="10.00">Tests\Feature\SearchMediaTest</text>
</a>
</g>
</g>
<!-- Node1&#45;&gt;Node16 -->
<g id="edge31_Node000001_Node000016" class="edge">
<title>Node1&#45;&gt;Node16</title>
<g id="a_edge31_Node000001_Node000016"><a xlink:title=" ">
<path fill="none" stroke="#63b8ff" d="M165.08,-290.68C166.42,-243.87 176.66,-125.86 244,-65.5 248.15,-61.78 252.83,-58.71 257.83,-56.19"/>
<polygon fill="#63b8ff" stroke="#63b8ff" points="161.58,-290.91 164.9,-300.97 168.58,-291.03 161.58,-290.91"/>
</a>
</g>
</g>
<!-- Node17 -->
<g id="Node000017" class="node">
<title>Node17</title>
<g id="a_Node000017"><a xlink:href="classTests_1_1Feature_1_1StreamControllerTest.html" target="_top" xlink:title=" ">
<polygon fill="white" stroke="#666666" points="431,-19 244,-19 244,0 431,0 431,-19"/>
<text text-anchor="middle" x="337.5" y="-7" font-family="Helvetica,sans-Serif" font-size="10.00">Tests\Feature\StreamControllerTest</text>
</a>
</g>
</g>
<!-- Node1&#45;&gt;Node17 -->
<g id="edge32_Node000001_Node000017" class="edge">
<title>Node1&#45;&gt;Node17</title>
<g id="a_edge32_Node000001_Node000017"><a xlink:title=" ">
<path fill="none" stroke="#63b8ff" d="M167.83,-290.76C176.55,-232.83 204.77,-65.06 244,-28.5 248.08,-24.7 252.7,-21.57 257.66,-19.01"/>
<polygon fill="#63b8ff" stroke="#63b8ff" points="164.35,-290.41 166.35,-300.81 171.27,-291.43 164.35,-290.41"/>
</a>
</g>
</g>
</g>
</svg>
