<?xml version="1.0" encoding="UTF-8" standalone="no"?>
<!DOCTYPE svg PUBLIC "-//W3C//DTD SVG 1.1//EN"
 "http://www.w3.org/Graphics/SVG/1.1/DTD/svg11.dtd">
<!-- Generated by graphviz version 2.42.4 (0)
 -->
<!-- Title: Graphe hiérarchique des classes Pages: 1 -->
<svg width="359pt" height="662pt"
 viewBox="0.00 0.00 359.00 662.00" xmlns="http://www.w3.org/2000/svg" xmlns:xlink="http://www.w3.org/1999/xlink">
<g id="graph0" class="graph" transform="scale(1 1) rotate(0) translate(4 658)">
<title>Graphe hiérarchique des classes</title>
<!-- Node0 -->
<g id="Node000000" class="node">
<title>Node0</title>
<g id="a_Node000000"><a xlink:href="classApp_1_1Http_1_1Controllers_1_1Controller.html" target="_top" xlink:title=" ">
<polygon fill="white" stroke="#666666" points="116,-342 0,-342 0,-312 116,-312 116,-342"/>
<text text-anchor="start" x="8" y="-330" font-family="Helvetica,sans-Serif" font-size="10.00">App\Http\Controllers</text>
<text text-anchor="middle" x="58" y="-319" font-family="Helvetica,sans-Serif" font-size="10.00">\Controller</text>
</a>
</g>
</g>
<!-- Node1 -->
<g id="Node000001" class="node">
<title>Node1</title>
<g id="a_Node000001"><a xlink:href="classApp_1_1Http_1_1Controllers_1_1AdminController.html" target="_top" xlink:title=" ">
<polygon fill="white" stroke="#666666" points="309.5,-654 193.5,-654 193.5,-624 309.5,-624 309.5,-654"/>
<text text-anchor="start" x="201.5" y="-642" font-family="Helvetica,sans-Serif" font-size="10.00">App\Http\Controllers</text>
<text text-anchor="middle" x="251.5" y="-631" font-family="Helvetica,sans-Serif" font-size="10.00">\AdminController</text>
</a>
</g>
</g>
<!-- Node0&#45;&gt;Node1 -->
<g id="edge1_Node000000_Node000001" class="edge">
<title>Node0&#45;&gt;Node1</title>
<g id="a_edge1_Node000000_Node000001"><a xlink:title=" ">
<path fill="none" stroke="#63b8ff" d="M59.36,-352.31C61.6,-408.35 75.14,-543.58 152,-615 163.28,-625.48 178.36,-631.6 193.32,-635.12"/>
<polygon fill="#63b8ff" stroke="#63b8ff" points="62.86,-352.09 59.05,-342.2 55.86,-352.3 62.86,-352.09"/>
</a>
</g>
</g>
<!-- Node2 -->
<g id="Node000002" class="node">
<title>Node2</title>
<g id="a_Node000002"><a xlink:href="classApp_1_1Http_1_1Controllers_1_1Auth_1_1AuthenticatedSessionController.html" target="_top" xlink:title=" ">
<polygon fill="white" stroke="#666666" points="351,-606 152,-606 152,-576 351,-576 351,-606"/>
<text text-anchor="start" x="160" y="-594" font-family="Helvetica,sans-Serif" font-size="10.00">App\Http\Controllers</text>
<text text-anchor="middle" x="251.5" y="-583" font-family="Helvetica,sans-Serif" font-size="10.00">\Auth\AuthenticatedSessionController</text>
</a>
</g>
</g>
<!-- Node0&#45;&gt;Node2 -->
<g id="edge2_Node000000_Node000002" class="edge">
<title>Node0&#45;&gt;Node2</title>
<g id="a_edge2_Node000000_Node000002"><a xlink:title=" ">
<path fill="none" stroke="#63b8ff" d="M61.23,-352.12C66.96,-401.14 86.73,-509.74 152,-567 155.84,-570.37 160.07,-573.28 164.56,-575.79"/>
<polygon fill="#63b8ff" stroke="#63b8ff" points="64.7,-351.64 60.15,-342.07 57.74,-352.39 64.7,-351.64"/>
</a>
</g>
</g>
<!-- Node3 -->
<g id="Node000003" class="node">
<title>Node3</title>
<g id="a_Node000003"><a xlink:href="classApp_1_1Http_1_1Controllers_1_1Auth_1_1NewPasswordController.html" target="_top" xlink:title=" ">
<polygon fill="white" stroke="#666666" points="332,-558 171,-558 171,-528 332,-528 332,-558"/>
<text text-anchor="start" x="179" y="-546" font-family="Helvetica,sans-Serif" font-size="10.00">App\Http\Controllers</text>
<text text-anchor="middle" x="251.5" y="-535" font-family="Helvetica,sans-Serif" font-size="10.00">\Auth\NewPasswordController</text>
</a>
</g>
</g>
<!-- Node0&#45;&gt;Node3 -->
<g id="edge3_Node000000_Node000003" class="edge">
<title>Node0&#45;&gt;Node3</title>
<g id="a_edge3_Node000000_Node000003"><a xlink:title=" ">
<path fill="none" stroke="#63b8ff" d="M63.92,-352.01C73.4,-393.32 98.19,-475.54 152,-519 157.61,-523.53 163.96,-527.23 170.65,-530.24"/>
<polygon fill="#63b8ff" stroke="#63b8ff" points="67.33,-351.23 61.79,-342.21 60.49,-352.72 67.33,-351.23"/>
</a>
</g>
</g>
<!-- Node4 -->
<g id="Node000004" class="node">
<title>Node4</title>
<g id="a_Node000004"><a xlink:href="classApp_1_1Http_1_1Controllers_1_1Auth_1_1PasswordController.html" target="_top" xlink:title=" ">
<polygon fill="white" stroke="#666666" points="321,-510 182,-510 182,-480 321,-480 321,-510"/>
<text text-anchor="start" x="190" y="-498" font-family="Helvetica,sans-Serif" font-size="10.00">App\Http\Controllers</text>
<text text-anchor="middle" x="251.5" y="-487" font-family="Helvetica,sans-Serif" font-size="10.00">\Auth\PasswordController</text>
</a>
</g>
</g>
<!-- Node0&#45;&gt;Node4 -->
<g id="edge4_Node000000_Node000004" class="edge">
<title>Node0&#45;&gt;Node4</title>
<g id="a_edge4_Node000000_Node000004"><a xlink:title=" ">
<path fill="none" stroke="#63b8ff" d="M68.28,-352.03C81.67,-384.57 109.54,-440.81 152,-471 160.89,-477.32 171.26,-481.99 181.86,-485.44"/>
<polygon fill="#63b8ff" stroke="#63b8ff" points="71.38,-350.36 64.44,-342.36 64.88,-352.95 71.38,-350.36"/>
</a>
</g>
</g>
<!-- Node5 -->
<g id="Node000005" class="node">
<title>Node5</title>
<g id="a_Node000005"><a xlink:href="classApp_1_1Http_1_1Controllers_1_1Auth_1_1RegisteredUserController.html" target="_top" xlink:title=" ">
<polygon fill="white" stroke="#666666" points="335.5,-462 167.5,-462 167.5,-432 335.5,-432 335.5,-462"/>
<text text-anchor="start" x="175.5" y="-450" font-family="Helvetica,sans-Serif" font-size="10.00">App\Http\Controllers</text>
<text text-anchor="middle" x="251.5" y="-439" font-family="Helvetica,sans-Serif" font-size="10.00">\Auth\RegisteredUserController</text>
</a>
</g>
</g>
<!-- Node0&#45;&gt;Node5 -->
<g id="edge5_Node000000_Node000005" class="edge">
<title>Node0&#45;&gt;Node5</title>
<g id="a_edge5_Node000000_Node000005"><a xlink:title=" ">
<path fill="none" stroke="#63b8ff" d="M75.46,-350.41C92.21,-372.47 120.18,-404.78 152,-423 158.03,-426.46 164.55,-429.42 171.26,-431.95"/>
<polygon fill="#63b8ff" stroke="#63b8ff" points="78.16,-348.18 69.4,-342.23 72.53,-352.35 78.16,-348.18"/>
</a>
</g>
</g>
<!-- Node6 -->
<g id="Node000006" class="node">
<title>Node6</title>
<g id="a_Node000006"><a xlink:href="classApp_1_1Http_1_1Controllers_1_1DocumentationController.html" target="_top" xlink:title=" ">
<polygon fill="white" stroke="#666666" points="323,-414 180,-414 180,-384 323,-384 323,-414"/>
<text text-anchor="start" x="188" y="-402" font-family="Helvetica,sans-Serif" font-size="10.00">App\Http\Controllers</text>
<text text-anchor="middle" x="251.5" y="-391" font-family="Helvetica,sans-Serif" font-size="10.00">\DocumentationController</text>
</a>
</g>
</g>
<!-- Node0&#45;&gt;Node6 -->
<g id="edge6_Node000000_Node000006" class="edge">
<title>Node0&#45;&gt;Node6</title>
<g id="a_edge6_Node000000_Node000006"><a xlink:title=" ">
<path fill="none" stroke="#63b8ff" d="M93.38,-347.23C110.54,-356.69 131.9,-367.48 152,-375 160.9,-378.33 170.43,-381.32 179.93,-383.97"/>
<polygon fill="#63b8ff" stroke="#63b8ff" points="94.74,-343.98 84.3,-342.15 91.32,-350.09 94.74,-343.98"/>
</a>
</g>
</g>
<!-- Node7 -->
<g id="Node000007" class="node">
<title>Node7</title>
<g id="a_Node000007"><a xlink:href="classApp_1_1Http_1_1Controllers_1_1FileExplorerController.html" target="_top" xlink:title=" ">
<polygon fill="white" stroke="#666666" points="314,-366 189,-366 189,-336 314,-336 314,-366"/>
<text text-anchor="start" x="197" y="-354" font-family="Helvetica,sans-Serif" font-size="10.00">App\Http\Controllers</text>
<text text-anchor="middle" x="251.5" y="-343" font-family="Helvetica,sans-Serif" font-size="10.00">\FileExplorerController</text>
</a>
</g>
</g>
<!-- Node0&#45;&gt;Node7 -->
<g id="edge7_Node000000_Node000007" class="edge">
<title>Node0&#45;&gt;Node7</title>
<g id="a_edge7_Node000000_Node000007"><a xlink:title=" ">
<path fill="none" stroke="#63b8ff" d="M126.34,-335.44C146.71,-337.99 168.96,-340.78 188.93,-343.28"/>
<polygon fill="#63b8ff" stroke="#63b8ff" points="126.55,-331.94 116.2,-334.17 125.68,-338.88 126.55,-331.94"/>
</a>
</g>
</g>
<!-- Node8 -->
<g id="Node000008" class="node">
<title>Node8</title>
<g id="a_Node000008"><a xlink:href="classApp_1_1Http_1_1Controllers_1_1HomeController.html" target="_top" xlink:title=" ">
<polygon fill="white" stroke="#666666" points="309.5,-318 193.5,-318 193.5,-288 309.5,-288 309.5,-318"/>
<text text-anchor="start" x="201.5" y="-306" font-family="Helvetica,sans-Serif" font-size="10.00">App\Http\Controllers</text>
<text text-anchor="middle" x="251.5" y="-295" font-family="Helvetica,sans-Serif" font-size="10.00">\HomeController</text>
</a>
</g>
</g>
<!-- Node0&#45;&gt;Node8 -->
<g id="edge8_Node000000_Node000008" class="edge">
<title>Node0&#45;&gt;Node8</title>
<g id="a_edge8_Node000000_Node000008"><a xlink:title=" ">
<path fill="none" stroke="#63b8ff" d="M126.39,-318.55C148.23,-315.82 172.24,-312.81 193.27,-310.17"/>
<polygon fill="#63b8ff" stroke="#63b8ff" points="125.68,-315.12 116.2,-319.83 126.55,-322.06 125.68,-315.12"/>
</a>
</g>
</g>
<!-- Node9 -->
<g id="Node000009" class="node">
<title>Node9</title>
<g id="a_Node000009"><a xlink:href="classApp_1_1Http_1_1Controllers_1_1MediaController.html" target="_top" xlink:title=" ">
<polygon fill="white" stroke="#666666" points="309.5,-270 193.5,-270 193.5,-240 309.5,-240 309.5,-270"/>
<text text-anchor="start" x="201.5" y="-258" font-family="Helvetica,sans-Serif" font-size="10.00">App\Http\Controllers</text>
<text text-anchor="middle" x="251.5" y="-247" font-family="Helvetica,sans-Serif" font-size="10.00">\MediaController</text>
</a>
</g>
</g>
<!-- Node0&#45;&gt;Node9 -->
<g id="edge9_Node000000_Node000009" class="edge">
<title>Node0&#45;&gt;Node9</title>
<g id="a_edge9_Node000000_Node000009"><a xlink:title=" ">
<path fill="none" stroke="#63b8ff" d="M93.38,-306.77C110.54,-297.31 131.9,-286.52 152,-279 165.11,-274.1 179.57,-269.93 193.29,-266.51"/>
<polygon fill="#63b8ff" stroke="#63b8ff" points="91.32,-303.91 84.3,-311.85 94.74,-310.02 91.32,-303.91"/>
</a>
</g>
</g>
<!-- Node10 -->
<g id="Node000010" class="node">
<title>Node10</title>
<g id="a_Node000010"><a xlink:href="classApp_1_1Http_1_1Controllers_1_1ProfileController.html" target="_top" xlink:title=" ">
<polygon fill="white" stroke="#666666" points="309.5,-222 193.5,-222 193.5,-192 309.5,-192 309.5,-222"/>
<text text-anchor="start" x="201.5" y="-210" font-family="Helvetica,sans-Serif" font-size="10.00">App\Http\Controllers</text>
<text text-anchor="middle" x="251.5" y="-199" font-family="Helvetica,sans-Serif" font-size="10.00">\ProfileController</text>
</a>
</g>
</g>
<!-- Node0&#45;&gt;Node10 -->
<g id="edge10_Node000000_Node000010" class="edge">
<title>Node0&#45;&gt;Node10</title>
<g id="a_edge10_Node000000_Node000010"><a xlink:title=" ">
<path fill="none" stroke="#63b8ff" d="M75.46,-303.59C92.21,-281.53 120.18,-249.22 152,-231 164.6,-223.78 179.31,-218.73 193.46,-215.18"/>
<polygon fill="#63b8ff" stroke="#63b8ff" points="72.53,-301.65 69.4,-311.77 78.16,-305.82 72.53,-301.65"/>
</a>
</g>
</g>
<!-- Node11 -->
<g id="Node000011" class="node">
<title>Node11</title>
<g id="a_Node000011"><a xlink:href="classApp_1_1Http_1_1Controllers_1_1SearchController.html" target="_top" xlink:title=" ">
<polygon fill="white" stroke="#666666" points="309.5,-174 193.5,-174 193.5,-144 309.5,-144 309.5,-174"/>
<text text-anchor="start" x="201.5" y="-162" font-family="Helvetica,sans-Serif" font-size="10.00">App\Http\Controllers</text>
<text text-anchor="middle" x="251.5" y="-151" font-family="Helvetica,sans-Serif" font-size="10.00">\SearchController</text>
</a>
</g>
</g>
<!-- Node0&#45;&gt;Node11 -->
<g id="edge11_Node000000_Node000011" class="edge">
<title>Node0&#45;&gt;Node11</title>
<g id="a_edge11_Node000000_Node000011"><a xlink:title=" ">
<path fill="none" stroke="#63b8ff" d="M68.28,-301.97C81.67,-269.43 109.54,-213.19 152,-183 164.12,-174.38 178.97,-168.84 193.43,-165.28"/>
<polygon fill="#63b8ff" stroke="#63b8ff" points="64.88,-301.05 64.44,-311.64 71.38,-303.64 64.88,-301.05"/>
</a>
</g>
</g>
<!-- Node12 -->
<g id="Node000012" class="node">
<title>Node12</title>
<g id="a_Node000012"><a xlink:href="classApp_1_1Http_1_1Controllers_1_1StreamController.html" target="_top" xlink:title=" ">
<polygon fill="white" stroke="#666666" points="309.5,-126 193.5,-126 193.5,-96 309.5,-96 309.5,-126"/>
<text text-anchor="start" x="201.5" y="-114" font-family="Helvetica,sans-Serif" font-size="10.00">App\Http\Controllers</text>
<text text-anchor="middle" x="251.5" y="-103" font-family="Helvetica,sans-Serif" font-size="10.00">\StreamController</text>
</a>
</g>
</g>
<!-- Node0&#45;&gt;Node12 -->
<g id="edge12_Node000000_Node000012" class="edge">
<title>Node0&#45;&gt;Node12</title>
<g id="a_edge12_Node000000_Node000012"><a xlink:title=" ">
<path fill="none" stroke="#63b8ff" d="M63.92,-301.99C73.4,-260.68 98.19,-178.46 152,-135 163.78,-125.49 178.76,-119.66 193.46,-116.11"/>
<polygon fill="#63b8ff" stroke="#63b8ff" points="60.49,-301.28 61.79,-311.79 67.33,-302.77 60.49,-301.28"/>
</a>
</g>
</g>
<!-- Node13 -->
<g id="Node000013" class="node">
<title>Node13</title>
<g id="a_Node000013"><a xlink:href="classApp_1_1Http_1_1Controllers_1_1ThumbnailController.html" target="_top" xlink:title=" ">
<polygon fill="white" stroke="#666666" points="311,-78 192,-78 192,-48 311,-48 311,-78"/>
<text text-anchor="start" x="200" y="-66" font-family="Helvetica,sans-Serif" font-size="10.00">App\Http\Controllers</text>
<text text-anchor="middle" x="251.5" y="-55" font-family="Helvetica,sans-Serif" font-size="10.00">\ThumbnailController</text>
</a>
</g>
</g>
<!-- Node0&#45;&gt;Node13 -->
<g id="edge13_Node000000_Node000013" class="edge">
<title>Node0&#45;&gt;Node13</title>
<g id="a_edge13_Node000000_Node000013"><a xlink:title=" ">
<path fill="none" stroke="#63b8ff" d="M61.23,-301.88C66.96,-252.86 86.73,-144.26 152,-87 163.11,-77.25 177.54,-71.32 191.91,-67.74"/>
<polygon fill="#63b8ff" stroke="#63b8ff" points="57.74,-301.61 60.15,-311.93 64.7,-302.36 57.74,-301.61"/>
</a>
</g>
</g>
<!-- Node14 -->
<g id="Node000014" class="node">
<title>Node14</title>
<g id="a_Node000014"><a xlink:href="classApp_1_1Http_1_1Controllers_1_1TransfertController.html" target="_top" xlink:title=" ">
<polygon fill="white" stroke="#666666" points="309.5,-30 193.5,-30 193.5,0 309.5,0 309.5,-30"/>
<text text-anchor="start" x="201.5" y="-18" font-family="Helvetica,sans-Serif" font-size="10.00">App\Http\Controllers</text>
<text text-anchor="middle" x="251.5" y="-7" font-family="Helvetica,sans-Serif" font-size="10.00">\TransfertController</text>
</a>
</g>
</g>
<!-- Node0&#45;&gt;Node14 -->
<g id="edge14_Node000000_Node000014" class="edge">
<title>Node0&#45;&gt;Node14</title>
<g id="a_edge14_Node000000_Node000014"><a xlink:title=" ">
<path fill="none" stroke="#63b8ff" d="M59.36,-301.69C61.6,-245.65 75.14,-110.42 152,-39 163.28,-28.52 178.36,-22.4 193.32,-18.88"/>
<polygon fill="#63b8ff" stroke="#63b8ff" points="55.86,-301.7 59.05,-311.8 62.86,-301.91 55.86,-301.7"/>
</a>
</g>
</g>
</g>
</svg>
