<?xml version="1.0" encoding="UTF-8" standalone="no"?>
<!DOCTYPE svg PUBLIC "-//W3C//DTD SVG 1.1//EN"
 "http://www.w3.org/Graphics/SVG/1.1/DTD/svg11.dtd">
<!-- Generated by graphviz version 2.42.4 (0)
 -->
<!-- Title: Graphe hiérarchique des classes Pages: 1 -->
<svg width="226pt" height="230pt"
 viewBox="0.00 0.00 226.00 230.00" xmlns="http://www.w3.org/2000/svg" xmlns:xlink="http://www.w3.org/1999/xlink">
<g id="graph0" class="graph" transform="scale(1 1) rotate(0) translate(4 226)">
<title>Graphe hiérarchique des classes</title>
<!-- Node0 -->
<g id="Node000000" class="node">
<title>Node0</title>
<g id="a_Node000000"><a xlink:title=" ">
<polygon fill="#e0e0e0" stroke="#999999" points="66,-216.5 0,-216.5 0,-197.5 66,-197.5 66,-216.5"/>
<text text-anchor="middle" x="33" y="-204.5" font-family="Helvetica,sans-Serif" font-size="10.00">Illuminate</text>
</a>
</g>
</g>
<!-- Node1 -->
<g id="Node000001" class="node">
<title>Node1</title>
<g id="a_Node000001"><a xlink:href="classDatabase_1_1Factories_1_1UserFactory.html" target="_top" xlink:title="\Databaseloquent\Factories\Factory&lt;\App\Models\User&gt;">
<polygon fill="white" stroke="#666666" points="215,-222 105,-222 105,-192 215,-192 215,-222"/>
<text text-anchor="start" x="113" y="-210" font-family="Helvetica,sans-Serif" font-size="10.00">Database\Factories</text>
<text text-anchor="middle" x="160" y="-199" font-family="Helvetica,sans-Serif" font-size="10.00">\UserFactory</text>
</a>
</g>
</g>
<!-- Node0&#45;&gt;Node1 -->
<g id="edge38_Node000000_Node000001" class="edge">
<title>Node0&#45;&gt;Node1</title>
<g id="a_edge38_Node000000_Node000001"><a xlink:title=" ">
<path fill="none" stroke="#63b8ff" d="M76.47,-207C85.52,-207 95.19,-207 104.61,-207"/>
<polygon fill="#63b8ff" stroke="#63b8ff" points="76.19,-203.5 66.19,-207 76.19,-210.5 76.19,-203.5"/>
</a>
</g>
</g>
<!-- Node2 -->
<g id="Node000002" class="node">
<title>Node2</title>
<g id="a_Node000002"><a xlink:title=" ">
<polygon fill="#e0e0e0" stroke="#999999" points="59,-120.5 7,-120.5 7,-101.5 59,-101.5 59,-120.5"/>
<text text-anchor="middle" x="33" y="-108.5" font-family="Helvetica,sans-Serif" font-size="10.00">Factory</text>
</a>
</g>
</g>
<!-- Node2&#45;&gt;Node1 -->
<g id="edge43_Node000002_Node000001" class="edge">
<title>Node2&#45;&gt;Node1</title>
<g id="a_edge43_Node000002_Node000001"><a xlink:title=" ">
<path fill="none" stroke="#63b8ff" d="M47.11,-128.61C59.72,-144.55 80.06,-167.79 102,-183 106.76,-186.3 112.06,-189.28 117.44,-191.92"/>
<polygon fill="#63b8ff" stroke="#63b8ff" points="49.82,-126.39 40.94,-120.6 44.28,-130.66 49.82,-126.39"/>
</a>
</g>
</g>
<!-- Node3 -->
<g id="Node000003" class="node">
<title>Node3</title>
<g id="a_Node000003"><a xlink:href="classDatabase_1_1Factories_1_1EleveFactory.html" target="_top" xlink:title=" ">
<polygon fill="white" stroke="#666666" points="215,-174 105,-174 105,-144 215,-144 215,-174"/>
<text text-anchor="start" x="113" y="-162" font-family="Helvetica,sans-Serif" font-size="10.00">Database\Factories</text>
<text text-anchor="middle" x="160" y="-151" font-family="Helvetica,sans-Serif" font-size="10.00">\EleveFactory</text>
</a>
</g>
</g>
<!-- Node2&#45;&gt;Node3 -->
<g id="edge39_Node000002_Node000003" class="edge">
<title>Node2&#45;&gt;Node3</title>
<g id="a_edge39_Node000002_Node000003"><a xlink:title=" ">
<path fill="none" stroke="#63b8ff" d="M68.45,-124.23C84.36,-130.34 103.32,-137.62 119.77,-143.94"/>
<polygon fill="#63b8ff" stroke="#63b8ff" points="69.59,-120.92 59,-120.6 67.08,-127.45 69.59,-120.92"/>
</a>
</g>
</g>
<!-- Node4 -->
<g id="Node000004" class="node">
<title>Node4</title>
<g id="a_Node000004"><a xlink:href="classDatabase_1_1Factories_1_1MediaFactory.html" target="_top" xlink:title=" ">
<polygon fill="white" stroke="#666666" points="215,-126 105,-126 105,-96 215,-96 215,-126"/>
<text text-anchor="start" x="113" y="-114" font-family="Helvetica,sans-Serif" font-size="10.00">Database\Factories</text>
<text text-anchor="middle" x="160" y="-103" font-family="Helvetica,sans-Serif" font-size="10.00">\MediaFactory</text>
</a>
</g>
</g>
<!-- Node2&#45;&gt;Node4 -->
<g id="edge40_Node000002_Node000004" class="edge">
<title>Node2&#45;&gt;Node4</title>
<g id="a_edge40_Node000002_Node000004"><a xlink:title=" ">
<path fill="none" stroke="#63b8ff" d="M69.38,-111C80.4,-111 92.83,-111 104.83,-111"/>
<polygon fill="#63b8ff" stroke="#63b8ff" points="69.3,-107.5 59.3,-111 69.3,-114.5 69.3,-107.5"/>
</a>
</g>
</g>
<!-- Node5 -->
<g id="Node000005" class="node">
<title>Node5</title>
<g id="a_Node000005"><a xlink:href="classDatabase_1_1Factories_1_1ParticipationFactory.html" target="_top" xlink:title=" ">
<polygon fill="white" stroke="#666666" points="218,-78 102,-78 102,-48 218,-48 218,-78"/>
<text text-anchor="start" x="110" y="-66" font-family="Helvetica,sans-Serif" font-size="10.00">Database\Factories</text>
<text text-anchor="middle" x="160" y="-55" font-family="Helvetica,sans-Serif" font-size="10.00">\ParticipationFactory</text>
</a>
</g>
</g>
<!-- Node2&#45;&gt;Node5 -->
<g id="edge41_Node000002_Node000005" class="edge">
<title>Node2&#45;&gt;Node5</title>
<g id="a_edge41_Node000002_Node000005"><a xlink:title=" ">
<path fill="none" stroke="#63b8ff" d="M68.45,-97.77C84.36,-91.66 103.32,-84.38 119.77,-78.06"/>
<polygon fill="#63b8ff" stroke="#63b8ff" points="67.08,-94.55 59,-101.4 69.59,-101.08 67.08,-94.55"/>
</a>
</g>
</g>
<!-- Node6 -->
<g id="Node000006" class="node">
<title>Node6</title>
<g id="a_Node000006"><a xlink:href="classDatabase_1_1Factories_1_1ProfesseurFactory.html" target="_top" xlink:title=" ">
<polygon fill="white" stroke="#666666" points="215,-30 105,-30 105,0 215,0 215,-30"/>
<text text-anchor="start" x="113" y="-18" font-family="Helvetica,sans-Serif" font-size="10.00">Database\Factories</text>
<text text-anchor="middle" x="160" y="-7" font-family="Helvetica,sans-Serif" font-size="10.00">\ProfesseurFactory</text>
</a>
</g>
</g>
<!-- Node2&#45;&gt;Node6 -->
<g id="edge42_Node000002_Node000006" class="edge">
<title>Node2&#45;&gt;Node6</title>
<g id="a_edge42_Node000002_Node000006"><a xlink:title=" ">
<path fill="none" stroke="#63b8ff" d="M47.11,-93.39C59.72,-77.45 80.06,-54.21 102,-39 106.76,-35.7 112.06,-32.72 117.44,-30.08"/>
<polygon fill="#63b8ff" stroke="#63b8ff" points="44.28,-91.34 40.94,-101.4 49.82,-95.61 44.28,-91.34"/>
</a>
</g>
</g>
</g>
</svg>
