<?xml version="1.0" encoding="UTF-8" standalone="no"?>
<!DOCTYPE svg PUBLIC "-//W3C//DTD SVG 1.1//EN"
 "http://www.w3.org/Graphics/SVG/1.1/DTD/svg11.dtd">
<!-- Generated by graphviz version 2.42.4 (0)
 -->
<!-- Title: App\Services\FfastransService\client Pages: 1 -->
<svg width="533pt" height="182pt"
 viewBox="0.00 0.00 533.00 182.00" xmlns="http://www.w3.org/2000/svg" xmlns:xlink="http://www.w3.org/1999/xlink">
<g id="graph0" class="graph" transform="scale(1 1) rotate(0) translate(4 178)">
<title>App\Services\FfastransService\client</title>
<!-- Node1 -->
<g id="Node000001" class="node">
<title>Node1</title>
<g id="a_Node000001"><a xlink:title=" ">
<polygon fill="#999999" stroke="#666666" points="525,-102 361,-102 361,-72 525,-72 525,-102"/>
<text text-anchor="start" x="369" y="-90" font-family="Helvetica,sans-Serif" font-size="10.00">App\Services\FfastransService</text>
<text text-anchor="middle" x="443" y="-79" font-family="Helvetica,sans-Serif" font-size="10.00">\client</text>
</a>
</g>
</g>
<!-- Node2 -->
<g id="Node000002" class="node">
<title>Node2</title>
<g id="a_Node000002"><a xlink:href="classApp_1_1Services_1_1FfastransService.html#a38bd90dafc9f5882b601b2e838a4f95f" target="_top" xlink:title=" ">
<polygon fill="white" stroke="#666666" points="325,-174 161,-174 161,-144 325,-144 325,-174"/>
<text text-anchor="start" x="169" y="-162" font-family="Helvetica,sans-Serif" font-size="10.00">App\Services\FfastransService</text>
<text text-anchor="middle" x="243" y="-151" font-family="Helvetica,sans-Serif" font-size="10.00">\cancelJob</text>
</a>
</g>
</g>
<!-- Node1&#45;&gt;Node2 -->
<g id="edge1_Node000001_Node000002" class="edge">
<title>Node1&#45;&gt;Node2</title>
<g id="a_edge1_Node000001_Node000002"><a xlink:title=" ">
<path fill="none" stroke="#63b8ff" d="M398.46,-106.09C376.61,-115.35 349.62,-126.33 325,-135 316.28,-138.07 306.95,-141.08 297.84,-143.88"/>
<polygon fill="#63b8ff" stroke="#63b8ff" points="399.97,-109.25 407.8,-102.1 397.23,-102.81 399.97,-109.25"/>
</a>
</g>
</g>
<!-- Node3 -->
<g id="Node000003" class="node">
<title>Node3</title>
<g id="a_Node000003"><a xlink:href="classApp_1_1Services_1_1FfastransService.html#afd12d7538c3acc927dd210eb779caada" target="_top" xlink:title=" ">
<polygon fill="white" stroke="#666666" points="325,-126 161,-126 161,-96 325,-96 325,-126"/>
<text text-anchor="start" x="169" y="-114" font-family="Helvetica,sans-Serif" font-size="10.00">App\Services\FfastransService</text>
<text text-anchor="middle" x="243" y="-103" font-family="Helvetica,sans-Serif" font-size="10.00">\getFullStatusList</text>
</a>
</g>
</g>
<!-- Node1&#45;&gt;Node3 -->
<g id="edge2_Node000001_Node000003" class="edge">
<title>Node1&#45;&gt;Node3</title>
<g id="a_edge2_Node000001_Node000003"><a xlink:title=" ">
<path fill="none" stroke="#63b8ff" d="M350.92,-98.04C342.37,-99.08 333.75,-100.12 325.3,-101.15"/>
<polygon fill="#63b8ff" stroke="#63b8ff" points="351.39,-101.51 360.89,-96.83 350.55,-94.56 351.39,-101.51"/>
</a>
</g>
</g>
<!-- Node5 -->
<g id="Node000005" class="node">
<title>Node5</title>
<g id="a_Node000005"><a xlink:href="classApp_1_1Services_1_1FfastransService.html#af4bfe743eb59eedfba180fad25516f14" target="_top" xlink:title=" ">
<polygon fill="white" stroke="#666666" points="325,-78 161,-78 161,-48 325,-48 325,-78"/>
<text text-anchor="start" x="169" y="-66" font-family="Helvetica,sans-Serif" font-size="10.00">App\Services\FfastransService</text>
<text text-anchor="middle" x="243" y="-55" font-family="Helvetica,sans-Serif" font-size="10.00">\getJobStatus</text>
</a>
</g>
</g>
<!-- Node1&#45;&gt;Node5 -->
<g id="edge4_Node000001_Node000005" class="edge">
<title>Node1&#45;&gt;Node5</title>
<g id="a_edge4_Node000001_Node000005"><a xlink:title=" ">
<path fill="none" stroke="#63b8ff" d="M350.92,-75.96C342.37,-74.92 333.75,-73.88 325.3,-72.85"/>
<polygon fill="#63b8ff" stroke="#63b8ff" points="350.55,-79.44 360.89,-77.17 351.39,-72.49 350.55,-79.44"/>
</a>
</g>
</g>
<!-- Node6 -->
<g id="Node000006" class="node">
<title>Node6</title>
<g id="a_Node000006"><a xlink:href="classApp_1_1Services_1_1FfastransService.html#a57ba401cb3c3236dc5f04b99d8f429ca" target="_top" xlink:title=" ">
<polygon fill="white" stroke="#666666" points="325,-30 161,-30 161,0 325,0 325,-30"/>
<text text-anchor="start" x="169" y="-18" font-family="Helvetica,sans-Serif" font-size="10.00">App\Services\FfastransService</text>
<text text-anchor="middle" x="243" y="-7" font-family="Helvetica,sans-Serif" font-size="10.00">\submitJob</text>
</a>
</g>
</g>
<!-- Node1&#45;&gt;Node6 -->
<g id="edge5_Node000001_Node000006" class="edge">
<title>Node1&#45;&gt;Node6</title>
<g id="a_edge5_Node000001_Node000006"><a xlink:title=" ">
<path fill="none" stroke="#63b8ff" d="M398.46,-67.91C376.61,-58.65 349.62,-47.67 325,-39 316.28,-35.93 306.95,-32.92 297.84,-30.12"/>
<polygon fill="#63b8ff" stroke="#63b8ff" points="397.23,-71.19 407.8,-71.9 399.97,-64.75 397.23,-71.19"/>
</a>
</g>
</g>
<!-- Node4 -->
<g id="Node000004" class="node">
<title>Node4</title>
<g id="a_Node000004"><a xlink:href="classApp_1_1Http_1_1Controllers_1_1FileExplorerController.html#af62cfae650ed7ee6eb832d0d38dffe34" target="_top" xlink:title=" ">
<polygon fill="white" stroke="#666666" points="125,-131.5 0,-131.5 0,-90.5 125,-90.5 125,-131.5"/>
<text text-anchor="start" x="8" y="-119.5" font-family="Helvetica,sans-Serif" font-size="10.00">App\Http\Controllers</text>
<text text-anchor="start" x="8" y="-108.5" font-family="Helvetica,sans-Serif" font-size="10.00">\FileExplorerController</text>
<text text-anchor="middle" x="62.5" y="-97.5" font-family="Helvetica,sans-Serif" font-size="10.00">\scanResults</text>
</a>
</g>
</g>
<!-- Node3&#45;&gt;Node4 -->
<g id="edge3_Node000003_Node000004" class="edge">
<title>Node3&#45;&gt;Node4</title>
<g id="a_edge3_Node000003_Node000004"><a xlink:title=" ">
<path fill="none" stroke="#63b8ff" d="M150.72,-111C142.08,-111 133.47,-111 125.21,-111"/>
<polygon fill="#63b8ff" stroke="#63b8ff" points="150.85,-114.5 160.85,-111 150.85,-107.5 150.85,-114.5"/>
</a>
</g>
</g>
</g>
</svg>
