<?xml version="1.0" encoding="UTF-8" standalone="no"?>
<!DOCTYPE svg PUBLIC "-//W3C//DTD SVG 1.1//EN"
 "http://www.w3.org/Graphics/SVG/1.1/DTD/svg11.dtd">
<!-- Generated by graphviz version 2.42.4 (0)
 -->
<!-- Title: App\Http\Requests\Auth\LoginRequest\throttleKey Pages: 1 -->
<svg width="806pt" height="68pt"
 viewBox="0.00 0.00 806.00 67.50" xmlns="http://www.w3.org/2000/svg" xmlns:xlink="http://www.w3.org/1999/xlink">
<g id="graph0" class="graph" transform="scale(1 1) rotate(0) translate(4 63.5)">
<title>App\Http\Requests\Auth\LoginRequest\throttleKey</title>
<!-- Node1 -->
<g id="Node000001" class="node">
<title>Node1</title>
<g id="a_Node000001"><a xlink:title="Get the rate limiting throttle key for the request.">
<polygon fill="#999999" stroke="#666666" points="798,-59.5 655,-59.5 655,-29.5 798,-29.5 798,-59.5"/>
<text text-anchor="start" x="663" y="-47.5" font-family="Helvetica,sans-Serif" font-size="10.00">App\Http\Requests\Auth</text>
<text text-anchor="middle" x="726.5" y="-36.5" font-family="Helvetica,sans-Serif" font-size="10.00">\LoginRequest\throttleKey</text>
</a>
</g>
</g>
<!-- Node2 -->
<g id="Node000002" class="node">
<title>Node2</title>
<g id="a_Node000002"><a xlink:href="classApp_1_1Http_1_1Requests_1_1Auth_1_1LoginRequest.html#a7be4cc5f6c415464b716807cc1b862ce" target="_top" xlink:title="Attempt to authenticate the request&#39;s credentials.">
<polygon fill="white" stroke="#666666" points="413,-59.5 263,-59.5 263,-29.5 413,-29.5 413,-59.5"/>
<text text-anchor="start" x="271" y="-47.5" font-family="Helvetica,sans-Serif" font-size="10.00">App\Http\Requests\Auth</text>
<text text-anchor="middle" x="338" y="-36.5" font-family="Helvetica,sans-Serif" font-size="10.00">\LoginRequest\authenticate</text>
</a>
</g>
</g>
<!-- Node1&#45;&gt;Node2 -->
<g id="edge1_Node000001_Node000002" class="edge">
<title>Node1&#45;&gt;Node2</title>
<g id="a_edge1_Node000001_Node000002"><a xlink:title=" ">
<path fill="none" stroke="#63b8ff" d="M644.65,-49.53C635.99,-49.93 627.32,-50.27 619,-50.5 543.47,-52.63 524.53,-52.56 449,-50.5 437.43,-50.18 425.19,-49.68 413.24,-49.1"/>
<polygon fill="#63b8ff" stroke="#63b8ff" points="644.96,-53.02 654.77,-49.04 644.62,-46.03 644.96,-53.02"/>
</a>
</g>
</g>
<!-- Node4 -->
<g id="Node000004" class="node">
<title>Node4</title>
<g id="a_Node000004"><a xlink:href="classApp_1_1Http_1_1Requests_1_1Auth_1_1LoginRequest.html#a673cadc2bf050f1c139636c261bc996e" target="_top" xlink:title="Ensure the login request is not rate limited.">
<polygon fill="white" stroke="#666666" points="619,-41 449,-41 449,0 619,0 619,-41"/>
<text text-anchor="start" x="457" y="-29" font-family="Helvetica,sans-Serif" font-size="10.00">App\Http\Requests\Auth</text>
<text text-anchor="start" x="457" y="-18" font-family="Helvetica,sans-Serif" font-size="10.00">\LoginRequest\ensureIsNotRate</text>
<text text-anchor="middle" x="534" y="-7" font-family="Helvetica,sans-Serif" font-size="10.00">Limited</text>
</a>
</g>
</g>
<!-- Node1&#45;&gt;Node4 -->
<g id="edge3_Node000001_Node000004" class="edge">
<title>Node1&#45;&gt;Node4</title>
<g id="a_edge3_Node000001_Node000004"><a xlink:title=" ">
<path fill="none" stroke="#63b8ff" d="M644.9,-34.35C636.36,-33.27 627.66,-32.17 619.08,-31.09"/>
<polygon fill="#63b8ff" stroke="#63b8ff" points="644.48,-37.82 654.84,-35.6 645.35,-30.87 644.48,-37.82"/>
</a>
</g>
</g>
<!-- Node3 -->
<g id="Node000003" class="node">
<title>Node3</title>
<g id="a_Node000003"><a xlink:href="classApp_1_1Http_1_1Controllers_1_1Auth_1_1AuthenticatedSessionController.html#a0c8e698ebd6dd5f91721d442f53dbe66" target="_top" xlink:title="Handle an incoming authentication request.">
<polygon fill="white" stroke="#666666" points="227,-59.5 0,-59.5 0,-29.5 227,-29.5 227,-59.5"/>
<text text-anchor="start" x="8" y="-47.5" font-family="Helvetica,sans-Serif" font-size="10.00">App\Http\Controllers</text>
<text text-anchor="middle" x="113.5" y="-36.5" font-family="Helvetica,sans-Serif" font-size="10.00">\Auth\AuthenticatedSessionController\store</text>
</a>
</g>
</g>
<!-- Node2&#45;&gt;Node3 -->
<g id="edge2_Node000002_Node000003" class="edge">
<title>Node2&#45;&gt;Node3</title>
<g id="a_edge2_Node000002_Node000003"><a xlink:title=" ">
<path fill="none" stroke="#63b8ff" d="M252.8,-44.5C244.41,-44.5 235.8,-44.5 227.18,-44.5"/>
<polygon fill="#63b8ff" stroke="#63b8ff" points="252.91,-48 262.91,-44.5 252.91,-41 252.91,-48"/>
</a>
</g>
</g>
<!-- Node4&#45;&gt;Node2 -->
<g id="edge4_Node000004_Node000002" class="edge">
<title>Node4&#45;&gt;Node2</title>
<g id="a_edge4_Node000004_Node000002"><a xlink:title=" ">
<path fill="none" stroke="#63b8ff" d="M438.7,-32.17C430.11,-33.23 421.5,-34.29 413.12,-35.33"/>
<polygon fill="#63b8ff" stroke="#63b8ff" points="439.26,-35.62 448.76,-30.92 438.4,-28.68 439.26,-35.62"/>
</a>
</g>
</g>
</g>
</svg>
