<?xml version="1.0" encoding="UTF-8" standalone="no"?>
<!DOCTYPE svg PUBLIC "-//W3C//DTD SVG 1.1//EN"
 "http://www.w3.org/Graphics/SVG/1.1/DTD/svg11.dtd">
<!-- Generated by graphviz version 2.42.4 (0)
 -->
<!-- Title: Database\Factories\MediaFactory Pages: 1 -->
<svg width="129pt" height="194pt"
 viewBox="0.00 0.00 129.00 194.00" xmlns="http://www.w3.org/2000/svg" xmlns:xlink="http://www.w3.org/1999/xlink">
<g id="graph0" class="graph" transform="scale(1 1) rotate(0) translate(4 190)">
<title>Database\Factories\MediaFactory</title>
<!-- Node1 -->
<g id="Node000001" class="node">
<title>Node1</title>
<g id="a_Node000001"><a xlink:title=" ">
<polygon fill="#999999" stroke="transparent" points="121,-101 0,-101 0,0 121,0 121,-101"/>
<text text-anchor="start" x="14" y="-88.5" font-family="Helvetica,sans-Serif" font-size="10.00">Database\Factories</text>
<text text-anchor="start" x="26.5" y="-77.5" font-family="Helvetica,sans-Serif" font-size="10.00">\MediaFactory</text>
<text text-anchor="start" x="4.5" y="-62.5" font-family="Helvetica,sans-Serif" font-size="10.00">#</text>
<text text-anchor="start" x="17.5" y="-62.5" font-family="Helvetica,sans-Serif" font-size="10.00">$model</text>
<text text-anchor="start" x="4.5" y="-47.5" font-family="Helvetica,sans-Serif" font-size="10.00">+</text>
<text text-anchor="start" x="17.5" y="-47.5" font-family="Helvetica,sans-Serif" font-size="10.00">definition()</text>
<text text-anchor="start" x="4.5" y="-32.5" font-family="Helvetica,sans-Serif" font-size="10.00">+</text>
<text text-anchor="start" x="17.5" y="-32.5" font-family="Helvetica,sans-Serif" font-size="10.00">withoutProfesseur()</text>
<text text-anchor="start" x="4.5" y="-17.5" font-family="Helvetica,sans-Serif" font-size="10.00">+</text>
<text text-anchor="start" x="17.5" y="-17.5" font-family="Helvetica,sans-Serif" font-size="10.00">withProperties(array</text>
<text text-anchor="start" x="17.5" y="-6.5" font-family="Helvetica,sans-Serif" font-size="10.00"> $properties)</text>
<polygon fill="#666666" stroke="#666666" points="0.5,-72.5 0.5,-72.5 121.5,-72.5 121.5,-72.5 0.5,-72.5"/>
<polygon fill="#666666" stroke="#666666" points="0.5,-57.5 0.5,-57.5 15.5,-57.5 15.5,-57.5 0.5,-57.5"/>
<polygon fill="#666666" stroke="#666666" points="15.5,-57.5 15.5,-57.5 121.5,-57.5 121.5,-57.5 15.5,-57.5"/>
<polygon fill="none" stroke="#666666" points="0,0 0,-101 121,-101 121,0 0,0"/>
</a>
</g>
</g>
<!-- Node2 -->
<g id="Node000002" class="node">
<title>Node2</title>
<g id="a_Node000002"><a xlink:title=" ">
<polygon fill="white" stroke="transparent" points="83.5,-186 37.5,-186 37.5,-137 83.5,-137 83.5,-186"/>
<text text-anchor="start" x="42.5" y="-173.5" font-family="Helvetica,sans-Serif" font-size="10.00">Factory</text>
<text text-anchor="start" x="58.5" y="-158.5" font-family="Helvetica,sans-Serif" font-size="10.00"> </text>
<text text-anchor="start" x="58.5" y="-143.5" font-family="Helvetica,sans-Serif" font-size="10.00"> </text>
<polygon fill="#666666" stroke="#666666" points="37.5,-168.5 37.5,-168.5 83.5,-168.5 83.5,-168.5 37.5,-168.5"/>
<polygon fill="#666666" stroke="#666666" points="37.5,-153.5 37.5,-153.5 83.5,-153.5 83.5,-153.5 37.5,-153.5"/>
<polygon fill="none" stroke="#666666" points="37.5,-137 37.5,-186 83.5,-186 83.5,-137 37.5,-137"/>
</a>
</g>
</g>
<!-- Node2&#45;&gt;Node1 -->
<g id="edge1_Node000001_Node000002" class="edge">
<title>Node2&#45;&gt;Node1</title>
<g id="a_edge1_Node000001_Node000002"><a xlink:title=" ">
<path fill="none" stroke="#63b8ff" d="M60.5,-126.67C60.5,-118.56 60.5,-109.73 60.5,-101.07"/>
<polygon fill="none" stroke="#63b8ff" points="57,-126.85 60.5,-136.85 64,-126.85 57,-126.85"/>
</a>
</g>
</g>
</g>
</svg>
