<?xml version="1.0" encoding="UTF-8" standalone="no"?>
<!DOCTYPE svg PUBLIC "-//W3C//DTD SVG 1.1//EN"
 "http://www.w3.org/Graphics/SVG/1.1/DTD/svg11.dtd">
<!-- Generated by graphviz version 2.42.4 (0)
 -->
<!-- Title: Tests\Feature\Auth\AuthenticationTest Pages: 1 -->
<svg width="169pt" height="327pt"
 viewBox="0.00 0.00 169.00 327.00" xmlns="http://www.w3.org/2000/svg" xmlns:xlink="http://www.w3.org/1999/xlink">
<g id="graph0" class="graph" transform="scale(1 1) rotate(0) translate(4 323)">
<title>Tests\Feature\Auth\AuthenticationTest</title>
<!-- Node1 -->
<g id="Node000001" class="node">
<title>Node1</title>
<g id="a_Node000001"><a xlink:title=" ">
<polygon fill="#999999" stroke="transparent" points="161,-149 0,-149 0,0 161,0 161,-149"/>
<text text-anchor="start" x="34" y="-136.5" font-family="Helvetica,sans-Serif" font-size="10.00">Tests\Feature\Auth</text>
<text text-anchor="start" x="34" y="-125.5" font-family="Helvetica,sans-Serif" font-size="10.00">\AuthenticationTest</text>
<text text-anchor="start" x="79" y="-110.5" font-family="Helvetica,sans-Serif" font-size="10.00"> </text>
<text text-anchor="start" x="4.5" y="-95.5" font-family="Helvetica,sans-Serif" font-size="10.00">+</text>
<text text-anchor="start" x="17.5" y="-95.5" font-family="Helvetica,sans-Serif" font-size="10.00">test_login_screen</text>
<text text-anchor="start" x="17.5" y="-84.5" font-family="Helvetica,sans-Serif" font-size="10.00">_can_be_rendered()</text>
<text text-anchor="start" x="4.5" y="-69.5" font-family="Helvetica,sans-Serif" font-size="10.00">+</text>
<text text-anchor="start" x="17.5" y="-69.5" font-family="Helvetica,sans-Serif" font-size="10.00">test_users_can_authenticate</text>
<text text-anchor="start" x="17.5" y="-58.5" font-family="Helvetica,sans-Serif" font-size="10.00">_using_the_login_screen()</text>
<text text-anchor="start" x="4.5" y="-43.5" font-family="Helvetica,sans-Serif" font-size="10.00">+</text>
<text text-anchor="start" x="17.5" y="-43.5" font-family="Helvetica,sans-Serif" font-size="10.00">test_users_can_not</text>
<text text-anchor="start" x="17.5" y="-32.5" font-family="Helvetica,sans-Serif" font-size="10.00">_authenticate_with_invalid</text>
<text text-anchor="start" x="17.5" y="-21.5" font-family="Helvetica,sans-Serif" font-size="10.00">_password()</text>
<text text-anchor="start" x="4.5" y="-6.5" font-family="Helvetica,sans-Serif" font-size="10.00">+</text>
<text text-anchor="start" x="17.5" y="-6.5" font-family="Helvetica,sans-Serif" font-size="10.00">test_users_can_logout()</text>
<polygon fill="#666666" stroke="#666666" points="0.5,-120.5 0.5,-120.5 161.5,-120.5 161.5,-120.5 0.5,-120.5"/>
<polygon fill="#666666" stroke="#666666" points="0.5,-105.5 0.5,-105.5 161.5,-105.5 161.5,-105.5 0.5,-105.5"/>
<polygon fill="none" stroke="#666666" points="0,0 0,-149 161,-149 161,0 0,0"/>
</a>
</g>
</g>
<!-- Node2 -->
<g id="Node000002" class="node">
<title>Node2</title>
<g id="a_Node000002"><a xlink:href="classTests_1_1TestCase.html" target="_top" xlink:title=" ">
<polygon fill="white" stroke="transparent" points="121.5,-234 39.5,-234 39.5,-185 121.5,-185 121.5,-234"/>
<text text-anchor="start" x="44.5" y="-221.5" font-family="Helvetica,sans-Serif" font-size="10.00">Tests\TestCase</text>
<text text-anchor="start" x="78.5" y="-206.5" font-family="Helvetica,sans-Serif" font-size="10.00"> </text>
<text text-anchor="start" x="78.5" y="-191.5" font-family="Helvetica,sans-Serif" font-size="10.00"> </text>
<polygon fill="#666666" stroke="#666666" points="39.5,-216.5 39.5,-216.5 121.5,-216.5 121.5,-216.5 39.5,-216.5"/>
<polygon fill="#666666" stroke="#666666" points="39.5,-201.5 39.5,-201.5 121.5,-201.5 121.5,-201.5 39.5,-201.5"/>
<polygon fill="none" stroke="#666666" points="39.5,-185 39.5,-234 121.5,-234 121.5,-185 39.5,-185"/>
</a>
</g>
</g>
<!-- Node2&#45;&gt;Node1 -->
<g id="edge1_Node000001_Node000002" class="edge">
<title>Node2&#45;&gt;Node1</title>
<g id="a_edge1_Node000001_Node000002"><a xlink:title=" ">
<path fill="none" stroke="#63b8ff" d="M80.5,-174.58C80.5,-166.73 80.5,-158.08 80.5,-149.26"/>
<polygon fill="none" stroke="#63b8ff" points="77,-174.72 80.5,-184.72 84,-174.72 77,-174.72"/>
</a>
</g>
</g>
<!-- Node3 -->
<g id="Node000003" class="node">
<title>Node3</title>
<g id="a_Node000003"><a xlink:title=" ">
<polygon fill="white" stroke="transparent" points="119.5,-319 41.5,-319 41.5,-270 119.5,-270 119.5,-319"/>
<text text-anchor="start" x="46.5" y="-306.5" font-family="Helvetica,sans-Serif" font-size="10.00">BaseTestCase</text>
<text text-anchor="start" x="78.5" y="-291.5" font-family="Helvetica,sans-Serif" font-size="10.00"> </text>
<text text-anchor="start" x="78.5" y="-276.5" font-family="Helvetica,sans-Serif" font-size="10.00"> </text>
<polygon fill="#666666" stroke="#666666" points="41.5,-301.5 41.5,-301.5 119.5,-301.5 119.5,-301.5 41.5,-301.5"/>
<polygon fill="#666666" stroke="#666666" points="41.5,-286.5 41.5,-286.5 119.5,-286.5 119.5,-286.5 41.5,-286.5"/>
<polygon fill="none" stroke="#666666" points="41.5,-270 41.5,-319 119.5,-319 119.5,-270 41.5,-270"/>
</a>
</g>
</g>
<!-- Node3&#45;&gt;Node2 -->
<g id="edge2_Node000002_Node000003" class="edge">
<title>Node3&#45;&gt;Node2</title>
<g id="a_edge2_Node000002_Node000003"><a xlink:title=" ">
<path fill="none" stroke="#63b8ff" d="M80.5,-259.77C80.5,-251.17 80.5,-242.1 80.5,-234.12"/>
<polygon fill="none" stroke="#63b8ff" points="77,-259.94 80.5,-269.94 84,-259.94 77,-259.94"/>
</a>
</g>
</g>
</g>
</svg>
