<?xml version="1.0" encoding="UTF-8" standalone="no"?>
<!DOCTYPE svg PUBLIC "-//W3C//DTD SVG 1.1//EN"
 "http://www.w3.org/Graphics/SVG/1.1/DTD/svg11.dtd">
<!-- Generated by graphviz version 2.42.4 (0)
 -->
<!-- Title: App\Jobs\SyncMediaFromDiskJob Pages: 1 -->
<svg width="178pt" height="299pt"
 viewBox="0.00 0.00 178.00 299.00" xmlns="http://www.w3.org/2000/svg" xmlns:xlink="http://www.w3.org/1999/xlink">
<g id="graph0" class="graph" transform="scale(1 1) rotate(0) translate(4 295)">
<title>App\Jobs\SyncMediaFromDiskJob</title>
<!-- Node1 -->
<g id="Node000001" class="node">
<title>Node1</title>
<g id="a_Node000001"><a xlink:title=" ">
<polygon fill="#999999" stroke="transparent" points="170,-206 0,-206 0,0 170,0 170,-206"/>
<text text-anchor="start" x="5" y="-194" font-family="Helvetica,sans-Serif" font-size="10.00">App\Jobs\SyncMediaFromDiskJob</text>
<text text-anchor="start" x="12.5" y="-179" font-family="Helvetica,sans-Serif" font-size="10.00">+</text>
<text text-anchor="start" x="34" y="-179" font-family="Helvetica,sans-Serif" font-size="10.00">string $disk</text>
<text text-anchor="start" x="12.5" y="-164" font-family="Helvetica,sans-Serif" font-size="10.00">+</text>
<text text-anchor="start" x="34" y="-164" font-family="Helvetica,sans-Serif" font-size="10.00">string $path</text>
<text text-anchor="start" x="12.5" y="-149" font-family="Helvetica,sans-Serif" font-size="10.00">+</text>
<text text-anchor="start" x="34" y="-149" font-family="Helvetica,sans-Serif" font-size="10.00">$timeout</text>
<text text-anchor="start" x="12.5" y="-134" font-family="Helvetica,sans-Serif" font-size="10.00">+</text>
<text text-anchor="start" x="34" y="-134" font-family="Helvetica,sans-Serif" font-size="10.00">$tries</text>
<text text-anchor="start" x="12.5" y="-119" font-family="Helvetica,sans-Serif" font-size="10.00">+</text>
<text text-anchor="start" x="34" y="-119" font-family="Helvetica,sans-Serif" font-size="10.00">bool $deleteLocalFiles</text>
<text text-anchor="start" x="12.5" y="-104" font-family="Helvetica,sans-Serif" font-size="10.00">#</text>
<text text-anchor="start" x="34" y="-104" font-family="Helvetica,sans-Serif" font-size="10.00">string $uriField</text>
<text text-anchor="start" x="12.5" y="-89" font-family="Helvetica,sans-Serif" font-size="10.00">#</text>
<text text-anchor="start" x="34" y="-89" font-family="Helvetica,sans-Serif" font-size="10.00">array $existingPaths</text>
<text text-anchor="start" x="12.5" y="-74" font-family="Helvetica,sans-Serif" font-size="10.00">+</text>
<text text-anchor="start" x="34" y="-74" font-family="Helvetica,sans-Serif" font-size="10.00">__construct(string</text>
<text text-anchor="start" x="34" y="-63" font-family="Helvetica,sans-Serif" font-size="10.00"> $disk, string $path=&#39;/&#39;)</text>
<text text-anchor="start" x="12.5" y="-48" font-family="Helvetica,sans-Serif" font-size="10.00">+</text>
<text text-anchor="start" x="34" y="-48" font-family="Helvetica,sans-Serif" font-size="10.00">handle()</text>
<text text-anchor="start" x="12.5" y="-33" font-family="Helvetica,sans-Serif" font-size="10.00">#</text>
<text text-anchor="start" x="34" y="-33" font-family="Helvetica,sans-Serif" font-size="10.00">handleItem(array </text>
<text text-anchor="start" x="34" y="-22" font-family="Helvetica,sans-Serif" font-size="10.00">$item)</text>
<text text-anchor="start" x="12.5" y="-7" font-family="Helvetica,sans-Serif" font-size="10.00">#</text>
<text text-anchor="start" x="34" y="-7" font-family="Helvetica,sans-Serif" font-size="10.00">cleanupDatabase()</text>
<polygon fill="#666666" stroke="#666666" points="0,-189 0,-189 170,-189 170,-189 0,-189"/>
<polygon fill="#666666" stroke="#666666" points="0,-84 0,-84 32,-84 32,-84 0,-84"/>
<polygon fill="#666666" stroke="#666666" points="32,-84 32,-84 170,-84 170,-84 32,-84"/>
<polygon fill="none" stroke="#666666" points="0,0 0,-206 170,-206 170,0 0,0"/>
</a>
</g>
</g>
<!-- Node2 -->
<g id="Node000002" class="node">
<title>Node2</title>
<g id="a_Node000002"><a xlink:title=" ">
<polygon fill="white" stroke="transparent" points="122.5,-291 47.5,-291 47.5,-242 122.5,-242 122.5,-291"/>
<text text-anchor="start" x="53" y="-278.5" font-family="Helvetica,sans-Serif" font-size="10.00">ShouldQueue</text>
<text text-anchor="start" x="83.5" y="-263.5" font-family="Helvetica,sans-Serif" font-size="10.00"> </text>
<text text-anchor="start" x="83.5" y="-248.5" font-family="Helvetica,sans-Serif" font-size="10.00"> </text>
<polygon fill="#666666" stroke="#666666" points="48,-273.5 48,-273.5 123,-273.5 123,-273.5 48,-273.5"/>
<polygon fill="#666666" stroke="#666666" points="48,-258.5 48,-258.5 123,-258.5 123,-258.5 48,-258.5"/>
<polygon fill="none" stroke="#666666" points="47.5,-242 47.5,-291 122.5,-291 122.5,-242 47.5,-242"/>
</a>
</g>
</g>
<!-- Node2&#45;&gt;Node1 -->
<g id="edge1_Node000001_Node000002" class="edge">
<title>Node2&#45;&gt;Node1</title>
<g id="a_edge1_Node000001_Node000002"><a xlink:title=" ">
<path fill="none" stroke="#63b8ff" d="M85,-231.65C85,-223.85 85,-215.17 85,-206.1"/>
<polygon fill="none" stroke="#63b8ff" points="81.5,-231.67 85,-241.67 88.5,-231.67 81.5,-231.67"/>
</a>
</g>
</g>
</g>
</svg>
