<?xml version="1.0" encoding="UTF-8" standalone="no"?>
<!DOCTYPE svg PUBLIC "-//W3C//DTD SVG 1.1//EN"
 "http://www.w3.org/Graphics/SVG/1.1/DTD/svg11.dtd">
<!-- Generated by graphviz version 2.42.4 (0)
 -->
<!-- Title: App\Http\Controllers\DocumentationController\checkAdminAccess Pages: 1 -->
<svg width="330pt" height="344pt"
 viewBox="0.00 0.00 330.00 344.00" xmlns="http://www.w3.org/2000/svg" xmlns:xlink="http://www.w3.org/1999/xlink">
<g id="graph0" class="graph" transform="scale(1 1) rotate(0) translate(4 340)">
<title>App\Http\Controllers\DocumentationController\checkAdminAccess</title>
<!-- Node1 -->
<g id="Node000001" class="node">
<title>Node1</title>
<g id="a_Node000001"><a xlink:title="Vérifie que l&#39;utilisateur est admin ou professeur.">
<polygon fill="#999999" stroke="#666666" points="322,-188 179,-188 179,-147 322,-147 322,-188"/>
<text text-anchor="start" x="187" y="-176" font-family="Helvetica,sans-Serif" font-size="10.00">App\Http\Controllers</text>
<text text-anchor="start" x="187" y="-165" font-family="Helvetica,sans-Serif" font-size="10.00">\DocumentationController</text>
<text text-anchor="middle" x="250.5" y="-154" font-family="Helvetica,sans-Serif" font-size="10.00">\checkAdminAccess</text>
</a>
</g>
</g>
<!-- Node2 -->
<g id="Node000002" class="node">
<title>Node2</title>
<g id="a_Node000002"><a xlink:href="classApp_1_1Http_1_1Controllers_1_1DocumentationController.html#acf30e47c658b6b73b955ab17d4283848" target="_top" xlink:title="Admin &#45; Base de données.">
<polygon fill="white" stroke="#666666" points="143,-336 0,-336 0,-295 143,-295 143,-336"/>
<text text-anchor="start" x="8" y="-324" font-family="Helvetica,sans-Serif" font-size="10.00">App\Http\Controllers</text>
<text text-anchor="start" x="8" y="-313" font-family="Helvetica,sans-Serif" font-size="10.00">\DocumentationController</text>
<text text-anchor="middle" x="71.5" y="-302" font-family="Helvetica,sans-Serif" font-size="10.00">\adminDatabase</text>
</a>
</g>
</g>
<!-- Node1&#45;&gt;Node2 -->
<g id="edge1_Node000001_Node000002" class="edge">
<title>Node1&#45;&gt;Node2</title>
<g id="a_edge1_Node000001_Node000002"><a xlink:title=" ">
<path fill="none" stroke="#63b8ff" d="M229.65,-196.3C210.18,-222.75 178.34,-261.51 143,-286.5 138.68,-289.56 133.98,-292.37 129.14,-294.93"/>
<polygon fill="#63b8ff" stroke="#63b8ff" points="232.5,-198.34 235.52,-188.18 226.83,-194.23 232.5,-198.34"/>
</a>
</g>
</g>
<!-- Node3 -->
<g id="Node000003" class="node">
<title>Node3</title>
<g id="a_Node000003"><a xlink:href="classApp_1_1Http_1_1Controllers_1_1DocumentationController.html#a4db7d43c9f68465c9d7ae2dae14d24a3" target="_top" xlink:title="Admin &#45; Vue d&#39;ensemble.">
<polygon fill="white" stroke="#666666" points="143,-277 0,-277 0,-236 143,-236 143,-277"/>
<text text-anchor="start" x="8" y="-265" font-family="Helvetica,sans-Serif" font-size="10.00">App\Http\Controllers</text>
<text text-anchor="start" x="8" y="-254" font-family="Helvetica,sans-Serif" font-size="10.00">\DocumentationController</text>
<text text-anchor="middle" x="71.5" y="-243" font-family="Helvetica,sans-Serif" font-size="10.00">\adminOverview</text>
</a>
</g>
</g>
<!-- Node1&#45;&gt;Node3 -->
<g id="edge2_Node000001_Node000003" class="edge">
<title>Node1&#45;&gt;Node3</title>
<g id="a_edge2_Node000001_Node000003"><a xlink:title=" ">
<path fill="none" stroke="#63b8ff" d="M206.73,-193.18C187.54,-204.29 164.43,-217.11 143,-227.5 137.05,-230.39 130.73,-233.25 124.42,-236"/>
<polygon fill="#63b8ff" stroke="#63b8ff" points="208.66,-196.11 215.54,-188.05 205.14,-190.06 208.66,-196.11"/>
</a>
</g>
</g>
<!-- Node4 -->
<g id="Node000004" class="node">
<title>Node4</title>
<g id="a_Node000004"><a xlink:href="classApp_1_1Http_1_1Controllers_1_1DocumentationController.html#aa6a25b8b950183ae1cd26d28e3bd959c" target="_top" xlink:title="Admin &#45; Réconciliation.">
<polygon fill="white" stroke="#666666" points="143,-218 0,-218 0,-177 143,-177 143,-218"/>
<text text-anchor="start" x="8" y="-206" font-family="Helvetica,sans-Serif" font-size="10.00">App\Http\Controllers</text>
<text text-anchor="start" x="8" y="-195" font-family="Helvetica,sans-Serif" font-size="10.00">\DocumentationController</text>
<text text-anchor="middle" x="71.5" y="-184" font-family="Helvetica,sans-Serif" font-size="10.00">\adminReconciliation</text>
</a>
</g>
</g>
<!-- Node1&#45;&gt;Node4 -->
<g id="edge3_Node000001_Node000004" class="edge">
<title>Node1&#45;&gt;Node4</title>
<g id="a_edge3_Node000001_Node000004"><a xlink:title=" ">
<path fill="none" stroke="#63b8ff" d="M168.79,-181.18C160.22,-182.63 151.55,-184.1 143.11,-185.53"/>
<polygon fill="#63b8ff" stroke="#63b8ff" points="169.51,-184.61 178.78,-179.49 168.34,-177.71 169.51,-184.61"/>
</a>
</g>
</g>
<!-- Node5 -->
<g id="Node000005" class="node">
<title>Node5</title>
<g id="a_Node000005"><a xlink:href="classApp_1_1Http_1_1Controllers_1_1DocumentationController.html#aaabb1b6d7e1b8db860608d91856ea898" target="_top" xlink:title="Admin &#45; Paramètres.">
<polygon fill="white" stroke="#666666" points="143,-159 0,-159 0,-118 143,-118 143,-159"/>
<text text-anchor="start" x="8" y="-147" font-family="Helvetica,sans-Serif" font-size="10.00">App\Http\Controllers</text>
<text text-anchor="start" x="8" y="-136" font-family="Helvetica,sans-Serif" font-size="10.00">\DocumentationController</text>
<text text-anchor="middle" x="71.5" y="-125" font-family="Helvetica,sans-Serif" font-size="10.00">\adminSettings</text>
</a>
</g>
</g>
<!-- Node1&#45;&gt;Node5 -->
<g id="edge4_Node000001_Node000005" class="edge">
<title>Node1&#45;&gt;Node5</title>
<g id="a_edge4_Node000001_Node000005"><a xlink:title=" ">
<path fill="none" stroke="#63b8ff" d="M168.79,-154.28C160.22,-152.87 151.55,-151.45 143.11,-150.07"/>
<polygon fill="#63b8ff" stroke="#63b8ff" points="168.35,-157.75 178.78,-155.91 169.48,-150.84 168.35,-157.75"/>
</a>
</g>
</g>
<!-- Node6 -->
<g id="Node000006" class="node">
<title>Node6</title>
<g id="a_Node000006"><a xlink:href="classApp_1_1Http_1_1Controllers_1_1DocumentationController.html#ac5e2dc6057759804425c08540fba6f8a" target="_top" xlink:title="Admin &#45; Transferts et transcodage.">
<polygon fill="white" stroke="#666666" points="143,-100 0,-100 0,-59 143,-59 143,-100"/>
<text text-anchor="start" x="8" y="-88" font-family="Helvetica,sans-Serif" font-size="10.00">App\Http\Controllers</text>
<text text-anchor="start" x="8" y="-77" font-family="Helvetica,sans-Serif" font-size="10.00">\DocumentationController</text>
<text text-anchor="middle" x="71.5" y="-66" font-family="Helvetica,sans-Serif" font-size="10.00">\adminTransfers</text>
</a>
</g>
</g>
<!-- Node1&#45;&gt;Node6 -->
<g id="edge5_Node000001_Node000006" class="edge">
<title>Node1&#45;&gt;Node6</title>
<g id="a_edge5_Node000001_Node000006"><a xlink:title=" ">
<path fill="none" stroke="#63b8ff" d="M204.54,-141.77C185.74,-131.33 163.52,-119.43 143,-109.5 136.41,-106.31 129.4,-103.11 122.46,-100.05"/>
<polygon fill="#63b8ff" stroke="#63b8ff" points="203.04,-144.94 213.48,-146.76 206.45,-138.82 203.04,-144.94"/>
</a>
</g>
</g>
<!-- Node7 -->
<g id="Node000007" class="node">
<title>Node7</title>
<g id="a_Node000007"><a xlink:href="classApp_1_1Http_1_1Controllers_1_1DocumentationController.html#a86018ba676c3444c0f9934bea0706b66" target="_top" xlink:title="Admin &#45; Gestion des utilisateurs.">
<polygon fill="white" stroke="#666666" points="143,-41 0,-41 0,0 143,0 143,-41"/>
<text text-anchor="start" x="8" y="-29" font-family="Helvetica,sans-Serif" font-size="10.00">App\Http\Controllers</text>
<text text-anchor="start" x="8" y="-18" font-family="Helvetica,sans-Serif" font-size="10.00">\DocumentationController</text>
<text text-anchor="middle" x="71.5" y="-7" font-family="Helvetica,sans-Serif" font-size="10.00">\adminUsers</text>
</a>
</g>
</g>
<!-- Node1&#45;&gt;Node7 -->
<g id="edge6_Node000001_Node000007" class="edge">
<title>Node1&#45;&gt;Node7</title>
<g id="a_edge6_Node000001_Node000007"><a xlink:title=" ">
<path fill="none" stroke="#63b8ff" d="M228.88,-138.51C209.24,-112.61 177.61,-75.07 143,-50.5 138.23,-47.11 133.01,-44 127.65,-41.18"/>
<polygon fill="#63b8ff" stroke="#63b8ff" points="226.29,-140.88 235.07,-146.81 231.9,-136.7 226.29,-140.88"/>
</a>
</g>
</g>
</g>
</svg>
