<?xml version="1.0" encoding="UTF-8" standalone="no"?>
<!DOCTYPE svg PUBLIC "-//W3C//DTD SVG 1.1//EN"
 "http://www.w3.org/Graphics/SVG/1.1/DTD/svg11.dtd">
<!-- Generated by graphviz version 2.42.4 (0)
 -->
<!-- Title: Tests\Feature\StreamControllerTest Pages: 1 -->
<svg width="189pt" height="535pt"
 viewBox="0.00 0.00 189.00 535.00" xmlns="http://www.w3.org/2000/svg" xmlns:xlink="http://www.w3.org/1999/xlink">
<g id="graph0" class="graph" transform="scale(1 1) rotate(0) translate(4 531)">
<title>Tests\Feature\StreamControllerTest</title>
<!-- Node1 -->
<g id="Node000001" class="node">
<title>Node1</title>
<g id="a_Node000001"><a xlink:title=" ">
<polygon fill="#999999" stroke="transparent" points="181,-357 0,-357 0,0 181,0 181,-357"/>
<text text-anchor="start" x="5.5" y="-344.5" font-family="Helvetica,sans-Serif" font-size="10.00">Tests\Feature\StreamControllerTest</text>
<text text-anchor="start" x="89" y="-329.5" font-family="Helvetica,sans-Serif" font-size="10.00"> </text>
<text text-anchor="start" x="7.5" y="-314.5" font-family="Helvetica,sans-Serif" font-size="10.00">+</text>
<text text-anchor="start" x="23.5" y="-314.5" font-family="Helvetica,sans-Serif" font-size="10.00">it_returns_404_when</text>
<text text-anchor="start" x="23.5" y="-303.5" font-family="Helvetica,sans-Serif" font-size="10.00">_media_does_not_exist()</text>
<text text-anchor="start" x="7.5" y="-288.5" font-family="Helvetica,sans-Serif" font-size="10.00">+</text>
<text text-anchor="start" x="23.5" y="-288.5" font-family="Helvetica,sans-Serif" font-size="10.00">it_returns_404_when</text>
<text text-anchor="start" x="23.5" y="-277.5" font-family="Helvetica,sans-Serif" font-size="10.00">_media_has_no_video_paths()</text>
<text text-anchor="start" x="7.5" y="-262.5" font-family="Helvetica,sans-Serif" font-size="10.00">+</text>
<text text-anchor="start" x="23.5" y="-262.5" font-family="Helvetica,sans-Serif" font-size="10.00">it_streams_video_from</text>
<text text-anchor="start" x="23.5" y="-251.5" font-family="Helvetica,sans-Serif" font-size="10.00">_local_storage_when_chemin</text>
<text text-anchor="start" x="23.5" y="-240.5" font-family="Helvetica,sans-Serif" font-size="10.00">_local_exists()</text>
<text text-anchor="start" x="7.5" y="-225.5" font-family="Helvetica,sans-Serif" font-size="10.00">+</text>
<text text-anchor="start" x="23.5" y="-225.5" font-family="Helvetica,sans-Serif" font-size="10.00">it_returns_404_if</text>
<text text-anchor="start" x="23.5" y="-214.5" font-family="Helvetica,sans-Serif" font-size="10.00">_local_video_does_not</text>
<text text-anchor="start" x="23.5" y="-203.5" font-family="Helvetica,sans-Serif" font-size="10.00">_exist()</text>
<text text-anchor="start" x="7.5" y="-188.5" font-family="Helvetica,sans-Serif" font-size="10.00">+</text>
<text text-anchor="start" x="23.5" y="-188.5" font-family="Helvetica,sans-Serif" font-size="10.00">it_streams_video_from</text>
<text text-anchor="start" x="23.5" y="-177.5" font-family="Helvetica,sans-Serif" font-size="10.00">_ftp_arch_disk()</text>
<text text-anchor="start" x="7.5" y="-162.5" font-family="Helvetica,sans-Serif" font-size="10.00">+</text>
<text text-anchor="start" x="23.5" y="-162.5" font-family="Helvetica,sans-Serif" font-size="10.00">it_streams_video_from</text>
<text text-anchor="start" x="23.5" y="-151.5" font-family="Helvetica,sans-Serif" font-size="10.00">_ftp_pad_disk_when_arch</text>
<text text-anchor="start" x="23.5" y="-140.5" font-family="Helvetica,sans-Serif" font-size="10.00">_not_available()</text>
<text text-anchor="start" x="7.5" y="-125.5" font-family="Helvetica,sans-Serif" font-size="10.00">+</text>
<text text-anchor="start" x="23.5" y="-125.5" font-family="Helvetica,sans-Serif" font-size="10.00">it_returns_404_when</text>
<text text-anchor="start" x="23.5" y="-114.5" font-family="Helvetica,sans-Serif" font-size="10.00">_ftp_file_is_missing()</text>
<text text-anchor="start" x="7.5" y="-99.5" font-family="Helvetica,sans-Serif" font-size="10.00">+</text>
<text text-anchor="start" x="23.5" y="-99.5" font-family="Helvetica,sans-Serif" font-size="10.00">it_supports_http_range</text>
<text text-anchor="start" x="23.5" y="-88.5" font-family="Helvetica,sans-Serif" font-size="10.00">_requests()</text>
<text text-anchor="start" x="7.5" y="-73.5" font-family="Helvetica,sans-Serif" font-size="10.00">+</text>
<text text-anchor="start" x="23.5" y="-73.5" font-family="Helvetica,sans-Serif" font-size="10.00">it_streams_hls_playlist</text>
<text text-anchor="start" x="23.5" y="-62.5" font-family="Helvetica,sans-Serif" font-size="10.00">_when_extension_is_m3u8()</text>
<text text-anchor="start" x="7.5" y="-47.5" font-family="Helvetica,sans-Serif" font-size="10.00">+</text>
<text text-anchor="start" x="23.5" y="-47.5" font-family="Helvetica,sans-Serif" font-size="10.00">it_streams_hls_segment()</text>
<text text-anchor="start" x="7.5" y="-32.5" font-family="Helvetica,sans-Serif" font-size="10.00">+</text>
<text text-anchor="start" x="23.5" y="-32.5" font-family="Helvetica,sans-Serif" font-size="10.00">it_returns_404_when</text>
<text text-anchor="start" x="23.5" y="-21.5" font-family="Helvetica,sans-Serif" font-size="10.00">_hls_segment_is_missing()</text>
<text text-anchor="start" x="7.5" y="-6.5" font-family="Helvetica,sans-Serif" font-size="10.00">#</text>
<text text-anchor="start" x="23.5" y="-6.5" font-family="Helvetica,sans-Serif" font-size="10.00">setUp()</text>
<polygon fill="#666666" stroke="#666666" points="0.5,-339.5 0.5,-339.5 181.5,-339.5 181.5,-339.5 0.5,-339.5"/>
<polygon fill="#666666" stroke="#666666" points="0.5,-324.5 0.5,-324.5 181.5,-324.5 181.5,-324.5 0.5,-324.5"/>
<polygon fill="none" stroke="#666666" points="0,0 0,-357 181,-357 181,0 0,0"/>
</a>
</g>
</g>
<!-- Node2 -->
<g id="Node000002" class="node">
<title>Node2</title>
<g id="a_Node000002"><a xlink:href="classTests_1_1TestCase.html" target="_top" xlink:title=" ">
<polygon fill="white" stroke="transparent" points="131.5,-442 49.5,-442 49.5,-393 131.5,-393 131.5,-442"/>
<text text-anchor="start" x="54.5" y="-429.5" font-family="Helvetica,sans-Serif" font-size="10.00">Tests\TestCase</text>
<text text-anchor="start" x="88.5" y="-414.5" font-family="Helvetica,sans-Serif" font-size="10.00"> </text>
<text text-anchor="start" x="88.5" y="-399.5" font-family="Helvetica,sans-Serif" font-size="10.00"> </text>
<polygon fill="#666666" stroke="#666666" points="49.5,-424.5 49.5,-424.5 131.5,-424.5 131.5,-424.5 49.5,-424.5"/>
<polygon fill="#666666" stroke="#666666" points="49.5,-409.5 49.5,-409.5 131.5,-409.5 131.5,-409.5 49.5,-409.5"/>
<polygon fill="none" stroke="#666666" points="49.5,-393 49.5,-442 131.5,-442 131.5,-393 49.5,-393"/>
</a>
</g>
</g>
<!-- Node2&#45;&gt;Node1 -->
<g id="edge1_Node000001_Node000002" class="edge">
<title>Node2&#45;&gt;Node1</title>
<g id="a_edge1_Node000001_Node000002"><a xlink:title=" ">
<path fill="none" stroke="#63b8ff" d="M90.5,-382.85C90.5,-375.25 90.5,-366.67 90.5,-357.43"/>
<polygon fill="none" stroke="#63b8ff" points="87,-382.91 90.5,-392.91 94,-382.91 87,-382.91"/>
</a>
</g>
</g>
<!-- Node3 -->
<g id="Node000003" class="node">
<title>Node3</title>
<g id="a_Node000003"><a xlink:title=" ">
<polygon fill="white" stroke="transparent" points="129.5,-527 51.5,-527 51.5,-478 129.5,-478 129.5,-527"/>
<text text-anchor="start" x="56.5" y="-514.5" font-family="Helvetica,sans-Serif" font-size="10.00">BaseTestCase</text>
<text text-anchor="start" x="88.5" y="-499.5" font-family="Helvetica,sans-Serif" font-size="10.00"> </text>
<text text-anchor="start" x="88.5" y="-484.5" font-family="Helvetica,sans-Serif" font-size="10.00"> </text>
<polygon fill="#666666" stroke="#666666" points="51.5,-509.5 51.5,-509.5 129.5,-509.5 129.5,-509.5 51.5,-509.5"/>
<polygon fill="#666666" stroke="#666666" points="51.5,-494.5 51.5,-494.5 129.5,-494.5 129.5,-494.5 51.5,-494.5"/>
<polygon fill="none" stroke="#666666" points="51.5,-478 51.5,-527 129.5,-527 129.5,-478 51.5,-478"/>
</a>
</g>
</g>
<!-- Node3&#45;&gt;Node2 -->
<g id="edge2_Node000002_Node000003" class="edge">
<title>Node3&#45;&gt;Node2</title>
<g id="a_edge2_Node000002_Node000003"><a xlink:title=" ">
<path fill="none" stroke="#63b8ff" d="M90.5,-467.77C90.5,-459.17 90.5,-450.1 90.5,-442.12"/>
<polygon fill="none" stroke="#63b8ff" points="87,-467.94 90.5,-477.94 94,-467.94 87,-467.94"/>
</a>
</g>
</g>
</g>
</svg>
