<?xml version="1.0" encoding="UTF-8" standalone="no"?>
<!DOCTYPE svg PUBLIC "-//W3C//DTD SVG 1.1//EN"
 "http://www.w3.org/Graphics/SVG/1.1/DTD/svg11.dtd">
<!-- Generated by graphviz version 2.42.4 (0)
 -->
<!-- Title: Tests\Feature\Auth\EmailVerificationTest Pages: 1 -->
<svg width="163pt" height="312pt"
 viewBox="0.00 0.00 163.00 312.00" xmlns="http://www.w3.org/2000/svg" xmlns:xlink="http://www.w3.org/1999/xlink">
<g id="graph0" class="graph" transform="scale(1 1) rotate(0) translate(4 308)">
<title>Tests\Feature\Auth\EmailVerificationTest</title>
<!-- Node1 -->
<g id="Node000001" class="node">
<title>Node1</title>
<g id="a_Node000001"><a xlink:title=" ">
<polygon fill="#999999" stroke="transparent" points="155,-134 0,-134 0,0 155,0 155,-134"/>
<text text-anchor="start" x="25" y="-122" font-family="Helvetica,sans-Serif" font-size="10.00">Tests\Feature\Auth</text>
<text text-anchor="start" x="25" y="-111" font-family="Helvetica,sans-Serif" font-size="10.00">\EmailVerificationTest</text>
<text text-anchor="start" x="76" y="-96" font-family="Helvetica,sans-Serif" font-size="10.00"> </text>
<text text-anchor="start" x="4.5" y="-81" font-family="Helvetica,sans-Serif" font-size="10.00">+</text>
<text text-anchor="start" x="17.5" y="-81" font-family="Helvetica,sans-Serif" font-size="10.00">test_email_verification</text>
<text text-anchor="start" x="17.5" y="-70" font-family="Helvetica,sans-Serif" font-size="10.00">_screen_can_be_rendered()</text>
<text text-anchor="start" x="4.5" y="-55" font-family="Helvetica,sans-Serif" font-size="10.00">+</text>
<text text-anchor="start" x="17.5" y="-55" font-family="Helvetica,sans-Serif" font-size="10.00">test_email_can_be</text>
<text text-anchor="start" x="17.5" y="-44" font-family="Helvetica,sans-Serif" font-size="10.00">_verified()</text>
<text text-anchor="start" x="4.5" y="-29" font-family="Helvetica,sans-Serif" font-size="10.00">+</text>
<text text-anchor="start" x="17.5" y="-29" font-family="Helvetica,sans-Serif" font-size="10.00">test_email_is_not</text>
<text text-anchor="start" x="17.5" y="-18" font-family="Helvetica,sans-Serif" font-size="10.00">_verified_with_invalid</text>
<text text-anchor="start" x="17.5" y="-7" font-family="Helvetica,sans-Serif" font-size="10.00">_hash()</text>
<polygon fill="#666666" stroke="#666666" points="0.5,-106 0.5,-106 155.5,-106 155.5,-106 0.5,-106"/>
<polygon fill="#666666" stroke="#666666" points="0.5,-91 0.5,-91 155.5,-91 155.5,-91 0.5,-91"/>
<polygon fill="none" stroke="#666666" points="0,0 0,-134 155,-134 155,0 0,0"/>
</a>
</g>
</g>
<!-- Node2 -->
<g id="Node000002" class="node">
<title>Node2</title>
<g id="a_Node000002"><a xlink:href="classTests_1_1TestCase.html" target="_top" xlink:title=" ">
<polygon fill="white" stroke="transparent" points="118.5,-219 36.5,-219 36.5,-170 118.5,-170 118.5,-219"/>
<text text-anchor="start" x="41.5" y="-206.5" font-family="Helvetica,sans-Serif" font-size="10.00">Tests\TestCase</text>
<text text-anchor="start" x="75.5" y="-191.5" font-family="Helvetica,sans-Serif" font-size="10.00"> </text>
<text text-anchor="start" x="75.5" y="-176.5" font-family="Helvetica,sans-Serif" font-size="10.00"> </text>
<polygon fill="#666666" stroke="#666666" points="36.5,-201.5 36.5,-201.5 118.5,-201.5 118.5,-201.5 36.5,-201.5"/>
<polygon fill="#666666" stroke="#666666" points="36.5,-186.5 36.5,-186.5 118.5,-186.5 118.5,-186.5 36.5,-186.5"/>
<polygon fill="none" stroke="#666666" points="36.5,-170 36.5,-219 118.5,-219 118.5,-170 36.5,-170"/>
</a>
</g>
</g>
<!-- Node2&#45;&gt;Node1 -->
<g id="edge1_Node000001_Node000002" class="edge">
<title>Node2&#45;&gt;Node1</title>
<g id="a_edge1_Node000001_Node000002"><a xlink:title=" ">
<path fill="none" stroke="#63b8ff" d="M77.5,-159.89C77.5,-151.88 77.5,-143.05 77.5,-134.14"/>
<polygon fill="none" stroke="#63b8ff" points="74,-159.89 77.5,-169.89 81,-159.89 74,-159.89"/>
</a>
</g>
</g>
<!-- Node3 -->
<g id="Node000003" class="node">
<title>Node3</title>
<g id="a_Node000003"><a xlink:title=" ">
<polygon fill="white" stroke="transparent" points="116.5,-304 38.5,-304 38.5,-255 116.5,-255 116.5,-304"/>
<text text-anchor="start" x="43.5" y="-291.5" font-family="Helvetica,sans-Serif" font-size="10.00">BaseTestCase</text>
<text text-anchor="start" x="75.5" y="-276.5" font-family="Helvetica,sans-Serif" font-size="10.00"> </text>
<text text-anchor="start" x="75.5" y="-261.5" font-family="Helvetica,sans-Serif" font-size="10.00"> </text>
<polygon fill="#666666" stroke="#666666" points="38.5,-286.5 38.5,-286.5 116.5,-286.5 116.5,-286.5 38.5,-286.5"/>
<polygon fill="#666666" stroke="#666666" points="38.5,-271.5 38.5,-271.5 116.5,-271.5 116.5,-271.5 38.5,-271.5"/>
<polygon fill="none" stroke="#666666" points="38.5,-255 38.5,-304 116.5,-304 116.5,-255 38.5,-255"/>
</a>
</g>
</g>
<!-- Node3&#45;&gt;Node2 -->
<g id="edge2_Node000002_Node000003" class="edge">
<title>Node3&#45;&gt;Node2</title>
<g id="a_edge2_Node000002_Node000003"><a xlink:title=" ">
<path fill="none" stroke="#63b8ff" d="M77.5,-244.77C77.5,-236.17 77.5,-227.1 77.5,-219.12"/>
<polygon fill="none" stroke="#63b8ff" points="74,-244.94 77.5,-254.94 81,-244.94 74,-244.94"/>
</a>
</g>
</g>
</g>
</svg>
