<?xml version="1.0" encoding="UTF-8" standalone="no"?>
<!DOCTYPE svg PUBLIC "-//W3C//DTD SVG 1.1//EN"
 "http://www.w3.org/Graphics/SVG/1.1/DTD/svg11.dtd">
<!-- Generated by graphviz version 2.42.4 (0)
 -->
<!-- Title: Tests\Feature\StreamControllerTest Pages: 1 -->
<!--zoomable 535 -->

<svg id="main" version="1.1" xmlns="http://www.w3.org/2000/svg" xmlns:xlink="http://www.w3.org/1999/xlink" xml:space="preserve" onload="init(evt)">
<style type="text/css"><![CDATA[
.node, .edge {opacity: 0.7;}
.node.selected, .edge.selected {opacity: 1;}
.edge:hover path { stroke: red; }
.edge:hover polygon { stroke: red; fill: red; }
]]></style>

<defs>
  <circle id="rim" cx="0" cy="0" r="7"/>
  <circle id="rim2" cx="0" cy="0" r="3.5"/>
  <g id="zoomPlus">
    <use xlink:href="#rim" fill="#404040"><set attributeName="fill" to="#808080" begin="zoomplus.mouseover" end="zoomplus.mouseout"/></use>
    <path d="M-4,0h8M0,-4v8" fill="none" stroke="white" stroke-width="1.5" pointer-events="none"/>
  </g>
  <g id="zoomMin">
    <use xlink:href="#rim" fill="#404040"><set attributeName="fill" to="#808080" begin="zoomminus.mouseover" end="zoomminus.mouseout"/></use>
    <path d="M-4,0h8" fill="none" stroke="white" stroke-width="1.5" pointer-events="none"/>
  </g>
  <g id="arrowUp" transform="translate(30 24)">
    <use xlink:href="#rim"/>
    <path pointer-events="none" fill="none" stroke="white" stroke-width="1.5" d="M0,-3.0v7 M-2.5,-0.5L0,-3.0L2.5,-0.5"/>
  </g>
  <g id="arrowRight" transform="rotate(90) translate(36 -43)">
    <use xlink:href="#rim"/>
    <path pointer-events="none" fill="none" stroke="white" stroke-width="1.5" d="M0,-3.0v7 M-2.5,-0.5L0,-3.0L2.5,-0.5"/>
  </g>
  <g id="arrowDown" transform="rotate(180) translate(-30 -48)">
    <use xlink:href="#rim"/>
    <path pointer-events="none" fill="none" stroke="white" stroke-width="1.5" d="M0,-3.0v7 M-2.5,-0.5L0,-3.0L2.5,-0.5"/>
  </g>
  <g id="arrowLeft" transform="rotate(270) translate(-36 17)">
    <use xlink:href="#rim"/>
    <path pointer-events="none" fill="none" stroke="white" stroke-width="1.5" d="M0,-3.0v7 M-2.5,-0.5L0,-3.0L2.5,-0.5"/>
  </g>
  <g id="resetDef">
    <use xlink:href="#rim2" fill="#404040"><set attributeName="fill" to="#808080" begin="reset.mouseover" end="reset.mouseout"/></use>
  </g>
</defs>
<script type="application/ecmascript">
var viewWidth = 189;
var viewHeight = 535;
var sectionId = 'dynsection-1';
</script>
<script type="application/ecmascript" xlink:href="svg.min.js"/>
<svg id="graph" class="graph">
<g id="viewport">
<title>Tests\Feature\StreamControllerTest</title>
<!-- Node1 -->
<g id="Node000001" class="node">
<title>Node1</title>
<g id="a_Node000001"><a xlink:title=" ">
<polygon fill="#999999" stroke="transparent" points="181,-357 0,-357 0,0 181,0 181,-357"/>
<text text-anchor="start" x="5.5" y="-344.5" font-family="Helvetica,sans-Serif" font-size="10.00">Tests\Feature\StreamControllerTest</text>
<text text-anchor="start" x="89" y="-329.5" font-family="Helvetica,sans-Serif" font-size="10.00"> </text>
<text text-anchor="start" x="7.5" y="-314.5" font-family="Helvetica,sans-Serif" font-size="10.00">+</text>
<text text-anchor="start" x="23.5" y="-314.5" font-family="Helvetica,sans-Serif" font-size="10.00">it_returns_404_when</text>
<text text-anchor="start" x="23.5" y="-303.5" font-family="Helvetica,sans-Serif" font-size="10.00">_media_does_not_exist()</text>
<text text-anchor="start" x="7.5" y="-288.5" font-family="Helvetica,sans-Serif" font-size="10.00">+</text>
<text text-anchor="start" x="23.5" y="-288.5" font-family="Helvetica,sans-Serif" font-size="10.00">it_returns_404_when</text>
<text text-anchor="start" x="23.5" y="-277.5" font-family="Helvetica,sans-Serif" font-size="10.00">_media_has_no_video_paths()</text>
<text text-anchor="start" x="7.5" y="-262.5" font-family="Helvetica,sans-Serif" font-size="10.00">+</text>
<text text-anchor="start" x="23.5" y="-262.5" font-family="Helvetica,sans-Serif" font-size="10.00">it_streams_video_from</text>
<text text-anchor="start" x="23.5" y="-251.5" font-family="Helvetica,sans-Serif" font-size="10.00">_local_storage_when_chemin</text>
<text text-anchor="start" x="23.5" y="-240.5" font-family="Helvetica,sans-Serif" font-size="10.00">_local_exists()</text>
<text text-anchor="start" x="7.5" y="-225.5" font-family="Helvetica,sans-Serif" font-size="10.00">+</text>
<text text-anchor="start" x="23.5" y="-225.5" font-family="Helvetica,sans-Serif" font-size="10.00">it_returns_404_if</text>
<text text-anchor="start" x="23.5" y="-214.5" font-family="Helvetica,sans-Serif" font-size="10.00">_local_video_does_not</text>
<text text-anchor="start" x="23.5" y="-203.5" font-family="Helvetica,sans-Serif" font-size="10.00">_exist()</text>
<text text-anchor="start" x="7.5" y="-188.5" font-family="Helvetica,sans-Serif" font-size="10.00">+</text>
<text text-anchor="start" x="23.5" y="-188.5" font-family="Helvetica,sans-Serif" font-size="10.00">it_streams_video_from</text>
<text text-anchor="start" x="23.5" y="-177.5" font-family="Helvetica,sans-Serif" font-size="10.00">_ftp_arch_disk()</text>
<text text-anchor="start" x="7.5" y="-162.5" font-family="Helvetica,sans-Serif" font-size="10.00">+</text>
<text text-anchor="start" x="23.5" y="-162.5" font-family="Helvetica,sans-Serif" font-size="10.00">it_streams_video_from</text>
<text text-anchor="start" x="23.5" y="-151.5" font-family="Helvetica,sans-Serif" font-size="10.00">_ftp_pad_disk_when_arch</text>
<text text-anchor="start" x="23.5" y="-140.5" font-family="Helvetica,sans-Serif" font-size="10.00">_not_available()</text>
<text text-anchor="start" x="7.5" y="-125.5" font-family="Helvetica,sans-Serif" font-size="10.00">+</text>
<text text-anchor="start" x="23.5" y="-125.5" font-family="Helvetica,sans-Serif" font-size="10.00">it_returns_404_when</text>
<text text-anchor="start" x="23.5" y="-114.5" font-family="Helvetica,sans-Serif" font-size="10.00">_ftp_file_is_missing()</text>
<text text-anchor="start" x="7.5" y="-99.5" font-family="Helvetica,sans-Serif" font-size="10.00">+</text>
<text text-anchor="start" x="23.5" y="-99.5" font-family="Helvetica,sans-Serif" font-size="10.00">it_supports_http_range</text>
<text text-anchor="start" x="23.5" y="-88.5" font-family="Helvetica,sans-Serif" font-size="10.00">_requests()</text>
<text text-anchor="start" x="7.5" y="-73.5" font-family="Helvetica,sans-Serif" font-size="10.00">+</text>
<text text-anchor="start" x="23.5" y="-73.5" font-family="Helvetica,sans-Serif" font-size="10.00">it_streams_hls_playlist</text>
<text text-anchor="start" x="23.5" y="-62.5" font-family="Helvetica,sans-Serif" font-size="10.00">_when_extension_is_m3u8()</text>
<text text-anchor="start" x="7.5" y="-47.5" font-family="Helvetica,sans-Serif" font-size="10.00">+</text>
<text text-anchor="start" x="23.5" y="-47.5" font-family="Helvetica,sans-Serif" font-size="10.00">it_streams_hls_segment()</text>
<text text-anchor="start" x="7.5" y="-32.5" font-family="Helvetica,sans-Serif" font-size="10.00">+</text>
<text text-anchor="start" x="23.5" y="-32.5" font-family="Helvetica,sans-Serif" font-size="10.00">it_returns_404_when</text>
<text text-anchor="start" x="23.5" y="-21.5" font-family="Helvetica,sans-Serif" font-size="10.00">_hls_segment_is_missing()</text>
<text text-anchor="start" x="7.5" y="-6.5" font-family="Helvetica,sans-Serif" font-size="10.00">#</text>
<text text-anchor="start" x="23.5" y="-6.5" font-family="Helvetica,sans-Serif" font-size="10.00">setUp()</text>
<polygon fill="#666666" stroke="#666666" points="0.5,-339.5 0.5,-339.5 181.5,-339.5 181.5,-339.5 0.5,-339.5"/>
<polygon fill="#666666" stroke="#666666" points="0.5,-324.5 0.5,-324.5 181.5,-324.5 181.5,-324.5 0.5,-324.5"/>
<polygon fill="none" stroke="#666666" points="0,0 0,-357 181,-357 181,0 0,0"/>
</a>
</g>
</g>
<!-- Node2 -->
<g id="Node000002" class="node">
<title>Node2</title>
<g id="a_Node000002"><a xlink:href="classTests_1_1TestCase.html" target="_top" xlink:title=" ">
<polygon fill="white" stroke="transparent" points="131.5,-442 49.5,-442 49.5,-393 131.5,-393 131.5,-442"/>
<text text-anchor="start" x="54.5" y="-429.5" font-family="Helvetica,sans-Serif" font-size="10.00">Tests\TestCase</text>
<text text-anchor="start" x="88.5" y="-414.5" font-family="Helvetica,sans-Serif" font-size="10.00"> </text>
<text text-anchor="start" x="88.5" y="-399.5" font-family="Helvetica,sans-Serif" font-size="10.00"> </text>
<polygon fill="#666666" stroke="#666666" points="49.5,-424.5 49.5,-424.5 131.5,-424.5 131.5,-424.5 49.5,-424.5"/>
<polygon fill="#666666" stroke="#666666" points="49.5,-409.5 49.5,-409.5 131.5,-409.5 131.5,-409.5 49.5,-409.5"/>
<polygon fill="none" stroke="#666666" points="49.5,-393 49.5,-442 131.5,-442 131.5,-393 49.5,-393"/>
</a>
</g>
</g>
<!-- Node2&#45;&gt;Node1 -->
<g id="edge1_Node000001_Node000002" class="edge">
<title>Node2&#45;&gt;Node1</title>
<g id="a_edge1_Node000001_Node000002"><a xlink:title=" ">
<path fill="none" stroke="#63b8ff" d="M90.5,-382.85C90.5,-375.25 90.5,-366.67 90.5,-357.43"/>
<polygon fill="none" stroke="#63b8ff" points="87,-382.91 90.5,-392.91 94,-382.91 87,-382.91"/>
</a>
</g>
</g>
<!-- Node3 -->
<g id="Node000003" class="node">
<title>Node3</title>
<g id="a_Node000003"><a xlink:title=" ">
<polygon fill="white" stroke="transparent" points="129.5,-527 51.5,-527 51.5,-478 129.5,-478 129.5,-527"/>
<text text-anchor="start" x="56.5" y="-514.5" font-family="Helvetica,sans-Serif" font-size="10.00">BaseTestCase</text>
<text text-anchor="start" x="88.5" y="-499.5" font-family="Helvetica,sans-Serif" font-size="10.00"> </text>
<text text-anchor="start" x="88.5" y="-484.5" font-family="Helvetica,sans-Serif" font-size="10.00"> </text>
<polygon fill="#666666" stroke="#666666" points="51.5,-509.5 51.5,-509.5 129.5,-509.5 129.5,-509.5 51.5,-509.5"/>
<polygon fill="#666666" stroke="#666666" points="51.5,-494.5 51.5,-494.5 129.5,-494.5 129.5,-494.5 51.5,-494.5"/>
<polygon fill="none" stroke="#666666" points="51.5,-478 51.5,-527 129.5,-527 129.5,-478 51.5,-478"/>
</a>
</g>
</g>
<!-- Node3&#45;&gt;Node2 -->
<g id="edge2_Node000002_Node000003" class="edge">
<title>Node3&#45;&gt;Node2</title>
<g id="a_edge2_Node000002_Node000003"><a xlink:title=" ">
<path fill="none" stroke="#63b8ff" d="M90.5,-467.77C90.5,-459.17 90.5,-450.1 90.5,-442.12"/>
<polygon fill="none" stroke="#63b8ff" points="87,-467.94 90.5,-477.94 94,-467.94 87,-467.94"/>
</a>
</g>
</g>
</g>
</svg>

<g id="navigator" transform="translate(0 0)" fill="#404254">
  <rect fill="#f2f5e9" fill-opacity="0.5" stroke="#606060" stroke-width=".5" x="0" y="0" width="60" height="60"/>
  <use id="zoomplus" xlink:href="#zoomPlus" x="17" y="9" onmousedown="handleZoom(evt,'in')"/>
  <use id="zoomminus" xlink:href="#zoomMin" x="42" y="9" onmousedown="handleZoom(evt,'out')"/>
  <use id="reset" xlink:href="#resetDef" x="30" y="36" onmousedown="handleReset()"/>
   <use id="arrowup" xlink:href="#arrowUp" x="0" y="0" onmousedown="handlePan(0,-1)"/>
  <use id="arrowright" xlink:href="#arrowRight" x="0" y="0" onmousedown="handlePan(1,0)"/>
  <use id="arrowdown" xlink:href="#arrowDown" x="0" y="0" onmousedown="handlePan(0,1)"/>
  <use id="arrowleft" xlink:href="#arrowLeft" x="0" y="0" onmousedown="handlePan(-1,0)"/>
</g>
<svg viewBox="0 0 15 15" width="100%" height="30px" preserveAspectRatio="xMaxYMin meet">
 <g id="arrow_out" transform="scale(0.3 0.3)">
  <a xlink:href="classTests_1_1Feature_1_1StreamControllerTest__coll__graph_org.svg" target="_base">
   <rect id="button" ry="5" rx="5" y="6" x="6" height="38" width="38"
        fill="#f2f5e9" fill-opacity="0.5" stroke="#606060" stroke-width="1.0"/>
   <path id="arrow"
     d="M 11.500037,31.436501 C 11.940474,20.09759 22.043105,11.32322 32.158766,21.979434 L 37.068811,17.246167 C 37.068811,17.246167 37.088388,32 37.088388,32 L 22.160133,31.978069 C 22.160133,31.978069 26.997745,27.140456 26.997745,27.140456 C 18.528582,18.264221 13.291696,25.230495 11.500037,31.436501 z"
     style="fill:#404040;"/>
  </a>
 </g>
</svg>

<style type='text/css'>
<![CDATA[
[data-mouse-over-selected='false'] { opacity: 0.7; }
[data-mouse-over-selected='true']  { opacity: 1.0; }
]]>
</style>
<script type="application/ecmascript"><![CDATA[
document.addEventListener('DOMContentLoaded', (event) => {
  highlightEdges();
  highlightAdjacentNodes();
});
]]></script>
</svg>
