<?xml version="1.0" encoding="UTF-8" standalone="no"?>
<!DOCTYPE svg PUBLIC "-//W3C//DTD SVG 1.1//EN"
 "http://www.w3.org/Graphics/SVG/1.1/DTD/svg11.dtd">
<!-- Generated by graphviz version 2.42.4 (0)
 -->
<!-- Title: Tests\Feature\MediaControllerTest Pages: 1 -->
<svg width="184pt" height="428pt"
 viewBox="0.00 0.00 184.00 428.00" xmlns="http://www.w3.org/2000/svg" xmlns:xlink="http://www.w3.org/1999/xlink">

<svg id="main" version="1.1" xmlns="http://www.w3.org/2000/svg" xmlns:xlink="http://www.w3.org/1999/xlink" xml:space="preserve" onload="init(evt)">
<style type="text/css"><![CDATA[
.node, .edge {opacity: 0.7;}
.node.selected, .edge.selected {opacity: 1;}
.edge:hover path { stroke: red; }
.edge:hover polygon { stroke: red; fill: red; }
]]></style>
<script type="application/ecmascript" xlink:href="svg.min.js"/>
<svg id="graph" class="graph">
<g id="graph0" class="graph" transform="scale(1 1) rotate(0) translate(4 424)">
<title>Tests\Feature\MediaControllerTest</title>
<!-- Node1 -->
<g id="Node000001" class="node">
<title>Node1</title>
<g id="a_Node000001"><a xlink:title=" ">
<polygon fill="#999999" stroke="transparent" points="176,-250 0,-250 0,0 176,0 176,-250"/>
<text text-anchor="start" x="5" y="-238" font-family="Helvetica,sans-Serif" font-size="10.00">Tests\Feature\MediaControllerTest</text>
<text text-anchor="start" x="86" y="-223" font-family="Helvetica,sans-Serif" font-size="10.00"> </text>
<text text-anchor="start" x="10" y="-208" font-family="Helvetica,sans-Serif" font-size="10.00">+</text>
<text text-anchor="start" x="29" y="-208" font-family="Helvetica,sans-Serif" font-size="10.00">index_displays_media</text>
<text text-anchor="start" x="29" y="-197" font-family="Helvetica,sans-Serif" font-size="10.00">_list()</text>
<text text-anchor="start" x="10" y="-182" font-family="Helvetica,sans-Serif" font-size="10.00">+</text>
<text text-anchor="start" x="29" y="-182" font-family="Helvetica,sans-Serif" font-size="10.00">store_creates_media</text>
<text text-anchor="start" x="29" y="-171" font-family="Helvetica,sans-Serif" font-size="10.00">_and_participations()</text>
<text text-anchor="start" x="10" y="-156" font-family="Helvetica,sans-Serif" font-size="10.00">+</text>
<text text-anchor="start" x="29" y="-156" font-family="Helvetica,sans-Serif" font-size="10.00">store_requires_title()</text>
<text text-anchor="start" x="10" y="-141" font-family="Helvetica,sans-Serif" font-size="10.00">+</text>
<text text-anchor="start" x="29" y="-141" font-family="Helvetica,sans-Serif" font-size="10.00">show_displays_media()</text>
<text text-anchor="start" x="10" y="-126" font-family="Helvetica,sans-Serif" font-size="10.00">+</text>
<text text-anchor="start" x="29" y="-126" font-family="Helvetica,sans-Serif" font-size="10.00">show_returns_404_when</text>
<text text-anchor="start" x="29" y="-115" font-family="Helvetica,sans-Serif" font-size="10.00">_media_not_found()</text>
<text text-anchor="start" x="10" y="-100" font-family="Helvetica,sans-Serif" font-size="10.00">+</text>
<text text-anchor="start" x="29" y="-100" font-family="Helvetica,sans-Serif" font-size="10.00">update_updates_media</text>
<text text-anchor="start" x="29" y="-89" font-family="Helvetica,sans-Serif" font-size="10.00">_and_participations()</text>
<text text-anchor="start" x="10" y="-74" font-family="Helvetica,sans-Serif" font-size="10.00">+</text>
<text text-anchor="start" x="29" y="-74" font-family="Helvetica,sans-Serif" font-size="10.00">destroy_redirects</text>
<text text-anchor="start" x="29" y="-63" font-family="Helvetica,sans-Serif" font-size="10.00">_on_success()</text>
<text text-anchor="start" x="10" y="-48" font-family="Helvetica,sans-Serif" font-size="10.00">+</text>
<text text-anchor="start" x="29" y="-48" font-family="Helvetica,sans-Serif" font-size="10.00">sync_dispatches_jobs()</text>
<text text-anchor="start" x="10" y="-33" font-family="Helvetica,sans-Serif" font-size="10.00">+</text>
<text text-anchor="start" x="29" y="-33" font-family="Helvetica,sans-Serif" font-size="10.00">sync_local_path_success()</text>
<text text-anchor="start" x="10" y="-18" font-family="Helvetica,sans-Serif" font-size="10.00">+</text>
<text text-anchor="start" x="29" y="-18" font-family="Helvetica,sans-Serif" font-size="10.00">sync_local_path_returns</text>
<text text-anchor="start" x="29" y="-7" font-family="Helvetica,sans-Serif" font-size="10.00">_404_when_not_found()</text>
<polygon fill="#666666" stroke="#666666" points="0,-233 0,-233 176,-233 176,-233 0,-233"/>
<polygon fill="#666666" stroke="#666666" points="0,-218 0,-218 176,-218 176,-218 0,-218"/>
<polygon fill="none" stroke="#666666" points="0,0 0,-250 176,-250 176,0 0,0"/>
</a>
</g>
</g>
<!-- Node2 -->
<g id="Node000002" class="node">
<title>Node2</title>
<g id="a_Node000002"><a xlink:href="classTests_1_1TestCase.html" target="_top" xlink:title=" ">
<polygon fill="white" stroke="transparent" points="129,-335 47,-335 47,-286 129,-286 129,-335"/>
<text text-anchor="start" x="52" y="-322.5" font-family="Helvetica,sans-Serif" font-size="10.00">Tests\TestCase</text>
<text text-anchor="start" x="86" y="-307.5" font-family="Helvetica,sans-Serif" font-size="10.00"> </text>
<text text-anchor="start" x="86" y="-292.5" font-family="Helvetica,sans-Serif" font-size="10.00"> </text>
<polygon fill="#666666" stroke="#666666" points="47,-317.5 47,-317.5 129,-317.5 129,-317.5 47,-317.5"/>
<polygon fill="#666666" stroke="#666666" points="47,-302.5 47,-302.5 129,-302.5 129,-302.5 47,-302.5"/>
<polygon fill="none" stroke="#666666" points="47,-286 47,-335 129,-335 129,-286 47,-286"/>
</a>
</g>
</g>
<!-- Node2&#45;&gt;Node1 -->
<g id="edge1_Node000001_Node000002" class="edge">
<title>Node2&#45;&gt;Node1</title>
<g id="a_edge1_Node000001_Node000002"><a xlink:title=" ">
<path fill="none" stroke="#63b8ff" d="M88,-275.7C88,-268.03 88,-259.45 88,-250.38"/>
<polygon fill="none" stroke="#63b8ff" points="84.5,-275.89 88,-285.89 91.5,-275.89 84.5,-275.89"/>
</a>
</g>
</g>
<!-- Node3 -->
<g id="Node000003" class="node">
<title>Node3</title>
<g id="a_Node000003"><a xlink:title=" ">
<polygon fill="white" stroke="transparent" points="127,-420 49,-420 49,-371 127,-371 127,-420"/>
<text text-anchor="start" x="54" y="-407.5" font-family="Helvetica,sans-Serif" font-size="10.00">BaseTestCase</text>
<text text-anchor="start" x="86" y="-392.5" font-family="Helvetica,sans-Serif" font-size="10.00"> </text>
<text text-anchor="start" x="86" y="-377.5" font-family="Helvetica,sans-Serif" font-size="10.00"> </text>
<polygon fill="#666666" stroke="#666666" points="49,-402.5 49,-402.5 127,-402.5 127,-402.5 49,-402.5"/>
<polygon fill="#666666" stroke="#666666" points="49,-387.5 49,-387.5 127,-387.5 127,-387.5 49,-387.5"/>
<polygon fill="none" stroke="#666666" points="49,-371 49,-420 127,-420 127,-371 49,-371"/>
</a>
</g>
</g>
<!-- Node3&#45;&gt;Node2 -->
<g id="edge2_Node000002_Node000003" class="edge">
<title>Node3&#45;&gt;Node2</title>
<g id="a_edge2_Node000002_Node000003"><a xlink:title=" ">
<path fill="none" stroke="#63b8ff" d="M88,-360.77C88,-352.17 88,-343.1 88,-335.12"/>
<polygon fill="none" stroke="#63b8ff" points="84.5,-360.94 88,-370.94 91.5,-360.94 84.5,-360.94"/>
</a>
</g>
</g>
</g>
</svg>
</svg>

<style type='text/css'>
<![CDATA[
[data-mouse-over-selected='false'] { opacity: 0.7; }
[data-mouse-over-selected='true']  { opacity: 1.0; }
]]>
</style>
<script type="application/ecmascript"><![CDATA[
document.addEventListener('DOMContentLoaded', (event) => {
  highlightEdges();
  highlightAdjacentNodes();
});
]]></script>
</svg>
