<?xml version="1.0" encoding="UTF-8" standalone="no"?>
<!DOCTYPE svg PUBLIC "-//W3C//DTD SVG 1.1//EN"
 "http://www.w3.org/Graphics/SVG/1.1/DTD/svg11.dtd">
<!-- Generated by graphviz version 2.42.4 (0)
 -->
<!-- Title: Database\Factories\UserFactory Pages: 1 -->
<svg width="143pt" height="168pt"
 viewBox="0.00 0.00 143.00 168.00" xmlns="http://www.w3.org/2000/svg" xmlns:xlink="http://www.w3.org/1999/xlink">
<g id="graph0" class="graph" transform="scale(1 1) rotate(0) translate(4 164)">
<title>Database\Factories\UserFactory</title>
<!-- Node1 -->
<g id="Node000001" class="node">
<title>Node1</title>
<g id="a_Node000001"><a xlink:title="\Databaseloquent\Factories\Factory&lt;\App\Models\User&gt;">
<polygon fill="#999999" stroke="transparent" points="135,-75 0,-75 0,0 135,0 135,-75"/>
<text text-anchor="start" x="21" y="-62.5" font-family="Helvetica,sans-Serif" font-size="10.00">Database\Factories</text>
<text text-anchor="start" x="37.5" y="-51.5" font-family="Helvetica,sans-Serif" font-size="10.00">\UserFactory</text>
<text text-anchor="start" x="4.5" y="-36.5" font-family="Helvetica,sans-Serif" font-size="10.00">#</text>
<text text-anchor="start" x="17.5" y="-36.5" font-family="Helvetica,sans-Serif" font-size="10.00">static string $password</text>
<text text-anchor="start" x="4.5" y="-21.5" font-family="Helvetica,sans-Serif" font-size="10.00">+</text>
<text text-anchor="start" x="17.5" y="-21.5" font-family="Helvetica,sans-Serif" font-size="10.00">definition()</text>
<text text-anchor="start" x="4.5" y="-6.5" font-family="Helvetica,sans-Serif" font-size="10.00">+</text>
<text text-anchor="start" x="17.5" y="-6.5" font-family="Helvetica,sans-Serif" font-size="10.00">unverified()</text>
<polygon fill="#666666" stroke="#666666" points="0.5,-46.5 0.5,-46.5 135.5,-46.5 135.5,-46.5 0.5,-46.5"/>
<polygon fill="#666666" stroke="#666666" points="0.5,-31.5 0.5,-31.5 15.5,-31.5 15.5,-31.5 0.5,-31.5"/>
<polygon fill="#666666" stroke="#666666" points="15.5,-31.5 15.5,-31.5 135.5,-31.5 135.5,-31.5 15.5,-31.5"/>
<polygon fill="none" stroke="#666666" points="0,0 0,-75 135,-75 135,0 0,0"/>
</a>
</g>
</g>
<!-- Node2 -->
<g id="Node000002" class="node">
<title>Node2</title>
<g id="a_Node000002"><a xlink:title=" ">
<polygon fill="white" stroke="transparent" points="62.5,-160 2.5,-160 2.5,-111 62.5,-111 62.5,-160"/>
<text text-anchor="start" x="7.5" y="-147.5" font-family="Helvetica,sans-Serif" font-size="10.00">Illuminate</text>
<text text-anchor="start" x="30.5" y="-132.5" font-family="Helvetica,sans-Serif" font-size="10.00"> </text>
<text text-anchor="start" x="30.5" y="-117.5" font-family="Helvetica,sans-Serif" font-size="10.00"> </text>
<polygon fill="#666666" stroke="#666666" points="2.5,-142.5 2.5,-142.5 62.5,-142.5 62.5,-142.5 2.5,-142.5"/>
<polygon fill="#666666" stroke="#666666" points="2.5,-127.5 2.5,-127.5 62.5,-127.5 62.5,-127.5 2.5,-127.5"/>
<polygon fill="none" stroke="#666666" points="2.5,-111 2.5,-160 62.5,-160 62.5,-111 2.5,-111"/>
</a>
</g>
</g>
<!-- Node2&#45;&gt;Node1 -->
<g id="edge1_Node000001_Node000002" class="edge">
<title>Node2&#45;&gt;Node1</title>
<g id="a_edge1_Node000001_Node000002"><a xlink:title=" ">
<path fill="none" stroke="#63b8ff" d="M44.63,-101.23C47.71,-92.77 51.04,-83.65 54.18,-75.04"/>
<polygon fill="none" stroke="#63b8ff" points="41.29,-100.18 41.15,-110.77 47.87,-102.57 41.29,-100.18"/>
</a>
</g>
</g>
<!-- Node3 -->
<g id="Node000003" class="node">
<title>Node3</title>
<g id="a_Node000003"><a xlink:title=" ">
<polygon fill="white" stroke="transparent" points="126.5,-160 80.5,-160 80.5,-111 126.5,-111 126.5,-160"/>
<text text-anchor="start" x="85.5" y="-147.5" font-family="Helvetica,sans-Serif" font-size="10.00">Factory</text>
<text text-anchor="start" x="101.5" y="-132.5" font-family="Helvetica,sans-Serif" font-size="10.00"> </text>
<text text-anchor="start" x="101.5" y="-117.5" font-family="Helvetica,sans-Serif" font-size="10.00"> </text>
<polygon fill="#666666" stroke="#666666" points="80.5,-142.5 80.5,-142.5 126.5,-142.5 126.5,-142.5 80.5,-142.5"/>
<polygon fill="#666666" stroke="#666666" points="80.5,-127.5 80.5,-127.5 126.5,-127.5 126.5,-127.5 80.5,-127.5"/>
<polygon fill="none" stroke="#666666" points="80.5,-111 80.5,-160 126.5,-160 126.5,-111 80.5,-111"/>
</a>
</g>
</g>
<!-- Node3&#45;&gt;Node1 -->
<g id="edge2_Node000001_Node000003" class="edge">
<title>Node3&#45;&gt;Node1</title>
<g id="a_edge2_Node000001_Node000003"><a xlink:title=" ">
<path fill="none" stroke="#63b8ff" d="M91.02,-101.23C87.85,-92.77 84.43,-83.65 81.2,-75.04"/>
<polygon fill="none" stroke="#63b8ff" points="87.81,-102.64 94.6,-110.77 94.37,-100.18 87.81,-102.64"/>
</a>
</g>
</g>
</g>
</svg>
