<?xml version="1.0" encoding="UTF-8" standalone="no"?>
<!DOCTYPE svg PUBLIC "-//W3C//DTD SVG 1.1//EN"
 "http://www.w3.org/Graphics/SVG/1.1/DTD/svg11.dtd">
<!-- Generated by graphviz version 2.42.4 (0)
 -->
<!-- Title: Tests\Feature\SearchMediaTest\logTest Pages: 1 -->
<svg width="384pt" height="319pt"
 viewBox="0.00 0.00 384.00 318.50" xmlns="http://www.w3.org/2000/svg" xmlns:xlink="http://www.w3.org/1999/xlink">

<svg id="main" version="1.1" xmlns="http://www.w3.org/2000/svg" xmlns:xlink="http://www.w3.org/1999/xlink" xml:space="preserve" onload="init(evt)">
<style type="text/css"><![CDATA[
.node, .edge {opacity: 0.7;}
.node.selected, .edge.selected {opacity: 1;}
.edge:hover path { stroke: red; }
.edge:hover polygon { stroke: red; fill: red; }
]]></style>
<script type="application/ecmascript" xlink:href="svg.min.js"/>
<svg id="graph" class="graph">
<g id="graph0" class="graph" transform="scale(1 1) rotate(0) translate(4 314.5)">
<title>Tests\Feature\SearchMediaTest\logTest</title>
<!-- Node1 -->
<g id="Node000001" class="node">
<title>Node1</title>
<g id="a_Node000001"><a xlink:title="Ptite fonction helper pour logger proprement dans le terminal.">
<polygon fill="#999999" stroke="#666666" points="376,-175.5 229,-175.5 229,-145.5 376,-145.5 376,-175.5"/>
<text text-anchor="start" x="237" y="-163.5" font-family="Helvetica,sans-Serif" font-size="10.00">Tests\Feature\SearchMedia</text>
<text text-anchor="middle" x="302.5" y="-152.5" font-family="Helvetica,sans-Serif" font-size="10.00">Test\logTest</text>
</a>
</g>
</g>
<!-- Node2 -->
<g id="Node000002" class="node">
<title>Node2</title>
<g id="a_Node000002"><a xlink:href="classTests_1_1Feature_1_1SearchMediaTest.html#afc0c5254ee94d6f4c84e4b416a7a2e04" target="_top" xlink:title=" ">
<polygon fill="white" stroke="#666666" points="193,-310.5 0,-310.5 0,-258.5 193,-258.5 193,-310.5"/>
<text text-anchor="start" x="8" y="-298.5" font-family="Helvetica,sans-Serif" font-size="10.00">Tests\Feature\SearchMedia</text>
<text text-anchor="start" x="8" y="-287.5" font-family="Helvetica,sans-Serif" font-size="10.00">Test\devrait_afficher_un</text>
<text text-anchor="start" x="8" y="-276.5" font-family="Helvetica,sans-Serif" font-size="10.00">_media_lorsque_le_titre_correspond</text>
<text text-anchor="middle" x="96.5" y="-265.5" font-family="Helvetica,sans-Serif" font-size="10.00">_au_mot_cle</text>
</a>
</g>
</g>
<!-- Node1&#45;&gt;Node2 -->
<g id="edge1_Node000001_Node000002" class="edge">
<title>Node1&#45;&gt;Node2</title>
<g id="a_edge1_Node000001_Node000002"><a xlink:title=" ">
<path fill="none" stroke="#63b8ff" d="M279.18,-182.65C258.35,-202.35 225.64,-230.85 193,-249.5 187.48,-252.65 181.62,-255.61 175.64,-258.37"/>
<polygon fill="#63b8ff" stroke="#63b8ff" points="281.77,-185.02 286.56,-175.57 276.93,-179.97 281.77,-185.02"/>
</a>
</g>
</g>
<!-- Node3 -->
<g id="Node000003" class="node">
<title>Node3</title>
<g id="a_Node000003"><a xlink:href="classTests_1_1Feature_1_1SearchMediaTest.html#aedeba09cb39534eafa2c152350127306" target="_top" xlink:title=" ">
<polygon fill="white" stroke="#666666" points="171.5,-240 21.5,-240 21.5,-199 171.5,-199 171.5,-240"/>
<text text-anchor="start" x="29.5" y="-228" font-family="Helvetica,sans-Serif" font-size="10.00">Tests\Feature\SearchMedia</text>
<text text-anchor="start" x="29.5" y="-217" font-family="Helvetica,sans-Serif" font-size="10.00">Test\devrait_filtrer_les</text>
<text text-anchor="middle" x="96.5" y="-206" font-family="Helvetica,sans-Serif" font-size="10.00">_medias_par_id_professeur</text>
</a>
</g>
</g>
<!-- Node1&#45;&gt;Node3 -->
<g id="edge2_Node000001_Node000003" class="edge">
<title>Node1&#45;&gt;Node3</title>
<g id="a_edge2_Node000001_Node000003"><a xlink:title=" ">
<path fill="none" stroke="#63b8ff" d="M239.76,-178.36C217.34,-184.84 191.82,-192.22 168.65,-198.92"/>
<polygon fill="#63b8ff" stroke="#63b8ff" points="240.86,-181.68 249.49,-175.54 238.92,-174.96 240.86,-181.68"/>
</a>
</g>
</g>
<!-- Node4 -->
<g id="Node000004" class="node">
<title>Node4</title>
<g id="a_Node000004"><a xlink:href="classTests_1_1Feature_1_1SearchMediaTest.html#aa6bb0b935b5a601742fbb7a6dc45105f" target="_top" xlink:title=" ">
<polygon fill="white" stroke="#666666" points="170,-181 23,-181 23,-140 170,-140 170,-181"/>
<text text-anchor="start" x="31" y="-169" font-family="Helvetica,sans-Serif" font-size="10.00">Tests\Feature\SearchMedia</text>
<text text-anchor="start" x="31" y="-158" font-family="Helvetica,sans-Serif" font-size="10.00">Test\devrait_filtrer_les</text>
<text text-anchor="middle" x="96.5" y="-147" font-family="Helvetica,sans-Serif" font-size="10.00">_medias_par_projet</text>
</a>
</g>
</g>
<!-- Node1&#45;&gt;Node4 -->
<g id="edge3_Node000001_Node000004" class="edge">
<title>Node1&#45;&gt;Node4</title>
<g id="a_edge3_Node000001_Node000004"><a xlink:title=" ">
<path fill="none" stroke="#63b8ff" d="M218.35,-160.5C202.41,-160.5 185.84,-160.5 170.26,-160.5"/>
<polygon fill="#63b8ff" stroke="#63b8ff" points="218.72,-164 228.72,-160.5 218.72,-157 218.72,-164"/>
</a>
</g>
</g>
<!-- Node5 -->
<g id="Node000005" class="node">
<title>Node5</title>
<g id="a_Node000005"><a xlink:href="classTests_1_1Feature_1_1SearchMediaTest.html#acb5ca3d1787e0f9ad8f6dfdabb7129f9" target="_top" xlink:title=" ">
<polygon fill="white" stroke="#666666" points="170,-122 23,-122 23,-81 170,-81 170,-122"/>
<text text-anchor="start" x="31" y="-110" font-family="Helvetica,sans-Serif" font-size="10.00">Tests\Feature\SearchMedia</text>
<text text-anchor="start" x="31" y="-99" font-family="Helvetica,sans-Serif" font-size="10.00">Test\devrait_filtrer_les</text>
<text text-anchor="middle" x="96.5" y="-88" font-family="Helvetica,sans-Serif" font-size="10.00">_medias_par_promotion</text>
</a>
</g>
</g>
<!-- Node1&#45;&gt;Node5 -->
<g id="edge4_Node000001_Node000005" class="edge">
<title>Node1&#45;&gt;Node5</title>
<g id="a_edge4_Node000001_Node000005"><a xlink:title=" ">
<path fill="none" stroke="#63b8ff" d="M239.76,-142.64C217.34,-136.16 191.82,-128.78 168.65,-122.08"/>
<polygon fill="#63b8ff" stroke="#63b8ff" points="238.92,-146.04 249.49,-145.46 240.86,-139.32 238.92,-146.04"/>
</a>
</g>
</g>
<!-- Node6 -->
<g id="Node000006" class="node">
<title>Node6</title>
<g id="a_Node000006"><a xlink:href="classTests_1_1Feature_1_1SearchMediaTest.html#a2af587ad71e139385b52f857ca9b4f46" target="_top" xlink:title=" ">
<polygon fill="white" stroke="#666666" points="171,-63 22,-63 22,0 171,0 171,-63"/>
<text text-anchor="start" x="30" y="-51" font-family="Helvetica,sans-Serif" font-size="10.00">Tests\Feature\SearchMedia</text>
<text text-anchor="start" x="30" y="-40" font-family="Helvetica,sans-Serif" font-size="10.00">Test\devrait_trouver_un</text>
<text text-anchor="start" x="30" y="-29" font-family="Helvetica,sans-Serif" font-size="10.00">_media_en_tapant_le_nom</text>
<text text-anchor="start" x="30" y="-18" font-family="Helvetica,sans-Serif" font-size="10.00">_du_prof_dans_la_barre_de</text>
<text text-anchor="middle" x="96.5" y="-7" font-family="Helvetica,sans-Serif" font-size="10.00">_recherche</text>
</a>
</g>
</g>
<!-- Node1&#45;&gt;Node6 -->
<g id="edge5_Node000001_Node000006" class="edge">
<title>Node1&#45;&gt;Node6</title>
<g id="a_edge5_Node000001_Node000006"><a xlink:title=" ">
<path fill="none" stroke="#63b8ff" d="M278.17,-138.36C257.11,-119.2 224.66,-91.63 193,-72.5 186.05,-68.3 178.59,-64.31 171.02,-60.59"/>
<polygon fill="#63b8ff" stroke="#63b8ff" points="275.93,-141.06 285.65,-145.26 280.67,-135.91 275.93,-141.06"/>
</a>
</g>
</g>
</g>
</svg>
</svg>

<style type='text/css'>
<![CDATA[
[data-mouse-over-selected='false'] { opacity: 0.7; }
[data-mouse-over-selected='true']  { opacity: 1.0; }
]]>
</style>
<script type="application/ecmascript"><![CDATA[
document.addEventListener('DOMContentLoaded', (event) => {
  highlightEdges();
  highlightAdjacentNodes();
});
]]></script>
</svg>
