<?xml version="1.0" encoding="UTF-8" standalone="no"?>
<!DOCTYPE svg PUBLIC "-//W3C//DTD SVG 1.1//EN"
 "http://www.w3.org/Graphics/SVG/1.1/DTD/svg11.dtd">
<!-- Generated by graphviz version 2.42.4 (0)
 -->
<!-- Title: Tests\Feature\TransfertControllerTest Pages: 1 -->
<svg width="232pt" height="649pt"
 viewBox="0.00 0.00 232.00 649.00" xmlns="http://www.w3.org/2000/svg" xmlns:xlink="http://www.w3.org/1999/xlink">
<g id="graph0" class="graph" transform="scale(1 1) rotate(0) translate(4 645)">
<title>Tests\Feature\TransfertControllerTest</title>
<!-- Node1 -->
<g id="Node000001" class="node">
<title>Node1</title>
<g id="a_Node000001"><a xlink:title=" ">
<polygon fill="#999999" stroke="transparent" points="195,-324 7,-324 7,0 195,0 195,-324"/>
<text text-anchor="start" x="12" y="-312" font-family="Helvetica,sans-Serif" font-size="10.00">Tests\Feature\TransfertControllerTest</text>
<text text-anchor="start" x="99" y="-297" font-family="Helvetica,sans-Serif" font-size="10.00"> </text>
<text text-anchor="start" x="20" y="-282" font-family="Helvetica,sans-Serif" font-size="10.00">+</text>
<text text-anchor="start" x="42" y="-282" font-family="Helvetica,sans-Serif" font-size="10.00">index_displays_transfert</text>
<text text-anchor="start" x="42" y="-271" font-family="Helvetica,sans-Serif" font-size="10.00">_page()</text>
<text text-anchor="start" x="20" y="-256" font-family="Helvetica,sans-Serif" font-size="10.00">+</text>
<text text-anchor="start" x="42" y="-256" font-family="Helvetica,sans-Serif" font-size="10.00">list_returns_media</text>
<text text-anchor="start" x="42" y="-245" font-family="Helvetica,sans-Serif" font-size="10.00">_without_local_paths()</text>
<text text-anchor="start" x="20" y="-230" font-family="Helvetica,sans-Serif" font-size="10.00">+</text>
<text text-anchor="start" x="42" y="-230" font-family="Helvetica,sans-Serif" font-size="10.00">list_matches_active</text>
<text text-anchor="start" x="42" y="-219" font-family="Helvetica,sans-Serif" font-size="10.00">_jobs_with_media()</text>
<text text-anchor="start" x="20" y="-204" font-family="Helvetica,sans-Serif" font-size="10.00">+</text>
<text text-anchor="start" x="42" y="-204" font-family="Helvetica,sans-Serif" font-size="10.00">list_handles_ffastrans</text>
<text text-anchor="start" x="42" y="-193" font-family="Helvetica,sans-Serif" font-size="10.00">_error_gracefully()</text>
<text text-anchor="start" x="20" y="-178" font-family="Helvetica,sans-Serif" font-size="10.00">+</text>
<text text-anchor="start" x="42" y="-178" font-family="Helvetica,sans-Serif" font-size="10.00">list_prioritizes_arch</text>
<text text-anchor="start" x="42" y="-167" font-family="Helvetica,sans-Serif" font-size="10.00">_over_pad()</text>
<text text-anchor="start" x="20" y="-152" font-family="Helvetica,sans-Serif" font-size="10.00">+</text>
<text text-anchor="start" x="42" y="-152" font-family="Helvetica,sans-Serif" font-size="10.00">list_uses_pad_when</text>
<text text-anchor="start" x="42" y="-141" font-family="Helvetica,sans-Serif" font-size="10.00">_arch_not_available()</text>
<text text-anchor="start" x="20" y="-126" font-family="Helvetica,sans-Serif" font-size="10.00">+</text>
<text text-anchor="start" x="42" y="-126" font-family="Helvetica,sans-Serif" font-size="10.00">startJob_submits_job</text>
<text text-anchor="start" x="42" y="-115" font-family="Helvetica,sans-Serif" font-size="10.00">_to_ffastrans()</text>
<text text-anchor="start" x="20" y="-100" font-family="Helvetica,sans-Serif" font-size="10.00">+</text>
<text text-anchor="start" x="42" y="-100" font-family="Helvetica,sans-Serif" font-size="10.00">startJob_handles_ffastrans</text>
<text text-anchor="start" x="42" y="-89" font-family="Helvetica,sans-Serif" font-size="10.00">_error()</text>
<text text-anchor="start" x="20" y="-74" font-family="Helvetica,sans-Serif" font-size="10.00">+</text>
<text text-anchor="start" x="42" y="-74" font-family="Helvetica,sans-Serif" font-size="10.00">checkStatus_returns</text>
<text text-anchor="start" x="42" y="-63" font-family="Helvetica,sans-Serif" font-size="10.00">_job_progress()</text>
<text text-anchor="start" x="20" y="-48" font-family="Helvetica,sans-Serif" font-size="10.00">+</text>
<text text-anchor="start" x="42" y="-48" font-family="Helvetica,sans-Serif" font-size="10.00">checkStatus_detects</text>
<text text-anchor="start" x="42" y="-37" font-family="Helvetica,sans-Serif" font-size="10.00">_success_state()</text>
<text text-anchor="start" x="42" y="-22" font-family="Helvetica,sans-Serif" font-size="10.00">et 6 de plus...</text>
<text text-anchor="start" x="20" y="-7" font-family="Helvetica,sans-Serif" font-size="10.00">#</text>
<text text-anchor="start" x="42" y="-7" font-family="Helvetica,sans-Serif" font-size="10.00">setUp()</text>
<polygon fill="#666666" stroke="#666666" points="7,-307 7,-307 195,-307 195,-307 7,-307"/>
<polygon fill="#666666" stroke="#666666" points="7,-292 7,-292 195,-292 195,-292 7,-292"/>
<polygon fill="none" stroke="#666666" points="7,0 7,-324 195,-324 195,0 7,0"/>
</a>
</g>
</g>
<!-- Node2 -->
<g id="Node000002" class="node">
<title>Node2</title>
<g id="a_Node000002"><a xlink:href="classTests_1_1TestCase.html" target="_top" xlink:title=" ">
<polygon fill="white" stroke="transparent" points="82,-487.5 0,-487.5 0,-438.5 82,-438.5 82,-487.5"/>
<text text-anchor="start" x="5" y="-475" font-family="Helvetica,sans-Serif" font-size="10.00">Tests\TestCase</text>
<text text-anchor="start" x="39" y="-460" font-family="Helvetica,sans-Serif" font-size="10.00"> </text>
<text text-anchor="start" x="39" y="-445" font-family="Helvetica,sans-Serif" font-size="10.00"> </text>
<polygon fill="#666666" stroke="#666666" points="0,-470 0,-470 82,-470 82,-470 0,-470"/>
<polygon fill="#666666" stroke="#666666" points="0,-455 0,-455 82,-455 82,-455 0,-455"/>
<polygon fill="none" stroke="#666666" points="0,-438.5 0,-487.5 82,-487.5 82,-438.5 0,-438.5"/>
</a>
</g>
</g>
<!-- Node2&#45;&gt;Node1 -->
<g id="edge1_Node000001_Node000002" class="edge">
<title>Node2&#45;&gt;Node1</title>
<g id="a_edge1_Node000001_Node000002"><a xlink:title=" ">
<path fill="none" stroke="#63b8ff" d="M47.79,-428.18C53.05,-401.97 60.75,-363.57 68.68,-324.08"/>
<polygon fill="none" stroke="#63b8ff" points="44.29,-427.79 45.76,-438.29 51.16,-429.17 44.29,-427.79"/>
</a>
</g>
</g>
<!-- Node3 -->
<g id="Node000003" class="node">
<title>Node3</title>
<g id="a_Node000003"><a xlink:title=" ">
<polygon fill="white" stroke="transparent" points="80,-641 2,-641 2,-592 80,-592 80,-641"/>
<text text-anchor="start" x="7" y="-628.5" font-family="Helvetica,sans-Serif" font-size="10.00">BaseTestCase</text>
<text text-anchor="start" x="39" y="-613.5" font-family="Helvetica,sans-Serif" font-size="10.00"> </text>
<text text-anchor="start" x="39" y="-598.5" font-family="Helvetica,sans-Serif" font-size="10.00"> </text>
<polygon fill="#666666" stroke="#666666" points="2,-623.5 2,-623.5 80,-623.5 80,-623.5 2,-623.5"/>
<polygon fill="#666666" stroke="#666666" points="2,-608.5 2,-608.5 80,-608.5 80,-608.5 2,-608.5"/>
<polygon fill="none" stroke="#666666" points="2,-592 2,-641 80,-641 80,-592 2,-592"/>
</a>
</g>
</g>
<!-- Node3&#45;&gt;Node2 -->
<g id="edge2_Node000002_Node000003" class="edge">
<title>Node3&#45;&gt;Node2</title>
<g id="a_edge2_Node000002_Node000003"><a xlink:title=" ">
<path fill="none" stroke="#63b8ff" d="M41,-581.48C41,-552.86 41,-512.68 41,-487.51"/>
<polygon fill="none" stroke="#63b8ff" points="37.5,-581.83 41,-591.83 44.5,-581.83 37.5,-581.83"/>
</a>
</g>
</g>
<!-- Node4 -->
<g id="Node000004" class="node">
<title>Node4</title>
<g id="a_Node000004"><a xlink:href="classApp_1_1Models_1_1User.html" target="_top" xlink:title=" ">
<polygon fill="white" stroke="transparent" points="224,-555 100,-555 100,-371 224,-371 224,-555"/>
<text text-anchor="start" x="120.5" y="-543" font-family="Helvetica,sans-Serif" font-size="10.00">App\Models\User</text>
<text text-anchor="start" x="104" y="-528" font-family="Helvetica,sans-Serif" font-size="10.00">#</text>
<text text-anchor="start" x="117" y="-528" font-family="Helvetica,sans-Serif" font-size="10.00">$fillable</text>
<text text-anchor="start" x="104" y="-513" font-family="Helvetica,sans-Serif" font-size="10.00">#</text>
<text text-anchor="start" x="117" y="-513" font-family="Helvetica,sans-Serif" font-size="10.00">$hidden</text>
<text text-anchor="start" x="104" y="-498" font-family="Helvetica,sans-Serif" font-size="10.00">+</text>
<text text-anchor="start" x="117" y="-498" font-family="Helvetica,sans-Serif" font-size="10.00">media()</text>
<text text-anchor="start" x="104" y="-483" font-family="Helvetica,sans-Serif" font-size="10.00">+</text>
<text text-anchor="start" x="117" y="-483" font-family="Helvetica,sans-Serif" font-size="10.00">isProfesseur()</text>
<text text-anchor="start" x="104" y="-468" font-family="Helvetica,sans-Serif" font-size="10.00">+</text>
<text text-anchor="start" x="117" y="-468" font-family="Helvetica,sans-Serif" font-size="10.00">isEleve()</text>
<text text-anchor="start" x="104" y="-453" font-family="Helvetica,sans-Serif" font-size="10.00">+</text>
<text text-anchor="start" x="117" y="-453" font-family="Helvetica,sans-Serif" font-size="10.00">getProfile()</text>
<text text-anchor="start" x="104" y="-438" font-family="Helvetica,sans-Serif" font-size="10.00">+</text>
<text text-anchor="start" x="117" y="-438" font-family="Helvetica,sans-Serif" font-size="10.00">canModifierVideo()</text>
<text text-anchor="start" x="104" y="-423" font-family="Helvetica,sans-Serif" font-size="10.00">+</text>
<text text-anchor="start" x="117" y="-423" font-family="Helvetica,sans-Serif" font-size="10.00">canDiffuserVideo()</text>
<text text-anchor="start" x="104" y="-408" font-family="Helvetica,sans-Serif" font-size="10.00">+</text>
<text text-anchor="start" x="117" y="-408" font-family="Helvetica,sans-Serif" font-size="10.00">canSupprimerVideo()</text>
<text text-anchor="start" x="104" y="-393" font-family="Helvetica,sans-Serif" font-size="10.00">+</text>
<text text-anchor="start" x="117" y="-393" font-family="Helvetica,sans-Serif" font-size="10.00">canAdministrerSite()</text>
<text text-anchor="start" x="104" y="-378" font-family="Helvetica,sans-Serif" font-size="10.00">#</text>
<text text-anchor="start" x="117" y="-378" font-family="Helvetica,sans-Serif" font-size="10.00">casts()</text>
<polygon fill="#666666" stroke="#666666" points="100,-538 100,-538 224,-538 224,-538 100,-538"/>
<polygon fill="#666666" stroke="#666666" points="100,-508 100,-508 115,-508 115,-508 100,-508"/>
<polygon fill="#666666" stroke="#666666" points="115,-508 115,-508 224,-508 224,-508 115,-508"/>
<polygon fill="none" stroke="#666666" points="100,-371 100,-555 224,-555 224,-371 100,-371"/>
</a>
</g>
</g>
<!-- Node4&#45;&gt;Node1 -->
<g id="edge3_Node000001_Node000004" class="edge">
<title>Node4&#45;&gt;Node1</title>
<g id="a_edge3_Node000001_Node000004"><a xlink:title=" ">
<path fill="none" stroke="#63b8ff" d="M143.37,-370.67C141.09,-359.52 138.72,-347.87 136.3,-336.02"/>
<polygon fill="none" stroke="#63b8ff" points="136.27,-335.86 131.15,-330.79 133.87,-324.11 138.99,-329.19 136.27,-335.86"/>
</a>
</g>
<text text-anchor="middle" x="157.5" y="-345" font-family="Helvetica,sans-Serif" font-size="10.00" fill="grey"> #$user</text>
</g>
<!-- Node5 -->
<g id="Node000005" class="node">
<title>Node5</title>
<g id="a_Node000005"><a xlink:title=" ">
<polygon fill="white" stroke="transparent" points="206,-641 118,-641 118,-592 206,-592 206,-641"/>
<text text-anchor="start" x="123" y="-628.5" font-family="Helvetica,sans-Serif" font-size="10.00">Authenticatable</text>
<text text-anchor="start" x="160" y="-613.5" font-family="Helvetica,sans-Serif" font-size="10.00"> </text>
<text text-anchor="start" x="160" y="-598.5" font-family="Helvetica,sans-Serif" font-size="10.00"> </text>
<polygon fill="#666666" stroke="#666666" points="118,-623.5 118,-623.5 206,-623.5 206,-623.5 118,-623.5"/>
<polygon fill="#666666" stroke="#666666" points="118,-608.5 118,-608.5 206,-608.5 206,-608.5 118,-608.5"/>
<polygon fill="none" stroke="#666666" points="118,-592 118,-641 206,-641 206,-592 118,-592"/>
</a>
</g>
</g>
<!-- Node5&#45;&gt;Node4 -->
<g id="edge4_Node000004_Node000005" class="edge">
<title>Node5&#45;&gt;Node4</title>
<g id="a_edge4_Node000004_Node000005"><a xlink:title=" ">
<path fill="none" stroke="#63b8ff" d="M162,-581.75C162,-573.63 162,-564.58 162,-555.19"/>
<polygon fill="none" stroke="#63b8ff" points="158.5,-581.83 162,-591.83 165.5,-581.83 158.5,-581.83"/>
</a>
</g>
</g>
</g>
</svg>
