<?xml version="1.0" encoding="UTF-8" standalone="no"?>
<!DOCTYPE svg PUBLIC "-//W3C//DTD SVG 1.1//EN"
 "http://www.w3.org/Graphics/SVG/1.1/DTD/svg11.dtd">
<!-- Generated by graphviz version 2.42.4 (0)
 -->
<!-- Title: App\Http\Requests\Auth\LoginRequest\authenticate Pages: 1 -->
<svg width="543pt" height="69pt"
 viewBox="0.00 0.00 543.00 68.50" xmlns="http://www.w3.org/2000/svg" xmlns:xlink="http://www.w3.org/1999/xlink">
<g id="graph0" class="graph" transform="scale(1 1) rotate(0) translate(4 64.5)">
<title>App\Http\Requests\Auth\LoginRequest\authenticate</title>
<!-- Node1 -->
<g id="Node000001" class="node">
<title>Node1</title>
<g id="a_Node000001"><a xlink:title="Attempt to authenticate the request&#39;s credentials.">
<polygon fill="#999999" stroke="#666666" points="150,-30 0,-30 0,0 150,0 150,-30"/>
<text text-anchor="start" x="8" y="-18" font-family="Helvetica,sans-Serif" font-size="10.00">App\Http\Requests\Auth</text>
<text text-anchor="middle" x="75" y="-7" font-family="Helvetica,sans-Serif" font-size="10.00">\LoginRequest\authenticate</text>
</a>
</g>
</g>
<!-- Node2 -->
<g id="Node000002" class="node">
<title>Node2</title>
<g id="a_Node000002"><a xlink:href="classApp_1_1Http_1_1Requests_1_1Auth_1_1LoginRequest.html#a673cadc2bf050f1c139636c261bc996e" target="_top" xlink:title="Ensure the login request is not rate limited.">
<polygon fill="white" stroke="#666666" points="356,-60.5 186,-60.5 186,-19.5 356,-19.5 356,-60.5"/>
<text text-anchor="start" x="194" y="-48.5" font-family="Helvetica,sans-Serif" font-size="10.00">App\Http\Requests\Auth</text>
<text text-anchor="start" x="194" y="-37.5" font-family="Helvetica,sans-Serif" font-size="10.00">\LoginRequest\ensureIsNotRate</text>
<text text-anchor="middle" x="271" y="-26.5" font-family="Helvetica,sans-Serif" font-size="10.00">Limited</text>
</a>
</g>
</g>
<!-- Node1&#45;&gt;Node2 -->
<g id="edge1_Node000001_Node000002" class="edge">
<title>Node1&#45;&gt;Node2</title>
<g id="a_edge1_Node000001_Node000002"><a xlink:title=" ">
<path fill="none" stroke="#63b8ff" d="M150.17,-24.56C158.55,-25.64 167.17,-26.75 175.77,-27.86"/>
<polygon fill="#63b8ff" stroke="#63b8ff" points="175.46,-31.35 185.82,-29.15 176.35,-24.4 175.46,-31.35"/>
</a>
</g>
</g>
<!-- Node3 -->
<g id="Node000003" class="node">
<title>Node3</title>
<g id="a_Node000003"><a xlink:href="classApp_1_1Http_1_1Requests_1_1Auth_1_1LoginRequest.html#aea2a6943931bedd74179057a5d67bb5c" target="_top" xlink:title="Get the rate limiting throttle key for the request.">
<polygon fill="white" stroke="#666666" points="535,-30 392,-30 392,0 535,0 535,-30"/>
<text text-anchor="start" x="400" y="-18" font-family="Helvetica,sans-Serif" font-size="10.00">App\Http\Requests\Auth</text>
<text text-anchor="middle" x="463.5" y="-7" font-family="Helvetica,sans-Serif" font-size="10.00">\LoginRequest\throttleKey</text>
</a>
</g>
</g>
<!-- Node1&#45;&gt;Node3 -->
<g id="edge3_Node000001_Node000003" class="edge">
<title>Node1&#45;&gt;Node3</title>
<g id="a_edge3_Node000001_Node000003"><a xlink:title=" ">
<path fill="none" stroke="#63b8ff" d="M150.25,-11.93C162.2,-11.54 174.44,-11.21 186,-11 261.54,-9.63 280.46,-9.58 356,-11 364.31,-11.16 372.98,-11.38 381.64,-11.64"/>
<polygon fill="#63b8ff" stroke="#63b8ff" points="381.65,-15.15 391.76,-11.97 381.88,-8.15 381.65,-15.15"/>
</a>
</g>
</g>
<!-- Node2&#45;&gt;Node3 -->
<g id="edge2_Node000002_Node000003" class="edge">
<title>Node2&#45;&gt;Node3</title>
<g id="a_edge2_Node000002_Node000003"><a xlink:title=" ">
<path fill="none" stroke="#63b8ff" d="M356.11,-28.96C364.71,-27.83 373.43,-26.69 381.98,-25.57"/>
<polygon fill="#63b8ff" stroke="#63b8ff" points="382.48,-29.03 391.94,-24.26 381.57,-22.09 382.48,-29.03"/>
</a>
</g>
</g>
</g>
</svg>
