<?xml version="1.0" encoding="UTF-8" standalone="no"?>
<!DOCTYPE svg PUBLIC "-//W3C//DTD SVG 1.1//EN"
 "http://www.w3.org/Graphics/SVG/1.1/DTD/svg11.dtd">
<!-- Generated by graphviz version 2.42.4 (0)
 -->
<!-- Title: Database\Factories\ProjetFactory Pages: 1 -->
<svg width="112pt" height="153pt"
 viewBox="0.00 0.00 112.00 153.00" xmlns="http://www.w3.org/2000/svg" xmlns:xlink="http://www.w3.org/1999/xlink">
<g id="graph0" class="graph" transform="scale(1 1) rotate(0) translate(4 149)">
<title>Database\Factories\ProjetFactory</title>
<!-- Node1 -->
<g id="Node000001" class="node">
<title>Node1</title>
<g id="a_Node000001"><a xlink:title=" ">
<polygon fill="#999999" stroke="transparent" points="104,-60 0,-60 0,0 104,0 104,-60"/>
<text text-anchor="start" x="5" y="-48" font-family="Helvetica,sans-Serif" font-size="10.00">Database\Factories</text>
<text text-anchor="start" x="18.5" y="-37" font-family="Helvetica,sans-Serif" font-size="10.00">\ProjetFactory</text>
<text text-anchor="start" x="11" y="-22" font-family="Helvetica,sans-Serif" font-size="10.00">#</text>
<text text-anchor="start" x="31" y="-22" font-family="Helvetica,sans-Serif" font-size="10.00">$model</text>
<text text-anchor="start" x="11" y="-7" font-family="Helvetica,sans-Serif" font-size="10.00">+</text>
<text text-anchor="start" x="31" y="-7" font-family="Helvetica,sans-Serif" font-size="10.00">definition()</text>
<polygon fill="#666666" stroke="#666666" points="0,-32 0,-32 104,-32 104,-32 0,-32"/>
<polygon fill="#666666" stroke="#666666" points="0,-17 0,-17 29,-17 29,-17 0,-17"/>
<polygon fill="#666666" stroke="#666666" points="29,-17 29,-17 104,-17 104,-17 29,-17"/>
<polygon fill="none" stroke="#666666" points="0,0 0,-60 104,-60 104,0 0,0"/>
</a>
</g>
</g>
<!-- Node2 -->
<g id="Node000002" class="node">
<title>Node2</title>
<g id="a_Node000002"><a xlink:title=" ">
<polygon fill="white" stroke="transparent" points="75,-145 29,-145 29,-96 75,-96 75,-145"/>
<text text-anchor="start" x="34" y="-132.5" font-family="Helvetica,sans-Serif" font-size="10.00">Factory</text>
<text text-anchor="start" x="50" y="-117.5" font-family="Helvetica,sans-Serif" font-size="10.00"> </text>
<text text-anchor="start" x="50" y="-102.5" font-family="Helvetica,sans-Serif" font-size="10.00"> </text>
<polygon fill="#666666" stroke="#666666" points="29,-127.5 29,-127.5 75,-127.5 75,-127.5 29,-127.5"/>
<polygon fill="#666666" stroke="#666666" points="29,-112.5 29,-112.5 75,-112.5 75,-112.5 29,-112.5"/>
<polygon fill="none" stroke="#666666" points="29,-96 29,-145 75,-145 75,-96 29,-96"/>
</a>
</g>
</g>
<!-- Node2&#45;&gt;Node1 -->
<g id="edge1_Node000001_Node000002" class="edge">
<title>Node2&#45;&gt;Node1</title>
<g id="a_edge1_Node000001_Node000002"><a xlink:title=" ">
<path fill="none" stroke="#63b8ff" d="M52,-85.55C52,-77.18 52,-68.28 52,-60.16"/>
<polygon fill="none" stroke="#63b8ff" points="48.5,-85.78 52,-95.78 55.5,-85.78 48.5,-85.78"/>
</a>
</g>
</g>
</g>
</svg>
