<?xml version="1.0" encoding="UTF-8" standalone="no"?>
<!DOCTYPE svg PUBLIC "-//W3C//DTD SVG 1.1//EN"
 "http://www.w3.org/Graphics/SVG/1.1/DTD/svg11.dtd">
<!-- Generated by graphviz version 2.42.4 (0)
 -->
<!-- Title: Tests\Feature\AdminControllerTest Pages: 1 -->
<svg width="185pt" height="502pt"
 viewBox="0.00 0.00 185.00 502.00" xmlns="http://www.w3.org/2000/svg" xmlns:xlink="http://www.w3.org/1999/xlink">
<g id="graph0" class="graph" transform="scale(1 1) rotate(0) translate(4 498)">
<title>Tests\Feature\AdminControllerTest</title>
<!-- Node1 -->
<g id="Node000001" class="node">
<title>Node1</title>
<g id="a_Node000001"><a xlink:title=" ">
<polygon fill="#999999" stroke="transparent" points="177,-324 0,-324 0,0 177,0 177,-324"/>
<text text-anchor="start" x="5.5" y="-312" font-family="Helvetica,sans-Serif" font-size="10.00">Tests\Feature\AdminControllerTest</text>
<text text-anchor="start" x="9" y="-297" font-family="Helvetica,sans-Serif" font-size="10.00">#</text>
<text text-anchor="start" x="26.5" y="-297" font-family="Helvetica,sans-Serif" font-size="10.00">User $user</text>
<text text-anchor="start" x="9" y="-282" font-family="Helvetica,sans-Serif" font-size="10.00">+</text>
<text text-anchor="start" x="26.5" y="-282" font-family="Helvetica,sans-Serif" font-size="10.00">settings_page_displays</text>
<text text-anchor="start" x="26.5" y="-271" font-family="Helvetica,sans-Serif" font-size="10.00">_configuration()</text>
<text text-anchor="start" x="9" y="-256" font-family="Helvetica,sans-Serif" font-size="10.00">+</text>
<text text-anchor="start" x="26.5" y="-256" font-family="Helvetica,sans-Serif" font-size="10.00">logs_page_displays</text>
<text text-anchor="start" x="26.5" y="-245" font-family="Helvetica,sans-Serif" font-size="10.00">_recent_logs()</text>
<text text-anchor="start" x="9" y="-230" font-family="Helvetica,sans-Serif" font-size="10.00">+</text>
<text text-anchor="start" x="26.5" y="-230" font-family="Helvetica,sans-Serif" font-size="10.00">logs_page_handles</text>
<text text-anchor="start" x="26.5" y="-219" font-family="Helvetica,sans-Serif" font-size="10.00">_missing_log_file()</text>
<text text-anchor="start" x="9" y="-204" font-family="Helvetica,sans-Serif" font-size="10.00">+</text>
<text text-anchor="start" x="26.5" y="-204" font-family="Helvetica,sans-Serif" font-size="10.00">users_page_displays</text>
<text text-anchor="start" x="26.5" y="-193" font-family="Helvetica,sans-Serif" font-size="10.00">_professeurs_and_eleves()</text>
<text text-anchor="start" x="9" y="-178" font-family="Helvetica,sans-Serif" font-size="10.00">+</text>
<text text-anchor="start" x="26.5" y="-178" font-family="Helvetica,sans-Serif" font-size="10.00">createProfesseur_creates</text>
<text text-anchor="start" x="26.5" y="-167" font-family="Helvetica,sans-Serif" font-size="10.00">_new_professor()</text>
<text text-anchor="start" x="9" y="-152" font-family="Helvetica,sans-Serif" font-size="10.00">+</text>
<text text-anchor="start" x="26.5" y="-152" font-family="Helvetica,sans-Serif" font-size="10.00">createProfesseur_validates</text>
<text text-anchor="start" x="26.5" y="-141" font-family="Helvetica,sans-Serif" font-size="10.00">_required_fields()</text>
<text text-anchor="start" x="9" y="-126" font-family="Helvetica,sans-Serif" font-size="10.00">+</text>
<text text-anchor="start" x="26.5" y="-126" font-family="Helvetica,sans-Serif" font-size="10.00">createProfesseur_validates</text>
<text text-anchor="start" x="26.5" y="-115" font-family="Helvetica,sans-Serif" font-size="10.00">_unique_identifiant()</text>
<text text-anchor="start" x="9" y="-100" font-family="Helvetica,sans-Serif" font-size="10.00">+</text>
<text text-anchor="start" x="26.5" y="-100" font-family="Helvetica,sans-Serif" font-size="10.00">deleteProfesseur_deletes</text>
<text text-anchor="start" x="26.5" y="-89" font-family="Helvetica,sans-Serif" font-size="10.00">_professor_without_media()</text>
<text text-anchor="start" x="9" y="-74" font-family="Helvetica,sans-Serif" font-size="10.00">+</text>
<text text-anchor="start" x="26.5" y="-74" font-family="Helvetica,sans-Serif" font-size="10.00">deleteProfesseur_prevents</text>
<text text-anchor="start" x="26.5" y="-63" font-family="Helvetica,sans-Serif" font-size="10.00">_deletion_if_has_media()</text>
<text text-anchor="start" x="9" y="-48" font-family="Helvetica,sans-Serif" font-size="10.00">+</text>
<text text-anchor="start" x="26.5" y="-48" font-family="Helvetica,sans-Serif" font-size="10.00">createEleve_creates</text>
<text text-anchor="start" x="26.5" y="-37" font-family="Helvetica,sans-Serif" font-size="10.00">_new_student()</text>
<text text-anchor="start" x="26.5" y="-22" font-family="Helvetica,sans-Serif" font-size="10.00">et 15 de plus...</text>
<text text-anchor="start" x="9" y="-7" font-family="Helvetica,sans-Serif" font-size="10.00">#</text>
<text text-anchor="start" x="26.5" y="-7" font-family="Helvetica,sans-Serif" font-size="10.00">setUp()</text>
<polygon fill="#666666" stroke="#666666" points="0.5,-307 0.5,-307 177.5,-307 177.5,-307 0.5,-307"/>
<polygon fill="#666666" stroke="#666666" points="0.5,-292 0.5,-292 24.5,-292 24.5,-292 0.5,-292"/>
<polygon fill="#666666" stroke="#666666" points="24.5,-292 24.5,-292 177.5,-292 177.5,-292 24.5,-292"/>
<polygon fill="none" stroke="#666666" points="0,0 0,-324 177,-324 177,0 0,0"/>
</a>
</g>
</g>
<!-- Node2 -->
<g id="Node000002" class="node">
<title>Node2</title>
<g id="a_Node000002"><a xlink:href="classTests_1_1TestCase.html" target="_top" xlink:title=" ">
<polygon fill="white" stroke="transparent" points="129.5,-409 47.5,-409 47.5,-360 129.5,-360 129.5,-409"/>
<text text-anchor="start" x="52.5" y="-396.5" font-family="Helvetica,sans-Serif" font-size="10.00">Tests\TestCase</text>
<text text-anchor="start" x="86.5" y="-381.5" font-family="Helvetica,sans-Serif" font-size="10.00"> </text>
<text text-anchor="start" x="86.5" y="-366.5" font-family="Helvetica,sans-Serif" font-size="10.00"> </text>
<polygon fill="#666666" stroke="#666666" points="47.5,-391.5 47.5,-391.5 129.5,-391.5 129.5,-391.5 47.5,-391.5"/>
<polygon fill="#666666" stroke="#666666" points="47.5,-376.5 47.5,-376.5 129.5,-376.5 129.5,-376.5 47.5,-376.5"/>
<polygon fill="none" stroke="#666666" points="47.5,-360 47.5,-409 129.5,-409 129.5,-360 47.5,-360"/>
</a>
</g>
</g>
<!-- Node2&#45;&gt;Node1 -->
<g id="edge1_Node000001_Node000002" class="edge">
<title>Node2&#45;&gt;Node1</title>
<g id="a_edge1_Node000001_Node000002"><a xlink:title=" ">
<path fill="none" stroke="#63b8ff" d="M88.5,-349.79C88.5,-342.15 88.5,-333.55 88.5,-324.34"/>
<polygon fill="none" stroke="#63b8ff" points="85,-349.9 88.5,-359.9 92,-349.9 85,-349.9"/>
</a>
</g>
</g>
<!-- Node3 -->
<g id="Node000003" class="node">
<title>Node3</title>
<g id="a_Node000003"><a xlink:title=" ">
<polygon fill="white" stroke="transparent" points="127.5,-494 49.5,-494 49.5,-445 127.5,-445 127.5,-494"/>
<text text-anchor="start" x="54.5" y="-481.5" font-family="Helvetica,sans-Serif" font-size="10.00">BaseTestCase</text>
<text text-anchor="start" x="86.5" y="-466.5" font-family="Helvetica,sans-Serif" font-size="10.00"> </text>
<text text-anchor="start" x="86.5" y="-451.5" font-family="Helvetica,sans-Serif" font-size="10.00"> </text>
<polygon fill="#666666" stroke="#666666" points="49.5,-476.5 49.5,-476.5 127.5,-476.5 127.5,-476.5 49.5,-476.5"/>
<polygon fill="#666666" stroke="#666666" points="49.5,-461.5 49.5,-461.5 127.5,-461.5 127.5,-461.5 49.5,-461.5"/>
<polygon fill="none" stroke="#666666" points="49.5,-445 49.5,-494 127.5,-494 127.5,-445 49.5,-445"/>
</a>
</g>
</g>
<!-- Node3&#45;&gt;Node2 -->
<g id="edge2_Node000002_Node000003" class="edge">
<title>Node3&#45;&gt;Node2</title>
<g id="a_edge2_Node000002_Node000003"><a xlink:title=" ">
<path fill="none" stroke="#63b8ff" d="M88.5,-434.77C88.5,-426.17 88.5,-417.1 88.5,-409.12"/>
<polygon fill="none" stroke="#63b8ff" points="85,-434.94 88.5,-444.94 92,-434.94 85,-434.94"/>
</a>
</g>
</g>
</g>
</svg>
