<?xml version="1.0" encoding="UTF-8" standalone="no"?>
<!DOCTYPE svg PUBLIC "-//W3C//DTD SVG 1.1//EN"
 "http://www.w3.org/Graphics/SVG/1.1/DTD/svg11.dtd">
<!-- Generated by graphviz version 2.42.4 (0)
 -->
<!-- Title: App\Http\Controllers\SearchController Pages: 1 -->
<svg width="155pt" height="216pt"
 viewBox="0.00 0.00 155.00 216.00" xmlns="http://www.w3.org/2000/svg" xmlns:xlink="http://www.w3.org/1999/xlink">
<g id="graph0" class="graph" transform="scale(1 1) rotate(0) translate(4 212)">
<title>App\Http\Controllers\SearchController</title>
<!-- Node1 -->
<g id="Node000001" class="node">
<title>Node1</title>
<g id="a_Node000001"><a xlink:title=" ">
<polygon fill="#999999" stroke="transparent" points="147,-112 0,-112 0,0 147,0 147,-112"/>
<text text-anchor="start" x="24" y="-100" font-family="Helvetica,sans-Serif" font-size="10.00">App\Http\Controllers</text>
<text text-anchor="start" x="31.5" y="-89" font-family="Helvetica,sans-Serif" font-size="10.00">\SearchController</text>
<text text-anchor="start" x="4.5" y="-74" font-family="Helvetica,sans-Serif" font-size="10.00">#</text>
<text text-anchor="start" x="17.5" y="-74" font-family="Helvetica,sans-Serif" font-size="10.00">$mediaService</text>
<text text-anchor="start" x="4.5" y="-59" font-family="Helvetica,sans-Serif" font-size="10.00">+</text>
<text text-anchor="start" x="17.5" y="-59" font-family="Helvetica,sans-Serif" font-size="10.00">__construct(MediaService</text>
<text text-anchor="start" x="17.5" y="-48" font-family="Helvetica,sans-Serif" font-size="10.00"> $mediaService)</text>
<text text-anchor="start" x="4.5" y="-33" font-family="Helvetica,sans-Serif" font-size="10.00">+</text>
<text text-anchor="start" x="17.5" y="-33" font-family="Helvetica,sans-Serif" font-size="10.00">index(Request $request)</text>
<text text-anchor="start" x="4.5" y="-18" font-family="Helvetica,sans-Serif" font-size="10.00">+</text>
<text text-anchor="start" x="17.5" y="-18" font-family="Helvetica,sans-Serif" font-size="10.00">autocomplete(Request</text>
<text text-anchor="start" x="17.5" y="-7" font-family="Helvetica,sans-Serif" font-size="10.00"> $request)</text>
<polygon fill="#666666" stroke="#666666" points="0.5,-84 0.5,-84 147.5,-84 147.5,-84 0.5,-84"/>
<polygon fill="#666666" stroke="#666666" points="0.5,-69 0.5,-69 15.5,-69 15.5,-69 0.5,-69"/>
<polygon fill="#666666" stroke="#666666" points="15.5,-69 15.5,-69 147.5,-69 147.5,-69 15.5,-69"/>
<polygon fill="none" stroke="#666666" points="0,0 0,-112 147,-112 147,0 0,0"/>
</a>
</g>
</g>
<!-- Node2 -->
<g id="Node000002" class="node">
<title>Node2</title>
<g id="a_Node000002"><a xlink:href="classApp_1_1Http_1_1Controllers_1_1Controller.html" target="_top" xlink:title=" ">
<polygon fill="white" stroke="transparent" points="128.5,-208 18.5,-208 18.5,-148 128.5,-148 128.5,-208"/>
<text text-anchor="start" x="23.5" y="-196" font-family="Helvetica,sans-Serif" font-size="10.00">App\Http\Controllers</text>
<text text-anchor="start" x="47.5" y="-185" font-family="Helvetica,sans-Serif" font-size="10.00">\Controller</text>
<text text-anchor="start" x="71.5" y="-170" font-family="Helvetica,sans-Serif" font-size="10.00"> </text>
<text text-anchor="start" x="71.5" y="-155" font-family="Helvetica,sans-Serif" font-size="10.00"> </text>
<polygon fill="#666666" stroke="#666666" points="18.5,-180 18.5,-180 128.5,-180 128.5,-180 18.5,-180"/>
<polygon fill="#666666" stroke="#666666" points="18.5,-165 18.5,-165 128.5,-165 128.5,-165 18.5,-165"/>
<polygon fill="none" stroke="#666666" points="18.5,-148 18.5,-208 128.5,-208 128.5,-148 18.5,-148"/>
</a>
</g>
</g>
<!-- Node2&#45;&gt;Node1 -->
<g id="edge1_Node000001_Node000002" class="edge">
<title>Node2&#45;&gt;Node1</title>
<g id="a_edge1_Node000001_Node000002"><a xlink:title=" ">
<path fill="none" stroke="#63b8ff" d="M73.5,-137.88C73.5,-129.63 73.5,-120.78 73.5,-112.07"/>
<polygon fill="none" stroke="#63b8ff" points="70,-137.95 73.5,-147.95 77,-137.95 70,-137.95"/>
</a>
</g>
</g>
</g>
</svg>
