<?xml version="1.0" encoding="UTF-8" standalone="no"?>
<!DOCTYPE svg PUBLIC "-//W3C//DTD SVG 1.1//EN"
 "http://www.w3.org/Graphics/SVG/1.1/DTD/svg11.dtd">
<!-- Generated by graphviz version 2.42.4 (0)
 -->
<!-- Title: App\Services\MediaService\getMediaInfo Pages: 1 -->
<svg width="342pt" height="182pt"
 viewBox="0.00 0.00 342.00 182.00" xmlns="http://www.w3.org/2000/svg" xmlns:xlink="http://www.w3.org/1999/xlink">
<g id="graph0" class="graph" transform="scale(1 1) rotate(0) translate(4 178)">
<title>App\Services\MediaService\getMediaInfo</title>
<!-- Node1 -->
<g id="Node000001" class="node">
<title>Node1</title>
<g id="a_Node000001"><a xlink:title="Get complete information about a media.">
<polygon fill="#999999" stroke="#666666" points="149,-102 0,-102 0,-72 149,-72 149,-102"/>
<text text-anchor="start" x="8" y="-90" font-family="Helvetica,sans-Serif" font-size="10.00">App\Services\MediaService</text>
<text text-anchor="middle" x="74.5" y="-79" font-family="Helvetica,sans-Serif" font-size="10.00">\getMediaInfo</text>
</a>
</g>
</g>
<!-- Node2 -->
<g id="Node000002" class="node">
<title>Node2</title>
<g id="a_Node000002"><a xlink:href="classApp_1_1Services_1_1MediaService.html#a42c1eb749472be378c0aae98fa0f65ee" target="_top" xlink:title="Extract video title from filename Format: YEAR_PROJECT_TITLE.ext.">
<polygon fill="white" stroke="#666666" points="334,-174 185,-174 185,-144 334,-144 334,-174"/>
<text text-anchor="start" x="193" y="-162" font-family="Helvetica,sans-Serif" font-size="10.00">App\Services\MediaService</text>
<text text-anchor="middle" x="259.5" y="-151" font-family="Helvetica,sans-Serif" font-size="10.00">\extractVideoTitle</text>
</a>
</g>
</g>
<!-- Node1&#45;&gt;Node2 -->
<g id="edge1_Node000001_Node000002" class="edge">
<title>Node1&#45;&gt;Node2</title>
<g id="a_edge1_Node000001_Node000002"><a xlink:title=" ">
<path fill="none" stroke="#63b8ff" d="M107.74,-102.12C129.37,-112.02 158.62,-124.94 185,-135 190.02,-136.91 195.26,-138.81 200.54,-140.66"/>
<polygon fill="#63b8ff" stroke="#63b8ff" points="199.44,-143.98 210.03,-143.92 201.71,-137.36 199.44,-143.98"/>
</a>
</g>
</g>
<!-- Node3 -->
<g id="Node000003" class="node">
<title>Node3</title>
<g id="a_Node000003"><a xlink:href="classApp_1_1Services_1_1MediaService.html#ad21fa960ad71133c6a04130b9d0dd78c" target="_top" xlink:title="Format participations for display.">
<polygon fill="white" stroke="#666666" points="334,-126 185,-126 185,-96 334,-96 334,-126"/>
<text text-anchor="start" x="193" y="-114" font-family="Helvetica,sans-Serif" font-size="10.00">App\Services\MediaService</text>
<text text-anchor="middle" x="259.5" y="-103" font-family="Helvetica,sans-Serif" font-size="10.00">\formatParticipations</text>
</a>
</g>
</g>
<!-- Node1&#45;&gt;Node3 -->
<g id="edge2_Node000001_Node000003" class="edge">
<title>Node1&#45;&gt;Node3</title>
<g id="a_edge2_Node000001_Node000003"><a xlink:title=" ">
<path fill="none" stroke="#63b8ff" d="M149.14,-96.66C157.57,-97.76 166.2,-98.89 174.74,-100.02"/>
<polygon fill="#63b8ff" stroke="#63b8ff" points="174.34,-103.49 184.71,-101.32 175.25,-96.55 174.34,-103.49"/>
</a>
</g>
</g>
<!-- Node4 -->
<g id="Node000004" class="node">
<title>Node4</title>
<g id="a_Node000004"><a xlink:href="classApp_1_1Services_1_1MediaService.html#ad986ec9555250ab831c14f1950ff203d" target="_top" xlink:title="Extract technical metadata from video via FTP without downloading.">
<polygon fill="white" stroke="#666666" points="334,-78 185,-78 185,-48 334,-48 334,-78"/>
<text text-anchor="start" x="193" y="-66" font-family="Helvetica,sans-Serif" font-size="10.00">App\Services\MediaService</text>
<text text-anchor="middle" x="259.5" y="-55" font-family="Helvetica,sans-Serif" font-size="10.00">\getTechnicalMetadata</text>
</a>
</g>
</g>
<!-- Node1&#45;&gt;Node4 -->
<g id="edge3_Node000001_Node000004" class="edge">
<title>Node1&#45;&gt;Node4</title>
<g id="a_edge3_Node000001_Node000004"><a xlink:title=" ">
<path fill="none" stroke="#63b8ff" d="M149.14,-77.34C157.57,-76.24 166.2,-75.11 174.74,-73.98"/>
<polygon fill="#63b8ff" stroke="#63b8ff" points="175.25,-77.45 184.71,-72.68 174.34,-70.51 175.25,-77.45"/>
</a>
</g>
</g>
<!-- Node5 -->
<g id="Node000005" class="node">
<title>Node5</title>
<g id="a_Node000005"><a xlink:href="classApp_1_1Services_1_1MediaService.html#a590b373c091be0fb7250c44225f8872e" target="_top" xlink:title="Sanitize string for display: remove newlines.">
<polygon fill="white" stroke="#666666" points="334,-30 185,-30 185,0 334,0 334,-30"/>
<text text-anchor="start" x="193" y="-18" font-family="Helvetica,sans-Serif" font-size="10.00">App\Services\MediaService</text>
<text text-anchor="middle" x="259.5" y="-7" font-family="Helvetica,sans-Serif" font-size="10.00">\sanitizeForDisplay</text>
</a>
</g>
</g>
<!-- Node1&#45;&gt;Node5 -->
<g id="edge4_Node000001_Node000005" class="edge">
<title>Node1&#45;&gt;Node5</title>
<g id="a_edge4_Node000001_Node000005"><a xlink:title=" ">
<path fill="none" stroke="#63b8ff" d="M107.74,-71.88C129.37,-61.98 158.62,-49.06 185,-39 190.02,-37.09 195.26,-35.19 200.54,-33.34"/>
<polygon fill="#63b8ff" stroke="#63b8ff" points="201.71,-36.64 210.03,-30.08 199.44,-30.02 201.71,-36.64"/>
</a>
</g>
</g>
</g>
</svg>
