<?xml version="1.0" encoding="UTF-8" standalone="no"?>
<!DOCTYPE svg PUBLIC "-//W3C//DTD SVG 1.1//EN"
 "http://www.w3.org/Graphics/SVG/1.1/DTD/svg11.dtd">
<!-- Generated by graphviz version 2.42.4 (0)
 -->
<!-- Title: Tests\Feature\FileExplorerControllerTest Pages: 1 -->
<svg width="162pt" height="368pt"
 viewBox="0.00 0.00 162.00 368.00" xmlns="http://www.w3.org/2000/svg" xmlns:xlink="http://www.w3.org/1999/xlink">
<g id="graph0" class="graph" transform="scale(1 1) rotate(0) translate(4 364)">
<title>Tests\Feature\FileExplorerControllerTest</title>
<!-- Node1 -->
<g id="Node000001" class="node">
<title>Node1</title>
<g id="a_Node000001"><a xlink:title=" ">
<polygon fill="#999999" stroke="transparent" points="154,-190 0,-190 0,0 154,0 154,-190"/>
<text text-anchor="start" x="14" y="-178" font-family="Helvetica,sans-Serif" font-size="10.00">Tests\Feature\FileExplorer</text>
<text text-anchor="start" x="43" y="-167" font-family="Helvetica,sans-Serif" font-size="10.00">ControllerTest</text>
<text text-anchor="start" x="75" y="-152" font-family="Helvetica,sans-Serif" font-size="10.00"> </text>
<text text-anchor="start" x="4" y="-137" font-family="Helvetica,sans-Serif" font-size="10.00">+</text>
<text text-anchor="start" x="17" y="-137" font-family="Helvetica,sans-Serif" font-size="10.00">scan_aborts_for_invalid</text>
<text text-anchor="start" x="17" y="-126" font-family="Helvetica,sans-Serif" font-size="10.00">_disk()</text>
<text text-anchor="start" x="4" y="-111" font-family="Helvetica,sans-Serif" font-size="10.00">+</text>
<text text-anchor="start" x="17" y="-111" font-family="Helvetica,sans-Serif" font-size="10.00">start_scan_dispatches</text>
<text text-anchor="start" x="17" y="-100" font-family="Helvetica,sans-Serif" font-size="10.00">_job_and_returns_scan_id()</text>
<text text-anchor="start" x="4" y="-85" font-family="Helvetica,sans-Serif" font-size="10.00">+</text>
<text text-anchor="start" x="17" y="-85" font-family="Helvetica,sans-Serif" font-size="10.00">scan_status_returns</text>
<text text-anchor="start" x="17" y="-74" font-family="Helvetica,sans-Serif" font-size="10.00">_correct_values()</text>
<text text-anchor="start" x="4" y="-59" font-family="Helvetica,sans-Serif" font-size="10.00">+</text>
<text text-anchor="start" x="17" y="-59" font-family="Helvetica,sans-Serif" font-size="10.00">scan_results_returns</text>
<text text-anchor="start" x="17" y="-48" font-family="Helvetica,sans-Serif" font-size="10.00">_empty_if_not_done()</text>
<text text-anchor="start" x="4" y="-33" font-family="Helvetica,sans-Serif" font-size="10.00">+</text>
<text text-anchor="start" x="17" y="-33" font-family="Helvetica,sans-Serif" font-size="10.00">scan_results_returns</text>
<text text-anchor="start" x="17" y="-22" font-family="Helvetica,sans-Serif" font-size="10.00">_processed_data()</text>
<text text-anchor="start" x="4" y="-7" font-family="Helvetica,sans-Serif" font-size="10.00">#</text>
<text text-anchor="start" x="17" y="-7" font-family="Helvetica,sans-Serif" font-size="10.00">setUp()</text>
<polygon fill="#666666" stroke="#666666" points="0,-162 0,-162 154,-162 154,-162 0,-162"/>
<polygon fill="#666666" stroke="#666666" points="0,-147 0,-147 154,-147 154,-147 0,-147"/>
<polygon fill="none" stroke="#666666" points="0,0 0,-190 154,-190 154,0 0,0"/>
</a>
</g>
</g>
<!-- Node2 -->
<g id="Node000002" class="node">
<title>Node2</title>
<g id="a_Node000002"><a xlink:href="classTests_1_1TestCase.html" target="_top" xlink:title=" ">
<polygon fill="white" stroke="transparent" points="118,-275 36,-275 36,-226 118,-226 118,-275"/>
<text text-anchor="start" x="41" y="-262.5" font-family="Helvetica,sans-Serif" font-size="10.00">Tests\TestCase</text>
<text text-anchor="start" x="75" y="-247.5" font-family="Helvetica,sans-Serif" font-size="10.00"> </text>
<text text-anchor="start" x="75" y="-232.5" font-family="Helvetica,sans-Serif" font-size="10.00"> </text>
<polygon fill="#666666" stroke="#666666" points="36,-257.5 36,-257.5 118,-257.5 118,-257.5 36,-257.5"/>
<polygon fill="#666666" stroke="#666666" points="36,-242.5 36,-242.5 118,-242.5 118,-242.5 36,-242.5"/>
<polygon fill="none" stroke="#666666" points="36,-226 36,-275 118,-275 118,-226 36,-226"/>
</a>
</g>
</g>
<!-- Node2&#45;&gt;Node1 -->
<g id="edge1_Node000001_Node000002" class="edge">
<title>Node2&#45;&gt;Node1</title>
<g id="a_edge1_Node000001_Node000002"><a xlink:title=" ">
<path fill="none" stroke="#63b8ff" d="M77,-215.74C77,-207.88 77,-199.14 77,-190.05"/>
<polygon fill="none" stroke="#63b8ff" points="73.5,-215.85 77,-225.85 80.5,-215.85 73.5,-215.85"/>
</a>
</g>
</g>
<!-- Node3 -->
<g id="Node000003" class="node">
<title>Node3</title>
<g id="a_Node000003"><a xlink:title=" ">
<polygon fill="white" stroke="transparent" points="116,-360 38,-360 38,-311 116,-311 116,-360"/>
<text text-anchor="start" x="43" y="-347.5" font-family="Helvetica,sans-Serif" font-size="10.00">BaseTestCase</text>
<text text-anchor="start" x="75" y="-332.5" font-family="Helvetica,sans-Serif" font-size="10.00"> </text>
<text text-anchor="start" x="75" y="-317.5" font-family="Helvetica,sans-Serif" font-size="10.00"> </text>
<polygon fill="#666666" stroke="#666666" points="38,-342.5 38,-342.5 116,-342.5 116,-342.5 38,-342.5"/>
<polygon fill="#666666" stroke="#666666" points="38,-327.5 38,-327.5 116,-327.5 116,-327.5 38,-327.5"/>
<polygon fill="none" stroke="#666666" points="38,-311 38,-360 116,-360 116,-311 38,-311"/>
</a>
</g>
</g>
<!-- Node3&#45;&gt;Node2 -->
<g id="edge2_Node000002_Node000003" class="edge">
<title>Node3&#45;&gt;Node2</title>
<g id="a_edge2_Node000002_Node000003"><a xlink:title=" ">
<path fill="none" stroke="#63b8ff" d="M77,-300.77C77,-292.17 77,-283.1 77,-275.12"/>
<polygon fill="none" stroke="#63b8ff" points="73.5,-300.94 77,-310.94 80.5,-300.94 73.5,-300.94"/>
</a>
</g>
</g>
</g>
</svg>
