<?xml version="1.0" encoding="UTF-8" standalone="no"?>
<!DOCTYPE svg PUBLIC "-//W3C//DTD SVG 1.1//EN"
 "http://www.w3.org/Graphics/SVG/1.1/DTD/svg11.dtd">
<!-- Generated by graphviz version 2.42.4 (0)
 -->
<!-- Title: Tests\Feature\FileExplorerServiceTest Pages: 1 -->
<svg width="156pt" height="394pt"
 viewBox="0.00 0.00 156.00 394.00" xmlns="http://www.w3.org/2000/svg" xmlns:xlink="http://www.w3.org/1999/xlink">
<g id="graph0" class="graph" transform="scale(1 1) rotate(0) translate(4 390)">
<title>Tests\Feature\FileExplorerServiceTest</title>
<!-- Node1 -->
<g id="Node000001" class="node">
<title>Node1</title>
<g id="a_Node000001"><a xlink:title=" ">
<polygon fill="#999999" stroke="transparent" points="148,-216 0,-216 0,0 148,0 148,-216"/>
<text text-anchor="start" x="11" y="-204" font-family="Helvetica,sans-Serif" font-size="10.00">Tests\Feature\FileExplorer</text>
<text text-anchor="start" x="46" y="-193" font-family="Helvetica,sans-Serif" font-size="10.00">ServiceTest</text>
<text text-anchor="start" x="4" y="-178" font-family="Helvetica,sans-Serif" font-size="10.00">#</text>
<text text-anchor="start" x="17" y="-178" font-family="Helvetica,sans-Serif" font-size="10.00">string $tempDir</text>
<text text-anchor="start" x="4" y="-163" font-family="Helvetica,sans-Serif" font-size="10.00">+</text>
<text text-anchor="start" x="17" y="-163" font-family="Helvetica,sans-Serif" font-size="10.00">scanDisk_returns_empty</text>
<text text-anchor="start" x="17" y="-152" font-family="Helvetica,sans-Serif" font-size="10.00">_for_empty_directory()</text>
<text text-anchor="start" x="4" y="-137" font-family="Helvetica,sans-Serif" font-size="10.00">+</text>
<text text-anchor="start" x="17" y="-137" font-family="Helvetica,sans-Serif" font-size="10.00">scanDisk_returns_folders</text>
<text text-anchor="start" x="17" y="-126" font-family="Helvetica,sans-Serif" font-size="10.00">_and_videos_only()</text>
<text text-anchor="start" x="4" y="-111" font-family="Helvetica,sans-Serif" font-size="10.00">+</text>
<text text-anchor="start" x="17" y="-111" font-family="Helvetica,sans-Serif" font-size="10.00">scanDisk_handles_laravel</text>
<text text-anchor="start" x="17" y="-100" font-family="Helvetica,sans-Serif" font-size="10.00">_disks()</text>
<text text-anchor="start" x="4" y="-85" font-family="Helvetica,sans-Serif" font-size="10.00">+</text>
<text text-anchor="start" x="17" y="-85" font-family="Helvetica,sans-Serif" font-size="10.00">scanDiskRecursive</text>
<text text-anchor="start" x="17" y="-74" font-family="Helvetica,sans-Serif" font-size="10.00">_calls_callback_for</text>
<text text-anchor="start" x="17" y="-63" font-family="Helvetica,sans-Serif" font-size="10.00">_all_items()</text>
<text text-anchor="start" x="4" y="-48" font-family="Helvetica,sans-Serif" font-size="10.00">+</text>
<text text-anchor="start" x="17" y="-48" font-family="Helvetica,sans-Serif" font-size="10.00">isVideo_returns_true</text>
<text text-anchor="start" x="17" y="-37" font-family="Helvetica,sans-Serif" font-size="10.00">_for_video_extensions()</text>
<text text-anchor="start" x="4" y="-22" font-family="Helvetica,sans-Serif" font-size="10.00">#</text>
<text text-anchor="start" x="17" y="-22" font-family="Helvetica,sans-Serif" font-size="10.00">setUp()</text>
<text text-anchor="start" x="4" y="-7" font-family="Helvetica,sans-Serif" font-size="10.00">#</text>
<text text-anchor="start" x="17" y="-7" font-family="Helvetica,sans-Serif" font-size="10.00">tearDown()</text>
<polygon fill="#666666" stroke="#666666" points="0,-188 0,-188 148,-188 148,-188 0,-188"/>
<polygon fill="#666666" stroke="#666666" points="0,-173 0,-173 15,-173 15,-173 0,-173"/>
<polygon fill="#666666" stroke="#666666" points="15,-173 15,-173 148,-173 148,-173 15,-173"/>
<polygon fill="none" stroke="#666666" points="0,0 0,-216 148,-216 148,0 0,0"/>
</a>
</g>
</g>
<!-- Node2 -->
<g id="Node000002" class="node">
<title>Node2</title>
<g id="a_Node000002"><a xlink:href="classTests_1_1TestCase.html" target="_top" xlink:title=" ">
<polygon fill="white" stroke="transparent" points="115,-301 33,-301 33,-252 115,-252 115,-301"/>
<text text-anchor="start" x="38" y="-288.5" font-family="Helvetica,sans-Serif" font-size="10.00">Tests\TestCase</text>
<text text-anchor="start" x="72" y="-273.5" font-family="Helvetica,sans-Serif" font-size="10.00"> </text>
<text text-anchor="start" x="72" y="-258.5" font-family="Helvetica,sans-Serif" font-size="10.00"> </text>
<polygon fill="#666666" stroke="#666666" points="33,-283.5 33,-283.5 115,-283.5 115,-283.5 33,-283.5"/>
<polygon fill="#666666" stroke="#666666" points="33,-268.5 33,-268.5 115,-268.5 115,-268.5 33,-268.5"/>
<polygon fill="none" stroke="#666666" points="33,-252 33,-301 115,-301 115,-252 33,-252"/>
</a>
</g>
</g>
<!-- Node2&#45;&gt;Node1 -->
<g id="edge1_Node000001_Node000002" class="edge">
<title>Node2&#45;&gt;Node1</title>
<g id="a_edge1_Node000001_Node000002"><a xlink:title=" ">
<path fill="none" stroke="#63b8ff" d="M74,-241.92C74,-234.06 74,-225.28 74,-216.08"/>
<polygon fill="none" stroke="#63b8ff" points="70.5,-242 74,-252 77.5,-242 70.5,-242"/>
</a>
</g>
</g>
<!-- Node3 -->
<g id="Node000003" class="node">
<title>Node3</title>
<g id="a_Node000003"><a xlink:title=" ">
<polygon fill="white" stroke="transparent" points="113,-386 35,-386 35,-337 113,-337 113,-386"/>
<text text-anchor="start" x="40" y="-373.5" font-family="Helvetica,sans-Serif" font-size="10.00">BaseTestCase</text>
<text text-anchor="start" x="72" y="-358.5" font-family="Helvetica,sans-Serif" font-size="10.00"> </text>
<text text-anchor="start" x="72" y="-343.5" font-family="Helvetica,sans-Serif" font-size="10.00"> </text>
<polygon fill="#666666" stroke="#666666" points="35,-368.5 35,-368.5 113,-368.5 113,-368.5 35,-368.5"/>
<polygon fill="#666666" stroke="#666666" points="35,-353.5 35,-353.5 113,-353.5 113,-353.5 35,-353.5"/>
<polygon fill="none" stroke="#666666" points="35,-337 35,-386 113,-386 113,-337 35,-337"/>
</a>
</g>
</g>
<!-- Node3&#45;&gt;Node2 -->
<g id="edge2_Node000002_Node000003" class="edge">
<title>Node3&#45;&gt;Node2</title>
<g id="a_edge2_Node000002_Node000003"><a xlink:title=" ">
<path fill="none" stroke="#63b8ff" d="M74,-326.77C74,-318.17 74,-309.1 74,-301.12"/>
<polygon fill="none" stroke="#63b8ff" points="70.5,-326.94 74,-336.94 77.5,-326.94 70.5,-326.94"/>
</a>
</g>
</g>
</g>
</svg>
