<?xml version="1.0" encoding="UTF-8" standalone="no"?>
<!DOCTYPE svg PUBLIC "-//W3C//DTD SVG 1.1//EN"
 "http://www.w3.org/Graphics/SVG/1.1/DTD/svg11.dtd">
<!-- Generated by graphviz version 2.42.4 (0)
 -->
<!-- Title: App\Http\Controllers\TransfertController Pages: 1 -->
<svg width="171pt" height="272pt"
 viewBox="0.00 0.00 171.00 272.00" xmlns="http://www.w3.org/2000/svg" xmlns:xlink="http://www.w3.org/1999/xlink">

<svg id="main" version="1.1" xmlns="http://www.w3.org/2000/svg" xmlns:xlink="http://www.w3.org/1999/xlink" xml:space="preserve" onload="init(evt)">
<style type="text/css"><![CDATA[
.node, .edge {opacity: 0.7;}
.node.selected, .edge.selected {opacity: 1;}
.edge:hover path { stroke: red; }
.edge:hover polygon { stroke: red; fill: red; }
]]></style>
<script type="application/ecmascript" xlink:href="svg.min.js"/>
<svg id="graph" class="graph">
<g id="graph0" class="graph" transform="scale(1 1) rotate(0) translate(4 268)">
<title>App\Http\Controllers\TransfertController</title>
<!-- Node1 -->
<g id="Node000001" class="node">
<title>Node1</title>
<g id="a_Node000001"><a xlink:title=" ">
<polygon fill="#999999" stroke="transparent" points="163,-168 0,-168 0,0 163,0 163,-168"/>
<text text-anchor="start" x="32" y="-156" font-family="Helvetica,sans-Serif" font-size="10.00">App\Http\Controllers</text>
<text text-anchor="start" x="35" y="-145" font-family="Helvetica,sans-Serif" font-size="10.00">\TransfertController</text>
<text text-anchor="start" x="4.5" y="-130" font-family="Helvetica,sans-Serif" font-size="10.00">#</text>
<text text-anchor="start" x="17.5" y="-130" font-family="Helvetica,sans-Serif" font-size="10.00">$ffastrans</text>
<text text-anchor="start" x="4.5" y="-115" font-family="Helvetica,sans-Serif" font-size="10.00">+</text>
<text text-anchor="start" x="17.5" y="-115" font-family="Helvetica,sans-Serif" font-size="10.00">__construct(FfastransService</text>
<text text-anchor="start" x="17.5" y="-104" font-family="Helvetica,sans-Serif" font-size="10.00"> $ffastrans)</text>
<text text-anchor="start" x="4.5" y="-89" font-family="Helvetica,sans-Serif" font-size="10.00">+</text>
<text text-anchor="start" x="17.5" y="-89" font-family="Helvetica,sans-Serif" font-size="10.00">index()</text>
<text text-anchor="start" x="4.5" y="-74" font-family="Helvetica,sans-Serif" font-size="10.00">+</text>
<text text-anchor="start" x="17.5" y="-74" font-family="Helvetica,sans-Serif" font-size="10.00">list(FfastransService</text>
<text text-anchor="start" x="17.5" y="-63" font-family="Helvetica,sans-Serif" font-size="10.00"> $ffastrans)</text>
<text text-anchor="start" x="4.5" y="-48" font-family="Helvetica,sans-Serif" font-size="10.00">+</text>
<text text-anchor="start" x="17.5" y="-48" font-family="Helvetica,sans-Serif" font-size="10.00">startJob(Request </text>
<text text-anchor="start" x="17.5" y="-37" font-family="Helvetica,sans-Serif" font-size="10.00">$request)</text>
<text text-anchor="start" x="4.5" y="-22" font-family="Helvetica,sans-Serif" font-size="10.00">+</text>
<text text-anchor="start" x="17.5" y="-22" font-family="Helvetica,sans-Serif" font-size="10.00">checkStatus($jobId)</text>
<text text-anchor="start" x="4.5" y="-7" font-family="Helvetica,sans-Serif" font-size="10.00">+</text>
<text text-anchor="start" x="17.5" y="-7" font-family="Helvetica,sans-Serif" font-size="10.00">cancel($jobId)</text>
<polygon fill="#666666" stroke="#666666" points="0.5,-140 0.5,-140 163.5,-140 163.5,-140 0.5,-140"/>
<polygon fill="#666666" stroke="#666666" points="0.5,-125 0.5,-125 15.5,-125 15.5,-125 0.5,-125"/>
<polygon fill="#666666" stroke="#666666" points="15.5,-125 15.5,-125 163.5,-125 163.5,-125 15.5,-125"/>
<polygon fill="none" stroke="#666666" points="0,0 0,-168 163,-168 163,0 0,0"/>
</a>
</g>
</g>
<!-- Node2 -->
<g id="Node000002" class="node">
<title>Node2</title>
<g id="a_Node000002"><a xlink:href="classApp_1_1Http_1_1Controllers_1_1Controller.html" target="_top" xlink:title=" ">
<polygon fill="white" stroke="transparent" points="136.5,-264 26.5,-264 26.5,-204 136.5,-204 136.5,-264"/>
<text text-anchor="start" x="31.5" y="-252" font-family="Helvetica,sans-Serif" font-size="10.00">App\Http\Controllers</text>
<text text-anchor="start" x="55.5" y="-241" font-family="Helvetica,sans-Serif" font-size="10.00">\Controller</text>
<text text-anchor="start" x="79.5" y="-226" font-family="Helvetica,sans-Serif" font-size="10.00"> </text>
<text text-anchor="start" x="79.5" y="-211" font-family="Helvetica,sans-Serif" font-size="10.00"> </text>
<polygon fill="#666666" stroke="#666666" points="26.5,-236 26.5,-236 136.5,-236 136.5,-236 26.5,-236"/>
<polygon fill="#666666" stroke="#666666" points="26.5,-221 26.5,-221 136.5,-221 136.5,-221 26.5,-221"/>
<polygon fill="none" stroke="#666666" points="26.5,-204 26.5,-264 136.5,-264 136.5,-204 26.5,-204"/>
</a>
</g>
</g>
<!-- Node2&#45;&gt;Node1 -->
<g id="edge1_Node000001_Node000002" class="edge">
<title>Node2&#45;&gt;Node1</title>
<g id="a_edge1_Node000001_Node000002"><a xlink:title=" ">
<path fill="none" stroke="#63b8ff" d="M81.5,-193.72C81.5,-185.75 81.5,-177.09 81.5,-168.24"/>
<polygon fill="none" stroke="#63b8ff" points="78,-193.76 81.5,-203.76 85,-193.76 78,-193.76"/>
</a>
</g>
</g>
</g>
</svg>
</svg>

<style type='text/css'>
<![CDATA[
[data-mouse-over-selected='false'] { opacity: 0.7; }
[data-mouse-over-selected='true']  { opacity: 1.0; }
]]>
</style>
<script type="application/ecmascript"><![CDATA[
document.addEventListener('DOMContentLoaded', (event) => {
  highlightEdges();
  highlightAdjacentNodes();
});
]]></script>
</svg>
