<?xml version="1.0" encoding="UTF-8" standalone="no"?>
<!DOCTYPE svg PUBLIC "-//W3C//DTD SVG 1.1//EN"
 "http://www.w3.org/Graphics/SVG/1.1/DTD/svg11.dtd">
<!-- Generated by graphviz version 2.42.4 (0)
 -->
<!-- Title: App\Http\Requests\Auth\LoginRequest\ensureIsNotRateLimited Pages: 1 -->
<svg width="627pt" height="49pt"
 viewBox="0.00 0.00 627.00 49.00" xmlns="http://www.w3.org/2000/svg" xmlns:xlink="http://www.w3.org/1999/xlink">
<g id="graph0" class="graph" transform="scale(1 1) rotate(0) translate(4 45)">
<title>App\Http\Requests\Auth\LoginRequest\ensureIsNotRateLimited</title>
<!-- Node1 -->
<g id="Node000001" class="node">
<title>Node1</title>
<g id="a_Node000001"><a xlink:title="Ensure the login request is not rate limited.">
<polygon fill="#999999" stroke="#666666" points="619,-41 449,-41 449,0 619,0 619,-41"/>
<text text-anchor="start" x="457" y="-29" font-family="Helvetica,sans-Serif" font-size="10.00">App\Http\Requests\Auth</text>
<text text-anchor="start" x="457" y="-18" font-family="Helvetica,sans-Serif" font-size="10.00">\LoginRequest\ensureIsNotRate</text>
<text text-anchor="middle" x="534" y="-7" font-family="Helvetica,sans-Serif" font-size="10.00">Limited</text>
</a>
</g>
</g>
<!-- Node2 -->
<g id="Node000002" class="node">
<title>Node2</title>
<g id="a_Node000002"><a xlink:href="classApp_1_1Http_1_1Requests_1_1Auth_1_1LoginRequest.html#a7be4cc5f6c415464b716807cc1b862ce" target="_top" xlink:title="Attempt to authenticate the request&#39;s credentials.">
<polygon fill="white" stroke="#666666" points="413,-35.5 263,-35.5 263,-5.5 413,-5.5 413,-35.5"/>
<text text-anchor="start" x="271" y="-23.5" font-family="Helvetica,sans-Serif" font-size="10.00">App\Http\Requests\Auth</text>
<text text-anchor="middle" x="338" y="-12.5" font-family="Helvetica,sans-Serif" font-size="10.00">\LoginRequest\authenticate</text>
</a>
</g>
</g>
<!-- Node1&#45;&gt;Node2 -->
<g id="edge1_Node000001_Node000002" class="edge">
<title>Node1&#45;&gt;Node2</title>
<g id="a_edge1_Node000001_Node000002"><a xlink:title=" ">
<path fill="none" stroke="#63b8ff" d="M438.7,-20.5C430.11,-20.5 421.5,-20.5 413.12,-20.5"/>
<polygon fill="#63b8ff" stroke="#63b8ff" points="438.76,-24 448.76,-20.5 438.76,-17 438.76,-24"/>
</a>
</g>
</g>
<!-- Node3 -->
<g id="Node000003" class="node">
<title>Node3</title>
<g id="a_Node000003"><a xlink:href="classApp_1_1Http_1_1Controllers_1_1Auth_1_1AuthenticatedSessionController.html#a0c8e698ebd6dd5f91721d442f53dbe66" target="_top" xlink:title="Handle an incoming authentication request.">
<polygon fill="white" stroke="#666666" points="227,-35.5 0,-35.5 0,-5.5 227,-5.5 227,-35.5"/>
<text text-anchor="start" x="8" y="-23.5" font-family="Helvetica,sans-Serif" font-size="10.00">App\Http\Controllers</text>
<text text-anchor="middle" x="113.5" y="-12.5" font-family="Helvetica,sans-Serif" font-size="10.00">\Auth\AuthenticatedSessionController\store</text>
</a>
</g>
</g>
<!-- Node2&#45;&gt;Node3 -->
<g id="edge2_Node000002_Node000003" class="edge">
<title>Node2&#45;&gt;Node3</title>
<g id="a_edge2_Node000002_Node000003"><a xlink:title=" ">
<path fill="none" stroke="#63b8ff" d="M252.8,-20.5C244.41,-20.5 235.8,-20.5 227.18,-20.5"/>
<polygon fill="#63b8ff" stroke="#63b8ff" points="252.91,-24 262.91,-20.5 252.91,-17 252.91,-24"/>
</a>
</g>
</g>
</g>
</svg>
