<?xml version="1.0" encoding="UTF-8" standalone="no"?>
<!DOCTYPE svg PUBLIC "-//W3C//DTD SVG 1.1//EN"
 "http://www.w3.org/Graphics/SVG/1.1/DTD/svg11.dtd">
<!-- Generated by graphviz version 2.42.4 (0)
 -->
<!-- Title: Tests\Feature\SearchMediaTest Pages: 1 -->
<svg width="171pt" height="390pt"
 viewBox="0.00 0.00 171.00 390.00" xmlns="http://www.w3.org/2000/svg" xmlns:xlink="http://www.w3.org/1999/xlink">
<g id="graph0" class="graph" transform="scale(1 1) rotate(0) translate(4 386)">
<title>Tests\Feature\SearchMediaTest</title>
<!-- Node1 -->
<g id="Node000001" class="node">
<title>Node1</title>
<g id="a_Node000001"><a xlink:title=" ">
<polygon fill="#999999" stroke="transparent" points="163,-212 0,-212 0,0 163,0 163,-212"/>
<text text-anchor="start" x="6.5" y="-200" font-family="Helvetica,sans-Serif" font-size="10.00">Tests\Feature\SearchMediaTest</text>
<text text-anchor="start" x="80" y="-185" font-family="Helvetica,sans-Serif" font-size="10.00"> </text>
<text text-anchor="start" x="4.5" y="-170" font-family="Helvetica,sans-Serif" font-size="10.00">+</text>
<text text-anchor="start" x="17.5" y="-170" font-family="Helvetica,sans-Serif" font-size="10.00">devrait_afficher_un</text>
<text text-anchor="start" x="17.5" y="-159" font-family="Helvetica,sans-Serif" font-size="10.00">_media_lorsque_le_titre</text>
<text text-anchor="start" x="17.5" y="-148" font-family="Helvetica,sans-Serif" font-size="10.00">_correspond_au_mot_cle()</text>
<text text-anchor="start" x="4.5" y="-133" font-family="Helvetica,sans-Serif" font-size="10.00">+</text>
<text text-anchor="start" x="17.5" y="-133" font-family="Helvetica,sans-Serif" font-size="10.00">devrait_filtrer_les</text>
<text text-anchor="start" x="17.5" y="-122" font-family="Helvetica,sans-Serif" font-size="10.00">_medias_par_projet()</text>
<text text-anchor="start" x="4.5" y="-107" font-family="Helvetica,sans-Serif" font-size="10.00">+</text>
<text text-anchor="start" x="17.5" y="-107" font-family="Helvetica,sans-Serif" font-size="10.00">devrait_trouver_un</text>
<text text-anchor="start" x="17.5" y="-96" font-family="Helvetica,sans-Serif" font-size="10.00">_media_en_tapant_le</text>
<text text-anchor="start" x="17.5" y="-85" font-family="Helvetica,sans-Serif" font-size="10.00">_nom_du_prof_dans_la</text>
<text text-anchor="start" x="17.5" y="-74" font-family="Helvetica,sans-Serif" font-size="10.00">_barre_de_recherche()</text>
<text text-anchor="start" x="4.5" y="-59" font-family="Helvetica,sans-Serif" font-size="10.00">+</text>
<text text-anchor="start" x="17.5" y="-59" font-family="Helvetica,sans-Serif" font-size="10.00">devrait_filtrer_les</text>
<text text-anchor="start" x="17.5" y="-48" font-family="Helvetica,sans-Serif" font-size="10.00">_medias_par_id_professeur()</text>
<text text-anchor="start" x="4.5" y="-33" font-family="Helvetica,sans-Serif" font-size="10.00">+</text>
<text text-anchor="start" x="17.5" y="-33" font-family="Helvetica,sans-Serif" font-size="10.00">devrait_filtrer_les</text>
<text text-anchor="start" x="17.5" y="-22" font-family="Helvetica,sans-Serif" font-size="10.00">_medias_par_promotion()</text>
<text text-anchor="start" x="7" y="-7" font-family="Helvetica,sans-Serif" font-size="10.00">&#45;</text>
<text text-anchor="start" x="17.5" y="-7" font-family="Helvetica,sans-Serif" font-size="10.00">logTest($message)</text>
<polygon fill="#666666" stroke="#666666" points="0.5,-195 0.5,-195 163.5,-195 163.5,-195 0.5,-195"/>
<polygon fill="#666666" stroke="#666666" points="0.5,-180 0.5,-180 163.5,-180 163.5,-180 0.5,-180"/>
<polygon fill="none" stroke="#666666" points="0,0 0,-212 163,-212 163,0 0,0"/>
</a>
</g>
</g>
<!-- Node2 -->
<g id="Node000002" class="node">
<title>Node2</title>
<g id="a_Node000002"><a xlink:href="classTests_1_1TestCase.html" target="_top" xlink:title=" ">
<polygon fill="white" stroke="transparent" points="122.5,-297 40.5,-297 40.5,-248 122.5,-248 122.5,-297"/>
<text text-anchor="start" x="45.5" y="-284.5" font-family="Helvetica,sans-Serif" font-size="10.00">Tests\TestCase</text>
<text text-anchor="start" x="79.5" y="-269.5" font-family="Helvetica,sans-Serif" font-size="10.00"> </text>
<text text-anchor="start" x="79.5" y="-254.5" font-family="Helvetica,sans-Serif" font-size="10.00"> </text>
<polygon fill="#666666" stroke="#666666" points="40.5,-279.5 40.5,-279.5 122.5,-279.5 122.5,-279.5 40.5,-279.5"/>
<polygon fill="#666666" stroke="#666666" points="40.5,-264.5 40.5,-264.5 122.5,-264.5 122.5,-264.5 40.5,-264.5"/>
<polygon fill="none" stroke="#666666" points="40.5,-248 40.5,-297 122.5,-297 122.5,-248 40.5,-248"/>
</a>
</g>
</g>
<!-- Node2&#45;&gt;Node1 -->
<g id="edge1_Node000001_Node000002" class="edge">
<title>Node2&#45;&gt;Node1</title>
<g id="a_edge1_Node000001_Node000002"><a xlink:title=" ">
<path fill="none" stroke="#63b8ff" d="M81.5,-237.85C81.5,-230.01 81.5,-221.25 81.5,-212.08"/>
<polygon fill="none" stroke="#63b8ff" points="78,-237.93 81.5,-247.93 85,-237.93 78,-237.93"/>
</a>
</g>
</g>
<!-- Node3 -->
<g id="Node000003" class="node">
<title>Node3</title>
<g id="a_Node000003"><a xlink:title=" ">
<polygon fill="white" stroke="transparent" points="120.5,-382 42.5,-382 42.5,-333 120.5,-333 120.5,-382"/>
<text text-anchor="start" x="47.5" y="-369.5" font-family="Helvetica,sans-Serif" font-size="10.00">BaseTestCase</text>
<text text-anchor="start" x="79.5" y="-354.5" font-family="Helvetica,sans-Serif" font-size="10.00"> </text>
<text text-anchor="start" x="79.5" y="-339.5" font-family="Helvetica,sans-Serif" font-size="10.00"> </text>
<polygon fill="#666666" stroke="#666666" points="42.5,-364.5 42.5,-364.5 120.5,-364.5 120.5,-364.5 42.5,-364.5"/>
<polygon fill="#666666" stroke="#666666" points="42.5,-349.5 42.5,-349.5 120.5,-349.5 120.5,-349.5 42.5,-349.5"/>
<polygon fill="none" stroke="#666666" points="42.5,-333 42.5,-382 120.5,-382 120.5,-333 42.5,-333"/>
</a>
</g>
</g>
<!-- Node3&#45;&gt;Node2 -->
<g id="edge2_Node000002_Node000003" class="edge">
<title>Node3&#45;&gt;Node2</title>
<g id="a_edge2_Node000002_Node000003"><a xlink:title=" ">
<path fill="none" stroke="#63b8ff" d="M81.5,-322.77C81.5,-314.17 81.5,-305.1 81.5,-297.12"/>
<polygon fill="none" stroke="#63b8ff" points="78,-322.94 81.5,-332.94 85,-322.94 78,-322.94"/>
</a>
</g>
</g>
</g>
</svg>
