<?xml version="1.0" encoding="UTF-8" standalone="no"?>
<!DOCTYPE svg PUBLIC "-//W3C//DTD SVG 1.1//EN"
 "http://www.w3.org/Graphics/SVG/1.1/DTD/svg11.dtd">
<!-- Generated by graphviz version 2.42.4 (0)
 -->
<!-- Title: App\Services\MediaThumbnailService\buildFtpUrl Pages: 1 -->
<svg width="611pt" height="86pt"
 viewBox="0.00 0.00 611.00 86.00" xmlns="http://www.w3.org/2000/svg" xmlns:xlink="http://www.w3.org/1999/xlink">
<g id="graph0" class="graph" transform="scale(1 1) rotate(0) translate(4 82)">
<title>App\Services\MediaThumbnailService\buildFtpUrl</title>
<!-- Node1 -->
<g id="Node000001" class="node">
<title>Node1</title>
<g id="a_Node000001"><a xlink:title=" ">
<polygon fill="#999999" stroke="#666666" points="603,-54 439,-54 439,-24 603,-24 603,-54"/>
<text text-anchor="start" x="447" y="-42" font-family="Helvetica,sans-Serif" font-size="10.00">App\Services\MediaThumbnail</text>
<text text-anchor="middle" x="521" y="-31" font-family="Helvetica,sans-Serif" font-size="10.00">Service\buildFtpUrl</text>
</a>
</g>
</g>
<!-- Node2 -->
<g id="Node000002" class="node">
<title>Node2</title>
<g id="a_Node000002"><a xlink:href="classApp_1_1Services_1_1MediaThumbnailService.html#ae38ef6cc053f00e0cf9a79ca3e9f14ee" target="_top" xlink:title=" ">
<polygon fill="white" stroke="#666666" points="403,-54 239,-54 239,-24 403,-24 403,-54"/>
<text text-anchor="start" x="247" y="-42" font-family="Helvetica,sans-Serif" font-size="10.00">App\Services\MediaThumbnail</text>
<text text-anchor="middle" x="321" y="-31" font-family="Helvetica,sans-Serif" font-size="10.00">Service\generateThumbnail</text>
</a>
</g>
</g>
<!-- Node1&#45;&gt;Node2 -->
<g id="edge1_Node000001_Node000002" class="edge">
<title>Node1&#45;&gt;Node2</title>
<g id="a_edge1_Node000001_Node000002"><a xlink:title=" ">
<path fill="none" stroke="#63b8ff" d="M428.64,-39C420.18,-39 411.65,-39 403.3,-39"/>
<polygon fill="#63b8ff" stroke="#63b8ff" points="428.89,-42.5 438.89,-39 428.89,-35.5 428.89,-42.5"/>
</a>
</g>
</g>
<!-- Node3 -->
<g id="Node000003" class="node">
<title>Node3</title>
<g id="a_Node000003"><a xlink:href="classApp_1_1Jobs_1_1GenerateMediaThumbnail.html#a685c63b748e4756f14496adc8bacb145" target="_top" xlink:title=" ">
<polygon fill="white" stroke="#666666" points="195.5,-78 7.5,-78 7.5,-48 195.5,-48 195.5,-78"/>
<text text-anchor="start" x="15.5" y="-66" font-family="Helvetica,sans-Serif" font-size="10.00">App\Jobs\GenerateMediaThumbnail</text>
<text text-anchor="middle" x="101.5" y="-55" font-family="Helvetica,sans-Serif" font-size="10.00">\handle</text>
</a>
</g>
</g>
<!-- Node2&#45;&gt;Node3 -->
<g id="edge2_Node000002_Node000003" class="edge">
<title>Node2&#45;&gt;Node3</title>
<g id="a_edge2_Node000002_Node000003"><a xlink:title=" ">
<path fill="none" stroke="#63b8ff" d="M228.43,-49.1C217.63,-50.3 206.6,-51.51 195.78,-52.71"/>
<polygon fill="#63b8ff" stroke="#63b8ff" points="229.15,-52.55 238.7,-47.97 228.38,-45.59 229.15,-52.55"/>
</a>
</g>
</g>
<!-- Node4 -->
<g id="Node000004" class="node">
<title>Node4</title>
<g id="a_Node000004"><a xlink:href="classApp_1_1Services_1_1MediaThumbnailService.html#a22e8451e54959ce3ae9ebac15ac90162" target="_top" xlink:title=" ">
<polygon fill="white" stroke="#666666" points="203,-30 0,-30 0,0 203,0 203,-30"/>
<text text-anchor="start" x="8" y="-18" font-family="Helvetica,sans-Serif" font-size="10.00">App\Services\MediaThumbnail</text>
<text text-anchor="middle" x="101.5" y="-7" font-family="Helvetica,sans-Serif" font-size="10.00">Service\regenerateMissingThumbnails</text>
</a>
</g>
</g>
<!-- Node2&#45;&gt;Node4 -->
<g id="edge3_Node000002_Node000004" class="edge">
<title>Node2&#45;&gt;Node4</title>
<g id="a_edge3_Node000002_Node000004"><a xlink:title=" ">
<path fill="none" stroke="#63b8ff" d="M228.56,-28.91C220.18,-27.98 211.65,-27.04 203.19,-26.11"/>
<polygon fill="#63b8ff" stroke="#63b8ff" points="228.38,-32.41 238.7,-30.03 229.15,-25.45 228.38,-32.41"/>
</a>
</g>
</g>
</g>
</svg>
