<?xml version="1.0" encoding="UTF-8" standalone="no"?>
<!DOCTYPE svg PUBLIC "-//W3C//DTD SVG 1.1//EN"
 "http://www.w3.org/Graphics/SVG/1.1/DTD/svg11.dtd">
<!-- Generated by graphviz version 2.42.4 (0)
 -->
<!-- Title: Tests\Feature\ProfileTest Pages: 1 -->
<svg width="176pt" height="327pt"
 viewBox="0.00 0.00 176.00 327.00" xmlns="http://www.w3.org/2000/svg" xmlns:xlink="http://www.w3.org/1999/xlink">
<g id="graph0" class="graph" transform="scale(1 1) rotate(0) translate(4 323)">
<title>Tests\Feature\ProfileTest</title>
<!-- Node1 -->
<g id="Node000001" class="node">
<title>Node1</title>
<g id="a_Node000001"><a xlink:title=" ">
<polygon fill="#999999" stroke="transparent" points="168,-149 0,-149 0,0 168,0 168,-149"/>
<text text-anchor="start" x="25" y="-136.5" font-family="Helvetica,sans-Serif" font-size="10.00">Tests\Feature\ProfileTest</text>
<text text-anchor="start" x="82" y="-121.5" font-family="Helvetica,sans-Serif" font-size="10.00"> </text>
<text text-anchor="start" x="4" y="-106.5" font-family="Helvetica,sans-Serif" font-size="10.00">+</text>
<text text-anchor="start" x="17" y="-106.5" font-family="Helvetica,sans-Serif" font-size="10.00">test_profile_page</text>
<text text-anchor="start" x="17" y="-95.5" font-family="Helvetica,sans-Serif" font-size="10.00">_is_displayed()</text>
<text text-anchor="start" x="4" y="-80.5" font-family="Helvetica,sans-Serif" font-size="10.00">+</text>
<text text-anchor="start" x="17" y="-80.5" font-family="Helvetica,sans-Serif" font-size="10.00">test_profile_information</text>
<text text-anchor="start" x="17" y="-69.5" font-family="Helvetica,sans-Serif" font-size="10.00">_can_be_updated()</text>
<text text-anchor="start" x="4" y="-54.5" font-family="Helvetica,sans-Serif" font-size="10.00">+</text>
<text text-anchor="start" x="17" y="-54.5" font-family="Helvetica,sans-Serif" font-size="10.00">test_user_can_delete</text>
<text text-anchor="start" x="17" y="-43.5" font-family="Helvetica,sans-Serif" font-size="10.00">_their_account()</text>
<text text-anchor="start" x="4" y="-28.5" font-family="Helvetica,sans-Serif" font-size="10.00">+</text>
<text text-anchor="start" x="17" y="-28.5" font-family="Helvetica,sans-Serif" font-size="10.00">test_correct_password</text>
<text text-anchor="start" x="17" y="-17.5" font-family="Helvetica,sans-Serif" font-size="10.00">_must_be_provided_to_delete</text>
<text text-anchor="start" x="17" y="-6.5" font-family="Helvetica,sans-Serif" font-size="10.00">_account()</text>
<polygon fill="#666666" stroke="#666666" points="0,-131.5 0,-131.5 168,-131.5 168,-131.5 0,-131.5"/>
<polygon fill="#666666" stroke="#666666" points="0,-116.5 0,-116.5 168,-116.5 168,-116.5 0,-116.5"/>
<polygon fill="none" stroke="#666666" points="0,0 0,-149 168,-149 168,0 0,0"/>
</a>
</g>
</g>
<!-- Node2 -->
<g id="Node000002" class="node">
<title>Node2</title>
<g id="a_Node000002"><a xlink:href="classTests_1_1TestCase.html" target="_top" xlink:title=" ">
<polygon fill="white" stroke="transparent" points="125,-234 43,-234 43,-185 125,-185 125,-234"/>
<text text-anchor="start" x="48" y="-221.5" font-family="Helvetica,sans-Serif" font-size="10.00">Tests\TestCase</text>
<text text-anchor="start" x="82" y="-206.5" font-family="Helvetica,sans-Serif" font-size="10.00"> </text>
<text text-anchor="start" x="82" y="-191.5" font-family="Helvetica,sans-Serif" font-size="10.00"> </text>
<polygon fill="#666666" stroke="#666666" points="43,-216.5 43,-216.5 125,-216.5 125,-216.5 43,-216.5"/>
<polygon fill="#666666" stroke="#666666" points="43,-201.5 43,-201.5 125,-201.5 125,-201.5 43,-201.5"/>
<polygon fill="none" stroke="#666666" points="43,-185 43,-234 125,-234 125,-185 43,-185"/>
</a>
</g>
</g>
<!-- Node2&#45;&gt;Node1 -->
<g id="edge1_Node000001_Node000002" class="edge">
<title>Node2&#45;&gt;Node1</title>
<g id="a_edge1_Node000001_Node000002"><a xlink:title=" ">
<path fill="none" stroke="#63b8ff" d="M84,-174.58C84,-166.73 84,-158.08 84,-149.26"/>
<polygon fill="none" stroke="#63b8ff" points="80.5,-174.72 84,-184.72 87.5,-174.72 80.5,-174.72"/>
</a>
</g>
</g>
<!-- Node3 -->
<g id="Node000003" class="node">
<title>Node3</title>
<g id="a_Node000003"><a xlink:title=" ">
<polygon fill="white" stroke="transparent" points="123,-319 45,-319 45,-270 123,-270 123,-319"/>
<text text-anchor="start" x="50" y="-306.5" font-family="Helvetica,sans-Serif" font-size="10.00">BaseTestCase</text>
<text text-anchor="start" x="82" y="-291.5" font-family="Helvetica,sans-Serif" font-size="10.00"> </text>
<text text-anchor="start" x="82" y="-276.5" font-family="Helvetica,sans-Serif" font-size="10.00"> </text>
<polygon fill="#666666" stroke="#666666" points="45,-301.5 45,-301.5 123,-301.5 123,-301.5 45,-301.5"/>
<polygon fill="#666666" stroke="#666666" points="45,-286.5 45,-286.5 123,-286.5 123,-286.5 45,-286.5"/>
<polygon fill="none" stroke="#666666" points="45,-270 45,-319 123,-319 123,-270 45,-270"/>
</a>
</g>
</g>
<!-- Node3&#45;&gt;Node2 -->
<g id="edge2_Node000002_Node000003" class="edge">
<title>Node3&#45;&gt;Node2</title>
<g id="a_edge2_Node000002_Node000003"><a xlink:title=" ">
<path fill="none" stroke="#63b8ff" d="M84,-259.77C84,-251.17 84,-242.1 84,-234.12"/>
<polygon fill="none" stroke="#63b8ff" points="80.5,-259.94 84,-269.94 87.5,-259.94 80.5,-259.94"/>
</a>
</g>
</g>
</g>
</svg>
