<?xml version="1.0" encoding="UTF-8" standalone="no"?>
<!DOCTYPE svg PUBLIC "-//W3C//DTD SVG 1.1//EN"
 "http://www.w3.org/Graphics/SVG/1.1/DTD/svg11.dtd">
<!-- Generated by graphviz version 2.42.4 (0)
 -->
<!-- Title: App\Jobs\GenerateMediaThumbnail Pages: 1 -->
<svg width="190pt" height="179pt"
 viewBox="0.00 0.00 190.00 179.00" xmlns="http://www.w3.org/2000/svg" xmlns:xlink="http://www.w3.org/1999/xlink">
<g id="graph0" class="graph" transform="scale(1 1) rotate(0) translate(4 175)">
<title>App\Jobs\GenerateMediaThumbnail</title>
<!-- Node1 -->
<g id="Node000001" class="node">
<title>Node1</title>
<g id="a_Node000001"><a xlink:title=" ">
<polygon fill="#999999" stroke="transparent" points="182,-86 0,-86 0,0 182,0 182,-86"/>
<text text-anchor="start" x="5" y="-74" font-family="Helvetica,sans-Serif" font-size="10.00">App\Jobs\GenerateMediaThumbnail</text>
<text text-anchor="start" x="89" y="-59" font-family="Helvetica,sans-Serif" font-size="10.00"> </text>
<text text-anchor="start" x="5.5" y="-44" font-family="Helvetica,sans-Serif" font-size="10.00">+</text>
<text text-anchor="start" x="20" y="-44" font-family="Helvetica,sans-Serif" font-size="10.00">__construct(public</text>
<text text-anchor="start" x="20" y="-33" font-family="Helvetica,sans-Serif" font-size="10.00"> int $mediaId)</text>
<text text-anchor="start" x="5.5" y="-18" font-family="Helvetica,sans-Serif" font-size="10.00">+</text>
<text text-anchor="start" x="20" y="-18" font-family="Helvetica,sans-Serif" font-size="10.00">handle(MediaThumbnailService</text>
<text text-anchor="start" x="20" y="-7" font-family="Helvetica,sans-Serif" font-size="10.00"> $service)</text>
<polygon fill="#666666" stroke="#666666" points="0,-69 0,-69 182,-69 182,-69 0,-69"/>
<polygon fill="#666666" stroke="#666666" points="0,-54 0,-54 182,-54 182,-54 0,-54"/>
<polygon fill="none" stroke="#666666" points="0,0 0,-86 182,-86 182,0 0,0"/>
</a>
</g>
</g>
<!-- Node2 -->
<g id="Node000002" class="node">
<title>Node2</title>
<g id="a_Node000002"><a xlink:title=" ">
<polygon fill="white" stroke="transparent" points="128.5,-171 53.5,-171 53.5,-122 128.5,-122 128.5,-171"/>
<text text-anchor="start" x="59" y="-158.5" font-family="Helvetica,sans-Serif" font-size="10.00">ShouldQueue</text>
<text text-anchor="start" x="89.5" y="-143.5" font-family="Helvetica,sans-Serif" font-size="10.00"> </text>
<text text-anchor="start" x="89.5" y="-128.5" font-family="Helvetica,sans-Serif" font-size="10.00"> </text>
<polygon fill="#666666" stroke="#666666" points="54,-153.5 54,-153.5 129,-153.5 129,-153.5 54,-153.5"/>
<polygon fill="#666666" stroke="#666666" points="54,-138.5 54,-138.5 129,-138.5 129,-138.5 54,-138.5"/>
<polygon fill="none" stroke="#666666" points="53.5,-122 53.5,-171 128.5,-171 128.5,-122 53.5,-122"/>
</a>
</g>
</g>
<!-- Node2&#45;&gt;Node1 -->
<g id="edge1_Node000001_Node000002" class="edge">
<title>Node2&#45;&gt;Node1</title>
<g id="a_edge1_Node000001_Node000002"><a xlink:title=" ">
<path fill="none" stroke="#63b8ff" d="M91,-111.94C91,-103.68 91,-94.73 91,-86.13"/>
<polygon fill="none" stroke="#63b8ff" points="87.5,-111.96 91,-121.96 94.5,-111.96 87.5,-111.96"/>
</a>
</g>
</g>
</g>
</svg>
