<?xml version="1.0" encoding="UTF-8" standalone="no"?>
<!DOCTYPE svg PUBLIC "-//W3C//DTD SVG 1.1//EN"
 "http://www.w3.org/Graphics/SVG/1.1/DTD/svg11.dtd">
<!-- Generated by graphviz version 2.42.4 (0)
 -->
<!-- Title: Database\Seeders\MediaSeeder Pages: 1 -->
<svg width="174pt" height="142pt"
 viewBox="0.00 0.00 174.00 142.00" xmlns="http://www.w3.org/2000/svg" xmlns:xlink="http://www.w3.org/1999/xlink">
<g id="graph0" class="graph" transform="scale(1 1) rotate(0) translate(4 138)">
<title>Database\Seeders\MediaSeeder</title>
<!-- Node1 -->
<g id="Node000001" class="node">
<title>Node1</title>
<g id="a_Node000001"><a xlink:title=" ">
<polygon fill="#999999" stroke="transparent" points="166,-49 0,-49 0,0 166,0 166,-49"/>
<text text-anchor="start" x="5" y="-36.5" font-family="Helvetica,sans-Serif" font-size="10.00">Database\Seeders\MediaSeeder</text>
<text text-anchor="start" x="81" y="-21.5" font-family="Helvetica,sans-Serif" font-size="10.00"> </text>
<text text-anchor="start" x="34" y="-6.5" font-family="Helvetica,sans-Serif" font-size="10.00">+</text>
<text text-anchor="start" x="77" y="-6.5" font-family="Helvetica,sans-Serif" font-size="10.00">run()</text>
<polygon fill="#666666" stroke="#666666" points="0,-31.5 0,-31.5 166,-31.5 166,-31.5 0,-31.5"/>
<polygon fill="#666666" stroke="#666666" points="0,-16.5 0,-16.5 166,-16.5 166,-16.5 0,-16.5"/>
<polygon fill="none" stroke="#666666" points="0,0 0,-49 166,-49 166,0 0,0"/>
</a>
</g>
</g>
<!-- Node2 -->
<g id="Node000002" class="node">
<title>Node2</title>
<g id="a_Node000002"><a xlink:title=" ">
<polygon fill="white" stroke="transparent" points="105,-134 61,-134 61,-85 105,-85 105,-134"/>
<text text-anchor="start" x="66" y="-121.5" font-family="Helvetica,sans-Serif" font-size="10.00">Seeder</text>
<text text-anchor="start" x="81" y="-106.5" font-family="Helvetica,sans-Serif" font-size="10.00"> </text>
<text text-anchor="start" x="81" y="-91.5" font-family="Helvetica,sans-Serif" font-size="10.00"> </text>
<polygon fill="#666666" stroke="#666666" points="61,-116.5 61,-116.5 105,-116.5 105,-116.5 61,-116.5"/>
<polygon fill="#666666" stroke="#666666" points="61,-101.5 61,-101.5 105,-101.5 105,-101.5 61,-101.5"/>
<polygon fill="none" stroke="#666666" points="61,-85 61,-134 105,-134 105,-85 61,-85"/>
</a>
</g>
</g>
<!-- Node2&#45;&gt;Node1 -->
<g id="edge1_Node000001_Node000002" class="edge">
<title>Node2&#45;&gt;Node1</title>
<g id="a_edge1_Node000001_Node000002"><a xlink:title=" ">
<path fill="none" stroke="#63b8ff" d="M83,-74.77C83,-66.17 83,-57.1 83,-49.12"/>
<polygon fill="none" stroke="#63b8ff" points="79.5,-74.94 83,-84.94 86.5,-74.94 79.5,-74.94"/>
</a>
</g>
</g>
</g>
</svg>
