<?xml version="1.0" encoding="UTF-8" standalone="no"?>
<!DOCTYPE svg PUBLIC "-//W3C//DTD SVG 1.1//EN"
 "http://www.w3.org/Graphics/SVG/1.1/DTD/svg11.dtd">
<!-- Generated by graphviz version 2.42.4 (0)
 -->
<!-- Title: Tests\Feature\MediaManagerTest Pages: 1 -->
<svg width="178pt" height="227pt"
 viewBox="0.00 0.00 178.00 227.00" xmlns="http://www.w3.org/2000/svg" xmlns:xlink="http://www.w3.org/1999/xlink">
<g id="graph0" class="graph" transform="scale(1 1) rotate(0) translate(4 223)">
<title>Tests\Feature\MediaManagerTest</title>
<!-- Node1 -->
<g id="Node000001" class="node">
<title>Node1</title>
<g id="a_Node000001"><a xlink:title=" ">
<polygon fill="#999999" stroke="transparent" points="170,-49 0,-49 0,0 170,0 170,-49"/>
<text text-anchor="start" x="5" y="-36.5" font-family="Helvetica,sans-Serif" font-size="10.00">Tests\Feature\MediaManagerTest</text>
<text text-anchor="start" x="83" y="-21.5" font-family="Helvetica,sans-Serif" font-size="10.00"> </text>
<text text-anchor="start" x="27" y="-6.5" font-family="Helvetica,sans-Serif" font-size="10.00">&#45;</text>
<text text-anchor="start" x="58" y="-6.5" font-family="Helvetica,sans-Serif" font-size="10.00">setupRoles()</text>
<polygon fill="#666666" stroke="#666666" points="0,-31.5 0,-31.5 170,-31.5 170,-31.5 0,-31.5"/>
<polygon fill="#666666" stroke="#666666" points="0,-16.5 0,-16.5 170,-16.5 170,-16.5 0,-16.5"/>
<polygon fill="none" stroke="#666666" points="0,0 0,-49 170,-49 170,0 0,0"/>
</a>
</g>
</g>
<!-- Node2 -->
<g id="Node000002" class="node">
<title>Node2</title>
<g id="a_Node000002"><a xlink:href="classTests_1_1TestCase.html" target="_top" xlink:title=" ">
<polygon fill="white" stroke="transparent" points="126,-134 44,-134 44,-85 126,-85 126,-134"/>
<text text-anchor="start" x="49" y="-121.5" font-family="Helvetica,sans-Serif" font-size="10.00">Tests\TestCase</text>
<text text-anchor="start" x="83" y="-106.5" font-family="Helvetica,sans-Serif" font-size="10.00"> </text>
<text text-anchor="start" x="83" y="-91.5" font-family="Helvetica,sans-Serif" font-size="10.00"> </text>
<polygon fill="#666666" stroke="#666666" points="44,-116.5 44,-116.5 126,-116.5 126,-116.5 44,-116.5"/>
<polygon fill="#666666" stroke="#666666" points="44,-101.5 44,-101.5 126,-101.5 126,-101.5 44,-101.5"/>
<polygon fill="none" stroke="#666666" points="44,-85 44,-134 126,-134 126,-85 44,-85"/>
</a>
</g>
</g>
<!-- Node2&#45;&gt;Node1 -->
<g id="edge1_Node000001_Node000002" class="edge">
<title>Node2&#45;&gt;Node1</title>
<g id="a_edge1_Node000001_Node000002"><a xlink:title=" ">
<path fill="none" stroke="#63b8ff" d="M85,-74.77C85,-66.17 85,-57.1 85,-49.12"/>
<polygon fill="none" stroke="#63b8ff" points="81.5,-74.94 85,-84.94 88.5,-74.94 81.5,-74.94"/>
</a>
</g>
</g>
<!-- Node3 -->
<g id="Node000003" class="node">
<title>Node3</title>
<g id="a_Node000003"><a xlink:title=" ">
<polygon fill="white" stroke="transparent" points="124,-219 46,-219 46,-170 124,-170 124,-219"/>
<text text-anchor="start" x="51" y="-206.5" font-family="Helvetica,sans-Serif" font-size="10.00">BaseTestCase</text>
<text text-anchor="start" x="83" y="-191.5" font-family="Helvetica,sans-Serif" font-size="10.00"> </text>
<text text-anchor="start" x="83" y="-176.5" font-family="Helvetica,sans-Serif" font-size="10.00"> </text>
<polygon fill="#666666" stroke="#666666" points="46,-201.5 46,-201.5 124,-201.5 124,-201.5 46,-201.5"/>
<polygon fill="#666666" stroke="#666666" points="46,-186.5 46,-186.5 124,-186.5 124,-186.5 46,-186.5"/>
<polygon fill="none" stroke="#666666" points="46,-170 46,-219 124,-219 124,-170 46,-170"/>
</a>
</g>
</g>
<!-- Node3&#45;&gt;Node2 -->
<g id="edge2_Node000002_Node000003" class="edge">
<title>Node3&#45;&gt;Node2</title>
<g id="a_edge2_Node000002_Node000003"><a xlink:title=" ">
<path fill="none" stroke="#63b8ff" d="M85,-159.77C85,-151.17 85,-142.1 85,-134.12"/>
<polygon fill="none" stroke="#63b8ff" points="81.5,-159.94 85,-169.94 88.5,-159.94 81.5,-159.94"/>
</a>
</g>
</g>
</g>
</svg>
