<?xml version="1.0" encoding="UTF-8" standalone="no"?>
<!DOCTYPE svg PUBLIC "-//W3C//DTD SVG 1.1//EN"
 "http://www.w3.org/Graphics/SVG/1.1/DTD/svg11.dtd">
<!-- Generated by graphviz version 2.42.4 (0)
 -->
<!-- Title: App\Models\Participation Pages: 1 -->
<svg width="139pt" height="172pt"
 viewBox="0.00 0.00 139.00 172.00" xmlns="http://www.w3.org/2000/svg" xmlns:xlink="http://www.w3.org/1999/xlink">
<g id="graph0" class="graph" transform="scale(1 1) rotate(0) translate(4 168)">
<title>App\Models\Participation</title>
<!-- Node1 -->
<g id="Node000001" class="node">
<title>Node1</title>
<g id="a_Node000001"><a xlink:title=" ">
<polygon fill="#999999" stroke="transparent" points="131,-79 0,-79 0,0 131,0 131,-79"/>
<text text-anchor="start" x="5.5" y="-66.5" font-family="Helvetica,sans-Serif" font-size="10.00">App\Models\Participation</text>
<text text-anchor="start" x="22" y="-51.5" font-family="Helvetica,sans-Serif" font-size="10.00">#</text>
<text text-anchor="start" x="52.5" y="-51.5" font-family="Helvetica,sans-Serif" font-size="10.00">$fillable</text>
<text text-anchor="start" x="22" y="-36.5" font-family="Helvetica,sans-Serif" font-size="10.00">+</text>
<text text-anchor="start" x="52.5" y="-36.5" font-family="Helvetica,sans-Serif" font-size="10.00">eleve()</text>
<text text-anchor="start" x="22" y="-21.5" font-family="Helvetica,sans-Serif" font-size="10.00">+</text>
<text text-anchor="start" x="52.5" y="-21.5" font-family="Helvetica,sans-Serif" font-size="10.00">media()</text>
<text text-anchor="start" x="22" y="-6.5" font-family="Helvetica,sans-Serif" font-size="10.00">+</text>
<text text-anchor="start" x="52.5" y="-6.5" font-family="Helvetica,sans-Serif" font-size="10.00">role()</text>
<polygon fill="#666666" stroke="#666666" points="0.5,-61.5 0.5,-61.5 131.5,-61.5 131.5,-61.5 0.5,-61.5"/>
<polygon fill="#666666" stroke="#666666" points="0.5,-46.5 0.5,-46.5 50.5,-46.5 50.5,-46.5 0.5,-46.5"/>
<polygon fill="#666666" stroke="#666666" points="50.5,-46.5 50.5,-46.5 131.5,-46.5 131.5,-46.5 50.5,-46.5"/>
<polygon fill="none" stroke="#666666" points="0,0 0,-79 131,-79 131,0 0,0"/>
</a>
</g>
</g>
<!-- Node2 -->
<g id="Node000002" class="node">
<title>Node2</title>
<g id="a_Node000002"><a xlink:title=" ">
<polygon fill="white" stroke="transparent" points="86,-164 45,-164 45,-115 86,-115 86,-164"/>
<text text-anchor="start" x="50.5" y="-151.5" font-family="Helvetica,sans-Serif" font-size="10.00">Model</text>
<text text-anchor="start" x="64" y="-136.5" font-family="Helvetica,sans-Serif" font-size="10.00"> </text>
<text text-anchor="start" x="64" y="-121.5" font-family="Helvetica,sans-Serif" font-size="10.00"> </text>
<polygon fill="#666666" stroke="#666666" points="45.5,-146.5 45.5,-146.5 86.5,-146.5 86.5,-146.5 45.5,-146.5"/>
<polygon fill="#666666" stroke="#666666" points="45.5,-131.5 45.5,-131.5 86.5,-131.5 86.5,-131.5 45.5,-131.5"/>
<polygon fill="none" stroke="#666666" points="45,-115 45,-164 86,-164 86,-115 45,-115"/>
</a>
</g>
</g>
<!-- Node2&#45;&gt;Node1 -->
<g id="edge1_Node000001_Node000002" class="edge">
<title>Node2&#45;&gt;Node1</title>
<g id="a_edge1_Node000001_Node000002"><a xlink:title=" ">
<path fill="none" stroke="#63b8ff" d="M65.5,-104.52C65.5,-96.38 65.5,-87.63 65.5,-79.29"/>
<polygon fill="none" stroke="#63b8ff" points="62,-104.78 65.5,-114.78 69,-104.78 62,-104.78"/>
</a>
</g>
</g>
</g>
</svg>
