<?xml version="1.0" encoding="UTF-8" standalone="no"?>
<!DOCTYPE svg PUBLIC "-//W3C//DTD SVG 1.1//EN"
 "http://www.w3.org/Graphics/SVG/1.1/DTD/svg11.dtd">
<!-- Generated by graphviz version 2.42.4 (0)
 -->
<!-- Title: Tests\Feature\Auth\RegistrationTest Pages: 1 -->
<svg width="163pt" height="275pt"
 viewBox="0.00 0.00 163.00 275.00" xmlns="http://www.w3.org/2000/svg" xmlns:xlink="http://www.w3.org/1999/xlink">
<g id="graph0" class="graph" transform="scale(1 1) rotate(0) translate(4 271)">
<title>Tests\Feature\Auth\RegistrationTest</title>
<!-- Node1 -->
<g id="Node000001" class="node">
<title>Node1</title>
<g id="a_Node000001"><a xlink:title=" ">
<polygon fill="#999999" stroke="transparent" points="155,-97 0,-97 0,0 155,0 155,-97"/>
<text text-anchor="start" x="32.5" y="-84.5" font-family="Helvetica,sans-Serif" font-size="10.00">Tests\Feature\Auth</text>
<text text-anchor="start" x="37" y="-73.5" font-family="Helvetica,sans-Serif" font-size="10.00">\RegistrationTest</text>
<text text-anchor="start" x="76" y="-58.5" font-family="Helvetica,sans-Serif" font-size="10.00"> </text>
<text text-anchor="start" x="4.5" y="-43.5" font-family="Helvetica,sans-Serif" font-size="10.00">+</text>
<text text-anchor="start" x="17.5" y="-43.5" font-family="Helvetica,sans-Serif" font-size="10.00">test_registration</text>
<text text-anchor="start" x="17.5" y="-32.5" font-family="Helvetica,sans-Serif" font-size="10.00">_screen_can_be_rendered()</text>
<text text-anchor="start" x="4.5" y="-17.5" font-family="Helvetica,sans-Serif" font-size="10.00">+</text>
<text text-anchor="start" x="17.5" y="-17.5" font-family="Helvetica,sans-Serif" font-size="10.00">test_new_users_can</text>
<text text-anchor="start" x="17.5" y="-6.5" font-family="Helvetica,sans-Serif" font-size="10.00">_register()</text>
<polygon fill="#666666" stroke="#666666" points="0.5,-68.5 0.5,-68.5 155.5,-68.5 155.5,-68.5 0.5,-68.5"/>
<polygon fill="#666666" stroke="#666666" points="0.5,-53.5 0.5,-53.5 155.5,-53.5 155.5,-53.5 0.5,-53.5"/>
<polygon fill="none" stroke="#666666" points="0,0 0,-97 155,-97 155,0 0,0"/>
</a>
</g>
</g>
<!-- Node2 -->
<g id="Node000002" class="node">
<title>Node2</title>
<g id="a_Node000002"><a xlink:href="classTests_1_1TestCase.html" target="_top" xlink:title=" ">
<polygon fill="white" stroke="transparent" points="118.5,-182 36.5,-182 36.5,-133 118.5,-133 118.5,-182"/>
<text text-anchor="start" x="41.5" y="-169.5" font-family="Helvetica,sans-Serif" font-size="10.00">Tests\TestCase</text>
<text text-anchor="start" x="75.5" y="-154.5" font-family="Helvetica,sans-Serif" font-size="10.00"> </text>
<text text-anchor="start" x="75.5" y="-139.5" font-family="Helvetica,sans-Serif" font-size="10.00"> </text>
<polygon fill="#666666" stroke="#666666" points="36.5,-164.5 36.5,-164.5 118.5,-164.5 118.5,-164.5 36.5,-164.5"/>
<polygon fill="#666666" stroke="#666666" points="36.5,-149.5 36.5,-149.5 118.5,-149.5 118.5,-149.5 36.5,-149.5"/>
<polygon fill="none" stroke="#666666" points="36.5,-133 36.5,-182 118.5,-182 118.5,-133 36.5,-133"/>
</a>
</g>
</g>
<!-- Node2&#45;&gt;Node1 -->
<g id="edge1_Node000001_Node000002" class="edge">
<title>Node2&#45;&gt;Node1</title>
<g id="a_edge1_Node000001_Node000002"><a xlink:title=" ">
<path fill="none" stroke="#63b8ff" d="M77.5,-122.64C77.5,-114.59 77.5,-105.85 77.5,-97.3"/>
<polygon fill="none" stroke="#63b8ff" points="74,-122.75 77.5,-132.75 81,-122.75 74,-122.75"/>
</a>
</g>
</g>
<!-- Node3 -->
<g id="Node000003" class="node">
<title>Node3</title>
<g id="a_Node000003"><a xlink:title=" ">
<polygon fill="white" stroke="transparent" points="116.5,-267 38.5,-267 38.5,-218 116.5,-218 116.5,-267"/>
<text text-anchor="start" x="43.5" y="-254.5" font-family="Helvetica,sans-Serif" font-size="10.00">BaseTestCase</text>
<text text-anchor="start" x="75.5" y="-239.5" font-family="Helvetica,sans-Serif" font-size="10.00"> </text>
<text text-anchor="start" x="75.5" y="-224.5" font-family="Helvetica,sans-Serif" font-size="10.00"> </text>
<polygon fill="#666666" stroke="#666666" points="38.5,-249.5 38.5,-249.5 116.5,-249.5 116.5,-249.5 38.5,-249.5"/>
<polygon fill="#666666" stroke="#666666" points="38.5,-234.5 38.5,-234.5 116.5,-234.5 116.5,-234.5 38.5,-234.5"/>
<polygon fill="none" stroke="#666666" points="38.5,-218 38.5,-267 116.5,-267 116.5,-218 38.5,-218"/>
</a>
</g>
</g>
<!-- Node3&#45;&gt;Node2 -->
<g id="edge2_Node000002_Node000003" class="edge">
<title>Node3&#45;&gt;Node2</title>
<g id="a_edge2_Node000002_Node000003"><a xlink:title=" ">
<path fill="none" stroke="#63b8ff" d="M77.5,-207.77C77.5,-199.17 77.5,-190.1 77.5,-182.12"/>
<polygon fill="none" stroke="#63b8ff" points="74,-207.94 77.5,-217.94 81,-207.94 74,-207.94"/>
</a>
</g>
</g>
</g>
</svg>
