<?xml version="1.0" encoding="UTF-8" standalone="no"?>
<!DOCTYPE svg PUBLIC "-//W3C//DTD SVG 1.1//EN"
 "http://www.w3.org/Graphics/SVG/1.1/DTD/svg11.dtd">
<!-- Generated by graphviz version 2.42.4 (0)
 -->
<!-- Title: App\Http\Controllers\StreamController\stream Pages: 1 -->
<svg width="552pt" height="244pt"
 viewBox="0.00 0.00 552.00 244.00" xmlns="http://www.w3.org/2000/svg" xmlns:xlink="http://www.w3.org/1999/xlink">
<g id="graph0" class="graph" transform="scale(1 1) rotate(0) translate(4 240)">
<title>App\Http\Controllers\StreamController\stream</title>
<!-- Node1 -->
<g id="Node000001" class="node">
<title>Node1</title>
<g id="a_Node000001"><a xlink:title="Point d&#39;entrée principal pour le streaming d’un média.">
<polygon fill="#999999" stroke="#666666" points="140,-133 0,-133 0,-103 140,-103 140,-133"/>
<text text-anchor="start" x="8" y="-121" font-family="Helvetica,sans-Serif" font-size="10.00">App\Http\Controllers</text>
<text text-anchor="middle" x="70" y="-110" font-family="Helvetica,sans-Serif" font-size="10.00">\StreamController\stream</text>
</a>
</g>
</g>
<!-- Node2 -->
<g id="Node000002" class="node">
<title>Node2</title>
<g id="a_Node000002"><a xlink:href="classApp_1_1Http_1_1Controllers_1_1StreamController.html#ab1edd6b6ceca4cf90dbe9ef343352601" target="_top" xlink:title="Stream une playlist HLS (.m3u8) depuis un stockage distant.">
<polygon fill="white" stroke="#666666" points="338.5,-236 179.5,-236 179.5,-206 338.5,-206 338.5,-236"/>
<text text-anchor="start" x="187.5" y="-224" font-family="Helvetica,sans-Serif" font-size="10.00">App\Http\Controllers</text>
<text text-anchor="middle" x="259" y="-213" font-family="Helvetica,sans-Serif" font-size="10.00">\StreamController\streamHLS</text>
</a>
</g>
</g>
<!-- Node1&#45;&gt;Node2 -->
<g id="edge1_Node000001_Node000002" class="edge">
<title>Node1&#45;&gt;Node2</title>
<g id="a_edge1_Node000001_Node000002"><a xlink:title=" ">
<path fill="none" stroke="#63b8ff" d="M87.2,-133.18C106.82,-150.82 141.54,-179.72 176,-197 179.73,-198.87 183.63,-200.62 187.62,-202.25"/>
<polygon fill="#63b8ff" stroke="#63b8ff" points="186.45,-205.55 197.04,-205.85 188.95,-199.01 186.45,-205.55"/>
</a>
</g>
</g>
<!-- Node3 -->
<g id="Node000003" class="node">
<title>Node3</title>
<g id="a_Node000003"><a xlink:href="classApp_1_1Http_1_1Controllers_1_1StreamController.html#a76998999bcadec59b3fb07f940064743" target="_top" xlink:title="Tente de résoudre et streamer une vidéo locale à partir d’un modèle Media.">
<polygon fill="white" stroke="#666666" points="342,-187.5 176,-187.5 176,-146.5 342,-146.5 342,-187.5"/>
<text text-anchor="start" x="184" y="-175.5" font-family="Helvetica,sans-Serif" font-size="10.00">App\Http\Controllers</text>
<text text-anchor="start" x="184" y="-164.5" font-family="Helvetica,sans-Serif" font-size="10.00">\StreamController\streamLocal</text>
<text text-anchor="middle" x="259" y="-153.5" font-family="Helvetica,sans-Serif" font-size="10.00">MediaVideo</text>
</a>
</g>
</g>
<!-- Node1&#45;&gt;Node3 -->
<g id="edge2_Node000001_Node000003" class="edge">
<title>Node1&#45;&gt;Node3</title>
<g id="a_edge2_Node000001_Node000003"><a xlink:title=" ">
<path fill="none" stroke="#63b8ff" d="M128.38,-133.03C141.55,-136.49 155.85,-140.23 169.99,-143.94"/>
<polygon fill="#63b8ff" stroke="#63b8ff" points="169.17,-147.34 179.73,-146.49 170.94,-140.57 169.17,-147.34"/>
</a>
</g>
</g>
<!-- Node4 -->
<g id="Node000004" class="node">
<title>Node4</title>
<g id="a_Node000004"><a xlink:href="classApp_1_1Http_1_1Controllers_1_1StreamController.html#a7fceacb90a5dd2da455db750ca96f893" target="_top" xlink:title="Stream un fichier vidéo local avec support des requêtes HTTP Range.">
<polygon fill="white" stroke="#666666" points="544,-138.5 378,-138.5 378,-97.5 544,-97.5 544,-138.5"/>
<text text-anchor="start" x="386" y="-126.5" font-family="Helvetica,sans-Serif" font-size="10.00">App\Http\Controllers</text>
<text text-anchor="start" x="386" y="-115.5" font-family="Helvetica,sans-Serif" font-size="10.00">\StreamController\streamLocal</text>
<text text-anchor="middle" x="461" y="-104.5" font-family="Helvetica,sans-Serif" font-size="10.00">Video</text>
</a>
</g>
</g>
<!-- Node1&#45;&gt;Node4 -->
<g id="edge4_Node000001_Node000004" class="edge">
<title>Node1&#45;&gt;Node4</title>
<g id="a_edge4_Node000001_Node000004"><a xlink:title=" ">
<path fill="none" stroke="#63b8ff" d="M140.1,-118C203.46,-118 297.78,-118 367.6,-118"/>
<polygon fill="#63b8ff" stroke="#63b8ff" points="367.72,-121.5 377.72,-118 367.72,-114.5 367.72,-121.5"/>
</a>
</g>
</g>
<!-- Node5 -->
<g id="Node000005" class="node">
<title>Node5</title>
<g id="a_Node000005"><a xlink:href="classApp_1_1Http_1_1Controllers_1_1StreamController.html#a9e1dc23bd53086b4ef0c3dcb3aa3d75c" target="_top" xlink:title="Stream une vidéo locale de test en fonction d’un mapping d’ID (dev uniquement).">
<polygon fill="white" stroke="#666666" points="342,-89.5 176,-89.5 176,-48.5 342,-48.5 342,-89.5"/>
<text text-anchor="start" x="184" y="-77.5" font-family="Helvetica,sans-Serif" font-size="10.00">App\Http\Controllers</text>
<text text-anchor="start" x="184" y="-66.5" font-family="Helvetica,sans-Serif" font-size="10.00">\StreamController\streamLocal</text>
<text text-anchor="middle" x="259" y="-55.5" font-family="Helvetica,sans-Serif" font-size="10.00">VideoByMapping</text>
</a>
</g>
</g>
<!-- Node1&#45;&gt;Node5 -->
<g id="edge5_Node000001_Node000005" class="edge">
<title>Node1&#45;&gt;Node5</title>
<g id="a_edge5_Node000001_Node000005"><a xlink:title=" ">
<path fill="none" stroke="#63b8ff" d="M128.38,-102.97C141.55,-99.51 155.85,-95.77 169.99,-92.06"/>
<polygon fill="#63b8ff" stroke="#63b8ff" points="170.94,-95.43 179.73,-89.51 169.17,-88.66 170.94,-95.43"/>
</a>
</g>
</g>
<!-- Node6 -->
<g id="Node000006" class="node">
<title>Node6</title>
<g id="a_Node000006"><a xlink:href="classApp_1_1Http_1_1Controllers_1_1StreamController.html#a9d88586972b21603c653a3d4e3fd8855" target="_top" xlink:title="Stream un fichier vidéo MP4 depuis un stockage distant avec support HTTP Range.">
<polygon fill="white" stroke="#666666" points="339.5,-30 178.5,-30 178.5,0 339.5,0 339.5,-30"/>
<text text-anchor="start" x="186.5" y="-18" font-family="Helvetica,sans-Serif" font-size="10.00">App\Http\Controllers</text>
<text text-anchor="middle" x="259" y="-7" font-family="Helvetica,sans-Serif" font-size="10.00">\StreamController\streamMP4</text>
</a>
</g>
</g>
<!-- Node1&#45;&gt;Node6 -->
<g id="edge7_Node000001_Node000006" class="edge">
<title>Node1&#45;&gt;Node6</title>
<g id="a_edge7_Node000001_Node000006"><a xlink:title=" ">
<path fill="none" stroke="#63b8ff" d="M87.62,-102.78C107.37,-85.41 141.94,-57.19 176,-40 180.53,-37.71 185.32,-35.59 190.2,-33.63"/>
<polygon fill="#63b8ff" stroke="#63b8ff" points="191.55,-36.86 199.68,-30.06 189.09,-30.31 191.55,-36.86"/>
</a>
</g>
</g>
<!-- Node3&#45;&gt;Node4 -->
<g id="edge3_Node000003_Node000004" class="edge">
<title>Node3&#45;&gt;Node4</title>
<g id="a_edge3_Node000003_Node000004"><a xlink:title=" ">
<path fill="none" stroke="#63b8ff" d="M342.21,-146.86C350.65,-144.79 359.27,-142.68 367.81,-140.59"/>
<polygon fill="#63b8ff" stroke="#63b8ff" points="368.9,-143.92 377.78,-138.14 367.24,-137.12 368.9,-143.92"/>
</a>
</g>
</g>
<!-- Node5&#45;&gt;Node4 -->
<g id="edge6_Node000005_Node000004" class="edge">
<title>Node5&#45;&gt;Node4</title>
<g id="a_edge6_Node000005_Node000004"><a xlink:title=" ">
<path fill="none" stroke="#63b8ff" d="M342.21,-89.14C350.65,-91.21 359.27,-93.32 367.81,-95.41"/>
<polygon fill="#63b8ff" stroke="#63b8ff" points="367.24,-98.88 377.78,-97.86 368.9,-92.08 367.24,-98.88"/>
</a>
</g>
</g>
</g>
</svg>
