<?xml version="1.0" encoding="UTF-8" standalone="no"?>
<!DOCTYPE svg PUBLIC "-//W3C//DTD SVG 1.1//EN"
 "http://www.w3.org/Graphics/SVG/1.1/DTD/svg11.dtd">
<!-- Generated by graphviz version 2.42.4 (0)
 -->
<!-- Title: App\Http\Controllers\Auth\AuthenticatedSessionController\store Pages: 1 -->
<svg width="806pt" height="69pt"
 viewBox="0.00 0.00 806.00 68.50" xmlns="http://www.w3.org/2000/svg" xmlns:xlink="http://www.w3.org/1999/xlink">
<g id="graph0" class="graph" transform="scale(1 1) rotate(0) translate(4 64.5)">
<title>App\Http\Controllers\Auth\AuthenticatedSessionController\store</title>
<!-- Node1 -->
<g id="Node000001" class="node">
<title>Node1</title>
<g id="a_Node000001"><a xlink:title="Handle an incoming authentication request.">
<polygon fill="#999999" stroke="#666666" points="227,-30 0,-30 0,0 227,0 227,-30"/>
<text text-anchor="start" x="8" y="-18" font-family="Helvetica,sans-Serif" font-size="10.00">App\Http\Controllers</text>
<text text-anchor="middle" x="113.5" y="-7" font-family="Helvetica,sans-Serif" font-size="10.00">\Auth\AuthenticatedSessionController\store</text>
</a>
</g>
</g>
<!-- Node2 -->
<g id="Node000002" class="node">
<title>Node2</title>
<g id="a_Node000002"><a xlink:href="classApp_1_1Http_1_1Requests_1_1Auth_1_1LoginRequest.html#a7be4cc5f6c415464b716807cc1b862ce" target="_top" xlink:title="Attempt to authenticate the request&#39;s credentials.">
<polygon fill="white" stroke="#666666" points="413,-30 263,-30 263,0 413,0 413,-30"/>
<text text-anchor="start" x="271" y="-18" font-family="Helvetica,sans-Serif" font-size="10.00">App\Http\Requests\Auth</text>
<text text-anchor="middle" x="338" y="-7" font-family="Helvetica,sans-Serif" font-size="10.00">\LoginRequest\authenticate</text>
</a>
</g>
</g>
<!-- Node1&#45;&gt;Node2 -->
<g id="edge1_Node000001_Node000002" class="edge">
<title>Node1&#45;&gt;Node2</title>
<g id="a_edge1_Node000001_Node000002"><a xlink:title=" ">
<path fill="none" stroke="#63b8ff" d="M227.05,-15C235.71,-15 244.36,-15 252.79,-15"/>
<polygon fill="#63b8ff" stroke="#63b8ff" points="252.95,-18.5 262.95,-15 252.95,-11.5 252.95,-18.5"/>
</a>
</g>
</g>
<!-- Node3 -->
<g id="Node000003" class="node">
<title>Node3</title>
<g id="a_Node000003"><a xlink:href="classApp_1_1Http_1_1Requests_1_1Auth_1_1LoginRequest.html#a673cadc2bf050f1c139636c261bc996e" target="_top" xlink:title="Ensure the login request is not rate limited.">
<polygon fill="white" stroke="#666666" points="619,-60.5 449,-60.5 449,-19.5 619,-19.5 619,-60.5"/>
<text text-anchor="start" x="457" y="-48.5" font-family="Helvetica,sans-Serif" font-size="10.00">App\Http\Requests\Auth</text>
<text text-anchor="start" x="457" y="-37.5" font-family="Helvetica,sans-Serif" font-size="10.00">\LoginRequest\ensureIsNotRate</text>
<text text-anchor="middle" x="534" y="-26.5" font-family="Helvetica,sans-Serif" font-size="10.00">Limited</text>
</a>
</g>
</g>
<!-- Node2&#45;&gt;Node3 -->
<g id="edge2_Node000002_Node000003" class="edge">
<title>Node2&#45;&gt;Node3</title>
<g id="a_edge2_Node000002_Node000003"><a xlink:title=" ">
<path fill="none" stroke="#63b8ff" d="M413.17,-24.56C421.55,-25.64 430.17,-26.75 438.77,-27.86"/>
<polygon fill="#63b8ff" stroke="#63b8ff" points="438.46,-31.35 448.82,-29.15 439.35,-24.4 438.46,-31.35"/>
</a>
</g>
</g>
<!-- Node4 -->
<g id="Node000004" class="node">
<title>Node4</title>
<g id="a_Node000004"><a xlink:href="classApp_1_1Http_1_1Requests_1_1Auth_1_1LoginRequest.html#aea2a6943931bedd74179057a5d67bb5c" target="_top" xlink:title="Get the rate limiting throttle key for the request.">
<polygon fill="white" stroke="#666666" points="798,-30 655,-30 655,0 798,0 798,-30"/>
<text text-anchor="start" x="663" y="-18" font-family="Helvetica,sans-Serif" font-size="10.00">App\Http\Requests\Auth</text>
<text text-anchor="middle" x="726.5" y="-7" font-family="Helvetica,sans-Serif" font-size="10.00">\LoginRequest\throttleKey</text>
</a>
</g>
</g>
<!-- Node2&#45;&gt;Node4 -->
<g id="edge4_Node000002_Node000004" class="edge">
<title>Node2&#45;&gt;Node4</title>
<g id="a_edge4_Node000002_Node000004"><a xlink:title=" ">
<path fill="none" stroke="#63b8ff" d="M413.25,-11.93C425.2,-11.54 437.44,-11.21 449,-11 524.54,-9.63 543.46,-9.58 619,-11 627.31,-11.16 635.98,-11.38 644.64,-11.64"/>
<polygon fill="#63b8ff" stroke="#63b8ff" points="644.65,-15.15 654.76,-11.97 644.88,-8.15 644.65,-15.15"/>
</a>
</g>
</g>
<!-- Node3&#45;&gt;Node4 -->
<g id="edge3_Node000003_Node000004" class="edge">
<title>Node3&#45;&gt;Node4</title>
<g id="a_edge3_Node000003_Node000004"><a xlink:title=" ">
<path fill="none" stroke="#63b8ff" d="M619.11,-28.96C627.71,-27.83 636.43,-26.69 644.98,-25.57"/>
<polygon fill="#63b8ff" stroke="#63b8ff" points="645.48,-29.03 654.94,-24.26 644.57,-22.09 645.48,-29.03"/>
</a>
</g>
</g>
</g>
</svg>
