<?xml version="1.0" encoding="UTF-8" standalone="no"?>
<!DOCTYPE svg PUBLIC "-//W3C//DTD SVG 1.1//EN"
 "http://www.w3.org/Graphics/SVG/1.1/DTD/svg11.dtd">
<!-- Generated by graphviz version 2.42.4 (0)
 -->
<!-- Title: App\Helpers\VideoHelper\generateLocalStoragePath Pages: 1 -->
<svg width="358pt" height="134pt"
 viewBox="0.00 0.00 358.00 134.00" xmlns="http://www.w3.org/2000/svg" xmlns:xlink="http://www.w3.org/1999/xlink">
<g id="graph0" class="graph" transform="scale(1 1) rotate(0) translate(4 130)">
<title>App\Helpers\VideoHelper\generateLocalStoragePath</title>
<!-- Node1 -->
<g id="Node000001" class="node">
<title>Node1</title>
<g id="a_Node000001"><a xlink:title="Génère un chemin de stockage local pour une vidéo.">
<polygon fill="#999999" stroke="#666666" points="147,-78 0,-78 0,-48 147,-48 147,-78"/>
<text text-anchor="start" x="8" y="-66" font-family="Helvetica,sans-Serif" font-size="10.00">App\Helpers\VideoHelper</text>
<text text-anchor="middle" x="73.5" y="-55" font-family="Helvetica,sans-Serif" font-size="10.00">\generateLocalStoragePath</text>
</a>
</g>
</g>
<!-- Node2 -->
<g id="Node000002" class="node">
<title>Node2</title>
<g id="a_Node000002"><a xlink:href="classApp_1_1Helpers_1_1VideoHelper.html#ab25474b53b0d39cf54e22c85ded5eba8" target="_top" xlink:title="Extrait le projet depuis le nom de fichier Format attendu: ANNEE_PROJET_TITRE.extension.">
<polygon fill="white" stroke="#666666" points="345.5,-126 187.5,-126 187.5,-96 345.5,-96 345.5,-126"/>
<text text-anchor="start" x="195.5" y="-114" font-family="Helvetica,sans-Serif" font-size="10.00">App\Helpers\VideoHelper</text>
<text text-anchor="middle" x="266.5" y="-103" font-family="Helvetica,sans-Serif" font-size="10.00">\extractProjectFromFilename</text>
</a>
</g>
</g>
<!-- Node1&#45;&gt;Node2 -->
<g id="edge1_Node000001_Node000002" class="edge">
<title>Node1&#45;&gt;Node2</title>
<g id="a_edge1_Node000001_Node000002"><a xlink:title=" ">
<path fill="none" stroke="#63b8ff" d="M134.41,-78.06C153.97,-82.97 175.84,-88.47 196.04,-93.54"/>
<polygon fill="#63b8ff" stroke="#63b8ff" points="195.25,-96.95 205.8,-96 196.96,-90.17 195.25,-96.95"/>
</a>
</g>
</g>
<!-- Node3 -->
<g id="Node000003" class="node">
<title>Node3</title>
<g id="a_Node000003"><a xlink:href="classApp_1_1Helpers_1_1VideoHelper.html#aa4833f20d6abeaef79a285504b6c4bfe" target="_top" xlink:title="Extrait l&#39;année depuis le nom de fichier Format attendu: ANNEE_PROJET_TITRE.extension.">
<polygon fill="white" stroke="#666666" points="338.5,-78 194.5,-78 194.5,-48 338.5,-48 338.5,-78"/>
<text text-anchor="start" x="202.5" y="-66" font-family="Helvetica,sans-Serif" font-size="10.00">App\Helpers\VideoHelper</text>
<text text-anchor="middle" x="266.5" y="-55" font-family="Helvetica,sans-Serif" font-size="10.00">\extractYearFromFilename</text>
</a>
</g>
</g>
<!-- Node1&#45;&gt;Node3 -->
<g id="edge2_Node000001_Node000003" class="edge">
<title>Node1&#45;&gt;Node3</title>
<g id="a_edge2_Node000001_Node000003"><a xlink:title=" ">
<path fill="none" stroke="#63b8ff" d="M147.25,-63C159.28,-63 171.81,-63 184.04,-63"/>
<polygon fill="#63b8ff" stroke="#63b8ff" points="184.21,-66.5 194.21,-63 184.21,-59.5 184.21,-66.5"/>
</a>
</g>
</g>
<!-- Node4 -->
<g id="Node000004" class="node">
<title>Node4</title>
<g id="a_Node000004"><a xlink:href="classApp_1_1Helpers_1_1VideoHelper.html#ab2e7c9566176701ed22e38055f5bb78e" target="_top" xlink:title="Récupère le nom du fichier sans son extension.">
<polygon fill="white" stroke="#666666" points="350,-30 183,-30 183,0 350,0 350,-30"/>
<text text-anchor="start" x="191" y="-18" font-family="Helvetica,sans-Serif" font-size="10.00">App\Helpers\VideoHelper</text>
<text text-anchor="middle" x="266.5" y="-7" font-family="Helvetica,sans-Serif" font-size="10.00">\getFilenameWithoutExtension</text>
</a>
</g>
</g>
<!-- Node1&#45;&gt;Node4 -->
<g id="edge3_Node000001_Node000004" class="edge">
<title>Node1&#45;&gt;Node4</title>
<g id="a_edge3_Node000001_Node000004"><a xlink:title=" ">
<path fill="none" stroke="#63b8ff" d="M134.41,-47.94C153.97,-43.03 175.84,-37.53 196.04,-32.46"/>
<polygon fill="#63b8ff" stroke="#63b8ff" points="196.96,-35.83 205.8,-30 195.25,-29.05 196.96,-35.83"/>
</a>
</g>
</g>
</g>
</svg>
