<?xml version="1.0" encoding="UTF-8" standalone="no"?>
<!DOCTYPE svg PUBLIC "-//W3C//DTD SVG 1.1//EN"
 "http://www.w3.org/Graphics/SVG/1.1/DTD/svg11.dtd">
<!-- Generated by graphviz version 2.42.4 (0)
 -->
<!-- Title: App\Helpers\VideoHelper\getFilenameWithoutExtension Pages: 1 -->
<svg width="358pt" height="278pt"
 viewBox="0.00 0.00 358.00 278.00" xmlns="http://www.w3.org/2000/svg" xmlns:xlink="http://www.w3.org/1999/xlink">

<svg id="main" version="1.1" xmlns="http://www.w3.org/2000/svg" xmlns:xlink="http://www.w3.org/1999/xlink" xml:space="preserve" onload="init(evt)">
<style type="text/css"><![CDATA[
.node, .edge {opacity: 0.7;}
.node.selected, .edge.selected {opacity: 1;}
.edge:hover path { stroke: red; }
.edge:hover polygon { stroke: red; fill: red; }
]]></style>
<script type="application/ecmascript" xlink:href="svg.min.js"/>
<svg id="graph" class="graph">
<g id="graph0" class="graph" transform="scale(1 1) rotate(0) translate(4 274)">
<title>App\Helpers\VideoHelper\getFilenameWithoutExtension</title>
<!-- Node1 -->
<g id="Node000001" class="node">
<title>Node1</title>
<g id="a_Node000001"><a xlink:title="Récupère le nom du fichier sans son extension.">
<polygon fill="#999999" stroke="#666666" points="350,-150 183,-150 183,-120 350,-120 350,-150"/>
<text text-anchor="start" x="191" y="-138" font-family="Helvetica,sans-Serif" font-size="10.00">App\Helpers\VideoHelper</text>
<text text-anchor="middle" x="266.5" y="-127" font-family="Helvetica,sans-Serif" font-size="10.00">\getFilenameWithoutExtension</text>
</a>
</g>
</g>
<!-- Node2 -->
<g id="Node000002" class="node">
<title>Node2</title>
<g id="a_Node000002"><a xlink:href="classApp_1_1Helpers_1_1VideoHelper.html#a08153060ae3e727912f39d210b9eb990" target="_top" xlink:title="Vérifie la correspondance entre deux noms de vidéos (sans tenir compte de l&#39;extension)">
<polygon fill="white" stroke="#666666" points="143,-270 4,-270 4,-240 143,-240 143,-270"/>
<text text-anchor="start" x="12" y="-258" font-family="Helvetica,sans-Serif" font-size="10.00">App\Helpers\VideoHelper</text>
<text text-anchor="middle" x="73.5" y="-247" font-family="Helvetica,sans-Serif" font-size="10.00">\areVideosMatching</text>
</a>
</g>
</g>
<!-- Node1&#45;&gt;Node2 -->
<g id="edge1_Node000001_Node000002" class="edge">
<title>Node1&#45;&gt;Node2</title>
<g id="a_edge1_Node000001_Node000002"><a xlink:title=" ">
<path fill="none" stroke="#63b8ff" d="M243.36,-157.11C220.81,-178.57 183.99,-210.78 147,-231 140.95,-234.31 134.37,-237.26 127.72,-239.87"/>
<polygon fill="#63b8ff" stroke="#63b8ff" points="245.96,-159.47 250.72,-150.01 241.09,-154.44 245.96,-159.47"/>
</a>
</g>
</g>
<!-- Node3 -->
<g id="Node000003" class="node">
<title>Node3</title>
<g id="a_Node000003"><a xlink:href="classApp_1_1Helpers_1_1VideoHelper.html#a7f962f977db915c49a891a50c04a26d2" target="_top" xlink:title="Extrait le titre de la vidéo depuis le nom de fichier Format attendu: ANNEE_PROJET_TITRE....">
<polygon fill="white" stroke="#666666" points="143,-222 4,-222 4,-192 143,-192 143,-222"/>
<text text-anchor="start" x="12" y="-210" font-family="Helvetica,sans-Serif" font-size="10.00">App\Helpers\VideoHelper</text>
<text text-anchor="middle" x="73.5" y="-199" font-family="Helvetica,sans-Serif" font-size="10.00">\extractVideoTitle</text>
</a>
</g>
</g>
<!-- Node1&#45;&gt;Node3 -->
<g id="edge2_Node000001_Node000003" class="edge">
<title>Node1&#45;&gt;Node3</title>
<g id="a_edge2_Node000001_Node000003"><a xlink:title=" ">
<path fill="none" stroke="#63b8ff" d="M220.53,-154.02C198.5,-163.13 171.5,-173.99 147,-183 138.79,-186.02 129.99,-189.08 121.46,-191.95"/>
<polygon fill="#63b8ff" stroke="#63b8ff" points="222.06,-157.17 229.96,-150.1 219.38,-150.71 222.06,-157.17"/>
</a>
</g>
</g>
<!-- Node4 -->
<g id="Node000004" class="node">
<title>Node4</title>
<g id="a_Node000004"><a xlink:href="classApp_1_1Helpers_1_1VideoHelper.html#a1b15bc6ff810d6f83e7aa97b9c811d16" target="_top" xlink:title="Force l&#39;extension d&#39;un fichier en .mp4.">
<polygon fill="white" stroke="#666666" points="143,-174 4,-174 4,-144 143,-144 143,-174"/>
<text text-anchor="start" x="12" y="-162" font-family="Helvetica,sans-Serif" font-size="10.00">App\Helpers\VideoHelper</text>
<text text-anchor="middle" x="73.5" y="-151" font-family="Helvetica,sans-Serif" font-size="10.00">\forceExtensionMp4</text>
</a>
</g>
</g>
<!-- Node1&#45;&gt;Node4 -->
<g id="edge3_Node000001_Node000004" class="edge">
<title>Node1&#45;&gt;Node4</title>
<g id="a_edge3_Node000001_Node000004"><a xlink:title=" ">
<path fill="none" stroke="#63b8ff" d="M172.88,-146.64C162.9,-147.89 152.88,-149.15 143.25,-150.36"/>
<polygon fill="#63b8ff" stroke="#63b8ff" points="173.35,-150.11 182.84,-145.39 172.48,-143.16 173.35,-150.11"/>
</a>
</g>
</g>
<!-- Node5 -->
<g id="Node000005" class="node">
<title>Node5</title>
<g id="a_Node000005"><a xlink:href="classApp_1_1Helpers_1_1VideoHelper.html#abd111a16e0c3be928242f6baf767a718" target="_top" xlink:title="Force l&#39;extension d&#39;un fichier en .mxf.">
<polygon fill="white" stroke="#666666" points="143,-126 4,-126 4,-96 143,-96 143,-126"/>
<text text-anchor="start" x="12" y="-114" font-family="Helvetica,sans-Serif" font-size="10.00">App\Helpers\VideoHelper</text>
<text text-anchor="middle" x="73.5" y="-103" font-family="Helvetica,sans-Serif" font-size="10.00">\forceExtensionMxf</text>
</a>
</g>
</g>
<!-- Node1&#45;&gt;Node5 -->
<g id="edge4_Node000001_Node000005" class="edge">
<title>Node1&#45;&gt;Node5</title>
<g id="a_edge4_Node000001_Node000005"><a xlink:title=" ">
<path fill="none" stroke="#63b8ff" d="M172.88,-123.36C162.9,-122.11 152.88,-120.85 143.25,-119.64"/>
<polygon fill="#63b8ff" stroke="#63b8ff" points="172.48,-126.84 182.84,-124.61 173.35,-119.89 172.48,-126.84"/>
</a>
</g>
</g>
<!-- Node6 -->
<g id="Node000006" class="node">
<title>Node6</title>
<g id="a_Node000006"><a xlink:href="classApp_1_1Helpers_1_1VideoHelper.html#a6e80785547e47a678eab26eac724beb3" target="_top" xlink:title="Génère un chemin de stockage local pour une vidéo.">
<polygon fill="white" stroke="#666666" points="147,-78 0,-78 0,-48 147,-48 147,-78"/>
<text text-anchor="start" x="8" y="-66" font-family="Helvetica,sans-Serif" font-size="10.00">App\Helpers\VideoHelper</text>
<text text-anchor="middle" x="73.5" y="-55" font-family="Helvetica,sans-Serif" font-size="10.00">\generateLocalStoragePath</text>
</a>
</g>
</g>
<!-- Node1&#45;&gt;Node6 -->
<g id="edge5_Node000001_Node000006" class="edge">
<title>Node1&#45;&gt;Node6</title>
<g id="a_edge5_Node000001_Node000006"><a xlink:title=" ">
<path fill="none" stroke="#63b8ff" d="M220.53,-115.98C198.5,-106.87 171.5,-96.01 147,-87 138.79,-83.98 129.99,-80.92 121.46,-78.05"/>
<polygon fill="#63b8ff" stroke="#63b8ff" points="219.38,-119.29 229.96,-119.9 222.06,-112.83 219.38,-119.29"/>
</a>
</g>
</g>
<!-- Node7 -->
<g id="Node000007" class="node">
<title>Node7</title>
<g id="a_Node000007"><a xlink:href="classApp_1_1Helpers_1_1VideoHelper.html#acad53354270489deacc37b11aa612420" target="_top" xlink:title="Génère le nom de la miniature d&#39;une vidéo.">
<polygon fill="white" stroke="#666666" points="143,-30 4,-30 4,0 143,0 143,-30"/>
<text text-anchor="start" x="12" y="-18" font-family="Helvetica,sans-Serif" font-size="10.00">App\Helpers\VideoHelper</text>
<text text-anchor="middle" x="73.5" y="-7" font-family="Helvetica,sans-Serif" font-size="10.00">\getThumbnailName</text>
</a>
</g>
</g>
<!-- Node1&#45;&gt;Node7 -->
<g id="edge6_Node000001_Node000007" class="edge">
<title>Node1&#45;&gt;Node7</title>
<g id="a_edge6_Node000001_Node000007"><a xlink:title=" ">
<path fill="none" stroke="#63b8ff" d="M243.36,-112.89C220.81,-91.43 183.99,-59.22 147,-39 140.95,-35.69 134.37,-32.74 127.72,-30.13"/>
<polygon fill="#63b8ff" stroke="#63b8ff" points="241.09,-115.56 250.72,-119.99 245.96,-110.53 241.09,-115.56"/>
</a>
</g>
</g>
</g>
</svg>
</svg>

<style type='text/css'>
<![CDATA[
[data-mouse-over-selected='false'] { opacity: 0.7; }
[data-mouse-over-selected='true']  { opacity: 1.0; }
]]>
</style>
<script type="application/ecmascript"><![CDATA[
document.addEventListener('DOMContentLoaded', (event) => {
  highlightEdges();
  highlightAdjacentNodes();
});
]]></script>
</svg>
