<?xml version="1.0" encoding="UTF-8" standalone="no"?>
<!DOCTYPE svg PUBLIC "-//W3C//DTD SVG 1.1//EN"
 "http://www.w3.org/Graphics/SVG/1.1/DTD/svg11.dtd">
<!-- Generated by graphviz version 2.42.4 (0)
 -->
<!-- Title: App\Models\Role Pages: 1 -->
<svg width="104pt" height="142pt"
 viewBox="0.00 0.00 104.00 142.00" xmlns="http://www.w3.org/2000/svg" xmlns:xlink="http://www.w3.org/1999/xlink">
<g id="graph0" class="graph" transform="scale(1 1) rotate(0) translate(4 138)">
<title>App\Models\Role</title>
<!-- Node1 -->
<g id="Node000001" class="node">
<title>Node1</title>
<g id="a_Node000001"><a xlink:title=" ">
<polygon fill="#999999" stroke="transparent" points="96,-49 0,-49 0,0 96,0 96,-49"/>
<text text-anchor="start" x="7" y="-36.5" font-family="Helvetica,sans-Serif" font-size="10.00">App\Models\Role</text>
<text text-anchor="start" x="4" y="-21.5" font-family="Helvetica,sans-Serif" font-size="10.00">#</text>
<text text-anchor="start" x="17" y="-21.5" font-family="Helvetica,sans-Serif" font-size="10.00">$fillable</text>
<text text-anchor="start" x="4" y="-6.5" font-family="Helvetica,sans-Serif" font-size="10.00">+</text>
<text text-anchor="start" x="17" y="-6.5" font-family="Helvetica,sans-Serif" font-size="10.00">participations()</text>
<polygon fill="#666666" stroke="#666666" points="0,-31.5 0,-31.5 96,-31.5 96,-31.5 0,-31.5"/>
<polygon fill="#666666" stroke="#666666" points="0,-16.5 0,-16.5 15,-16.5 15,-16.5 0,-16.5"/>
<polygon fill="#666666" stroke="#666666" points="15,-16.5 15,-16.5 96,-16.5 96,-16.5 15,-16.5"/>
<polygon fill="none" stroke="#666666" points="0,0 0,-49 96,-49 96,0 0,0"/>
</a>
</g>
</g>
<!-- Node2 -->
<g id="Node000002" class="node">
<title>Node2</title>
<g id="a_Node000002"><a xlink:title=" ">
<polygon fill="white" stroke="transparent" points="68.5,-134 27.5,-134 27.5,-85 68.5,-85 68.5,-134"/>
<text text-anchor="start" x="33" y="-121.5" font-family="Helvetica,sans-Serif" font-size="10.00">Model</text>
<text text-anchor="start" x="46.5" y="-106.5" font-family="Helvetica,sans-Serif" font-size="10.00"> </text>
<text text-anchor="start" x="46.5" y="-91.5" font-family="Helvetica,sans-Serif" font-size="10.00"> </text>
<polygon fill="#666666" stroke="#666666" points="28,-116.5 28,-116.5 69,-116.5 69,-116.5 28,-116.5"/>
<polygon fill="#666666" stroke="#666666" points="28,-101.5 28,-101.5 69,-101.5 69,-101.5 28,-101.5"/>
<polygon fill="none" stroke="#666666" points="27.5,-85 27.5,-134 68.5,-134 68.5,-85 27.5,-85"/>
</a>
</g>
</g>
<!-- Node2&#45;&gt;Node1 -->
<g id="edge1_Node000001_Node000002" class="edge">
<title>Node2&#45;&gt;Node1</title>
<g id="a_edge1_Node000001_Node000002"><a xlink:title=" ">
<path fill="none" stroke="#63b8ff" d="M48,-74.77C48,-66.17 48,-57.1 48,-49.12"/>
<polygon fill="none" stroke="#63b8ff" points="44.5,-74.94 48,-84.94 51.5,-74.94 44.5,-74.94"/>
</a>
</g>
</g>
</g>
</svg>
