<?xml version="1.0" encoding="UTF-8" standalone="no"?>
<!DOCTYPE svg PUBLIC "-//W3C//DTD SVG 1.1//EN"
 "http://www.w3.org/Graphics/SVG/1.1/DTD/svg11.dtd">
<!-- Generated by graphviz version 2.42.4 (0)
 -->
<!-- Title: Tests\Feature\SearchControllerTest Pages: 1 -->
<!--zoomable 635 -->

<svg id="main" version="1.1" xmlns="http://www.w3.org/2000/svg" xmlns:xlink="http://www.w3.org/1999/xlink" xml:space="preserve" onload="init(evt)">
<style type="text/css"><![CDATA[
.node, .edge {opacity: 0.7;}
.node.selected, .edge.selected {opacity: 1;}
.edge:hover path { stroke: red; }
.edge:hover polygon { stroke: red; fill: red; }
]]></style>

<defs>
  <circle id="rim" cx="0" cy="0" r="7"/>
  <circle id="rim2" cx="0" cy="0" r="3.5"/>
  <g id="zoomPlus">
    <use xlink:href="#rim" fill="#404040"><set attributeName="fill" to="#808080" begin="zoomplus.mouseover" end="zoomplus.mouseout"/></use>
    <path d="M-4,0h8M0,-4v8" fill="none" stroke="white" stroke-width="1.5" pointer-events="none"/>
  </g>
  <g id="zoomMin">
    <use xlink:href="#rim" fill="#404040"><set attributeName="fill" to="#808080" begin="zoomminus.mouseover" end="zoomminus.mouseout"/></use>
    <path d="M-4,0h8" fill="none" stroke="white" stroke-width="1.5" pointer-events="none"/>
  </g>
  <g id="arrowUp" transform="translate(30 24)">
    <use xlink:href="#rim"/>
    <path pointer-events="none" fill="none" stroke="white" stroke-width="1.5" d="M0,-3.0v7 M-2.5,-0.5L0,-3.0L2.5,-0.5"/>
  </g>
  <g id="arrowRight" transform="rotate(90) translate(36 -43)">
    <use xlink:href="#rim"/>
    <path pointer-events="none" fill="none" stroke="white" stroke-width="1.5" d="M0,-3.0v7 M-2.5,-0.5L0,-3.0L2.5,-0.5"/>
  </g>
  <g id="arrowDown" transform="rotate(180) translate(-30 -48)">
    <use xlink:href="#rim"/>
    <path pointer-events="none" fill="none" stroke="white" stroke-width="1.5" d="M0,-3.0v7 M-2.5,-0.5L0,-3.0L2.5,-0.5"/>
  </g>
  <g id="arrowLeft" transform="rotate(270) translate(-36 17)">
    <use xlink:href="#rim"/>
    <path pointer-events="none" fill="none" stroke="white" stroke-width="1.5" d="M0,-3.0v7 M-2.5,-0.5L0,-3.0L2.5,-0.5"/>
  </g>
  <g id="resetDef">
    <use xlink:href="#rim2" fill="#404040"><set attributeName="fill" to="#808080" begin="reset.mouseover" end="reset.mouseout"/></use>
  </g>
</defs>
<script type="application/ecmascript">
var viewWidth = 187;
var viewHeight = 635;
var sectionId = 'dynsection-1';
</script>
<script type="application/ecmascript" xlink:href="svg.min.js"/>
<svg id="graph" class="graph">
<g id="viewport">
<title>Tests\Feature\SearchControllerTest</title>
<!-- Node1 -->
<g id="Node000001" class="node">
<title>Node1</title>
<g id="a_Node000001"><a xlink:title=" ">
<polygon fill="#999999" stroke="transparent" points="179,-457 0,-457 0,0 179,0 179,-457"/>
<text text-anchor="start" x="5.5" y="-444.5" font-family="Helvetica,sans-Serif" font-size="10.00">Tests\Feature\SearchControllerTest</text>
<text text-anchor="start" x="88" y="-429.5" font-family="Helvetica,sans-Serif" font-size="10.00"> </text>
<text text-anchor="start" x="8.5" y="-414.5" font-family="Helvetica,sans-Serif" font-size="10.00">+</text>
<text text-anchor="start" x="25.5" y="-414.5" font-family="Helvetica,sans-Serif" font-size="10.00">index_displays_search</text>
<text text-anchor="start" x="25.5" y="-403.5" font-family="Helvetica,sans-Serif" font-size="10.00">_page_without_results</text>
<text text-anchor="start" x="25.5" y="-392.5" font-family="Helvetica,sans-Serif" font-size="10.00">_when_no_query()</text>
<text text-anchor="start" x="8.5" y="-377.5" font-family="Helvetica,sans-Serif" font-size="10.00">+</text>
<text text-anchor="start" x="25.5" y="-377.5" font-family="Helvetica,sans-Serif" font-size="10.00">index_searches_with</text>
<text text-anchor="start" x="25.5" y="-366.5" font-family="Helvetica,sans-Serif" font-size="10.00">_description_parameter()</text>
<text text-anchor="start" x="8.5" y="-351.5" font-family="Helvetica,sans-Serif" font-size="10.00">+</text>
<text text-anchor="start" x="25.5" y="-351.5" font-family="Helvetica,sans-Serif" font-size="10.00">index_searches_with</text>
<text text-anchor="start" x="25.5" y="-340.5" font-family="Helvetica,sans-Serif" font-size="10.00">_motCle_parameter()</text>
<text text-anchor="start" x="8.5" y="-325.5" font-family="Helvetica,sans-Serif" font-size="10.00">+</text>
<text text-anchor="start" x="25.5" y="-325.5" font-family="Helvetica,sans-Serif" font-size="10.00">index_prioritizes</text>
<text text-anchor="start" x="25.5" y="-314.5" font-family="Helvetica,sans-Serif" font-size="10.00">_description_over_motCle()</text>
<text text-anchor="start" x="8.5" y="-299.5" font-family="Helvetica,sans-Serif" font-size="10.00">+</text>
<text text-anchor="start" x="25.5" y="-299.5" font-family="Helvetica,sans-Serif" font-size="10.00">index_loads_projets</text>
<text text-anchor="start" x="25.5" y="-288.5" font-family="Helvetica,sans-Serif" font-size="10.00">_and_professeurs_for</text>
<text text-anchor="start" x="25.5" y="-277.5" font-family="Helvetica,sans-Serif" font-size="10.00">_filters()</text>
<text text-anchor="start" x="8.5" y="-262.5" font-family="Helvetica,sans-Serif" font-size="10.00">+</text>
<text text-anchor="start" x="25.5" y="-262.5" font-family="Helvetica,sans-Serif" font-size="10.00">index_paginates_results()</text>
<text text-anchor="start" x="8.5" y="-247.5" font-family="Helvetica,sans-Serif" font-size="10.00">+</text>
<text text-anchor="start" x="25.5" y="-247.5" font-family="Helvetica,sans-Serif" font-size="10.00">index_appends_query</text>
<text text-anchor="start" x="25.5" y="-236.5" font-family="Helvetica,sans-Serif" font-size="10.00">_parameters_to_pagination()</text>
<text text-anchor="start" x="8.5" y="-221.5" font-family="Helvetica,sans-Serif" font-size="10.00">+</text>
<text text-anchor="start" x="25.5" y="-221.5" font-family="Helvetica,sans-Serif" font-size="10.00">autocomplete_returns</text>
<text text-anchor="start" x="25.5" y="-210.5" font-family="Helvetica,sans-Serif" font-size="10.00">_matching_titles()</text>
<text text-anchor="start" x="8.5" y="-195.5" font-family="Helvetica,sans-Serif" font-size="10.00">+</text>
<text text-anchor="start" x="25.5" y="-195.5" font-family="Helvetica,sans-Serif" font-size="10.00">autocomplete_limits</text>
<text text-anchor="start" x="25.5" y="-184.5" font-family="Helvetica,sans-Serif" font-size="10.00">_results_to_10()</text>
<text text-anchor="start" x="8.5" y="-169.5" font-family="Helvetica,sans-Serif" font-size="10.00">+</text>
<text text-anchor="start" x="25.5" y="-169.5" font-family="Helvetica,sans-Serif" font-size="10.00">autocomplete_returns</text>
<text text-anchor="start" x="25.5" y="-158.5" font-family="Helvetica,sans-Serif" font-size="10.00">_empty_array_when_no</text>
<text text-anchor="start" x="25.5" y="-147.5" font-family="Helvetica,sans-Serif" font-size="10.00">_matches()</text>
<text text-anchor="start" x="8.5" y="-132.5" font-family="Helvetica,sans-Serif" font-size="10.00">+</text>
<text text-anchor="start" x="25.5" y="-132.5" font-family="Helvetica,sans-Serif" font-size="10.00">autocomplete_handles</text>
<text text-anchor="start" x="25.5" y="-121.5" font-family="Helvetica,sans-Serif" font-size="10.00">_empty_term()</text>
<text text-anchor="start" x="8.5" y="-106.5" font-family="Helvetica,sans-Serif" font-size="10.00">+</text>
<text text-anchor="start" x="25.5" y="-106.5" font-family="Helvetica,sans-Serif" font-size="10.00">autocomplete_is_case</text>
<text text-anchor="start" x="25.5" y="-95.5" font-family="Helvetica,sans-Serif" font-size="10.00">_insensitive()</text>
<text text-anchor="start" x="8.5" y="-80.5" font-family="Helvetica,sans-Serif" font-size="10.00">+</text>
<text text-anchor="start" x="25.5" y="-80.5" font-family="Helvetica,sans-Serif" font-size="10.00">autocomplete_searches</text>
<text text-anchor="start" x="25.5" y="-69.5" font-family="Helvetica,sans-Serif" font-size="10.00">_partial_matches()</text>
<text text-anchor="start" x="8.5" y="-54.5" font-family="Helvetica,sans-Serif" font-size="10.00">+</text>
<text text-anchor="start" x="25.5" y="-54.5" font-family="Helvetica,sans-Serif" font-size="10.00">index_uses_media_service</text>
<text text-anchor="start" x="25.5" y="-43.5" font-family="Helvetica,sans-Serif" font-size="10.00">_for_search()</text>
<text text-anchor="start" x="8.5" y="-28.5" font-family="Helvetica,sans-Serif" font-size="10.00">+</text>
<text text-anchor="start" x="25.5" y="-28.5" font-family="Helvetica,sans-Serif" font-size="10.00">index_returns_all</text>
<text text-anchor="start" x="25.5" y="-17.5" font-family="Helvetica,sans-Serif" font-size="10.00">_medias_when_no_search</text>
<text text-anchor="start" x="25.5" y="-6.5" font-family="Helvetica,sans-Serif" font-size="10.00">_term()</text>
<polygon fill="#666666" stroke="#666666" points="0.5,-439.5 0.5,-439.5 179.5,-439.5 179.5,-439.5 0.5,-439.5"/>
<polygon fill="#666666" stroke="#666666" points="0.5,-424.5 0.5,-424.5 179.5,-424.5 179.5,-424.5 0.5,-424.5"/>
<polygon fill="none" stroke="#666666" points="0,0 0,-457 179,-457 179,0 0,0"/>
</a>
</g>
</g>
<!-- Node2 -->
<g id="Node000002" class="node">
<title>Node2</title>
<g id="a_Node000002"><a xlink:href="classTests_1_1TestCase.html" target="_top" xlink:title=" ">
<polygon fill="white" stroke="transparent" points="130.5,-542 48.5,-542 48.5,-493 130.5,-493 130.5,-542"/>
<text text-anchor="start" x="53.5" y="-529.5" font-family="Helvetica,sans-Serif" font-size="10.00">Tests\TestCase</text>
<text text-anchor="start" x="87.5" y="-514.5" font-family="Helvetica,sans-Serif" font-size="10.00"> </text>
<text text-anchor="start" x="87.5" y="-499.5" font-family="Helvetica,sans-Serif" font-size="10.00"> </text>
<polygon fill="#666666" stroke="#666666" points="48.5,-524.5 48.5,-524.5 130.5,-524.5 130.5,-524.5 48.5,-524.5"/>
<polygon fill="#666666" stroke="#666666" points="48.5,-509.5 48.5,-509.5 130.5,-509.5 130.5,-509.5 48.5,-509.5"/>
<polygon fill="none" stroke="#666666" points="48.5,-493 48.5,-542 130.5,-542 130.5,-493 48.5,-493"/>
</a>
</g>
</g>
<!-- Node2&#45;&gt;Node1 -->
<g id="edge1_Node000001_Node000002" class="edge">
<title>Node2&#45;&gt;Node1</title>
<g id="a_edge1_Node000001_Node000002"><a xlink:title=" ">
<path fill="none" stroke="#63b8ff" d="M89.5,-482.28C89.5,-474.8 89.5,-466.34 89.5,-457.18"/>
<polygon fill="none" stroke="#63b8ff" points="86,-482.52 89.5,-492.52 93,-482.52 86,-482.52"/>
</a>
</g>
</g>
<!-- Node3 -->
<g id="Node000003" class="node">
<title>Node3</title>
<g id="a_Node000003"><a xlink:title=" ">
<polygon fill="white" stroke="transparent" points="128.5,-627 50.5,-627 50.5,-578 128.5,-578 128.5,-627"/>
<text text-anchor="start" x="55.5" y="-614.5" font-family="Helvetica,sans-Serif" font-size="10.00">BaseTestCase</text>
<text text-anchor="start" x="87.5" y="-599.5" font-family="Helvetica,sans-Serif" font-size="10.00"> </text>
<text text-anchor="start" x="87.5" y="-584.5" font-family="Helvetica,sans-Serif" font-size="10.00"> </text>
<polygon fill="#666666" stroke="#666666" points="50.5,-609.5 50.5,-609.5 128.5,-609.5 128.5,-609.5 50.5,-609.5"/>
<polygon fill="#666666" stroke="#666666" points="50.5,-594.5 50.5,-594.5 128.5,-594.5 128.5,-594.5 50.5,-594.5"/>
<polygon fill="none" stroke="#666666" points="50.5,-578 50.5,-627 128.5,-627 128.5,-578 50.5,-578"/>
</a>
</g>
</g>
<!-- Node3&#45;&gt;Node2 -->
<g id="edge2_Node000002_Node000003" class="edge">
<title>Node3&#45;&gt;Node2</title>
<g id="a_edge2_Node000002_Node000003"><a xlink:title=" ">
<path fill="none" stroke="#63b8ff" d="M89.5,-567.77C89.5,-559.17 89.5,-550.1 89.5,-542.12"/>
<polygon fill="none" stroke="#63b8ff" points="86,-567.94 89.5,-577.94 93,-567.94 86,-567.94"/>
</a>
</g>
</g>
</g>
</svg>

<g id="navigator" transform="translate(0 0)" fill="#404254">
  <rect fill="#f2f5e9" fill-opacity="0.5" stroke="#606060" stroke-width=".5" x="0" y="0" width="60" height="60"/>
  <use id="zoomplus" xlink:href="#zoomPlus" x="17" y="9" onmousedown="handleZoom(evt,'in')"/>
  <use id="zoomminus" xlink:href="#zoomMin" x="42" y="9" onmousedown="handleZoom(evt,'out')"/>
  <use id="reset" xlink:href="#resetDef" x="30" y="36" onmousedown="handleReset()"/>
   <use id="arrowup" xlink:href="#arrowUp" x="0" y="0" onmousedown="handlePan(0,-1)"/>
  <use id="arrowright" xlink:href="#arrowRight" x="0" y="0" onmousedown="handlePan(1,0)"/>
  <use id="arrowdown" xlink:href="#arrowDown" x="0" y="0" onmousedown="handlePan(0,1)"/>
  <use id="arrowleft" xlink:href="#arrowLeft" x="0" y="0" onmousedown="handlePan(-1,0)"/>
</g>
<svg viewBox="0 0 15 15" width="100%" height="30px" preserveAspectRatio="xMaxYMin meet">
 <g id="arrow_out" transform="scale(0.3 0.3)">
  <a xlink:href="classTests_1_1Feature_1_1SearchControllerTest__coll__graph_org.svg" target="_base">
   <rect id="button" ry="5" rx="5" y="6" x="6" height="38" width="38"
        fill="#f2f5e9" fill-opacity="0.5" stroke="#606060" stroke-width="1.0"/>
   <path id="arrow"
     d="M 11.500037,31.436501 C 11.940474,20.09759 22.043105,11.32322 32.158766,21.979434 L 37.068811,17.246167 C 37.068811,17.246167 37.088388,32 37.088388,32 L 22.160133,31.978069 C 22.160133,31.978069 26.997745,27.140456 26.997745,27.140456 C 18.528582,18.264221 13.291696,25.230495 11.500037,31.436501 z"
     style="fill:#404040;"/>
  </a>
 </g>
</svg>

<style type='text/css'>
<![CDATA[
[data-mouse-over-selected='false'] { opacity: 0.7; }
[data-mouse-over-selected='true']  { opacity: 1.0; }
]]>
</style>
<script type="application/ecmascript"><![CDATA[
document.addEventListener('DOMContentLoaded', (event) => {
  highlightEdges();
  highlightAdjacentNodes();
});
]]></script>
</svg>
