<?xml version="1.0" encoding="UTF-8" standalone="no"?>
<!DOCTYPE svg PUBLIC "-//W3C//DTD SVG 1.1//EN"
 "http://www.w3.org/Graphics/SVG/1.1/DTD/svg11.dtd">
<!-- Generated by graphviz version 2.42.4 (0)
 -->
<!-- Title: App\Models\Professeur Pages: 1 -->
<svg width="130pt" height="157pt"
 viewBox="0.00 0.00 130.00 157.00" xmlns="http://www.w3.org/2000/svg" xmlns:xlink="http://www.w3.org/1999/xlink">
<g id="graph0" class="graph" transform="scale(1 1) rotate(0) translate(4 153)">
<title>App\Models\Professeur</title>
<!-- Node1 -->
<g id="Node000001" class="node">
<title>Node1</title>
<g id="a_Node000001"><a xlink:title=" ">
<polygon fill="#999999" stroke="transparent" points="122,-64 0,-64 0,0 122,0 122,-64"/>
<text text-anchor="start" x="5" y="-52" font-family="Helvetica,sans-Serif" font-size="10.00">App\Models\Professeur</text>
<text text-anchor="start" x="19" y="-37" font-family="Helvetica,sans-Serif" font-size="10.00">#</text>
<text text-anchor="start" x="47" y="-37" font-family="Helvetica,sans-Serif" font-size="10.00">$fillable</text>
<text text-anchor="start" x="19" y="-22" font-family="Helvetica,sans-Serif" font-size="10.00">+</text>
<text text-anchor="start" x="47" y="-22" font-family="Helvetica,sans-Serif" font-size="10.00">media()</text>
<text text-anchor="start" x="19" y="-7" font-family="Helvetica,sans-Serif" font-size="10.00">+</text>
<text text-anchor="start" x="47" y="-7" font-family="Helvetica,sans-Serif" font-size="10.00">user()</text>
<polygon fill="#666666" stroke="#666666" points="0,-47 0,-47 122,-47 122,-47 0,-47"/>
<polygon fill="#666666" stroke="#666666" points="0,-32 0,-32 45,-32 45,-32 0,-32"/>
<polygon fill="#666666" stroke="#666666" points="45,-32 45,-32 122,-32 122,-32 45,-32"/>
<polygon fill="none" stroke="#666666" points="0,0 0,-64 122,-64 122,0 0,0"/>
</a>
</g>
</g>
<!-- Node2 -->
<g id="Node000002" class="node">
<title>Node2</title>
<g id="a_Node000002"><a xlink:title=" ">
<polygon fill="white" stroke="transparent" points="81.5,-149 40.5,-149 40.5,-100 81.5,-100 81.5,-149"/>
<text text-anchor="start" x="46" y="-136.5" font-family="Helvetica,sans-Serif" font-size="10.00">Model</text>
<text text-anchor="start" x="59.5" y="-121.5" font-family="Helvetica,sans-Serif" font-size="10.00"> </text>
<text text-anchor="start" x="59.5" y="-106.5" font-family="Helvetica,sans-Serif" font-size="10.00"> </text>
<polygon fill="#666666" stroke="#666666" points="41,-131.5 41,-131.5 82,-131.5 82,-131.5 41,-131.5"/>
<polygon fill="#666666" stroke="#666666" points="41,-116.5 41,-116.5 82,-116.5 82,-116.5 41,-116.5"/>
<polygon fill="none" stroke="#666666" points="40.5,-100 40.5,-149 81.5,-149 81.5,-100 40.5,-100"/>
</a>
</g>
</g>
<!-- Node2&#45;&gt;Node1 -->
<g id="edge1_Node000001_Node000002" class="edge">
<title>Node2&#45;&gt;Node1</title>
<g id="a_edge1_Node000001_Node000002"><a xlink:title=" ">
<path fill="none" stroke="#63b8ff" d="M61,-89.54C61,-81.2 61,-72.31 61,-64.11"/>
<polygon fill="none" stroke="#63b8ff" points="57.5,-89.72 61,-99.72 64.5,-89.72 57.5,-89.72"/>
</a>
</g>
</g>
</g>
</svg>
