<?xml version="1.0" encoding="UTF-8" standalone="no"?>
<!DOCTYPE svg PUBLIC "-//W3C//DTD SVG 1.1//EN"
 "http://www.w3.org/Graphics/SVG/1.1/DTD/svg11.dtd">
<!-- Generated by graphviz version 2.42.4 (0)
 -->
<!-- Title: App\Http\Controllers\FileExplorerController Pages: 1 -->
<svg width="354pt" height="368pt"
 viewBox="0.00 0.00 353.50 368.00" xmlns="http://www.w3.org/2000/svg" xmlns:xlink="http://www.w3.org/1999/xlink">

<svg id="main" version="1.1" xmlns="http://www.w3.org/2000/svg" xmlns:xlink="http://www.w3.org/1999/xlink" xml:space="preserve" onload="init(evt)">
<style type="text/css"><![CDATA[
.node, .edge {opacity: 0.7;}
.node.selected, .edge.selected {opacity: 1;}
.edge:hover path { stroke: red; }
.edge:hover polygon { stroke: red; fill: red; }
]]></style>
<script type="application/ecmascript" xlink:href="svg.min.js"/>
<svg id="graph" class="graph">
<g id="graph0" class="graph" transform="scale(1 1) rotate(0) translate(4 364)">
<title>App\Http\Controllers\FileExplorerController</title>
<!-- Node1 -->
<g id="Node000001" class="node">
<title>Node1</title>
<g id="a_Node000001"><a xlink:title=" ">
<polygon fill="#999999" stroke="transparent" points="221,-190 71,-190 71,0 221,0 221,-190"/>
<text text-anchor="start" x="91.5" y="-178" font-family="Helvetica,sans-Serif" font-size="10.00">App\Http\Controllers</text>
<text text-anchor="start" x="91.5" y="-167" font-family="Helvetica,sans-Serif" font-size="10.00">\FileExplorerController</text>
<text text-anchor="start" x="144" y="-152" font-family="Helvetica,sans-Serif" font-size="10.00"> </text>
<text text-anchor="start" x="75" y="-137" font-family="Helvetica,sans-Serif" font-size="10.00">+</text>
<text text-anchor="start" x="88" y="-137" font-family="Helvetica,sans-Serif" font-size="10.00">__construct(FileExplorer</text>
<text text-anchor="start" x="88" y="-126" font-family="Helvetica,sans-Serif" font-size="10.00">Service $fileExplorer)</text>
<text text-anchor="start" x="75" y="-111" font-family="Helvetica,sans-Serif" font-size="10.00">+</text>
<text text-anchor="start" x="88" y="-111" font-family="Helvetica,sans-Serif" font-size="10.00">index()</text>
<text text-anchor="start" x="75" y="-96" font-family="Helvetica,sans-Serif" font-size="10.00">+</text>
<text text-anchor="start" x="88" y="-96" font-family="Helvetica,sans-Serif" font-size="10.00">scan(Request $request)</text>
<text text-anchor="start" x="75" y="-81" font-family="Helvetica,sans-Serif" font-size="10.00">+</text>
<text text-anchor="start" x="88" y="-81" font-family="Helvetica,sans-Serif" font-size="10.00">startScan(Request</text>
<text text-anchor="start" x="88" y="-70" font-family="Helvetica,sans-Serif" font-size="10.00"> $request)</text>
<text text-anchor="start" x="75" y="-55" font-family="Helvetica,sans-Serif" font-size="10.00">+</text>
<text text-anchor="start" x="88" y="-55" font-family="Helvetica,sans-Serif" font-size="10.00">scanStatus(string</text>
<text text-anchor="start" x="88" y="-44" font-family="Helvetica,sans-Serif" font-size="10.00"> $scanId)</text>
<text text-anchor="start" x="75" y="-29" font-family="Helvetica,sans-Serif" font-size="10.00">+</text>
<text text-anchor="start" x="88" y="-29" font-family="Helvetica,sans-Serif" font-size="10.00">scanResults(string</text>
<text text-anchor="start" x="88" y="-18" font-family="Helvetica,sans-Serif" font-size="10.00"> $scanId, FfastransService</text>
<text text-anchor="start" x="88" y="-7" font-family="Helvetica,sans-Serif" font-size="10.00"> $ffastrans)</text>
<polygon fill="#666666" stroke="#666666" points="71,-162 71,-162 221,-162 221,-162 71,-162"/>
<polygon fill="#666666" stroke="#666666" points="71,-147 71,-147 221,-147 221,-147 71,-147"/>
<polygon fill="none" stroke="#666666" points="71,0 71,-190 221,-190 221,0 71,0"/>
</a>
</g>
</g>
<!-- Node2 -->
<g id="Node000002" class="node">
<title>Node2</title>
<g id="a_Node000002"><a xlink:href="classApp_1_1Http_1_1Controllers_1_1Controller.html" target="_top" xlink:title=" ">
<polygon fill="white" stroke="transparent" points="110,-328.5 0,-328.5 0,-268.5 110,-268.5 110,-328.5"/>
<text text-anchor="start" x="5" y="-316.5" font-family="Helvetica,sans-Serif" font-size="10.00">App\Http\Controllers</text>
<text text-anchor="start" x="29" y="-305.5" font-family="Helvetica,sans-Serif" font-size="10.00">\Controller</text>
<text text-anchor="start" x="53" y="-290.5" font-family="Helvetica,sans-Serif" font-size="10.00"> </text>
<text text-anchor="start" x="53" y="-275.5" font-family="Helvetica,sans-Serif" font-size="10.00"> </text>
<polygon fill="#666666" stroke="#666666" points="0,-300.5 0,-300.5 110,-300.5 110,-300.5 0,-300.5"/>
<polygon fill="#666666" stroke="#666666" points="0,-285.5 0,-285.5 110,-285.5 110,-285.5 0,-285.5"/>
<polygon fill="none" stroke="#666666" points="0,-268.5 0,-328.5 110,-328.5 110,-268.5 0,-268.5"/>
</a>
</g>
</g>
<!-- Node2&#45;&gt;Node1 -->
<g id="edge1_Node000001_Node000002" class="edge">
<title>Node2&#45;&gt;Node1</title>
<g id="a_edge1_Node000001_Node000002"><a xlink:title=" ">
<path fill="none" stroke="#63b8ff" d="M72.4,-258.98C81.28,-239.3 92.52,-214.41 103.53,-190.05"/>
<polygon fill="none" stroke="#63b8ff" points="69.16,-257.65 68.23,-268.2 75.54,-260.53 69.16,-257.65"/>
</a>
</g>
</g>
<!-- Node3 -->
<g id="Node000003" class="node">
<title>Node3</title>
<g id="a_Node000003"><a xlink:href="classApp_1_1Services_1_1FileExplorerService.html" target="_top" xlink:title=" ">
<polygon fill="white" stroke="transparent" points="345.5,-360 128.5,-360 128.5,-237 345.5,-237 345.5,-360"/>
<text text-anchor="start" x="175.5" y="-347.5" font-family="Helvetica,sans-Serif" font-size="10.00">App\Services\FileExplorer</text>
<text text-anchor="start" x="219" y="-336.5" font-family="Helvetica,sans-Serif" font-size="10.00">Service</text>
<text text-anchor="start" x="235.5" y="-321.5" font-family="Helvetica,sans-Serif" font-size="10.00"> </text>
<text text-anchor="start" x="133" y="-306.5" font-family="Helvetica,sans-Serif" font-size="10.00">+</text>
<text text-anchor="start" x="146" y="-306.5" font-family="Helvetica,sans-Serif" font-size="10.00">scanDisk(string $diskName,</text>
<text text-anchor="start" x="146" y="-295.5" font-family="Helvetica,sans-Serif" font-size="10.00"> string $directory)</text>
<text text-anchor="start" x="133" y="-280.5" font-family="Helvetica,sans-Serif" font-size="10.00">+</text>
<text text-anchor="start" x="146" y="-280.5" font-family="Helvetica,sans-Serif" font-size="10.00">scanDiskRecursive</text>
<text text-anchor="start" x="146" y="-269.5" font-family="Helvetica,sans-Serif" font-size="10.00">(string $diskName, string</text>
<text text-anchor="start" x="146" y="-258.5" font-family="Helvetica,sans-Serif" font-size="10.00"> $path=&#39;/&#39;, callable $onItemFound=null)</text>
<text text-anchor="start" x="133" y="-243.5" font-family="Helvetica,sans-Serif" font-size="10.00">+</text>
<text text-anchor="start" x="146" y="-243.5" font-family="Helvetica,sans-Serif" font-size="10.00">isVideo(string $filename)</text>
<polygon fill="#666666" stroke="#666666" points="129,-331.5 129,-331.5 346,-331.5 346,-331.5 129,-331.5"/>
<polygon fill="#666666" stroke="#666666" points="129,-316.5 129,-316.5 346,-316.5 346,-316.5 129,-316.5"/>
<polygon fill="none" stroke="#666666" points="128.5,-237 128.5,-360 345.5,-360 345.5,-237 128.5,-237"/>
</a>
</g>
</g>
<!-- Node3&#45;&gt;Node1 -->
<g id="edge2_Node000001_Node000003" class="edge">
<title>Node3&#45;&gt;Node1</title>
<g id="a_edge2_Node000001_Node000003"><a xlink:title=" ">
<path fill="none" stroke="#63b8ff" d="M209.57,-236.77C204.49,-225.5 199.04,-213.44 193.55,-201.28"/>
<polygon fill="none" stroke="#63b8ff" points="193.44,-201.06 187.33,-197.23 188.51,-190.12 194.62,-193.94 193.44,-201.06"/>
</a>
</g>
<text text-anchor="middle" x="236.5" y="-211" font-family="Helvetica,sans-Serif" font-size="10.00" fill="grey"> #$fileExplorer</text>
</g>
</g>
</svg>
</svg>

<style type='text/css'>
<![CDATA[
[data-mouse-over-selected='false'] { opacity: 0.7; }
[data-mouse-over-selected='true']  { opacity: 1.0; }
]]>
</style>
<script type="application/ecmascript"><![CDATA[
document.addEventListener('DOMContentLoaded', (event) => {
  highlightEdges();
  highlightAdjacentNodes();
});
]]></script>
</svg>
