<?xml version="1.0" encoding="UTF-8" standalone="no"?>
<!DOCTYPE svg PUBLIC "-//W3C//DTD SVG 1.1//EN"
 "http://www.w3.org/Graphics/SVG/1.1/DTD/svg11.dtd">
<!-- Generated by graphviz version 2.42.4 (0)
 -->
<!-- Title: Tests\Unit\Services\FfastransServiceTest Pages: 1 -->
<!--zoomable 759 -->

<svg id="main" version="1.1" xmlns="http://www.w3.org/2000/svg" xmlns:xlink="http://www.w3.org/1999/xlink" xml:space="preserve" onload="init(evt)">
<style type="text/css"><![CDATA[
.node, .edge {opacity: 0.7;}
.node.selected, .edge.selected {opacity: 1;}
.edge:hover path { stroke: red; }
.edge:hover polygon { stroke: red; fill: red; }
]]></style>

<defs>
  <circle id="rim" cx="0" cy="0" r="7"/>
  <circle id="rim2" cx="0" cy="0" r="3.5"/>
  <g id="zoomPlus">
    <use xlink:href="#rim" fill="#404040"><set attributeName="fill" to="#808080" begin="zoomplus.mouseover" end="zoomplus.mouseout"/></use>
    <path d="M-4,0h8M0,-4v8" fill="none" stroke="white" stroke-width="1.5" pointer-events="none"/>
  </g>
  <g id="zoomMin">
    <use xlink:href="#rim" fill="#404040"><set attributeName="fill" to="#808080" begin="zoomminus.mouseover" end="zoomminus.mouseout"/></use>
    <path d="M-4,0h8" fill="none" stroke="white" stroke-width="1.5" pointer-events="none"/>
  </g>
  <g id="arrowUp" transform="translate(30 24)">
    <use xlink:href="#rim"/>
    <path pointer-events="none" fill="none" stroke="white" stroke-width="1.5" d="M0,-3.0v7 M-2.5,-0.5L0,-3.0L2.5,-0.5"/>
  </g>
  <g id="arrowRight" transform="rotate(90) translate(36 -43)">
    <use xlink:href="#rim"/>
    <path pointer-events="none" fill="none" stroke="white" stroke-width="1.5" d="M0,-3.0v7 M-2.5,-0.5L0,-3.0L2.5,-0.5"/>
  </g>
  <g id="arrowDown" transform="rotate(180) translate(-30 -48)">
    <use xlink:href="#rim"/>
    <path pointer-events="none" fill="none" stroke="white" stroke-width="1.5" d="M0,-3.0v7 M-2.5,-0.5L0,-3.0L2.5,-0.5"/>
  </g>
  <g id="arrowLeft" transform="rotate(270) translate(-36 17)">
    <use xlink:href="#rim"/>
    <path pointer-events="none" fill="none" stroke="white" stroke-width="1.5" d="M0,-3.0v7 M-2.5,-0.5L0,-3.0L2.5,-0.5"/>
  </g>
  <g id="resetDef">
    <use xlink:href="#rim2" fill="#404040"><set attributeName="fill" to="#808080" begin="reset.mouseover" end="reset.mouseout"/></use>
  </g>
</defs>
<script type="application/ecmascript">
var viewWidth = 266;
var viewHeight = 759;
var sectionId = 'dynsection-1';
</script>
<script type="application/ecmascript" xlink:href="svg.min.js"/>
<svg id="graph" class="graph">
<g id="viewport">
<title>Tests\Unit\Services\FfastransServiceTest</title>
<!-- Node1 -->
<g id="Node000001" class="node">
<title>Node1</title>
<g id="a_Node000001"><a xlink:title=" ">
<polygon fill="#999999" stroke="transparent" points="225.5,-368 62.5,-368 62.5,0 225.5,0 225.5,-368"/>
<text text-anchor="start" x="92" y="-356" font-family="Helvetica,sans-Serif" font-size="10.00">Tests\Unit\Services</text>
<text text-anchor="start" x="92" y="-345" font-family="Helvetica,sans-Serif" font-size="10.00">\FfastransServiceTest</text>
<text text-anchor="start" x="142.5" y="-330" font-family="Helvetica,sans-Serif" font-size="10.00"> </text>
<text text-anchor="start" x="67" y="-315" font-family="Helvetica,sans-Serif" font-size="10.00">+</text>
<text text-anchor="start" x="80" y="-315" font-family="Helvetica,sans-Serif" font-size="10.00">translatePath_converts</text>
<text text-anchor="start" x="80" y="-304" font-family="Helvetica,sans-Serif" font-size="10.00">_linux_to_windows_path()</text>
<text text-anchor="start" x="67" y="-289" font-family="Helvetica,sans-Serif" font-size="10.00">+</text>
<text text-anchor="start" x="80" y="-289" font-family="Helvetica,sans-Serif" font-size="10.00">translatePath_handles</text>
<text text-anchor="start" x="80" y="-278" font-family="Helvetica,sans-Serif" font-size="10.00">_relative_paths()</text>
<text text-anchor="start" x="67" y="-263" font-family="Helvetica,sans-Serif" font-size="10.00">+</text>
<text text-anchor="start" x="80" y="-263" font-family="Helvetica,sans-Serif" font-size="10.00">translatePath_returns</text>
<text text-anchor="start" x="80" y="-252" font-family="Helvetica,sans-Serif" font-size="10.00">_original_if_no_remote</text>
<text text-anchor="start" x="80" y="-241" font-family="Helvetica,sans-Serif" font-size="10.00">_root()</text>
<text text-anchor="start" x="67" y="-226" font-family="Helvetica,sans-Serif" font-size="10.00">+</text>
<text text-anchor="start" x="80" y="-226" font-family="Helvetica,sans-Serif" font-size="10.00">translatePath_preserves</text>
<text text-anchor="start" x="80" y="-215" font-family="Helvetica,sans-Serif" font-size="10.00">_windows_paths()</text>
<text text-anchor="start" x="67" y="-200" font-family="Helvetica,sans-Serif" font-size="10.00">+</text>
<text text-anchor="start" x="80" y="-200" font-family="Helvetica,sans-Serif" font-size="10.00">translatePath_replaces</text>
<text text-anchor="start" x="80" y="-189" font-family="Helvetica,sans-Serif" font-size="10.00">_forward_slashes_with</text>
<text text-anchor="start" x="80" y="-178" font-family="Helvetica,sans-Serif" font-size="10.00">_backslashes()</text>
<text text-anchor="start" x="67" y="-163" font-family="Helvetica,sans-Serif" font-size="10.00">+</text>
<text text-anchor="start" x="80" y="-163" font-family="Helvetica,sans-Serif" font-size="10.00">submitJob_sends_correct</text>
<text text-anchor="start" x="80" y="-152" font-family="Helvetica,sans-Serif" font-size="10.00">_payload_to_api()</text>
<text text-anchor="start" x="67" y="-137" font-family="Helvetica,sans-Serif" font-size="10.00">+</text>
<text text-anchor="start" x="80" y="-137" font-family="Helvetica,sans-Serif" font-size="10.00">submitJob_preserves</text>
<text text-anchor="start" x="80" y="-126" font-family="Helvetica,sans-Serif" font-size="10.00">_unc_paths()</text>
<text text-anchor="start" x="67" y="-111" font-family="Helvetica,sans-Serif" font-size="10.00">+</text>
<text text-anchor="start" x="80" y="-111" font-family="Helvetica,sans-Serif" font-size="10.00">submitJob_throws_exception</text>
<text text-anchor="start" x="80" y="-100" font-family="Helvetica,sans-Serif" font-size="10.00">_on_failed_response()</text>
<text text-anchor="start" x="67" y="-85" font-family="Helvetica,sans-Serif" font-size="10.00">+</text>
<text text-anchor="start" x="80" y="-85" font-family="Helvetica,sans-Serif" font-size="10.00">getFullStatusList</text>
<text text-anchor="start" x="80" y="-74" font-family="Helvetica,sans-Serif" font-size="10.00">_combines_active_and</text>
<text text-anchor="start" x="80" y="-63" font-family="Helvetica,sans-Serif" font-size="10.00">_history_jobs()</text>
<text text-anchor="start" x="67" y="-48" font-family="Helvetica,sans-Serif" font-size="10.00">+</text>
<text text-anchor="start" x="80" y="-48" font-family="Helvetica,sans-Serif" font-size="10.00">getFullStatusList</text>
<text text-anchor="start" x="80" y="-37" font-family="Helvetica,sans-Serif" font-size="10.00">_sorts_by_date_descending()</text>
<text text-anchor="start" x="80" y="-22" font-family="Helvetica,sans-Serif" font-size="10.00">et 10 de plus...</text>
<text text-anchor="start" x="67" y="-7" font-family="Helvetica,sans-Serif" font-size="10.00">#</text>
<text text-anchor="start" x="80" y="-7" font-family="Helvetica,sans-Serif" font-size="10.00">setUp()</text>
<polygon fill="#666666" stroke="#666666" points="63,-340 63,-340 226,-340 226,-340 63,-340"/>
<polygon fill="#666666" stroke="#666666" points="63,-325 63,-325 226,-325 226,-325 63,-325"/>
<polygon fill="none" stroke="#666666" points="62.5,0 62.5,-368 225.5,-368 225.5,0 62.5,0"/>
</a>
</g>
</g>
<!-- Node2 -->
<g id="Node000002" class="node">
<title>Node2</title>
<g id="a_Node000002"><a xlink:href="classTests_1_1TestCase.html" target="_top" xlink:title=" ">
<polygon fill="white" stroke="transparent" points="82,-564.5 0,-564.5 0,-515.5 82,-515.5 82,-564.5"/>
<text text-anchor="start" x="5" y="-552" font-family="Helvetica,sans-Serif" font-size="10.00">Tests\TestCase</text>
<text text-anchor="start" x="39" y="-537" font-family="Helvetica,sans-Serif" font-size="10.00"> </text>
<text text-anchor="start" x="39" y="-522" font-family="Helvetica,sans-Serif" font-size="10.00"> </text>
<polygon fill="#666666" stroke="#666666" points="0,-547 0,-547 82,-547 82,-547 0,-547"/>
<polygon fill="#666666" stroke="#666666" points="0,-532 0,-532 82,-532 82,-532 0,-532"/>
<polygon fill="none" stroke="#666666" points="0,-515.5 0,-564.5 82,-564.5 82,-515.5 0,-515.5"/>
</a>
</g>
</g>
<!-- Node2&#45;&gt;Node1 -->
<g id="edge1_Node000001_Node000002" class="edge">
<title>Node2&#45;&gt;Node1</title>
<g id="a_edge1_Node000001_Node000002"><a xlink:title=" ">
<path fill="none" stroke="#63b8ff" d="M50.7,-505.67C60.15,-473.2 75.29,-421.14 90.66,-368.33"/>
<polygon fill="none" stroke="#63b8ff" points="47.27,-504.92 47.84,-515.5 53.99,-506.87 47.27,-504.92"/>
</a>
</g>
</g>
<!-- Node3 -->
<g id="Node000003" class="node">
<title>Node3</title>
<g id="a_Node000003"><a xlink:title=" ">
<polygon fill="white" stroke="transparent" points="80,-751 2,-751 2,-702 80,-702 80,-751"/>
<text text-anchor="start" x="7" y="-738.5" font-family="Helvetica,sans-Serif" font-size="10.00">BaseTestCase</text>
<text text-anchor="start" x="39" y="-723.5" font-family="Helvetica,sans-Serif" font-size="10.00"> </text>
<text text-anchor="start" x="39" y="-708.5" font-family="Helvetica,sans-Serif" font-size="10.00"> </text>
<polygon fill="#666666" stroke="#666666" points="2,-733.5 2,-733.5 80,-733.5 80,-733.5 2,-733.5"/>
<polygon fill="#666666" stroke="#666666" points="2,-718.5 2,-718.5 80,-718.5 80,-718.5 2,-718.5"/>
<polygon fill="none" stroke="#666666" points="2,-702 2,-751 80,-751 80,-702 2,-702"/>
</a>
</g>
</g>
<!-- Node3&#45;&gt;Node2 -->
<g id="edge2_Node000002_Node000003" class="edge">
<title>Node3&#45;&gt;Node2</title>
<g id="a_edge2_Node000002_Node000003"><a xlink:title=" ">
<path fill="none" stroke="#63b8ff" d="M41,-691.51C41,-654.67 41,-596.85 41,-564.65"/>
<polygon fill="none" stroke="#63b8ff" points="37.5,-691.76 41,-701.76 44.5,-691.76 37.5,-691.76"/>
</a>
</g>
</g>
<!-- Node4 -->
<g id="Node000004" class="node">
<title>Node4</title>
<g id="a_Node000004"><a xlink:href="classApp_1_1Services_1_1FfastransService.html" target="_top" xlink:title=" ">
<polygon fill="white" stroke="transparent" points="258,-665 100,-665 100,-415 258,-415 258,-665"/>
<text text-anchor="start" x="105" y="-653" font-family="Helvetica,sans-Serif" font-size="10.00">App\Services\FfastransService</text>
<text text-anchor="start" x="108.5" y="-638" font-family="Helvetica,sans-Serif" font-size="10.00">#</text>
<text text-anchor="start" x="126" y="-638" font-family="Helvetica,sans-Serif" font-size="10.00">string $baseUrl</text>
<text text-anchor="start" x="108.5" y="-623" font-family="Helvetica,sans-Serif" font-size="10.00">#</text>
<text text-anchor="start" x="126" y="-623" font-family="Helvetica,sans-Serif" font-size="10.00">string $username</text>
<text text-anchor="start" x="108.5" y="-608" font-family="Helvetica,sans-Serif" font-size="10.00">#</text>
<text text-anchor="start" x="126" y="-608" font-family="Helvetica,sans-Serif" font-size="10.00">string $password</text>
<text text-anchor="start" x="108.5" y="-593" font-family="Helvetica,sans-Serif" font-size="10.00">+</text>
<text text-anchor="start" x="126" y="-593" font-family="Helvetica,sans-Serif" font-size="10.00">__construct()</text>
<text text-anchor="start" x="108.5" y="-578" font-family="Helvetica,sans-Serif" font-size="10.00">+</text>
<text text-anchor="start" x="126" y="-578" font-family="Helvetica,sans-Serif" font-size="10.00">submitJob(string </text>
<text text-anchor="start" x="126" y="-567" font-family="Helvetica,sans-Serif" font-size="10.00">$sourceFile, string</text>
<text text-anchor="start" x="126" y="-556" font-family="Helvetica,sans-Serif" font-size="10.00"> $workflowId, array </text>
<text text-anchor="start" x="126" y="-545" font-family="Helvetica,sans-Serif" font-size="10.00">$variables=[])</text>
<text text-anchor="start" x="108.5" y="-530" font-family="Helvetica,sans-Serif" font-size="10.00">+</text>
<text text-anchor="start" x="126" y="-530" font-family="Helvetica,sans-Serif" font-size="10.00">translatePath(string</text>
<text text-anchor="start" x="126" y="-519" font-family="Helvetica,sans-Serif" font-size="10.00"> $linuxPath)</text>
<text text-anchor="start" x="108.5" y="-504" font-family="Helvetica,sans-Serif" font-size="10.00">+</text>
<text text-anchor="start" x="126" y="-504" font-family="Helvetica,sans-Serif" font-size="10.00">getFullStatusList()</text>
<text text-anchor="start" x="108.5" y="-489" font-family="Helvetica,sans-Serif" font-size="10.00">+</text>
<text text-anchor="start" x="126" y="-489" font-family="Helvetica,sans-Serif" font-size="10.00">getJobStatus(string</text>
<text text-anchor="start" x="126" y="-478" font-family="Helvetica,sans-Serif" font-size="10.00"> $jobId)</text>
<text text-anchor="start" x="108.5" y="-463" font-family="Helvetica,sans-Serif" font-size="10.00">+</text>
<text text-anchor="start" x="126" y="-463" font-family="Helvetica,sans-Serif" font-size="10.00">cancelJob(string </text>
<text text-anchor="start" x="126" y="-452" font-family="Helvetica,sans-Serif" font-size="10.00">$jobId)</text>
<text text-anchor="start" x="108.5" y="-437" font-family="Helvetica,sans-Serif" font-size="10.00">#</text>
<text text-anchor="start" x="126" y="-437" font-family="Helvetica,sans-Serif" font-size="10.00">client()</text>
<text text-anchor="start" x="111" y="-422" font-family="Helvetica,sans-Serif" font-size="10.00">&#45;</text>
<text text-anchor="start" x="126" y="-422" font-family="Helvetica,sans-Serif" font-size="10.00">translateStatus($status)</text>
<polygon fill="#666666" stroke="#666666" points="100,-648 100,-648 258,-648 258,-648 100,-648"/>
<polygon fill="#666666" stroke="#666666" points="100,-603 100,-603 124,-603 124,-603 100,-603"/>
<polygon fill="#666666" stroke="#666666" points="124,-603 124,-603 258,-603 258,-603 124,-603"/>
<polygon fill="none" stroke="#666666" points="100,-415 100,-665 258,-665 258,-415 100,-415"/>
</a>
</g>
</g>
<!-- Node4&#45;&gt;Node1 -->
<g id="edge3_Node000001_Node000004" class="edge">
<title>Node4&#45;&gt;Node1</title>
<g id="a_edge3_Node000001_Node000004"><a xlink:title=" ">
<path fill="none" stroke="#63b8ff" d="M166.71,-414.69C165.6,-403.45 164.46,-391.9 163.3,-380.25"/>
<polygon fill="none" stroke="#63b8ff" points="163.28,-380.01 158.71,-374.44 162.1,-368.07 166.67,-373.65 163.28,-380.01"/>
</a>
</g>
<text text-anchor="middle" x="190.5" y="-389" font-family="Helvetica,sans-Serif" font-size="10.00" fill="grey"> #$service</text>
</g>
</g>
</svg>

<g id="navigator" transform="translate(0 0)" fill="#404254">
  <rect fill="#f2f5e9" fill-opacity="0.5" stroke="#606060" stroke-width=".5" x="0" y="0" width="60" height="60"/>
  <use id="zoomplus" xlink:href="#zoomPlus" x="17" y="9" onmousedown="handleZoom(evt,'in')"/>
  <use id="zoomminus" xlink:href="#zoomMin" x="42" y="9" onmousedown="handleZoom(evt,'out')"/>
  <use id="reset" xlink:href="#resetDef" x="30" y="36" onmousedown="handleReset()"/>
   <use id="arrowup" xlink:href="#arrowUp" x="0" y="0" onmousedown="handlePan(0,-1)"/>
  <use id="arrowright" xlink:href="#arrowRight" x="0" y="0" onmousedown="handlePan(1,0)"/>
  <use id="arrowdown" xlink:href="#arrowDown" x="0" y="0" onmousedown="handlePan(0,1)"/>
  <use id="arrowleft" xlink:href="#arrowLeft" x="0" y="0" onmousedown="handlePan(-1,0)"/>
</g>
<svg viewBox="0 0 15 15" width="100%" height="30px" preserveAspectRatio="xMaxYMin meet">
 <g id="arrow_out" transform="scale(0.3 0.3)">
  <a xlink:href="classTests_1_1Unit_1_1Services_1_1FfastransServiceTest__coll__graph_org.svg" target="_base">
   <rect id="button" ry="5" rx="5" y="6" x="6" height="38" width="38"
        fill="#f2f5e9" fill-opacity="0.5" stroke="#606060" stroke-width="1.0"/>
   <path id="arrow"
     d="M 11.500037,31.436501 C 11.940474,20.09759 22.043105,11.32322 32.158766,21.979434 L 37.068811,17.246167 C 37.068811,17.246167 37.088388,32 37.088388,32 L 22.160133,31.978069 C 22.160133,31.978069 26.997745,27.140456 26.997745,27.140456 C 18.528582,18.264221 13.291696,25.230495 11.500037,31.436501 z"
     style="fill:#404040;"/>
  </a>
 </g>
</svg>

<style type='text/css'>
<![CDATA[
[data-mouse-over-selected='false'] { opacity: 0.7; }
[data-mouse-over-selected='true']  { opacity: 1.0; }
]]>
</style>
<script type="application/ecmascript"><![CDATA[
document.addEventListener('DOMContentLoaded', (event) => {
  highlightEdges();
  highlightAdjacentNodes();
});
]]></script>
</svg>
