<?xml version="1.0" encoding="UTF-8" standalone="no"?>
<!DOCTYPE svg PUBLIC "-//W3C//DTD SVG 1.1//EN"
 "http://www.w3.org/Graphics/SVG/1.1/DTD/svg11.dtd">
<!-- Generated by graphviz version 2.42.4 (0)
 -->
<!-- Title: App\Http\Controllers\Controller Pages: 1 -->
<svg width="2174pt" height="399pt"
 viewBox="0.00 0.00 2173.50 399.00" xmlns="http://www.w3.org/2000/svg" xmlns:xlink="http://www.w3.org/1999/xlink">
<g id="graph0" class="graph" transform="scale(1 1) rotate(0) translate(4 395)">
<title>App\Http\Controllers\Controller</title>
<!-- Node1 -->
<g id="Node000001" class="node">
<title>Node1</title>
<g id="a_Node000001"><a xlink:title=" ">
<polygon fill="#999999" stroke="transparent" points="1151,-391 1041,-391 1041,-331 1151,-331 1151,-391"/>
<text text-anchor="start" x="1046" y="-379" font-family="Helvetica,sans-Serif" font-size="10.00">App\Http\Controllers</text>
<text text-anchor="start" x="1070" y="-368" font-family="Helvetica,sans-Serif" font-size="10.00">\Controller</text>
<text text-anchor="start" x="1094" y="-353" font-family="Helvetica,sans-Serif" font-size="10.00"> </text>
<text text-anchor="start" x="1094" y="-338" font-family="Helvetica,sans-Serif" font-size="10.00"> </text>
<polygon fill="#666666" stroke="#666666" points="1041,-363 1041,-363 1151,-363 1151,-363 1041,-363"/>
<polygon fill="#666666" stroke="#666666" points="1041,-348 1041,-348 1151,-348 1151,-348 1041,-348"/>
<polygon fill="none" stroke="#666666" points="1041,-331 1041,-391 1151,-391 1151,-331 1041,-331"/>
</a>
</g>
</g>
<!-- Node2 -->
<g id="Node000002" class="node">
<title>Node2</title>
<g id="a_Node000002"><a xlink:href="classApp_1_1Http_1_1Controllers_1_1AdminController.html" target="_top" xlink:title=" ">
<polygon fill="white" stroke="transparent" points="148,-295 0,-295 0,0 148,0 148,-295"/>
<text text-anchor="start" x="24" y="-282.5" font-family="Helvetica,sans-Serif" font-size="10.00">App\Http\Controllers</text>
<text text-anchor="start" x="32.5" y="-271.5" font-family="Helvetica,sans-Serif" font-size="10.00">\AdminController</text>
<text text-anchor="start" x="72" y="-256.5" font-family="Helvetica,sans-Serif" font-size="10.00"> </text>
<text text-anchor="start" x="4" y="-241.5" font-family="Helvetica,sans-Serif" font-size="10.00">+</text>
<text text-anchor="start" x="17" y="-241.5" font-family="Helvetica,sans-Serif" font-size="10.00">settings()</text>
<text text-anchor="start" x="4" y="-226.5" font-family="Helvetica,sans-Serif" font-size="10.00">+</text>
<text text-anchor="start" x="17" y="-226.5" font-family="Helvetica,sans-Serif" font-size="10.00">updateSettings(Request</text>
<text text-anchor="start" x="17" y="-215.5" font-family="Helvetica,sans-Serif" font-size="10.00"> $request)</text>
<text text-anchor="start" x="4" y="-200.5" font-family="Helvetica,sans-Serif" font-size="10.00">+</text>
<text text-anchor="start" x="17" y="-200.5" font-family="Helvetica,sans-Serif" font-size="10.00">logs()</text>
<text text-anchor="start" x="4" y="-185.5" font-family="Helvetica,sans-Serif" font-size="10.00">+</text>
<text text-anchor="start" x="17" y="-185.5" font-family="Helvetica,sans-Serif" font-size="10.00">users()</text>
<text text-anchor="start" x="4" y="-170.5" font-family="Helvetica,sans-Serif" font-size="10.00">+</text>
<text text-anchor="start" x="17" y="-170.5" font-family="Helvetica,sans-Serif" font-size="10.00">createProfesseur(Request</text>
<text text-anchor="start" x="17" y="-159.5" font-family="Helvetica,sans-Serif" font-size="10.00"> $request)</text>
<text text-anchor="start" x="4" y="-144.5" font-family="Helvetica,sans-Serif" font-size="10.00">+</text>
<text text-anchor="start" x="17" y="-144.5" font-family="Helvetica,sans-Serif" font-size="10.00">deleteProfesseur($id)</text>
<text text-anchor="start" x="4" y="-129.5" font-family="Helvetica,sans-Serif" font-size="10.00">+</text>
<text text-anchor="start" x="17" y="-129.5" font-family="Helvetica,sans-Serif" font-size="10.00">createEleve(Request</text>
<text text-anchor="start" x="17" y="-118.5" font-family="Helvetica,sans-Serif" font-size="10.00"> $request)</text>
<text text-anchor="start" x="4" y="-103.5" font-family="Helvetica,sans-Serif" font-size="10.00">+</text>
<text text-anchor="start" x="17" y="-103.5" font-family="Helvetica,sans-Serif" font-size="10.00">deleteEleve($id)</text>
<text text-anchor="start" x="4" y="-88.5" font-family="Helvetica,sans-Serif" font-size="10.00">+</text>
<text text-anchor="start" x="17" y="-88.5" font-family="Helvetica,sans-Serif" font-size="10.00">projets()</text>
<text text-anchor="start" x="4" y="-73.5" font-family="Helvetica,sans-Serif" font-size="10.00">+</text>
<text text-anchor="start" x="17" y="-73.5" font-family="Helvetica,sans-Serif" font-size="10.00">createProjet(Request</text>
<text text-anchor="start" x="17" y="-62.5" font-family="Helvetica,sans-Serif" font-size="10.00"> $request)</text>
<text text-anchor="start" x="17" y="-47.5" font-family="Helvetica,sans-Serif" font-size="10.00">et 10 de plus...</text>
<text text-anchor="start" x="6.5" y="-32.5" font-family="Helvetica,sans-Serif" font-size="10.00">&#45;</text>
<text text-anchor="start" x="17" y="-32.5" font-family="Helvetica,sans-Serif" font-size="10.00">checkAdminAccess()</text>
<text text-anchor="start" x="6.5" y="-17.5" font-family="Helvetica,sans-Serif" font-size="10.00">&#45;</text>
<text text-anchor="start" x="17" y="-17.5" font-family="Helvetica,sans-Serif" font-size="10.00">updateEnvFile(array</text>
<text text-anchor="start" x="17" y="-6.5" font-family="Helvetica,sans-Serif" font-size="10.00"> $values)</text>
<polygon fill="#666666" stroke="#666666" points="0,-266.5 0,-266.5 148,-266.5 148,-266.5 0,-266.5"/>
<polygon fill="#666666" stroke="#666666" points="0,-251.5 0,-251.5 148,-251.5 148,-251.5 0,-251.5"/>
<polygon fill="none" stroke="#666666" points="0,0 0,-295 148,-295 148,0 0,0"/>
</a>
</g>
</g>
<!-- Node1&#45;&gt;Node2 -->
<g id="edge1_Node000001_Node000002" class="edge">
<title>Node1&#45;&gt;Node2</title>
<g id="a_edge1_Node000001_Node000002"><a xlink:title=" ">
<path fill="none" stroke="#63b8ff" d="M1030.74,-359.02C829.96,-355.54 230.51,-341.32 157,-295 153.91,-293.05 150.92,-290.95 148.03,-288.7"/>
<polygon fill="none" stroke="#63b8ff" points="1030.79,-362.53 1040.85,-359.2 1030.91,-355.53 1030.79,-362.53"/>
</a>
</g>
</g>
<!-- Node3 -->
<g id="Node000003" class="node">
<title>Node3</title>
<g id="a_Node000003"><a xlink:href="classApp_1_1Http_1_1Controllers_1_1Auth_1_1AuthenticatedSessionController.html" target="_top" xlink:title=" ">
<polygon fill="white" stroke="transparent" points="359.5,-198 166.5,-198 166.5,-97 359.5,-97 359.5,-198"/>
<text text-anchor="start" x="172" y="-185.5" font-family="Helvetica,sans-Serif" font-size="10.00">App\Http\Controllers</text>
<text text-anchor="start" x="172" y="-174.5" font-family="Helvetica,sans-Serif" font-size="10.00">\Auth\AuthenticatedSessionController</text>
<text text-anchor="start" x="261.5" y="-159.5" font-family="Helvetica,sans-Serif" font-size="10.00"> </text>
<text text-anchor="start" x="181.5" y="-144.5" font-family="Helvetica,sans-Serif" font-size="10.00">+</text>
<text text-anchor="start" x="205" y="-144.5" font-family="Helvetica,sans-Serif" font-size="10.00">create()</text>
<text text-anchor="start" x="181.5" y="-129.5" font-family="Helvetica,sans-Serif" font-size="10.00">+</text>
<text text-anchor="start" x="205" y="-129.5" font-family="Helvetica,sans-Serif" font-size="10.00">store(LoginRequest</text>
<text text-anchor="start" x="205" y="-118.5" font-family="Helvetica,sans-Serif" font-size="10.00"> $request)</text>
<text text-anchor="start" x="181.5" y="-103.5" font-family="Helvetica,sans-Serif" font-size="10.00">+</text>
<text text-anchor="start" x="205" y="-103.5" font-family="Helvetica,sans-Serif" font-size="10.00">destroy(Request $request)</text>
<polygon fill="#666666" stroke="#666666" points="167,-169.5 167,-169.5 360,-169.5 360,-169.5 167,-169.5"/>
<polygon fill="#666666" stroke="#666666" points="167,-154.5 167,-154.5 360,-154.5 360,-154.5 167,-154.5"/>
<polygon fill="none" stroke="#666666" points="166.5,-97 166.5,-198 359.5,-198 359.5,-97 166.5,-97"/>
</a>
</g>
</g>
<!-- Node1&#45;&gt;Node3 -->
<g id="edge2_Node000001_Node000003" class="edge">
<title>Node1&#45;&gt;Node3</title>
<g id="a_edge2_Node000001_Node000003"><a xlink:title=" ">
<path fill="none" stroke="#63b8ff" d="M1030.78,-357.27C862.86,-349.82 424.83,-327.46 368,-295 329.96,-273.27 302.12,-231.49 284.71,-198.09"/>
<polygon fill="none" stroke="#63b8ff" points="1030.82,-360.78 1040.96,-357.72 1031.13,-353.78 1030.82,-360.78"/>
</a>
</g>
</g>
<!-- Node4 -->
<g id="Node000004" class="node">
<title>Node4</title>
<g id="a_Node000004"><a xlink:href="classApp_1_1Http_1_1Controllers_1_1Auth_1_1NewPasswordController.html" target="_top" xlink:title=" ">
<polygon fill="white" stroke="transparent" points="532.5,-185 377.5,-185 377.5,-110 532.5,-110 532.5,-185"/>
<text text-anchor="start" x="383" y="-172.5" font-family="Helvetica,sans-Serif" font-size="10.00">App\Http\Controllers</text>
<text text-anchor="start" x="383" y="-161.5" font-family="Helvetica,sans-Serif" font-size="10.00">\Auth\NewPasswordController</text>
<text text-anchor="start" x="453.5" y="-146.5" font-family="Helvetica,sans-Serif" font-size="10.00"> </text>
<text text-anchor="start" x="384.5" y="-131.5" font-family="Helvetica,sans-Serif" font-size="10.00">+</text>
<text text-anchor="start" x="400" y="-131.5" font-family="Helvetica,sans-Serif" font-size="10.00">create(Request $request)</text>
<text text-anchor="start" x="384.5" y="-116.5" font-family="Helvetica,sans-Serif" font-size="10.00">+</text>
<text text-anchor="start" x="400" y="-116.5" font-family="Helvetica,sans-Serif" font-size="10.00">store(Request $request)</text>
<polygon fill="#666666" stroke="#666666" points="378,-156.5 378,-156.5 533,-156.5 533,-156.5 378,-156.5"/>
<polygon fill="#666666" stroke="#666666" points="378,-141.5 378,-141.5 533,-141.5 533,-141.5 378,-141.5"/>
<polygon fill="none" stroke="#666666" points="377.5,-110 377.5,-185 532.5,-185 532.5,-110 377.5,-110"/>
</a>
</g>
</g>
<!-- Node1&#45;&gt;Node4 -->
<g id="edge3_Node000001_Node000004" class="edge">
<title>Node1&#45;&gt;Node4</title>
<g id="a_edge3_Node000001_Node000004"><a xlink:title=" ">
<path fill="none" stroke="#63b8ff" d="M1030.54,-359.45C901.79,-357.24 621.28,-346.47 542,-295 502.8,-269.55 478.85,-219.71 466.25,-185.28"/>
<polygon fill="none" stroke="#63b8ff" points="1030.6,-362.95 1040.66,-359.61 1030.71,-355.95 1030.6,-362.95"/>
</a>
</g>
</g>
<!-- Node5 -->
<g id="Node000005" class="node">
<title>Node5</title>
<g id="a_Node000005"><a xlink:href="classApp_1_1Http_1_1Controllers_1_1Auth_1_1PasswordController.html" target="_top" xlink:title=" ">
<polygon fill="white" stroke="transparent" points="699,-177.5 551,-177.5 551,-117.5 699,-117.5 699,-177.5"/>
<text text-anchor="start" x="563.5" y="-165.5" font-family="Helvetica,sans-Serif" font-size="10.00">App\Http\Controllers</text>
<text text-anchor="start" x="563.5" y="-154.5" font-family="Helvetica,sans-Serif" font-size="10.00">\Auth\PasswordController</text>
<text text-anchor="start" x="623" y="-139.5" font-family="Helvetica,sans-Serif" font-size="10.00"> </text>
<text text-anchor="start" x="555" y="-124.5" font-family="Helvetica,sans-Serif" font-size="10.00">+</text>
<text text-anchor="start" x="568" y="-124.5" font-family="Helvetica,sans-Serif" font-size="10.00">update(Request $request)</text>
<polygon fill="#666666" stroke="#666666" points="551,-149.5 551,-149.5 699,-149.5 699,-149.5 551,-149.5"/>
<polygon fill="#666666" stroke="#666666" points="551,-134.5 551,-134.5 699,-134.5 699,-134.5 551,-134.5"/>
<polygon fill="none" stroke="#666666" points="551,-117.5 551,-177.5 699,-177.5 699,-117.5 551,-117.5"/>
</a>
</g>
</g>
<!-- Node1&#45;&gt;Node5 -->
<g id="edge4_Node000001_Node000005" class="edge">
<title>Node1&#45;&gt;Node5</title>
<g id="a_edge4_Node000001_Node000005"><a xlink:title=" ">
<path fill="none" stroke="#63b8ff" d="M1030.43,-355.79C933.77,-348.48 758.95,-330.66 708,-295 667.41,-266.59 644.18,-211.58 633.12,-177.64"/>
<polygon fill="none" stroke="#63b8ff" points="1030.44,-359.3 1040.67,-356.55 1030.96,-352.32 1030.44,-359.3"/>
</a>
</g>
</g>
<!-- Node6 -->
<g id="Node000006" class="node">
<title>Node6</title>
<g id="a_Node000006"><a xlink:href="classApp_1_1Http_1_1Controllers_1_1DocumentationController.html" target="_top" xlink:title=" ">
<polygon fill="white" stroke="transparent" points="854.5,-267.5 717.5,-267.5 717.5,-27.5 854.5,-27.5 854.5,-267.5"/>
<text text-anchor="start" x="723" y="-255.5" font-family="Helvetica,sans-Serif" font-size="10.00">App\Http\Controllers</text>
<text text-anchor="start" x="723" y="-244.5" font-family="Helvetica,sans-Serif" font-size="10.00">\DocumentationController</text>
<text text-anchor="start" x="784.5" y="-229.5" font-family="Helvetica,sans-Serif" font-size="10.00"> </text>
<text text-anchor="start" x="723.5" y="-214.5" font-family="Helvetica,sans-Serif" font-size="10.00">+</text>
<text text-anchor="start" x="738" y="-214.5" font-family="Helvetica,sans-Serif" font-size="10.00">index()</text>
<text text-anchor="start" x="723.5" y="-199.5" font-family="Helvetica,sans-Serif" font-size="10.00">+</text>
<text text-anchor="start" x="738" y="-199.5" font-family="Helvetica,sans-Serif" font-size="10.00">gettingStarted()</text>
<text text-anchor="start" x="723.5" y="-184.5" font-family="Helvetica,sans-Serif" font-size="10.00">+</text>
<text text-anchor="start" x="738" y="-184.5" font-family="Helvetica,sans-Serif" font-size="10.00">interfaceHomePage()</text>
<text text-anchor="start" x="723.5" y="-169.5" font-family="Helvetica,sans-Serif" font-size="10.00">+</text>
<text text-anchor="start" x="738" y="-169.5" font-family="Helvetica,sans-Serif" font-size="10.00">interfaceNavbar()</text>
<text text-anchor="start" x="723.5" y="-154.5" font-family="Helvetica,sans-Serif" font-size="10.00">+</text>
<text text-anchor="start" x="738" y="-154.5" font-family="Helvetica,sans-Serif" font-size="10.00">interfaceVideoPlayer()</text>
<text text-anchor="start" x="723.5" y="-139.5" font-family="Helvetica,sans-Serif" font-size="10.00">+</text>
<text text-anchor="start" x="738" y="-139.5" font-family="Helvetica,sans-Serif" font-size="10.00">interfaceSearch()</text>
<text text-anchor="start" x="723.5" y="-124.5" font-family="Helvetica,sans-Serif" font-size="10.00">+</text>
<text text-anchor="start" x="738" y="-124.5" font-family="Helvetica,sans-Serif" font-size="10.00">adminOverview()</text>
<text text-anchor="start" x="723.5" y="-109.5" font-family="Helvetica,sans-Serif" font-size="10.00">+</text>
<text text-anchor="start" x="738" y="-109.5" font-family="Helvetica,sans-Serif" font-size="10.00">adminDatabase()</text>
<text text-anchor="start" x="723.5" y="-94.5" font-family="Helvetica,sans-Serif" font-size="10.00">+</text>
<text text-anchor="start" x="738" y="-94.5" font-family="Helvetica,sans-Serif" font-size="10.00">adminTransfers()</text>
<text text-anchor="start" x="723.5" y="-79.5" font-family="Helvetica,sans-Serif" font-size="10.00">+</text>
<text text-anchor="start" x="738" y="-79.5" font-family="Helvetica,sans-Serif" font-size="10.00">adminReconciliation()</text>
<text text-anchor="start" x="723.5" y="-64.5" font-family="Helvetica,sans-Serif" font-size="10.00">+</text>
<text text-anchor="start" x="738" y="-64.5" font-family="Helvetica,sans-Serif" font-size="10.00">adminSettings()</text>
<text text-anchor="start" x="723.5" y="-49.5" font-family="Helvetica,sans-Serif" font-size="10.00">+</text>
<text text-anchor="start" x="738" y="-49.5" font-family="Helvetica,sans-Serif" font-size="10.00">adminUsers()</text>
<text text-anchor="start" x="726" y="-34.5" font-family="Helvetica,sans-Serif" font-size="10.00">&#45;</text>
<text text-anchor="start" x="738" y="-34.5" font-family="Helvetica,sans-Serif" font-size="10.00">checkAdminAccess()</text>
<polygon fill="#666666" stroke="#666666" points="718,-239.5 718,-239.5 855,-239.5 855,-239.5 718,-239.5"/>
<polygon fill="#666666" stroke="#666666" points="718,-224.5 718,-224.5 855,-224.5 855,-224.5 718,-224.5"/>
<polygon fill="none" stroke="#666666" points="717.5,-27.5 717.5,-267.5 854.5,-267.5 854.5,-27.5 717.5,-27.5"/>
</a>
</g>
</g>
<!-- Node1&#45;&gt;Node6 -->
<g id="edge5_Node000001_Node000006" class="edge">
<title>Node1&#45;&gt;Node6</title>
<g id="a_edge5_Node000001_Node000006"><a xlink:title=" ">
<path fill="none" stroke="#63b8ff" d="M1030.61,-355.5C980.3,-349.02 911.57,-333.26 864,-295 854.23,-287.14 845.53,-277.73 837.82,-267.51"/>
<polygon fill="none" stroke="#63b8ff" points="1030.39,-359 1040.73,-356.71 1031.22,-352.05 1030.39,-359"/>
</a>
</g>
</g>
<!-- Node7 -->
<g id="Node000007" class="node">
<title>Node7</title>
<g id="a_Node000007"><a xlink:href="classApp_1_1Http_1_1Controllers_1_1FileExplorerController.html" target="_top" xlink:title=" ">
<polygon fill="white" stroke="transparent" points="1023,-248 873,-248 873,-47 1023,-47 1023,-248"/>
<text text-anchor="start" x="893.5" y="-235.5" font-family="Helvetica,sans-Serif" font-size="10.00">App\Http\Controllers</text>
<text text-anchor="start" x="893.5" y="-224.5" font-family="Helvetica,sans-Serif" font-size="10.00">\FileExplorerController</text>
<text text-anchor="start" x="877" y="-209.5" font-family="Helvetica,sans-Serif" font-size="10.00">#</text>
<text text-anchor="start" x="890" y="-209.5" font-family="Helvetica,sans-Serif" font-size="10.00">FileExplorerService</text>
<text text-anchor="start" x="890" y="-198.5" font-family="Helvetica,sans-Serif" font-size="10.00"> $fileExplorer</text>
<text text-anchor="start" x="877" y="-183.5" font-family="Helvetica,sans-Serif" font-size="10.00">+</text>
<text text-anchor="start" x="890" y="-183.5" font-family="Helvetica,sans-Serif" font-size="10.00">__construct(FileExplorer</text>
<text text-anchor="start" x="890" y="-172.5" font-family="Helvetica,sans-Serif" font-size="10.00">Service $fileExplorer)</text>
<text text-anchor="start" x="877" y="-157.5" font-family="Helvetica,sans-Serif" font-size="10.00">+</text>
<text text-anchor="start" x="890" y="-157.5" font-family="Helvetica,sans-Serif" font-size="10.00">index()</text>
<text text-anchor="start" x="877" y="-142.5" font-family="Helvetica,sans-Serif" font-size="10.00">+</text>
<text text-anchor="start" x="890" y="-142.5" font-family="Helvetica,sans-Serif" font-size="10.00">scan(Request $request)</text>
<text text-anchor="start" x="877" y="-127.5" font-family="Helvetica,sans-Serif" font-size="10.00">+</text>
<text text-anchor="start" x="890" y="-127.5" font-family="Helvetica,sans-Serif" font-size="10.00">startScan(Request</text>
<text text-anchor="start" x="890" y="-116.5" font-family="Helvetica,sans-Serif" font-size="10.00"> $request)</text>
<text text-anchor="start" x="877" y="-101.5" font-family="Helvetica,sans-Serif" font-size="10.00">+</text>
<text text-anchor="start" x="890" y="-101.5" font-family="Helvetica,sans-Serif" font-size="10.00">scanStatus(string</text>
<text text-anchor="start" x="890" y="-90.5" font-family="Helvetica,sans-Serif" font-size="10.00"> $scanId)</text>
<text text-anchor="start" x="877" y="-75.5" font-family="Helvetica,sans-Serif" font-size="10.00">+</text>
<text text-anchor="start" x="890" y="-75.5" font-family="Helvetica,sans-Serif" font-size="10.00">scanResults(string</text>
<text text-anchor="start" x="890" y="-64.5" font-family="Helvetica,sans-Serif" font-size="10.00"> $scanId, FfastransService</text>
<text text-anchor="start" x="890" y="-53.5" font-family="Helvetica,sans-Serif" font-size="10.00"> $ffastrans)</text>
<polygon fill="#666666" stroke="#666666" points="873,-219.5 873,-219.5 1023,-219.5 1023,-219.5 873,-219.5"/>
<polygon fill="#666666" stroke="#666666" points="873,-193.5 873,-193.5 888,-193.5 888,-193.5 873,-193.5"/>
<polygon fill="#666666" stroke="#666666" points="888,-193.5 888,-193.5 1023,-193.5 1023,-193.5 888,-193.5"/>
<polygon fill="none" stroke="#666666" points="873,-47 873,-248 1023,-248 1023,-47 873,-47"/>
</a>
</g>
</g>
<!-- Node1&#45;&gt;Node7 -->
<g id="edge6_Node000001_Node000007" class="edge">
<title>Node1&#45;&gt;Node7</title>
<g id="a_edge6_Node000001_Node000007"><a xlink:title=" ">
<path fill="none" stroke="#63b8ff" d="M1056.81,-323.47C1048.18,-314.55 1039.4,-304.76 1032,-295 1020.92,-280.4 1010.25,-264.2 1000.44,-248.05"/>
<polygon fill="none" stroke="#63b8ff" points="1054.48,-326.09 1064,-330.74 1059.46,-321.17 1054.48,-326.09"/>
</a>
</g>
</g>
<!-- Node8 -->
<g id="Node000008" class="node">
<title>Node8</title>
<g id="a_Node000008"><a xlink:href="classApp_1_1Http_1_1Controllers_1_1HomeController.html" target="_top" xlink:title=" ">
<polygon fill="white" stroke="transparent" points="1151,-177.5 1041,-177.5 1041,-117.5 1151,-117.5 1151,-177.5"/>
<text text-anchor="start" x="1046" y="-165.5" font-family="Helvetica,sans-Serif" font-size="10.00">App\Http\Controllers</text>
<text text-anchor="start" x="1055.5" y="-154.5" font-family="Helvetica,sans-Serif" font-size="10.00">\HomeController</text>
<text text-anchor="start" x="1094" y="-139.5" font-family="Helvetica,sans-Serif" font-size="10.00"> </text>
<text text-anchor="start" x="1058.5" y="-124.5" font-family="Helvetica,sans-Serif" font-size="10.00">+</text>
<text text-anchor="start" x="1085" y="-124.5" font-family="Helvetica,sans-Serif" font-size="10.00">index()</text>
<polygon fill="#666666" stroke="#666666" points="1041,-149.5 1041,-149.5 1151,-149.5 1151,-149.5 1041,-149.5"/>
<polygon fill="#666666" stroke="#666666" points="1041,-134.5 1041,-134.5 1151,-134.5 1151,-134.5 1041,-134.5"/>
<polygon fill="none" stroke="#666666" points="1041,-117.5 1041,-177.5 1151,-177.5 1151,-117.5 1041,-117.5"/>
</a>
</g>
</g>
<!-- Node1&#45;&gt;Node8 -->
<g id="edge7_Node000001_Node000008" class="edge">
<title>Node1&#45;&gt;Node8</title>
<g id="a_edge7_Node000001_Node000008"><a xlink:title=" ">
<path fill="none" stroke="#63b8ff" d="M1096,-320.57C1096,-279.09 1096,-214.79 1096,-177.66"/>
<polygon fill="none" stroke="#63b8ff" points="1092.5,-320.59 1096,-330.59 1099.5,-320.59 1092.5,-320.59"/>
</a>
</g>
</g>
<!-- Node9 -->
<g id="Node000009" class="node">
<title>Node9</title>
<g id="a_Node000009"><a xlink:href="classApp_1_1Http_1_1Controllers_1_1MediaController.html" target="_top" xlink:title=" ">
<polygon fill="white" stroke="transparent" points="1317,-267 1169,-267 1169,-28 1317,-28 1317,-267"/>
<text text-anchor="start" x="1193" y="-254.5" font-family="Helvetica,sans-Serif" font-size="10.00">App\Http\Controllers</text>
<text text-anchor="start" x="1202" y="-243.5" font-family="Helvetica,sans-Serif" font-size="10.00">\MediaController</text>
<text text-anchor="start" x="1173" y="-228.5" font-family="Helvetica,sans-Serif" font-size="10.00">#</text>
<text text-anchor="start" x="1186" y="-228.5" font-family="Helvetica,sans-Serif" font-size="10.00">$mediaService</text>
<text text-anchor="start" x="1173" y="-213.5" font-family="Helvetica,sans-Serif" font-size="10.00">+</text>
<text text-anchor="start" x="1186" y="-213.5" font-family="Helvetica,sans-Serif" font-size="10.00">__construct(MediaService</text>
<text text-anchor="start" x="1186" y="-202.5" font-family="Helvetica,sans-Serif" font-size="10.00"> $mediaService)</text>
<text text-anchor="start" x="1173" y="-187.5" font-family="Helvetica,sans-Serif" font-size="10.00">+</text>
<text text-anchor="start" x="1186" y="-187.5" font-family="Helvetica,sans-Serif" font-size="10.00">index()</text>
<text text-anchor="start" x="1173" y="-172.5" font-family="Helvetica,sans-Serif" font-size="10.00">+</text>
<text text-anchor="start" x="1186" y="-172.5" font-family="Helvetica,sans-Serif" font-size="10.00">create()</text>
<text text-anchor="start" x="1173" y="-157.5" font-family="Helvetica,sans-Serif" font-size="10.00">+</text>
<text text-anchor="start" x="1186" y="-157.5" font-family="Helvetica,sans-Serif" font-size="10.00">store(Request $request)</text>
<text text-anchor="start" x="1173" y="-142.5" font-family="Helvetica,sans-Serif" font-size="10.00">+</text>
<text text-anchor="start" x="1186" y="-142.5" font-family="Helvetica,sans-Serif" font-size="10.00">show(string $id)</text>
<text text-anchor="start" x="1173" y="-127.5" font-family="Helvetica,sans-Serif" font-size="10.00">+</text>
<text text-anchor="start" x="1186" y="-127.5" font-family="Helvetica,sans-Serif" font-size="10.00">edit(string $id)</text>
<text text-anchor="start" x="1173" y="-112.5" font-family="Helvetica,sans-Serif" font-size="10.00">+</text>
<text text-anchor="start" x="1186" y="-112.5" font-family="Helvetica,sans-Serif" font-size="10.00">update(Request $request,</text>
<text text-anchor="start" x="1186" y="-101.5" font-family="Helvetica,sans-Serif" font-size="10.00"> string $id)</text>
<text text-anchor="start" x="1173" y="-86.5" font-family="Helvetica,sans-Serif" font-size="10.00">+</text>
<text text-anchor="start" x="1186" y="-86.5" font-family="Helvetica,sans-Serif" font-size="10.00">destroy(string $id)</text>
<text text-anchor="start" x="1173" y="-71.5" font-family="Helvetica,sans-Serif" font-size="10.00">+</text>
<text text-anchor="start" x="1186" y="-71.5" font-family="Helvetica,sans-Serif" font-size="10.00">sync()</text>
<text text-anchor="start" x="1173" y="-56.5" font-family="Helvetica,sans-Serif" font-size="10.00">+</text>
<text text-anchor="start" x="1186" y="-56.5" font-family="Helvetica,sans-Serif" font-size="10.00">syncLocalPath(Request</text>
<text text-anchor="start" x="1186" y="-45.5" font-family="Helvetica,sans-Serif" font-size="10.00"> $request, MediaService</text>
<text text-anchor="start" x="1186" y="-34.5" font-family="Helvetica,sans-Serif" font-size="10.00"> $mediaService)</text>
<polygon fill="#666666" stroke="#666666" points="1169,-238.5 1169,-238.5 1317,-238.5 1317,-238.5 1169,-238.5"/>
<polygon fill="#666666" stroke="#666666" points="1169,-223.5 1169,-223.5 1184,-223.5 1184,-223.5 1169,-223.5"/>
<polygon fill="#666666" stroke="#666666" points="1184,-223.5 1184,-223.5 1317,-223.5 1317,-223.5 1184,-223.5"/>
<polygon fill="none" stroke="#666666" points="1169,-28 1169,-267 1317,-267 1317,-28 1169,-28"/>
</a>
</g>
</g>
<!-- Node1&#45;&gt;Node9 -->
<g id="edge8_Node000001_Node000009" class="edge">
<title>Node1&#45;&gt;Node9</title>
<g id="a_edge8_Node000001_Node000009"><a xlink:title=" ">
<path fill="none" stroke="#63b8ff" d="M1135.22,-323.5C1143.86,-314.58 1152.62,-304.78 1160,-295 1166.6,-286.25 1173.05,-276.92 1179.25,-267.37"/>
<polygon fill="none" stroke="#63b8ff" points="1132.58,-321.19 1128.03,-330.76 1137.55,-326.12 1132.58,-321.19"/>
</a>
</g>
</g>
<!-- Node10 -->
<g id="Node000010" class="node">
<title>Node10</title>
<g id="a_Node000010"><a xlink:href="classApp_1_1Http_1_1Controllers_1_1ProfileController.html" target="_top" xlink:title=" ">
<polygon fill="white" stroke="transparent" points="1500.5,-198 1335.5,-198 1335.5,-97 1500.5,-97 1500.5,-198"/>
<text text-anchor="start" x="1368.5" y="-185.5" font-family="Helvetica,sans-Serif" font-size="10.00">App\Http\Controllers</text>
<text text-anchor="start" x="1377.5" y="-174.5" font-family="Helvetica,sans-Serif" font-size="10.00">\ProfileController</text>
<text text-anchor="start" x="1416.5" y="-159.5" font-family="Helvetica,sans-Serif" font-size="10.00"> </text>
<text text-anchor="start" x="1340" y="-144.5" font-family="Helvetica,sans-Serif" font-size="10.00">+</text>
<text text-anchor="start" x="1353" y="-144.5" font-family="Helvetica,sans-Serif" font-size="10.00">edit(Request $request)</text>
<text text-anchor="start" x="1340" y="-129.5" font-family="Helvetica,sans-Serif" font-size="10.00">+</text>
<text text-anchor="start" x="1353" y="-129.5" font-family="Helvetica,sans-Serif" font-size="10.00">update(ProfileUpdateRequest</text>
<text text-anchor="start" x="1353" y="-118.5" font-family="Helvetica,sans-Serif" font-size="10.00"> $request)</text>
<text text-anchor="start" x="1340" y="-103.5" font-family="Helvetica,sans-Serif" font-size="10.00">+</text>
<text text-anchor="start" x="1353" y="-103.5" font-family="Helvetica,sans-Serif" font-size="10.00">destroy(Request $request)</text>
<polygon fill="#666666" stroke="#666666" points="1336,-169.5 1336,-169.5 1501,-169.5 1501,-169.5 1336,-169.5"/>
<polygon fill="#666666" stroke="#666666" points="1336,-154.5 1336,-154.5 1501,-154.5 1501,-154.5 1336,-154.5"/>
<polygon fill="none" stroke="#666666" points="1335.5,-97 1335.5,-198 1500.5,-198 1500.5,-97 1335.5,-97"/>
</a>
</g>
</g>
<!-- Node1&#45;&gt;Node10 -->
<g id="edge9_Node000001_Node000010" class="edge">
<title>Node1&#45;&gt;Node10</title>
<g id="a_edge9_Node000001_Node000010"><a xlink:title=" ">
<path fill="none" stroke="#63b8ff" d="M1161.05,-354.28C1210.44,-347.13 1277.84,-331.07 1326,-295 1358.94,-270.34 1382.97,-230.12 1398.19,-198.05"/>
<polygon fill="none" stroke="#63b8ff" points="1160.55,-350.81 1151.11,-355.63 1161.49,-357.75 1160.55,-350.81"/>
</a>
</g>
</g>
<!-- Node11 -->
<g id="Node000011" class="node">
<title>Node11</title>
<g id="a_Node000011"><a xlink:href="classApp_1_1Http_1_1Controllers_1_1SearchController.html" target="_top" xlink:title=" ">
<polygon fill="white" stroke="transparent" points="1665.5,-203.5 1518.5,-203.5 1518.5,-91.5 1665.5,-91.5 1665.5,-203.5"/>
<text text-anchor="start" x="1542.5" y="-191.5" font-family="Helvetica,sans-Serif" font-size="10.00">App\Http\Controllers</text>
<text text-anchor="start" x="1550" y="-180.5" font-family="Helvetica,sans-Serif" font-size="10.00">\SearchController</text>
<text text-anchor="start" x="1523" y="-165.5" font-family="Helvetica,sans-Serif" font-size="10.00">#</text>
<text text-anchor="start" x="1536" y="-165.5" font-family="Helvetica,sans-Serif" font-size="10.00">$mediaService</text>
<text text-anchor="start" x="1523" y="-150.5" font-family="Helvetica,sans-Serif" font-size="10.00">+</text>
<text text-anchor="start" x="1536" y="-150.5" font-family="Helvetica,sans-Serif" font-size="10.00">__construct(MediaService</text>
<text text-anchor="start" x="1536" y="-139.5" font-family="Helvetica,sans-Serif" font-size="10.00"> $mediaService)</text>
<text text-anchor="start" x="1523" y="-124.5" font-family="Helvetica,sans-Serif" font-size="10.00">+</text>
<text text-anchor="start" x="1536" y="-124.5" font-family="Helvetica,sans-Serif" font-size="10.00">index(Request $request)</text>
<text text-anchor="start" x="1523" y="-109.5" font-family="Helvetica,sans-Serif" font-size="10.00">+</text>
<text text-anchor="start" x="1536" y="-109.5" font-family="Helvetica,sans-Serif" font-size="10.00">autocomplete(Request</text>
<text text-anchor="start" x="1536" y="-98.5" font-family="Helvetica,sans-Serif" font-size="10.00"> $request)</text>
<polygon fill="#666666" stroke="#666666" points="1519,-175.5 1519,-175.5 1666,-175.5 1666,-175.5 1519,-175.5"/>
<polygon fill="#666666" stroke="#666666" points="1519,-160.5 1519,-160.5 1534,-160.5 1534,-160.5 1519,-160.5"/>
<polygon fill="#666666" stroke="#666666" points="1534,-160.5 1534,-160.5 1666,-160.5 1666,-160.5 1534,-160.5"/>
<polygon fill="none" stroke="#666666" points="1518.5,-91.5 1518.5,-203.5 1665.5,-203.5 1665.5,-91.5 1518.5,-91.5"/>
</a>
</g>
</g>
<!-- Node1&#45;&gt;Node11 -->
<g id="edge10_Node000001_Node000011" class="edge">
<title>Node1&#45;&gt;Node11</title>
<g id="a_edge10_Node000001_Node000011"><a xlink:title=" ">
<path fill="none" stroke="#63b8ff" d="M1161.29,-356.64C1263.37,-350.25 1454.8,-333.43 1510,-295 1541.34,-273.19 1562.08,-235.33 1574.86,-203.57"/>
<polygon fill="none" stroke="#63b8ff" points="1160.87,-353.16 1151.1,-357.26 1161.29,-360.14 1160.87,-353.16"/>
</a>
</g>
</g>
<!-- Node12 -->
<g id="Node000012" class="node">
<title>Node12</title>
<g id="a_Node000012"><a xlink:href="classApp_1_1Http_1_1Controllers_1_1StreamController.html" target="_top" xlink:title=" ">
<polygon fill="white" stroke="transparent" points="1850,-277.5 1684,-277.5 1684,-17.5 1850,-17.5 1850,-277.5"/>
<text text-anchor="start" x="1717" y="-265.5" font-family="Helvetica,sans-Serif" font-size="10.00">App\Http\Controllers</text>
<text text-anchor="start" x="1723.5" y="-254.5" font-family="Helvetica,sans-Serif" font-size="10.00">\StreamController</text>
<text text-anchor="start" x="1765" y="-239.5" font-family="Helvetica,sans-Serif" font-size="10.00"> </text>
<text text-anchor="start" x="1688" y="-224.5" font-family="Helvetica,sans-Serif" font-size="10.00">+</text>
<text text-anchor="start" x="1701" y="-224.5" font-family="Helvetica,sans-Serif" font-size="10.00">stream(Request $request,</text>
<text text-anchor="start" x="1701" y="-213.5" font-family="Helvetica,sans-Serif" font-size="10.00"> $mediaId)</text>
<text text-anchor="start" x="1688" y="-198.5" font-family="Helvetica,sans-Serif" font-size="10.00">+</text>
<text text-anchor="start" x="1701" y="-198.5" font-family="Helvetica,sans-Serif" font-size="10.00">segment(Request $request,</text>
<text text-anchor="start" x="1701" y="-187.5" font-family="Helvetica,sans-Serif" font-size="10.00"> $mediaId, $segment)</text>
<text text-anchor="start" x="1690.5" y="-172.5" font-family="Helvetica,sans-Serif" font-size="10.00">&#45;</text>
<text text-anchor="start" x="1701" y="-172.5" font-family="Helvetica,sans-Serif" font-size="10.00">streamMP4($ftpDisk,</text>
<text text-anchor="start" x="1701" y="-161.5" font-family="Helvetica,sans-Serif" font-size="10.00"> $videoPath, Request</text>
<text text-anchor="start" x="1701" y="-150.5" font-family="Helvetica,sans-Serif" font-size="10.00"> $request)</text>
<text text-anchor="start" x="1690.5" y="-135.5" font-family="Helvetica,sans-Serif" font-size="10.00">&#45;</text>
<text text-anchor="start" x="1701" y="-135.5" font-family="Helvetica,sans-Serif" font-size="10.00">streamHLS($ftpDisk,</text>
<text text-anchor="start" x="1701" y="-124.5" font-family="Helvetica,sans-Serif" font-size="10.00"> $m3u8Path)</text>
<text text-anchor="start" x="1690.5" y="-109.5" font-family="Helvetica,sans-Serif" font-size="10.00">&#45;</text>
<text text-anchor="start" x="1701" y="-109.5" font-family="Helvetica,sans-Serif" font-size="10.00">streamLocalVideo(</text>
<text text-anchor="start" x="1701" y="-98.5" font-family="Helvetica,sans-Serif" font-size="10.00">$videoPath, Request</text>
<text text-anchor="start" x="1701" y="-87.5" font-family="Helvetica,sans-Serif" font-size="10.00"> $request)</text>
<text text-anchor="start" x="1690.5" y="-72.5" font-family="Helvetica,sans-Serif" font-size="10.00">&#45;</text>
<text text-anchor="start" x="1701" y="-72.5" font-family="Helvetica,sans-Serif" font-size="10.00">streamLocalMediaVideo</text>
<text text-anchor="start" x="1701" y="-61.5" font-family="Helvetica,sans-Serif" font-size="10.00">(Media $media, Request</text>
<text text-anchor="start" x="1701" y="-50.5" font-family="Helvetica,sans-Serif" font-size="10.00"> $request)</text>
<text text-anchor="start" x="1690.5" y="-35.5" font-family="Helvetica,sans-Serif" font-size="10.00">&#45;</text>
<text text-anchor="start" x="1701" y="-35.5" font-family="Helvetica,sans-Serif" font-size="10.00">streamLocalVideoByMapping</text>
<text text-anchor="start" x="1701" y="-24.5" font-family="Helvetica,sans-Serif" font-size="10.00">($mediaId, Request $request)</text>
<polygon fill="#666666" stroke="#666666" points="1684,-249.5 1684,-249.5 1850,-249.5 1850,-249.5 1684,-249.5"/>
<polygon fill="#666666" stroke="#666666" points="1684,-234.5 1684,-234.5 1850,-234.5 1850,-234.5 1684,-234.5"/>
<polygon fill="none" stroke="#666666" points="1684,-17.5 1684,-277.5 1850,-277.5 1850,-17.5 1684,-17.5"/>
</a>
</g>
</g>
<!-- Node1&#45;&gt;Node12 -->
<g id="edge11_Node000001_Node000012" class="edge">
<title>Node1&#45;&gt;Node12</title>
<g id="a_edge11_Node000001_Node000012"><a xlink:title=" ">
<path fill="none" stroke="#63b8ff" d="M1161.4,-359.67C1294.36,-357.88 1590.79,-347.9 1675,-295 1682.88,-290.05 1690.21,-284.15 1696.99,-277.6"/>
<polygon fill="none" stroke="#63b8ff" points="1161.3,-356.17 1151.34,-359.79 1161.39,-363.17 1161.3,-356.17"/>
</a>
</g>
</g>
<!-- Node13 -->
<g id="Node000013" class="node">
<title>Node13</title>
<g id="a_Node000013"><a xlink:href="classApp_1_1Http_1_1Controllers_1_1ThumbnailController.html" target="_top" xlink:title=" ">
<polygon fill="white" stroke="transparent" points="1984,-177.5 1868,-177.5 1868,-117.5 1984,-117.5 1984,-177.5"/>
<text text-anchor="start" x="1874.5" y="-165.5" font-family="Helvetica,sans-Serif" font-size="10.00">App\Http\Controllers</text>
<text text-anchor="start" x="1874.5" y="-154.5" font-family="Helvetica,sans-Serif" font-size="10.00">\ThumbnailController</text>
<text text-anchor="start" x="1924" y="-139.5" font-family="Helvetica,sans-Serif" font-size="10.00"> </text>
<text text-anchor="start" x="1872" y="-124.5" font-family="Helvetica,sans-Serif" font-size="10.00">+</text>
<text text-anchor="start" x="1885" y="-124.5" font-family="Helvetica,sans-Serif" font-size="10.00">show(int $mediaId)</text>
<polygon fill="#666666" stroke="#666666" points="1868,-149.5 1868,-149.5 1984,-149.5 1984,-149.5 1868,-149.5"/>
<polygon fill="#666666" stroke="#666666" points="1868,-134.5 1868,-134.5 1984,-134.5 1984,-134.5 1868,-134.5"/>
<polygon fill="none" stroke="#666666" points="1868,-117.5 1868,-177.5 1984,-177.5 1984,-117.5 1868,-117.5"/>
</a>
</g>
</g>
<!-- Node1&#45;&gt;Node13 -->
<g id="edge12_Node000001_Node000013" class="edge">
<title>Node1&#45;&gt;Node13</title>
<g id="a_edge12_Node000001_Node000013"><a xlink:title=" ">
<path fill="none" stroke="#63b8ff" d="M1161.11,-358.18C1335.29,-352.79 1802.54,-334.75 1859,-295 1897.88,-267.63 1914.67,-212.01 1921.56,-177.72"/>
<polygon fill="none" stroke="#63b8ff" points="1160.95,-354.68 1151.06,-358.49 1161.16,-361.68 1160.95,-354.68"/>
</a>
</g>
</g>
<!-- Node14 -->
<g id="Node000014" class="node">
<title>Node14</title>
<g id="a_Node000014"><a xlink:href="classApp_1_1Http_1_1Controllers_1_1TransfertController.html" target="_top" xlink:title=" ">
<polygon fill="white" stroke="transparent" points="2165.5,-231.5 2002.5,-231.5 2002.5,-63.5 2165.5,-63.5 2165.5,-231.5"/>
<text text-anchor="start" x="2034.5" y="-219.5" font-family="Helvetica,sans-Serif" font-size="10.00">App\Http\Controllers</text>
<text text-anchor="start" x="2037.5" y="-208.5" font-family="Helvetica,sans-Serif" font-size="10.00">\TransfertController</text>
<text text-anchor="start" x="2007" y="-193.5" font-family="Helvetica,sans-Serif" font-size="10.00">#</text>
<text text-anchor="start" x="2020" y="-193.5" font-family="Helvetica,sans-Serif" font-size="10.00">$ffastrans</text>
<text text-anchor="start" x="2007" y="-178.5" font-family="Helvetica,sans-Serif" font-size="10.00">+</text>
<text text-anchor="start" x="2020" y="-178.5" font-family="Helvetica,sans-Serif" font-size="10.00">__construct(FfastransService</text>
<text text-anchor="start" x="2020" y="-167.5" font-family="Helvetica,sans-Serif" font-size="10.00"> $ffastrans)</text>
<text text-anchor="start" x="2007" y="-152.5" font-family="Helvetica,sans-Serif" font-size="10.00">+</text>
<text text-anchor="start" x="2020" y="-152.5" font-family="Helvetica,sans-Serif" font-size="10.00">index()</text>
<text text-anchor="start" x="2007" y="-137.5" font-family="Helvetica,sans-Serif" font-size="10.00">+</text>
<text text-anchor="start" x="2020" y="-137.5" font-family="Helvetica,sans-Serif" font-size="10.00">list(FfastransService</text>
<text text-anchor="start" x="2020" y="-126.5" font-family="Helvetica,sans-Serif" font-size="10.00"> $ffastrans)</text>
<text text-anchor="start" x="2007" y="-111.5" font-family="Helvetica,sans-Serif" font-size="10.00">+</text>
<text text-anchor="start" x="2020" y="-111.5" font-family="Helvetica,sans-Serif" font-size="10.00">startJob(Request </text>
<text text-anchor="start" x="2020" y="-100.5" font-family="Helvetica,sans-Serif" font-size="10.00">$request)</text>
<text text-anchor="start" x="2007" y="-85.5" font-family="Helvetica,sans-Serif" font-size="10.00">+</text>
<text text-anchor="start" x="2020" y="-85.5" font-family="Helvetica,sans-Serif" font-size="10.00">checkStatus($jobId)</text>
<text text-anchor="start" x="2007" y="-70.5" font-family="Helvetica,sans-Serif" font-size="10.00">+</text>
<text text-anchor="start" x="2020" y="-70.5" font-family="Helvetica,sans-Serif" font-size="10.00">cancel($jobId)</text>
<polygon fill="#666666" stroke="#666666" points="2003,-203.5 2003,-203.5 2166,-203.5 2166,-203.5 2003,-203.5"/>
<polygon fill="#666666" stroke="#666666" points="2003,-188.5 2003,-188.5 2018,-188.5 2018,-188.5 2003,-188.5"/>
<polygon fill="#666666" stroke="#666666" points="2018,-188.5 2018,-188.5 2166,-188.5 2166,-188.5 2018,-188.5"/>
<polygon fill="none" stroke="#666666" points="2002.5,-63.5 2002.5,-231.5 2165.5,-231.5 2165.5,-63.5 2002.5,-63.5"/>
</a>
</g>
</g>
<!-- Node1&#45;&gt;Node14 -->
<g id="edge13_Node000001_Node000014" class="edge">
<title>Node1&#45;&gt;Node14</title>
<g id="a_edge13_Node000001_Node000014"><a xlink:title=" ">
<path fill="none" stroke="#63b8ff" d="M1161.24,-358.67C1355.7,-354.23 1922.32,-337.72 1993,-295 2017.47,-280.21 2036.35,-256.07 2050.4,-231.61"/>
<polygon fill="none" stroke="#63b8ff" points="1161.08,-355.17 1151.16,-358.89 1161.24,-362.17 1161.08,-355.17"/>
</a>
</g>
</g>
</g>
</svg>
