<?xml version="1.0" encoding="UTF-8" standalone="no"?>
<!DOCTYPE svg PUBLIC "-//W3C//DTD SVG 1.1//EN"
 "http://www.w3.org/Graphics/SVG/1.1/DTD/svg11.dtd">
<!-- Generated by graphviz version 2.42.4 (0)
 -->
<!-- Title: App\Services\FfastransService Pages: 1 -->
<svg width="166pt" height="258pt"
 viewBox="0.00 0.00 166.00 258.00" xmlns="http://www.w3.org/2000/svg" xmlns:xlink="http://www.w3.org/1999/xlink">
<g id="graph0" class="graph" transform="scale(1 1) rotate(0) translate(4 254)">
<title>App\Services\FfastransService</title>
<!-- Node1 -->
<g id="Node000001" class="node">
<title>Node1</title>
<g id="a_Node000001"><a xlink:title=" ">
<polygon fill="#999999" stroke="transparent" points="158,-250 0,-250 0,0 158,0 158,-250"/>
<text text-anchor="start" x="5" y="-238" font-family="Helvetica,sans-Serif" font-size="10.00">App\Services\FfastransService</text>
<text text-anchor="start" x="8.5" y="-223" font-family="Helvetica,sans-Serif" font-size="10.00">#</text>
<text text-anchor="start" x="26" y="-223" font-family="Helvetica,sans-Serif" font-size="10.00">string $baseUrl</text>
<text text-anchor="start" x="8.5" y="-208" font-family="Helvetica,sans-Serif" font-size="10.00">#</text>
<text text-anchor="start" x="26" y="-208" font-family="Helvetica,sans-Serif" font-size="10.00">string $username</text>
<text text-anchor="start" x="8.5" y="-193" font-family="Helvetica,sans-Serif" font-size="10.00">#</text>
<text text-anchor="start" x="26" y="-193" font-family="Helvetica,sans-Serif" font-size="10.00">string $password</text>
<text text-anchor="start" x="8.5" y="-178" font-family="Helvetica,sans-Serif" font-size="10.00">+</text>
<text text-anchor="start" x="26" y="-178" font-family="Helvetica,sans-Serif" font-size="10.00">__construct()</text>
<text text-anchor="start" x="8.5" y="-163" font-family="Helvetica,sans-Serif" font-size="10.00">+</text>
<text text-anchor="start" x="26" y="-163" font-family="Helvetica,sans-Serif" font-size="10.00">submitJob(string </text>
<text text-anchor="start" x="26" y="-152" font-family="Helvetica,sans-Serif" font-size="10.00">$sourceFile, string</text>
<text text-anchor="start" x="26" y="-141" font-family="Helvetica,sans-Serif" font-size="10.00"> $workflowId, array </text>
<text text-anchor="start" x="26" y="-130" font-family="Helvetica,sans-Serif" font-size="10.00">$variables=[])</text>
<text text-anchor="start" x="8.5" y="-115" font-family="Helvetica,sans-Serif" font-size="10.00">+</text>
<text text-anchor="start" x="26" y="-115" font-family="Helvetica,sans-Serif" font-size="10.00">translatePath(string</text>
<text text-anchor="start" x="26" y="-104" font-family="Helvetica,sans-Serif" font-size="10.00"> $linuxPath)</text>
<text text-anchor="start" x="8.5" y="-89" font-family="Helvetica,sans-Serif" font-size="10.00">+</text>
<text text-anchor="start" x="26" y="-89" font-family="Helvetica,sans-Serif" font-size="10.00">getFullStatusList()</text>
<text text-anchor="start" x="8.5" y="-74" font-family="Helvetica,sans-Serif" font-size="10.00">+</text>
<text text-anchor="start" x="26" y="-74" font-family="Helvetica,sans-Serif" font-size="10.00">getJobStatus(string</text>
<text text-anchor="start" x="26" y="-63" font-family="Helvetica,sans-Serif" font-size="10.00"> $jobId)</text>
<text text-anchor="start" x="8.5" y="-48" font-family="Helvetica,sans-Serif" font-size="10.00">+</text>
<text text-anchor="start" x="26" y="-48" font-family="Helvetica,sans-Serif" font-size="10.00">cancelJob(string </text>
<text text-anchor="start" x="26" y="-37" font-family="Helvetica,sans-Serif" font-size="10.00">$jobId)</text>
<text text-anchor="start" x="8.5" y="-22" font-family="Helvetica,sans-Serif" font-size="10.00">#</text>
<text text-anchor="start" x="26" y="-22" font-family="Helvetica,sans-Serif" font-size="10.00">client()</text>
<text text-anchor="start" x="11" y="-7" font-family="Helvetica,sans-Serif" font-size="10.00">&#45;</text>
<text text-anchor="start" x="26" y="-7" font-family="Helvetica,sans-Serif" font-size="10.00">translateStatus($status)</text>
<polygon fill="#666666" stroke="#666666" points="0,-233 0,-233 158,-233 158,-233 0,-233"/>
<polygon fill="#666666" stroke="#666666" points="0,-188 0,-188 24,-188 24,-188 0,-188"/>
<polygon fill="#666666" stroke="#666666" points="24,-188 24,-188 158,-188 158,-188 24,-188"/>
<polygon fill="none" stroke="#666666" points="0,0 0,-250 158,-250 158,0 0,0"/>
</a>
</g>
</g>
</g>
</svg>
