<?xml version="1.0" encoding="UTF-8" standalone="no"?>
<!DOCTYPE svg PUBLIC "-//W3C//DTD SVG 1.1//EN"
 "http://www.w3.org/Graphics/SVG/1.1/DTD/svg11.dtd">
<!-- Generated by graphviz version 2.42.4 (0)
 -->
<!-- Title: Tests\Unit\Services\FfastransServiceTest Pages: 1 -->
<svg width="171pt" height="546pt"
 viewBox="0.00 0.00 171.00 546.00" xmlns="http://www.w3.org/2000/svg" xmlns:xlink="http://www.w3.org/1999/xlink">
<g id="graph0" class="graph" transform="scale(1 1) rotate(0) translate(4 542)">
<title>Tests\Unit\Services\FfastransServiceTest</title>
<!-- Node1 -->
<g id="Node000001" class="node">
<title>Node1</title>
<g id="a_Node000001"><a xlink:title=" ">
<polygon fill="#999999" stroke="transparent" points="163,-368 0,-368 0,0 163,0 163,-368"/>
<text text-anchor="start" x="29.5" y="-356" font-family="Helvetica,sans-Serif" font-size="10.00">Tests\Unit\Services</text>
<text text-anchor="start" x="29.5" y="-345" font-family="Helvetica,sans-Serif" font-size="10.00">\FfastransServiceTest</text>
<text text-anchor="start" x="4.5" y="-330" font-family="Helvetica,sans-Serif" font-size="10.00">#</text>
<text text-anchor="start" x="17.5" y="-330" font-family="Helvetica,sans-Serif" font-size="10.00">FfastransService $service</text>
<text text-anchor="start" x="4.5" y="-315" font-family="Helvetica,sans-Serif" font-size="10.00">+</text>
<text text-anchor="start" x="17.5" y="-315" font-family="Helvetica,sans-Serif" font-size="10.00">translatePath_converts</text>
<text text-anchor="start" x="17.5" y="-304" font-family="Helvetica,sans-Serif" font-size="10.00">_linux_to_windows_path()</text>
<text text-anchor="start" x="4.5" y="-289" font-family="Helvetica,sans-Serif" font-size="10.00">+</text>
<text text-anchor="start" x="17.5" y="-289" font-family="Helvetica,sans-Serif" font-size="10.00">translatePath_handles</text>
<text text-anchor="start" x="17.5" y="-278" font-family="Helvetica,sans-Serif" font-size="10.00">_relative_paths()</text>
<text text-anchor="start" x="4.5" y="-263" font-family="Helvetica,sans-Serif" font-size="10.00">+</text>
<text text-anchor="start" x="17.5" y="-263" font-family="Helvetica,sans-Serif" font-size="10.00">translatePath_returns</text>
<text text-anchor="start" x="17.5" y="-252" font-family="Helvetica,sans-Serif" font-size="10.00">_original_if_no_remote</text>
<text text-anchor="start" x="17.5" y="-241" font-family="Helvetica,sans-Serif" font-size="10.00">_root()</text>
<text text-anchor="start" x="4.5" y="-226" font-family="Helvetica,sans-Serif" font-size="10.00">+</text>
<text text-anchor="start" x="17.5" y="-226" font-family="Helvetica,sans-Serif" font-size="10.00">translatePath_preserves</text>
<text text-anchor="start" x="17.5" y="-215" font-family="Helvetica,sans-Serif" font-size="10.00">_windows_paths()</text>
<text text-anchor="start" x="4.5" y="-200" font-family="Helvetica,sans-Serif" font-size="10.00">+</text>
<text text-anchor="start" x="17.5" y="-200" font-family="Helvetica,sans-Serif" font-size="10.00">translatePath_replaces</text>
<text text-anchor="start" x="17.5" y="-189" font-family="Helvetica,sans-Serif" font-size="10.00">_forward_slashes_with</text>
<text text-anchor="start" x="17.5" y="-178" font-family="Helvetica,sans-Serif" font-size="10.00">_backslashes()</text>
<text text-anchor="start" x="4.5" y="-163" font-family="Helvetica,sans-Serif" font-size="10.00">+</text>
<text text-anchor="start" x="17.5" y="-163" font-family="Helvetica,sans-Serif" font-size="10.00">submitJob_sends_correct</text>
<text text-anchor="start" x="17.5" y="-152" font-family="Helvetica,sans-Serif" font-size="10.00">_payload_to_api()</text>
<text text-anchor="start" x="4.5" y="-137" font-family="Helvetica,sans-Serif" font-size="10.00">+</text>
<text text-anchor="start" x="17.5" y="-137" font-family="Helvetica,sans-Serif" font-size="10.00">submitJob_preserves</text>
<text text-anchor="start" x="17.5" y="-126" font-family="Helvetica,sans-Serif" font-size="10.00">_unc_paths()</text>
<text text-anchor="start" x="4.5" y="-111" font-family="Helvetica,sans-Serif" font-size="10.00">+</text>
<text text-anchor="start" x="17.5" y="-111" font-family="Helvetica,sans-Serif" font-size="10.00">submitJob_throws_exception</text>
<text text-anchor="start" x="17.5" y="-100" font-family="Helvetica,sans-Serif" font-size="10.00">_on_failed_response()</text>
<text text-anchor="start" x="4.5" y="-85" font-family="Helvetica,sans-Serif" font-size="10.00">+</text>
<text text-anchor="start" x="17.5" y="-85" font-family="Helvetica,sans-Serif" font-size="10.00">getFullStatusList</text>
<text text-anchor="start" x="17.5" y="-74" font-family="Helvetica,sans-Serif" font-size="10.00">_combines_active_and</text>
<text text-anchor="start" x="17.5" y="-63" font-family="Helvetica,sans-Serif" font-size="10.00">_history_jobs()</text>
<text text-anchor="start" x="4.5" y="-48" font-family="Helvetica,sans-Serif" font-size="10.00">+</text>
<text text-anchor="start" x="17.5" y="-48" font-family="Helvetica,sans-Serif" font-size="10.00">getFullStatusList</text>
<text text-anchor="start" x="17.5" y="-37" font-family="Helvetica,sans-Serif" font-size="10.00">_sorts_by_date_descending()</text>
<text text-anchor="start" x="17.5" y="-22" font-family="Helvetica,sans-Serif" font-size="10.00">et 10 de plus...</text>
<text text-anchor="start" x="4.5" y="-7" font-family="Helvetica,sans-Serif" font-size="10.00">#</text>
<text text-anchor="start" x="17.5" y="-7" font-family="Helvetica,sans-Serif" font-size="10.00">setUp()</text>
<polygon fill="#666666" stroke="#666666" points="0.5,-340 0.5,-340 163.5,-340 163.5,-340 0.5,-340"/>
<polygon fill="#666666" stroke="#666666" points="0.5,-325 0.5,-325 15.5,-325 15.5,-325 0.5,-325"/>
<polygon fill="#666666" stroke="#666666" points="15.5,-325 15.5,-325 163.5,-325 163.5,-325 15.5,-325"/>
<polygon fill="none" stroke="#666666" points="0,0 0,-368 163,-368 163,0 0,0"/>
</a>
</g>
</g>
<!-- Node2 -->
<g id="Node000002" class="node">
<title>Node2</title>
<g id="a_Node000002"><a xlink:href="classTests_1_1TestCase.html" target="_top" xlink:title=" ">
<polygon fill="white" stroke="transparent" points="122.5,-453 40.5,-453 40.5,-404 122.5,-404 122.5,-453"/>
<text text-anchor="start" x="45.5" y="-440.5" font-family="Helvetica,sans-Serif" font-size="10.00">Tests\TestCase</text>
<text text-anchor="start" x="79.5" y="-425.5" font-family="Helvetica,sans-Serif" font-size="10.00"> </text>
<text text-anchor="start" x="79.5" y="-410.5" font-family="Helvetica,sans-Serif" font-size="10.00"> </text>
<polygon fill="#666666" stroke="#666666" points="40.5,-435.5 40.5,-435.5 122.5,-435.5 122.5,-435.5 40.5,-435.5"/>
<polygon fill="#666666" stroke="#666666" points="40.5,-420.5 40.5,-420.5 122.5,-420.5 122.5,-420.5 40.5,-420.5"/>
<polygon fill="none" stroke="#666666" points="40.5,-404 40.5,-453 122.5,-453 122.5,-404 40.5,-404"/>
</a>
</g>
</g>
<!-- Node2&#45;&gt;Node1 -->
<g id="edge1_Node000001_Node000002" class="edge">
<title>Node2&#45;&gt;Node1</title>
<g id="a_edge1_Node000001_Node000002"><a xlink:title=" ">
<path fill="none" stroke="#63b8ff" d="M81.5,-393.69C81.5,-386.04 81.5,-377.39 81.5,-368.09"/>
<polygon fill="none" stroke="#63b8ff" points="78,-393.81 81.5,-403.81 85,-393.81 78,-393.81"/>
</a>
</g>
</g>
<!-- Node3 -->
<g id="Node000003" class="node">
<title>Node3</title>
<g id="a_Node000003"><a xlink:title=" ">
<polygon fill="white" stroke="transparent" points="120.5,-538 42.5,-538 42.5,-489 120.5,-489 120.5,-538"/>
<text text-anchor="start" x="47.5" y="-525.5" font-family="Helvetica,sans-Serif" font-size="10.00">BaseTestCase</text>
<text text-anchor="start" x="79.5" y="-510.5" font-family="Helvetica,sans-Serif" font-size="10.00"> </text>
<text text-anchor="start" x="79.5" y="-495.5" font-family="Helvetica,sans-Serif" font-size="10.00"> </text>
<polygon fill="#666666" stroke="#666666" points="42.5,-520.5 42.5,-520.5 120.5,-520.5 120.5,-520.5 42.5,-520.5"/>
<polygon fill="#666666" stroke="#666666" points="42.5,-505.5 42.5,-505.5 120.5,-505.5 120.5,-505.5 42.5,-505.5"/>
<polygon fill="none" stroke="#666666" points="42.5,-489 42.5,-538 120.5,-538 120.5,-489 42.5,-489"/>
</a>
</g>
</g>
<!-- Node3&#45;&gt;Node2 -->
<g id="edge2_Node000002_Node000003" class="edge">
<title>Node3&#45;&gt;Node2</title>
<g id="a_edge2_Node000002_Node000003"><a xlink:title=" ">
<path fill="none" stroke="#63b8ff" d="M81.5,-478.77C81.5,-470.17 81.5,-461.1 81.5,-453.12"/>
<polygon fill="none" stroke="#63b8ff" points="78,-478.94 81.5,-488.94 85,-478.94 78,-478.94"/>
</a>
</g>
</g>
</g>
</svg>
