<?xml version="1.0" encoding="UTF-8" standalone="no"?>
<!DOCTYPE svg PUBLIC "-//W3C//DTD SVG 1.1//EN"
 "http://www.w3.org/Graphics/SVG/1.1/DTD/svg11.dtd">
<!-- Generated by graphviz version 2.42.4 (0)
 -->
<!-- Title: Tests\Feature\Auth\PasswordUpdateTest Pages: 1 -->
<svg width="179pt" height="286pt"
 viewBox="0.00 0.00 179.00 286.00" xmlns="http://www.w3.org/2000/svg" xmlns:xlink="http://www.w3.org/1999/xlink">
<g id="graph0" class="graph" transform="scale(1 1) rotate(0) translate(4 282)">
<title>Tests\Feature\Auth\PasswordUpdateTest</title>
<!-- Node1 -->
<g id="Node000001" class="node">
<title>Node1</title>
<g id="a_Node000001"><a xlink:title=" ">
<polygon fill="#999999" stroke="transparent" points="171,-108 0,-108 0,0 171,0 171,-108"/>
<text text-anchor="start" x="34" y="-96" font-family="Helvetica,sans-Serif" font-size="10.00">Tests\Feature\Auth</text>
<text text-anchor="start" x="34" y="-85" font-family="Helvetica,sans-Serif" font-size="10.00">\PasswordUpdateTest</text>
<text text-anchor="start" x="84" y="-70" font-family="Helvetica,sans-Serif" font-size="10.00"> </text>
<text text-anchor="start" x="4.5" y="-55" font-family="Helvetica,sans-Serif" font-size="10.00">+</text>
<text text-anchor="start" x="17.5" y="-55" font-family="Helvetica,sans-Serif" font-size="10.00">test_password_can</text>
<text text-anchor="start" x="17.5" y="-44" font-family="Helvetica,sans-Serif" font-size="10.00">_be_updated()</text>
<text text-anchor="start" x="4.5" y="-29" font-family="Helvetica,sans-Serif" font-size="10.00">+</text>
<text text-anchor="start" x="17.5" y="-29" font-family="Helvetica,sans-Serif" font-size="10.00">test_correct_password</text>
<text text-anchor="start" x="17.5" y="-18" font-family="Helvetica,sans-Serif" font-size="10.00">_must_be_provided_to_update</text>
<text text-anchor="start" x="17.5" y="-7" font-family="Helvetica,sans-Serif" font-size="10.00">_password()</text>
<polygon fill="#666666" stroke="#666666" points="0.5,-80 0.5,-80 171.5,-80 171.5,-80 0.5,-80"/>
<polygon fill="#666666" stroke="#666666" points="0.5,-65 0.5,-65 171.5,-65 171.5,-65 0.5,-65"/>
<polygon fill="none" stroke="#666666" points="0,0 0,-108 171,-108 171,0 0,0"/>
</a>
</g>
</g>
<!-- Node2 -->
<g id="Node000002" class="node">
<title>Node2</title>
<g id="a_Node000002"><a xlink:href="classTests_1_1TestCase.html" target="_top" xlink:title=" ">
<polygon fill="white" stroke="transparent" points="126.5,-193 44.5,-193 44.5,-144 126.5,-144 126.5,-193"/>
<text text-anchor="start" x="49.5" y="-180.5" font-family="Helvetica,sans-Serif" font-size="10.00">Tests\TestCase</text>
<text text-anchor="start" x="83.5" y="-165.5" font-family="Helvetica,sans-Serif" font-size="10.00"> </text>
<text text-anchor="start" x="83.5" y="-150.5" font-family="Helvetica,sans-Serif" font-size="10.00"> </text>
<polygon fill="#666666" stroke="#666666" points="44.5,-175.5 44.5,-175.5 126.5,-175.5 126.5,-175.5 44.5,-175.5"/>
<polygon fill="#666666" stroke="#666666" points="44.5,-160.5 44.5,-160.5 126.5,-160.5 126.5,-160.5 44.5,-160.5"/>
<polygon fill="none" stroke="#666666" points="44.5,-144 44.5,-193 126.5,-193 126.5,-144 44.5,-144"/>
</a>
</g>
</g>
<!-- Node2&#45;&gt;Node1 -->
<g id="edge1_Node000001_Node000002" class="edge">
<title>Node2&#45;&gt;Node1</title>
<g id="a_edge1_Node000001_Node000002"><a xlink:title=" ">
<path fill="none" stroke="#63b8ff" d="M85.5,-133.81C85.5,-125.74 85.5,-116.93 85.5,-108.21"/>
<polygon fill="none" stroke="#63b8ff" points="82,-133.92 85.5,-143.92 89,-133.92 82,-133.92"/>
</a>
</g>
</g>
<!-- Node3 -->
<g id="Node000003" class="node">
<title>Node3</title>
<g id="a_Node000003"><a xlink:title=" ">
<polygon fill="white" stroke="transparent" points="124.5,-278 46.5,-278 46.5,-229 124.5,-229 124.5,-278"/>
<text text-anchor="start" x="51.5" y="-265.5" font-family="Helvetica,sans-Serif" font-size="10.00">BaseTestCase</text>
<text text-anchor="start" x="83.5" y="-250.5" font-family="Helvetica,sans-Serif" font-size="10.00"> </text>
<text text-anchor="start" x="83.5" y="-235.5" font-family="Helvetica,sans-Serif" font-size="10.00"> </text>
<polygon fill="#666666" stroke="#666666" points="46.5,-260.5 46.5,-260.5 124.5,-260.5 124.5,-260.5 46.5,-260.5"/>
<polygon fill="#666666" stroke="#666666" points="46.5,-245.5 46.5,-245.5 124.5,-245.5 124.5,-245.5 46.5,-245.5"/>
<polygon fill="none" stroke="#666666" points="46.5,-229 46.5,-278 124.5,-278 124.5,-229 46.5,-229"/>
</a>
</g>
</g>
<!-- Node3&#45;&gt;Node2 -->
<g id="edge2_Node000002_Node000003" class="edge">
<title>Node3&#45;&gt;Node2</title>
<g id="a_edge2_Node000002_Node000003"><a xlink:title=" ">
<path fill="none" stroke="#63b8ff" d="M85.5,-218.77C85.5,-210.17 85.5,-201.1 85.5,-193.12"/>
<polygon fill="none" stroke="#63b8ff" points="82,-218.94 85.5,-228.94 89,-218.94 82,-218.94"/>
</a>
</g>
</g>
</g>
</svg>
