<?xml version="1.0" encoding="UTF-8" standalone="no"?>
<!DOCTYPE svg PUBLIC "-//W3C//DTD SVG 1.1//EN"
 "http://www.w3.org/Graphics/SVG/1.1/DTD/svg11.dtd">
<!-- Generated by graphviz version 2.42.4 (0)
 -->
<!-- Title: Tests\Feature\TransfertControllerTest Pages: 1 -->
<!--zoomable 649 -->

<svg id="main" version="1.1" xmlns="http://www.w3.org/2000/svg" xmlns:xlink="http://www.w3.org/1999/xlink" xml:space="preserve" onload="init(evt)">
<style type="text/css"><![CDATA[
.node, .edge {opacity: 0.7;}
.node.selected, .edge.selected {opacity: 1;}
.edge:hover path { stroke: red; }
.edge:hover polygon { stroke: red; fill: red; }
]]></style>

<defs>
  <circle id="rim" cx="0" cy="0" r="7"/>
  <circle id="rim2" cx="0" cy="0" r="3.5"/>
  <g id="zoomPlus">
    <use xlink:href="#rim" fill="#404040"><set attributeName="fill" to="#808080" begin="zoomplus.mouseover" end="zoomplus.mouseout"/></use>
    <path d="M-4,0h8M0,-4v8" fill="none" stroke="white" stroke-width="1.5" pointer-events="none"/>
  </g>
  <g id="zoomMin">
    <use xlink:href="#rim" fill="#404040"><set attributeName="fill" to="#808080" begin="zoomminus.mouseover" end="zoomminus.mouseout"/></use>
    <path d="M-4,0h8" fill="none" stroke="white" stroke-width="1.5" pointer-events="none"/>
  </g>
  <g id="arrowUp" transform="translate(30 24)">
    <use xlink:href="#rim"/>
    <path pointer-events="none" fill="none" stroke="white" stroke-width="1.5" d="M0,-3.0v7 M-2.5,-0.5L0,-3.0L2.5,-0.5"/>
  </g>
  <g id="arrowRight" transform="rotate(90) translate(36 -43)">
    <use xlink:href="#rim"/>
    <path pointer-events="none" fill="none" stroke="white" stroke-width="1.5" d="M0,-3.0v7 M-2.5,-0.5L0,-3.0L2.5,-0.5"/>
  </g>
  <g id="arrowDown" transform="rotate(180) translate(-30 -48)">
    <use xlink:href="#rim"/>
    <path pointer-events="none" fill="none" stroke="white" stroke-width="1.5" d="M0,-3.0v7 M-2.5,-0.5L0,-3.0L2.5,-0.5"/>
  </g>
  <g id="arrowLeft" transform="rotate(270) translate(-36 17)">
    <use xlink:href="#rim"/>
    <path pointer-events="none" fill="none" stroke="white" stroke-width="1.5" d="M0,-3.0v7 M-2.5,-0.5L0,-3.0L2.5,-0.5"/>
  </g>
  <g id="resetDef">
    <use xlink:href="#rim2" fill="#404040"><set attributeName="fill" to="#808080" begin="reset.mouseover" end="reset.mouseout"/></use>
  </g>
</defs>
<script type="application/ecmascript">
var viewWidth = 232;
var viewHeight = 649;
var sectionId = 'dynsection-1';
</script>
<script type="application/ecmascript" xlink:href="svg.min.js"/>
<svg id="graph" class="graph">
<g id="viewport">
<title>Tests\Feature\TransfertControllerTest</title>
<!-- Node1 -->
<g id="Node000001" class="node">
<title>Node1</title>
<g id="a_Node000001"><a xlink:title=" ">
<polygon fill="#999999" stroke="transparent" points="195,-324 7,-324 7,0 195,0 195,-324"/>
<text text-anchor="start" x="12" y="-312" font-family="Helvetica,sans-Serif" font-size="10.00">Tests\Feature\TransfertControllerTest</text>
<text text-anchor="start" x="99" y="-297" font-family="Helvetica,sans-Serif" font-size="10.00"> </text>
<text text-anchor="start" x="20" y="-282" font-family="Helvetica,sans-Serif" font-size="10.00">+</text>
<text text-anchor="start" x="42" y="-282" font-family="Helvetica,sans-Serif" font-size="10.00">index_displays_transfert</text>
<text text-anchor="start" x="42" y="-271" font-family="Helvetica,sans-Serif" font-size="10.00">_page()</text>
<text text-anchor="start" x="20" y="-256" font-family="Helvetica,sans-Serif" font-size="10.00">+</text>
<text text-anchor="start" x="42" y="-256" font-family="Helvetica,sans-Serif" font-size="10.00">list_returns_media</text>
<text text-anchor="start" x="42" y="-245" font-family="Helvetica,sans-Serif" font-size="10.00">_without_local_paths()</text>
<text text-anchor="start" x="20" y="-230" font-family="Helvetica,sans-Serif" font-size="10.00">+</text>
<text text-anchor="start" x="42" y="-230" font-family="Helvetica,sans-Serif" font-size="10.00">list_matches_active</text>
<text text-anchor="start" x="42" y="-219" font-family="Helvetica,sans-Serif" font-size="10.00">_jobs_with_media()</text>
<text text-anchor="start" x="20" y="-204" font-family="Helvetica,sans-Serif" font-size="10.00">+</text>
<text text-anchor="start" x="42" y="-204" font-family="Helvetica,sans-Serif" font-size="10.00">list_handles_ffastrans</text>
<text text-anchor="start" x="42" y="-193" font-family="Helvetica,sans-Serif" font-size="10.00">_error_gracefully()</text>
<text text-anchor="start" x="20" y="-178" font-family="Helvetica,sans-Serif" font-size="10.00">+</text>
<text text-anchor="start" x="42" y="-178" font-family="Helvetica,sans-Serif" font-size="10.00">list_prioritizes_arch</text>
<text text-anchor="start" x="42" y="-167" font-family="Helvetica,sans-Serif" font-size="10.00">_over_pad()</text>
<text text-anchor="start" x="20" y="-152" font-family="Helvetica,sans-Serif" font-size="10.00">+</text>
<text text-anchor="start" x="42" y="-152" font-family="Helvetica,sans-Serif" font-size="10.00">list_uses_pad_when</text>
<text text-anchor="start" x="42" y="-141" font-family="Helvetica,sans-Serif" font-size="10.00">_arch_not_available()</text>
<text text-anchor="start" x="20" y="-126" font-family="Helvetica,sans-Serif" font-size="10.00">+</text>
<text text-anchor="start" x="42" y="-126" font-family="Helvetica,sans-Serif" font-size="10.00">startJob_submits_job</text>
<text text-anchor="start" x="42" y="-115" font-family="Helvetica,sans-Serif" font-size="10.00">_to_ffastrans()</text>
<text text-anchor="start" x="20" y="-100" font-family="Helvetica,sans-Serif" font-size="10.00">+</text>
<text text-anchor="start" x="42" y="-100" font-family="Helvetica,sans-Serif" font-size="10.00">startJob_handles_ffastrans</text>
<text text-anchor="start" x="42" y="-89" font-family="Helvetica,sans-Serif" font-size="10.00">_error()</text>
<text text-anchor="start" x="20" y="-74" font-family="Helvetica,sans-Serif" font-size="10.00">+</text>
<text text-anchor="start" x="42" y="-74" font-family="Helvetica,sans-Serif" font-size="10.00">checkStatus_returns</text>
<text text-anchor="start" x="42" y="-63" font-family="Helvetica,sans-Serif" font-size="10.00">_job_progress()</text>
<text text-anchor="start" x="20" y="-48" font-family="Helvetica,sans-Serif" font-size="10.00">+</text>
<text text-anchor="start" x="42" y="-48" font-family="Helvetica,sans-Serif" font-size="10.00">checkStatus_detects</text>
<text text-anchor="start" x="42" y="-37" font-family="Helvetica,sans-Serif" font-size="10.00">_success_state()</text>
<text text-anchor="start" x="42" y="-22" font-family="Helvetica,sans-Serif" font-size="10.00">et 6 de plus...</text>
<text text-anchor="start" x="20" y="-7" font-family="Helvetica,sans-Serif" font-size="10.00">#</text>
<text text-anchor="start" x="42" y="-7" font-family="Helvetica,sans-Serif" font-size="10.00">setUp()</text>
<polygon fill="#666666" stroke="#666666" points="7,-307 7,-307 195,-307 195,-307 7,-307"/>
<polygon fill="#666666" stroke="#666666" points="7,-292 7,-292 195,-292 195,-292 7,-292"/>
<polygon fill="none" stroke="#666666" points="7,0 7,-324 195,-324 195,0 7,0"/>
</a>
</g>
</g>
<!-- Node2 -->
<g id="Node000002" class="node">
<title>Node2</title>
<g id="a_Node000002"><a xlink:href="classTests_1_1TestCase.html" target="_top" xlink:title=" ">
<polygon fill="white" stroke="transparent" points="82,-487.5 0,-487.5 0,-438.5 82,-438.5 82,-487.5"/>
<text text-anchor="start" x="5" y="-475" font-family="Helvetica,sans-Serif" font-size="10.00">Tests\TestCase</text>
<text text-anchor="start" x="39" y="-460" font-family="Helvetica,sans-Serif" font-size="10.00"> </text>
<text text-anchor="start" x="39" y="-445" font-family="Helvetica,sans-Serif" font-size="10.00"> </text>
<polygon fill="#666666" stroke="#666666" points="0,-470 0,-470 82,-470 82,-470 0,-470"/>
<polygon fill="#666666" stroke="#666666" points="0,-455 0,-455 82,-455 82,-455 0,-455"/>
<polygon fill="none" stroke="#666666" points="0,-438.5 0,-487.5 82,-487.5 82,-438.5 0,-438.5"/>
</a>
</g>
</g>
<!-- Node2&#45;&gt;Node1 -->
<g id="edge1_Node000001_Node000002" class="edge">
<title>Node2&#45;&gt;Node1</title>
<g id="a_edge1_Node000001_Node000002"><a xlink:title=" ">
<path fill="none" stroke="#63b8ff" d="M47.79,-428.18C53.05,-401.97 60.75,-363.57 68.68,-324.08"/>
<polygon fill="none" stroke="#63b8ff" points="44.29,-427.79 45.76,-438.29 51.16,-429.17 44.29,-427.79"/>
</a>
</g>
</g>
<!-- Node3 -->
<g id="Node000003" class="node">
<title>Node3</title>
<g id="a_Node000003"><a xlink:title=" ">
<polygon fill="white" stroke="transparent" points="80,-641 2,-641 2,-592 80,-592 80,-641"/>
<text text-anchor="start" x="7" y="-628.5" font-family="Helvetica,sans-Serif" font-size="10.00">BaseTestCase</text>
<text text-anchor="start" x="39" y="-613.5" font-family="Helvetica,sans-Serif" font-size="10.00"> </text>
<text text-anchor="start" x="39" y="-598.5" font-family="Helvetica,sans-Serif" font-size="10.00"> </text>
<polygon fill="#666666" stroke="#666666" points="2,-623.5 2,-623.5 80,-623.5 80,-623.5 2,-623.5"/>
<polygon fill="#666666" stroke="#666666" points="2,-608.5 2,-608.5 80,-608.5 80,-608.5 2,-608.5"/>
<polygon fill="none" stroke="#666666" points="2,-592 2,-641 80,-641 80,-592 2,-592"/>
</a>
</g>
</g>
<!-- Node3&#45;&gt;Node2 -->
<g id="edge2_Node000002_Node000003" class="edge">
<title>Node3&#45;&gt;Node2</title>
<g id="a_edge2_Node000002_Node000003"><a xlink:title=" ">
<path fill="none" stroke="#63b8ff" d="M41,-581.48C41,-552.86 41,-512.68 41,-487.51"/>
<polygon fill="none" stroke="#63b8ff" points="37.5,-581.83 41,-591.83 44.5,-581.83 37.5,-581.83"/>
</a>
</g>
</g>
<!-- Node4 -->
<g id="Node000004" class="node">
<title>Node4</title>
<g id="a_Node000004"><a xlink:href="classApp_1_1Models_1_1User.html" target="_top" xlink:title=" ">
<polygon fill="white" stroke="transparent" points="224,-555 100,-555 100,-371 224,-371 224,-555"/>
<text text-anchor="start" x="120.5" y="-543" font-family="Helvetica,sans-Serif" font-size="10.00">App\Models\User</text>
<text text-anchor="start" x="104" y="-528" font-family="Helvetica,sans-Serif" font-size="10.00">#</text>
<text text-anchor="start" x="117" y="-528" font-family="Helvetica,sans-Serif" font-size="10.00">$fillable</text>
<text text-anchor="start" x="104" y="-513" font-family="Helvetica,sans-Serif" font-size="10.00">#</text>
<text text-anchor="start" x="117" y="-513" font-family="Helvetica,sans-Serif" font-size="10.00">$hidden</text>
<text text-anchor="start" x="104" y="-498" font-family="Helvetica,sans-Serif" font-size="10.00">+</text>
<text text-anchor="start" x="117" y="-498" font-family="Helvetica,sans-Serif" font-size="10.00">media()</text>
<text text-anchor="start" x="104" y="-483" font-family="Helvetica,sans-Serif" font-size="10.00">+</text>
<text text-anchor="start" x="117" y="-483" font-family="Helvetica,sans-Serif" font-size="10.00">isProfesseur()</text>
<text text-anchor="start" x="104" y="-468" font-family="Helvetica,sans-Serif" font-size="10.00">+</text>
<text text-anchor="start" x="117" y="-468" font-family="Helvetica,sans-Serif" font-size="10.00">isEleve()</text>
<text text-anchor="start" x="104" y="-453" font-family="Helvetica,sans-Serif" font-size="10.00">+</text>
<text text-anchor="start" x="117" y="-453" font-family="Helvetica,sans-Serif" font-size="10.00">getProfile()</text>
<text text-anchor="start" x="104" y="-438" font-family="Helvetica,sans-Serif" font-size="10.00">+</text>
<text text-anchor="start" x="117" y="-438" font-family="Helvetica,sans-Serif" font-size="10.00">canModifierVideo()</text>
<text text-anchor="start" x="104" y="-423" font-family="Helvetica,sans-Serif" font-size="10.00">+</text>
<text text-anchor="start" x="117" y="-423" font-family="Helvetica,sans-Serif" font-size="10.00">canDiffuserVideo()</text>
<text text-anchor="start" x="104" y="-408" font-family="Helvetica,sans-Serif" font-size="10.00">+</text>
<text text-anchor="start" x="117" y="-408" font-family="Helvetica,sans-Serif" font-size="10.00">canSupprimerVideo()</text>
<text text-anchor="start" x="104" y="-393" font-family="Helvetica,sans-Serif" font-size="10.00">+</text>
<text text-anchor="start" x="117" y="-393" font-family="Helvetica,sans-Serif" font-size="10.00">canAdministrerSite()</text>
<text text-anchor="start" x="104" y="-378" font-family="Helvetica,sans-Serif" font-size="10.00">#</text>
<text text-anchor="start" x="117" y="-378" font-family="Helvetica,sans-Serif" font-size="10.00">casts()</text>
<polygon fill="#666666" stroke="#666666" points="100,-538 100,-538 224,-538 224,-538 100,-538"/>
<polygon fill="#666666" stroke="#666666" points="100,-508 100,-508 115,-508 115,-508 100,-508"/>
<polygon fill="#666666" stroke="#666666" points="115,-508 115,-508 224,-508 224,-508 115,-508"/>
<polygon fill="none" stroke="#666666" points="100,-371 100,-555 224,-555 224,-371 100,-371"/>
</a>
</g>
</g>
<!-- Node4&#45;&gt;Node1 -->
<g id="edge3_Node000001_Node000004" class="edge">
<title>Node4&#45;&gt;Node1</title>
<g id="a_edge3_Node000001_Node000004"><a xlink:title=" ">
<path fill="none" stroke="#63b8ff" d="M143.37,-370.67C141.09,-359.52 138.72,-347.87 136.3,-336.02"/>
<polygon fill="none" stroke="#63b8ff" points="136.27,-335.86 131.15,-330.79 133.87,-324.11 138.99,-329.19 136.27,-335.86"/>
</a>
</g>
<text text-anchor="middle" x="157.5" y="-345" font-family="Helvetica,sans-Serif" font-size="10.00" fill="grey"> #$user</text>
</g>
<!-- Node5 -->
<g id="Node000005" class="node">
<title>Node5</title>
<g id="a_Node000005"><a xlink:title=" ">
<polygon fill="white" stroke="transparent" points="206,-641 118,-641 118,-592 206,-592 206,-641"/>
<text text-anchor="start" x="123" y="-628.5" font-family="Helvetica,sans-Serif" font-size="10.00">Authenticatable</text>
<text text-anchor="start" x="160" y="-613.5" font-family="Helvetica,sans-Serif" font-size="10.00"> </text>
<text text-anchor="start" x="160" y="-598.5" font-family="Helvetica,sans-Serif" font-size="10.00"> </text>
<polygon fill="#666666" stroke="#666666" points="118,-623.5 118,-623.5 206,-623.5 206,-623.5 118,-623.5"/>
<polygon fill="#666666" stroke="#666666" points="118,-608.5 118,-608.5 206,-608.5 206,-608.5 118,-608.5"/>
<polygon fill="none" stroke="#666666" points="118,-592 118,-641 206,-641 206,-592 118,-592"/>
</a>
</g>
</g>
<!-- Node5&#45;&gt;Node4 -->
<g id="edge4_Node000004_Node000005" class="edge">
<title>Node5&#45;&gt;Node4</title>
<g id="a_edge4_Node000004_Node000005"><a xlink:title=" ">
<path fill="none" stroke="#63b8ff" d="M162,-581.75C162,-573.63 162,-564.58 162,-555.19"/>
<polygon fill="none" stroke="#63b8ff" points="158.5,-581.83 162,-591.83 165.5,-581.83 158.5,-581.83"/>
</a>
</g>
</g>
</g>
</svg>

<g id="navigator" transform="translate(0 0)" fill="#404254">
  <rect fill="#f2f5e9" fill-opacity="0.5" stroke="#606060" stroke-width=".5" x="0" y="0" width="60" height="60"/>
  <use id="zoomplus" xlink:href="#zoomPlus" x="17" y="9" onmousedown="handleZoom(evt,'in')"/>
  <use id="zoomminus" xlink:href="#zoomMin" x="42" y="9" onmousedown="handleZoom(evt,'out')"/>
  <use id="reset" xlink:href="#resetDef" x="30" y="36" onmousedown="handleReset()"/>
   <use id="arrowup" xlink:href="#arrowUp" x="0" y="0" onmousedown="handlePan(0,-1)"/>
  <use id="arrowright" xlink:href="#arrowRight" x="0" y="0" onmousedown="handlePan(1,0)"/>
  <use id="arrowdown" xlink:href="#arrowDown" x="0" y="0" onmousedown="handlePan(0,1)"/>
  <use id="arrowleft" xlink:href="#arrowLeft" x="0" y="0" onmousedown="handlePan(-1,0)"/>
</g>
<svg viewBox="0 0 15 15" width="100%" height="30px" preserveAspectRatio="xMaxYMin meet">
 <g id="arrow_out" transform="scale(0.3 0.3)">
  <a xlink:href="classTests_1_1Feature_1_1TransfertControllerTest__coll__graph_org.svg" target="_base">
   <rect id="button" ry="5" rx="5" y="6" x="6" height="38" width="38"
        fill="#f2f5e9" fill-opacity="0.5" stroke="#606060" stroke-width="1.0"/>
   <path id="arrow"
     d="M 11.500037,31.436501 C 11.940474,20.09759 22.043105,11.32322 32.158766,21.979434 L 37.068811,17.246167 C 37.068811,17.246167 37.088388,32 37.088388,32 L 22.160133,31.978069 C 22.160133,31.978069 26.997745,27.140456 26.997745,27.140456 C 18.528582,18.264221 13.291696,25.230495 11.500037,31.436501 z"
     style="fill:#404040;"/>
  </a>
 </g>
</svg>

<style type='text/css'>
<![CDATA[
[data-mouse-over-selected='false'] { opacity: 0.7; }
[data-mouse-over-selected='true']  { opacity: 1.0; }
]]>
</style>
<script type="application/ecmascript"><![CDATA[
document.addEventListener('DOMContentLoaded', (event) => {
  highlightEdges();
  highlightAdjacentNodes();
});
]]></script>
</svg>
