<?xml version="1.0" encoding="UTF-8" standalone="no"?>
<!DOCTYPE svg PUBLIC "-//W3C//DTD SVG 1.1//EN"
 "http://www.w3.org/Graphics/SVG/1.1/DTD/svg11.dtd">
<!-- Generated by graphviz version 2.42.4 (0)
 -->
<!-- Title: App\Http\Controllers\StreamController\streamLocalVideo Pages: 1 -->
<svg width="552pt" height="125pt"
 viewBox="0.00 0.00 552.00 124.84" xmlns="http://www.w3.org/2000/svg" xmlns:xlink="http://www.w3.org/1999/xlink">
<g id="graph0" class="graph" transform="scale(1 1) rotate(0) translate(4 120.84)">
<title>App\Http\Controllers\StreamController\streamLocalVideo</title>
<!-- Node1 -->
<g id="Node000001" class="node">
<title>Node1</title>
<g id="a_Node000001"><a xlink:title="Stream un fichier vidéo local avec support des requêtes HTTP Range.">
<polygon fill="#999999" stroke="#666666" points="544,-100 378,-100 378,-59 544,-59 544,-100"/>
<text text-anchor="start" x="386" y="-88" font-family="Helvetica,sans-Serif" font-size="10.00">App\Http\Controllers</text>
<text text-anchor="start" x="386" y="-77" font-family="Helvetica,sans-Serif" font-size="10.00">\StreamController\streamLocal</text>
<text text-anchor="middle" x="461" y="-66" font-family="Helvetica,sans-Serif" font-size="10.00">Video</text>
</a>
</g>
</g>
<!-- Node2 -->
<g id="Node000002" class="node">
<title>Node2</title>
<g id="a_Node000002"><a xlink:href="classApp_1_1Http_1_1Controllers_1_1StreamController.html#a52014ee071992c1c616c21b17d560792" target="_top" xlink:title="Point d&#39;entrée principal pour le streaming d’un média.">
<polygon fill="white" stroke="#666666" points="140,-94.5 0,-94.5 0,-64.5 140,-64.5 140,-94.5"/>
<text text-anchor="start" x="8" y="-82.5" font-family="Helvetica,sans-Serif" font-size="10.00">App\Http\Controllers</text>
<text text-anchor="middle" x="70" y="-71.5" font-family="Helvetica,sans-Serif" font-size="10.00">\StreamController\stream</text>
</a>
</g>
</g>
<!-- Node1&#45;&gt;Node2 -->
<g id="edge1_Node000001_Node000002" class="edge">
<title>Node1&#45;&gt;Node2</title>
<g id="a_edge1_Node000001_Node000002"><a xlink:title=" ">
<path fill="none" stroke="#63b8ff" d="M381.41,-102.36C368.35,-105.33 354.87,-107.89 342,-109.5 268.79,-118.66 249.06,-119.73 176,-109.5 154.97,-106.55 132.25,-100.44 113.33,-94.5"/>
<polygon fill="#63b8ff" stroke="#63b8ff" points="382.37,-105.73 391.29,-100.03 380.76,-98.92 382.37,-105.73"/>
</a>
</g>
</g>
<!-- Node3 -->
<g id="Node000003" class="node">
<title>Node3</title>
<g id="a_Node000003"><a xlink:href="classApp_1_1Http_1_1Controllers_1_1StreamController.html#a76998999bcadec59b3fb07f940064743" target="_top" xlink:title="Tente de résoudre et streamer une vidéo locale à partir d’un modèle Media.">
<polygon fill="white" stroke="#666666" points="342,-100 176,-100 176,-59 342,-59 342,-100"/>
<text text-anchor="start" x="184" y="-88" font-family="Helvetica,sans-Serif" font-size="10.00">App\Http\Controllers</text>
<text text-anchor="start" x="184" y="-77" font-family="Helvetica,sans-Serif" font-size="10.00">\StreamController\streamLocal</text>
<text text-anchor="middle" x="259" y="-66" font-family="Helvetica,sans-Serif" font-size="10.00">MediaVideo</text>
</a>
</g>
</g>
<!-- Node1&#45;&gt;Node3 -->
<g id="edge2_Node000001_Node000003" class="edge">
<title>Node1&#45;&gt;Node3</title>
<g id="a_edge2_Node000001_Node000003"><a xlink:title=" ">
<path fill="none" stroke="#63b8ff" d="M367.53,-79.5C359.09,-79.5 350.57,-79.5 342.22,-79.5"/>
<polygon fill="#63b8ff" stroke="#63b8ff" points="367.79,-83 377.79,-79.5 367.79,-76 367.79,-83"/>
</a>
</g>
</g>
<!-- Node4 -->
<g id="Node000004" class="node">
<title>Node4</title>
<g id="a_Node000004"><a xlink:href="classApp_1_1Http_1_1Controllers_1_1StreamController.html#a9e1dc23bd53086b4ef0c3dcb3aa3d75c" target="_top" xlink:title="Stream une vidéo locale de test en fonction d’un mapping d’ID (dev uniquement).">
<polygon fill="white" stroke="#666666" points="342,-41 176,-41 176,0 342,0 342,-41"/>
<text text-anchor="start" x="184" y="-29" font-family="Helvetica,sans-Serif" font-size="10.00">App\Http\Controllers</text>
<text text-anchor="start" x="184" y="-18" font-family="Helvetica,sans-Serif" font-size="10.00">\StreamController\streamLocal</text>
<text text-anchor="middle" x="259" y="-7" font-family="Helvetica,sans-Serif" font-size="10.00">VideoByMapping</text>
</a>
</g>
</g>
<!-- Node1&#45;&gt;Node4 -->
<g id="edge4_Node000001_Node000004" class="edge">
<title>Node1&#45;&gt;Node4</title>
<g id="a_edge4_Node000001_Node000004"><a xlink:title=" ">
<path fill="none" stroke="#63b8ff" d="M380.55,-56.06C363.76,-51.11 346.16,-45.92 329.76,-41.08"/>
<polygon fill="#63b8ff" stroke="#63b8ff" points="379.75,-59.47 390.33,-58.95 381.73,-52.76 379.75,-59.47"/>
</a>
</g>
</g>
<!-- Node3&#45;&gt;Node2 -->
<g id="edge3_Node000003_Node000002" class="edge">
<title>Node3&#45;&gt;Node2</title>
<g id="a_edge3_Node000003_Node000002"><a xlink:title=" ">
<path fill="none" stroke="#63b8ff" d="M165.83,-79.5C157.17,-79.5 148.49,-79.5 140.1,-79.5"/>
<polygon fill="#63b8ff" stroke="#63b8ff" points="165.98,-83 175.98,-79.5 165.98,-76 165.98,-83"/>
</a>
</g>
</g>
<!-- Node4&#45;&gt;Node2 -->
<g id="edge5_Node000004_Node000002" class="edge">
<title>Node4&#45;&gt;Node2</title>
<g id="a_edge5_Node000004_Node000002"><a xlink:title=" ">
<path fill="none" stroke="#63b8ff" d="M183.32,-44.06C161.58,-50.92 138.43,-58.23 118.82,-64.41"/>
<polygon fill="#63b8ff" stroke="#63b8ff" points="184.38,-47.4 192.86,-41.05 182.27,-40.72 184.38,-47.4"/>
</a>
</g>
</g>
</g>
</svg>
