<?xml version="1.0" encoding="UTF-8" standalone="no"?>
<!DOCTYPE svg PUBLIC "-//W3C//DTD SVG 1.1//EN"
 "http://www.w3.org/Graphics/SVG/1.1/DTD/svg11.dtd">
<!-- Generated by graphviz version 2.42.4 (0)
 -->
<!-- Title: Tests\Feature\MediaThumbnailServiceTest Pages: 1 -->
<svg width="194pt" height="742pt"
 viewBox="0.00 0.00 194.00 742.00" xmlns="http://www.w3.org/2000/svg" xmlns:xlink="http://www.w3.org/1999/xlink">
<g id="graph0" class="graph" transform="scale(1 1) rotate(0) translate(4 738)">
<title>Tests\Feature\MediaThumbnailServiceTest</title>
<!-- Node1 -->
<g id="Node000001" class="node">
<title>Node1</title>
<g id="a_Node000001"><a xlink:title=" ">
<polygon fill="#999999" stroke="transparent" points="186,-564 0,-564 0,0 186,0 186,-564"/>
<text text-anchor="start" x="18" y="-552" font-family="Helvetica,sans-Serif" font-size="10.00">Tests\Feature\MediaThumbnail</text>
<text text-anchor="start" x="65" y="-541" font-family="Helvetica,sans-Serif" font-size="10.00">ServiceTest</text>
<text text-anchor="start" x="4" y="-526" font-family="Helvetica,sans-Serif" font-size="10.00">#</text>
<text text-anchor="start" x="17" y="-526" font-family="Helvetica,sans-Serif" font-size="10.00">string $thumbnailsDir</text>
<text text-anchor="start" x="4" y="-511" font-family="Helvetica,sans-Serif" font-size="10.00">+</text>
<text text-anchor="start" x="17" y="-511" font-family="Helvetica,sans-Serif" font-size="10.00">it_returns_existing</text>
<text text-anchor="start" x="17" y="-500" font-family="Helvetica,sans-Serif" font-size="10.00">_thumbnail_without_regenerating</text>
<text text-anchor="start" x="17" y="-489" font-family="Helvetica,sans-Serif" font-size="10.00">_when_force_is_false()</text>
<text text-anchor="start" x="4" y="-474" font-family="Helvetica,sans-Serif" font-size="10.00">+</text>
<text text-anchor="start" x="17" y="-474" font-family="Helvetica,sans-Serif" font-size="10.00">it_generates_thumbnail</text>
<text text-anchor="start" x="17" y="-463" font-family="Helvetica,sans-Serif" font-size="10.00">_from_local_video_file</text>
<text text-anchor="start" x="17" y="-452" font-family="Helvetica,sans-Serif" font-size="10.00">_when_forced()</text>
<text text-anchor="start" x="4" y="-437" font-family="Helvetica,sans-Serif" font-size="10.00">+</text>
<text text-anchor="start" x="17" y="-437" font-family="Helvetica,sans-Serif" font-size="10.00">it_returns_null_when</text>
<text text-anchor="start" x="17" y="-426" font-family="Helvetica,sans-Serif" font-size="10.00">_no_video_path_is_available()</text>
<text text-anchor="start" x="4" y="-411" font-family="Helvetica,sans-Serif" font-size="10.00">+</text>
<text text-anchor="start" x="17" y="-411" font-family="Helvetica,sans-Serif" font-size="10.00">it_correctly_builds</text>
<text text-anchor="start" x="17" y="-400" font-family="Helvetica,sans-Serif" font-size="10.00">_ftp_url_from_arch_and</text>
<text text-anchor="start" x="17" y="-389" font-family="Helvetica,sans-Serif" font-size="10.00">_pad_disks()</text>
<text text-anchor="start" x="4" y="-374" font-family="Helvetica,sans-Serif" font-size="10.00">+</text>
<text text-anchor="start" x="17" y="-374" font-family="Helvetica,sans-Serif" font-size="10.00">it_deletes_existing</text>
<text text-anchor="start" x="17" y="-363" font-family="Helvetica,sans-Serif" font-size="10.00">_thumbnail_file_successfully()</text>
<text text-anchor="start" x="4" y="-348" font-family="Helvetica,sans-Serif" font-size="10.00">+</text>
<text text-anchor="start" x="17" y="-348" font-family="Helvetica,sans-Serif" font-size="10.00">it_returns_true_when</text>
<text text-anchor="start" x="17" y="-337" font-family="Helvetica,sans-Serif" font-size="10.00">_deleting_thumbnail_that</text>
<text text-anchor="start" x="17" y="-326" font-family="Helvetica,sans-Serif" font-size="10.00">_does_not_exist()</text>
<text text-anchor="start" x="4" y="-311" font-family="Helvetica,sans-Serif" font-size="10.00">+</text>
<text text-anchor="start" x="17" y="-311" font-family="Helvetica,sans-Serif" font-size="10.00">it_regenerates_missing</text>
<text text-anchor="start" x="17" y="-300" font-family="Helvetica,sans-Serif" font-size="10.00">_thumbnails_and_skips</text>
<text text-anchor="start" x="17" y="-289" font-family="Helvetica,sans-Serif" font-size="10.00">_existing_ones()</text>
<text text-anchor="start" x="4" y="-274" font-family="Helvetica,sans-Serif" font-size="10.00">+</text>
<text text-anchor="start" x="17" y="-274" font-family="Helvetica,sans-Serif" font-size="10.00">it_uses_archive_path</text>
<text text-anchor="start" x="17" y="-263" font-family="Helvetica,sans-Serif" font-size="10.00">_when_local_path_not</text>
<text text-anchor="start" x="17" y="-252" font-family="Helvetica,sans-Serif" font-size="10.00">_exists()</text>
<text text-anchor="start" x="4" y="-237" font-family="Helvetica,sans-Serif" font-size="10.00">+</text>
<text text-anchor="start" x="17" y="-237" font-family="Helvetica,sans-Serif" font-size="10.00">it_uses_pad_path_when</text>
<text text-anchor="start" x="17" y="-226" font-family="Helvetica,sans-Serif" font-size="10.00">_archive_not_available()</text>
<text text-anchor="start" x="4" y="-211" font-family="Helvetica,sans-Serif" font-size="10.00">+</text>
<text text-anchor="start" x="17" y="-211" font-family="Helvetica,sans-Serif" font-size="10.00">it_calculates_correct</text>
<text text-anchor="start" x="17" y="-200" font-family="Helvetica,sans-Serif" font-size="10.00">_timecode_from_duration()</text>
<text text-anchor="start" x="4" y="-185" font-family="Helvetica,sans-Serif" font-size="10.00">+</text>
<text text-anchor="start" x="17" y="-185" font-family="Helvetica,sans-Serif" font-size="10.00">it_returns_null_when</text>
<text text-anchor="start" x="17" y="-174" font-family="Helvetica,sans-Serif" font-size="10.00">_ffmpeg_execution_fails()</text>
<text text-anchor="start" x="4" y="-159" font-family="Helvetica,sans-Serif" font-size="10.00">+</text>
<text text-anchor="start" x="17" y="-159" font-family="Helvetica,sans-Serif" font-size="10.00">it_uses_default_timecode</text>
<text text-anchor="start" x="17" y="-148" font-family="Helvetica,sans-Serif" font-size="10.00">_when_duration_cannot_be</text>
<text text-anchor="start" x="17" y="-137" font-family="Helvetica,sans-Serif" font-size="10.00">_determined()</text>
<text text-anchor="start" x="4" y="-122" font-family="Helvetica,sans-Serif" font-size="10.00">+</text>
<text text-anchor="start" x="17" y="-122" font-family="Helvetica,sans-Serif" font-size="10.00">it_generates_thumbnail</text>
<text text-anchor="start" x="17" y="-111" font-family="Helvetica,sans-Serif" font-size="10.00">_with_custom_video_path()</text>
<text text-anchor="start" x="4" y="-96" font-family="Helvetica,sans-Serif" font-size="10.00">+</text>
<text text-anchor="start" x="17" y="-96" font-family="Helvetica,sans-Serif" font-size="10.00">it_returns_null_when</text>
<text text-anchor="start" x="17" y="-85" font-family="Helvetica,sans-Serif" font-size="10.00">_ftp_config_is_missing()</text>
<text text-anchor="start" x="4" y="-70" font-family="Helvetica,sans-Serif" font-size="10.00">+</text>
<text text-anchor="start" x="17" y="-70" font-family="Helvetica,sans-Serif" font-size="10.00">regenerateMissingThumbnails</text>
<text text-anchor="start" x="17" y="-59" font-family="Helvetica,sans-Serif" font-size="10.00">_tracks_failed_generations()</text>
<text text-anchor="start" x="4" y="-44" font-family="Helvetica,sans-Serif" font-size="10.00">#</text>
<text text-anchor="start" x="17" y="-44" font-family="Helvetica,sans-Serif" font-size="10.00">setUp()</text>
<text text-anchor="start" x="4" y="-29" font-family="Helvetica,sans-Serif" font-size="10.00">#</text>
<text text-anchor="start" x="17" y="-29" font-family="Helvetica,sans-Serif" font-size="10.00">initializeService</text>
<text text-anchor="start" x="17" y="-18" font-family="Helvetica,sans-Serif" font-size="10.00">(MediaThumbnailService</text>
<text text-anchor="start" x="17" y="-7" font-family="Helvetica,sans-Serif" font-size="10.00"> $service)</text>
<polygon fill="#666666" stroke="#666666" points="0,-536 0,-536 186,-536 186,-536 0,-536"/>
<polygon fill="#666666" stroke="#666666" points="0,-521 0,-521 15,-521 15,-521 0,-521"/>
<polygon fill="#666666" stroke="#666666" points="15,-521 15,-521 186,-521 186,-521 15,-521"/>
<polygon fill="none" stroke="#666666" points="0,0 0,-564 186,-564 186,0 0,0"/>
</a>
</g>
</g>
<!-- Node2 -->
<g id="Node000002" class="node">
<title>Node2</title>
<g id="a_Node000002"><a xlink:href="classTests_1_1TestCase.html" target="_top" xlink:title=" ">
<polygon fill="white" stroke="transparent" points="134,-649 52,-649 52,-600 134,-600 134,-649"/>
<text text-anchor="start" x="57" y="-636.5" font-family="Helvetica,sans-Serif" font-size="10.00">Tests\TestCase</text>
<text text-anchor="start" x="91" y="-621.5" font-family="Helvetica,sans-Serif" font-size="10.00"> </text>
<text text-anchor="start" x="91" y="-606.5" font-family="Helvetica,sans-Serif" font-size="10.00"> </text>
<polygon fill="#666666" stroke="#666666" points="52,-631.5 52,-631.5 134,-631.5 134,-631.5 52,-631.5"/>
<polygon fill="#666666" stroke="#666666" points="52,-616.5 52,-616.5 134,-616.5 134,-616.5 52,-616.5"/>
<polygon fill="none" stroke="#666666" points="52,-600 52,-649 134,-649 134,-600 52,-600"/>
</a>
</g>
</g>
<!-- Node2&#45;&gt;Node1 -->
<g id="edge1_Node000001_Node000002" class="edge">
<title>Node2&#45;&gt;Node1</title>
<g id="a_edge1_Node000001_Node000002"><a xlink:title=" ">
<path fill="none" stroke="#63b8ff" d="M93,-589.8C93,-582.19 93,-573.52 93,-564.04"/>
<polygon fill="none" stroke="#63b8ff" points="89.5,-589.83 93,-599.83 96.5,-589.83 89.5,-589.83"/>
</a>
</g>
</g>
<!-- Node3 -->
<g id="Node000003" class="node">
<title>Node3</title>
<g id="a_Node000003"><a xlink:title=" ">
<polygon fill="white" stroke="transparent" points="132,-734 54,-734 54,-685 132,-685 132,-734"/>
<text text-anchor="start" x="59" y="-721.5" font-family="Helvetica,sans-Serif" font-size="10.00">BaseTestCase</text>
<text text-anchor="start" x="91" y="-706.5" font-family="Helvetica,sans-Serif" font-size="10.00"> </text>
<text text-anchor="start" x="91" y="-691.5" font-family="Helvetica,sans-Serif" font-size="10.00"> </text>
<polygon fill="#666666" stroke="#666666" points="54,-716.5 54,-716.5 132,-716.5 132,-716.5 54,-716.5"/>
<polygon fill="#666666" stroke="#666666" points="54,-701.5 54,-701.5 132,-701.5 132,-701.5 54,-701.5"/>
<polygon fill="none" stroke="#666666" points="54,-685 54,-734 132,-734 132,-685 54,-685"/>
</a>
</g>
</g>
<!-- Node3&#45;&gt;Node2 -->
<g id="edge2_Node000002_Node000003" class="edge">
<title>Node3&#45;&gt;Node2</title>
<g id="a_edge2_Node000002_Node000003"><a xlink:title=" ">
<path fill="none" stroke="#63b8ff" d="M93,-674.77C93,-666.17 93,-657.1 93,-649.12"/>
<polygon fill="none" stroke="#63b8ff" points="89.5,-674.94 93,-684.94 96.5,-674.94 89.5,-674.94"/>
</a>
</g>
</g>
</g>
</svg>
