<?xml version="1.0" encoding="UTF-8" standalone="no"?>
<!DOCTYPE svg PUBLIC "-//W3C//DTD SVG 1.1//EN"
 "http://www.w3.org/Graphics/SVG/1.1/DTD/svg11.dtd">
<!-- Generated by graphviz version 2.42.4 (0)
 -->
<!-- Title: Tests\Feature\MediaThumbnailServiceTest\initializeService Pages: 1 -->
<!--zoomable 946 -->

<svg id="main" version="1.1" xmlns="http://www.w3.org/2000/svg" xmlns:xlink="http://www.w3.org/1999/xlink" xml:space="preserve" onload="init(evt)">
<style type="text/css"><![CDATA[
.node, .edge {opacity: 0.7;}
.node.selected, .edge.selected {opacity: 1;}
.edge:hover path { stroke: red; }
.edge:hover polygon { stroke: red; fill: red; }
]]></style>

<defs>
  <circle id="rim" cx="0" cy="0" r="7"/>
  <circle id="rim2" cx="0" cy="0" r="3.5"/>
  <g id="zoomPlus">
    <use xlink:href="#rim" fill="#404040"><set attributeName="fill" to="#808080" begin="zoomplus.mouseover" end="zoomplus.mouseout"/></use>
    <path d="M-4,0h8M0,-4v8" fill="none" stroke="white" stroke-width="1.5" pointer-events="none"/>
  </g>
  <g id="zoomMin">
    <use xlink:href="#rim" fill="#404040"><set attributeName="fill" to="#808080" begin="zoomminus.mouseover" end="zoomminus.mouseout"/></use>
    <path d="M-4,0h8" fill="none" stroke="white" stroke-width="1.5" pointer-events="none"/>
  </g>
  <g id="arrowUp" transform="translate(30 24)">
    <use xlink:href="#rim"/>
    <path pointer-events="none" fill="none" stroke="white" stroke-width="1.5" d="M0,-3.0v7 M-2.5,-0.5L0,-3.0L2.5,-0.5"/>
  </g>
  <g id="arrowRight" transform="rotate(90) translate(36 -43)">
    <use xlink:href="#rim"/>
    <path pointer-events="none" fill="none" stroke="white" stroke-width="1.5" d="M0,-3.0v7 M-2.5,-0.5L0,-3.0L2.5,-0.5"/>
  </g>
  <g id="arrowDown" transform="rotate(180) translate(-30 -48)">
    <use xlink:href="#rim"/>
    <path pointer-events="none" fill="none" stroke="white" stroke-width="1.5" d="M0,-3.0v7 M-2.5,-0.5L0,-3.0L2.5,-0.5"/>
  </g>
  <g id="arrowLeft" transform="rotate(270) translate(-36 17)">
    <use xlink:href="#rim"/>
    <path pointer-events="none" fill="none" stroke="white" stroke-width="1.5" d="M0,-3.0v7 M-2.5,-0.5L0,-3.0L2.5,-0.5"/>
  </g>
  <g id="resetDef">
    <use xlink:href="#rim2" fill="#404040"><set attributeName="fill" to="#808080" begin="reset.mouseover" end="reset.mouseout"/></use>
  </g>
</defs>
<script type="application/ecmascript">
var viewWidth = 433;
var viewHeight = 946;
var sectionId = 'dynsection-2';
</script>
<script type="application/ecmascript" xlink:href="svg.min.js"/>
<svg id="graph" class="graph">
<g id="viewport">
<title>Tests\Feature\MediaThumbnailServiceTest\initializeService</title>
<!-- Node1 -->
<g id="Node000001" class="node">
<title>Node1</title>
<g id="a_Node000001"><a xlink:title="Helper pour initialiser les propriétés protégées du service.">
<polygon fill="#999999" stroke="#666666" points="425,-472.5 259,-472.5 259,-442.5 425,-442.5 425,-472.5"/>
<text text-anchor="start" x="267" y="-460.5" font-family="Helvetica,sans-Serif" font-size="10.00">Tests\Feature\MediaThumbnail</text>
<text text-anchor="middle" x="342" y="-449.5" font-family="Helvetica,sans-Serif" font-size="10.00">ServiceTest\initializeService</text>
</a>
</g>
</g>
<!-- Node2 -->
<g id="Node000002" class="node">
<title>Node2</title>
<g id="a_Node000002"><a xlink:href="classTests_1_1Feature_1_1MediaThumbnailServiceTest.html#ae97a82808b4f3b35301d056594e9cfe6" target="_top" xlink:title=" ">
<polygon fill="white" stroke="#666666" points="202,-938 21,-938 21,-897 202,-897 202,-938"/>
<text text-anchor="start" x="29" y="-926" font-family="Helvetica,sans-Serif" font-size="10.00">Tests\Feature\MediaThumbnail</text>
<text text-anchor="start" x="29" y="-915" font-family="Helvetica,sans-Serif" font-size="10.00">ServiceTest\it_calculates</text>
<text text-anchor="middle" x="111.5" y="-904" font-family="Helvetica,sans-Serif" font-size="10.00">_correct_timecode_from_duration</text>
</a>
</g>
</g>
<!-- Node1&#45;&gt;Node2 -->
<g id="edge1_Node000001_Node000002" class="edge">
<title>Node1&#45;&gt;Node2</title>
<g id="a_edge1_Node000001_Node000002"><a xlink:title=" ">
<path fill="none" stroke="#63b8ff" d="M337.4,-482.7C325.05,-565.74 281.88,-828.78 223,-887.5 216.95,-893.54 209.81,-898.39 202.12,-902.29"/>
<polygon fill="#63b8ff" stroke="#63b8ff" points="340.89,-483.04 338.87,-472.64 333.96,-482.03 340.89,-483.04"/>
</a>
</g>
</g>
<!-- Node3 -->
<g id="Node000003" class="node">
<title>Node3</title>
<g id="a_Node000003"><a xlink:href="classTests_1_1Feature_1_1MediaThumbnailServiceTest.html#a282d3875de9b294e907167983f6cd431" target="_top" xlink:title=" ">
<polygon fill="white" stroke="#666666" points="194.5,-878.5 28.5,-878.5 28.5,-826.5 194.5,-826.5 194.5,-878.5"/>
<text text-anchor="start" x="36.5" y="-866.5" font-family="Helvetica,sans-Serif" font-size="10.00">Tests\Feature\MediaThumbnail</text>
<text text-anchor="start" x="36.5" y="-855.5" font-family="Helvetica,sans-Serif" font-size="10.00">ServiceTest\it_correctly</text>
<text text-anchor="start" x="36.5" y="-844.5" font-family="Helvetica,sans-Serif" font-size="10.00">_builds_ftp_url_from_arch</text>
<text text-anchor="middle" x="111.5" y="-833.5" font-family="Helvetica,sans-Serif" font-size="10.00">_and_pad_disks</text>
</a>
</g>
</g>
<!-- Node1&#45;&gt;Node3 -->
<g id="edge2_Node000001_Node000003" class="edge">
<title>Node1&#45;&gt;Node3</title>
<g id="a_edge2_Node000001_Node000003"><a xlink:title=" ">
<path fill="none" stroke="#63b8ff" d="M340.25,-482.8C336.95,-547.83 319.1,-722.36 223,-817.5 214.92,-825.5 205.02,-831.67 194.51,-836.44"/>
<polygon fill="#63b8ff" stroke="#63b8ff" points="343.76,-482.79 340.69,-472.65 336.76,-482.49 343.76,-482.79"/>
</a>
</g>
</g>
<!-- Node4 -->
<g id="Node000004" class="node">
<title>Node4</title>
<g id="a_Node000004"><a xlink:href="classTests_1_1Feature_1_1MediaThumbnailServiceTest.html#a43ad963f470f95c37b2fb3ce823f5923" target="_top" xlink:title=" ">
<polygon fill="white" stroke="#666666" points="195,-808 28,-808 28,-767 195,-767 195,-808"/>
<text text-anchor="start" x="36" y="-796" font-family="Helvetica,sans-Serif" font-size="10.00">Tests\Feature\MediaThumbnail</text>
<text text-anchor="start" x="36" y="-785" font-family="Helvetica,sans-Serif" font-size="10.00">ServiceTest\it_deletes_existing</text>
<text text-anchor="middle" x="111.5" y="-774" font-family="Helvetica,sans-Serif" font-size="10.00">_thumbnail_file_successfully</text>
</a>
</g>
</g>
<!-- Node1&#45;&gt;Node4 -->
<g id="edge3_Node000001_Node000004" class="edge">
<title>Node1&#45;&gt;Node4</title>
<g id="a_edge3_Node000001_Node000004"><a xlink:title=" ">
<path fill="none" stroke="#63b8ff" d="M338.61,-482.66C331.76,-540.24 306.8,-682.42 223,-757.5 214.93,-764.73 205.29,-770.24 195.11,-774.44"/>
<polygon fill="#63b8ff" stroke="#63b8ff" points="342.1,-482.95 339.72,-472.62 335.14,-482.18 342.1,-482.95"/>
</a>
</g>
</g>
<!-- Node5 -->
<g id="Node000005" class="node">
<title>Node5</title>
<g id="a_Node000005"><a xlink:href="classTests_1_1Feature_1_1MediaThumbnailServiceTest.html#aff51e145c96ee5fd40e06b592ef99616" target="_top" xlink:title=" ">
<polygon fill="white" stroke="#666666" points="194.5,-748.5 28.5,-748.5 28.5,-696.5 194.5,-696.5 194.5,-748.5"/>
<text text-anchor="start" x="36.5" y="-736.5" font-family="Helvetica,sans-Serif" font-size="10.00">Tests\Feature\MediaThumbnail</text>
<text text-anchor="start" x="36.5" y="-725.5" font-family="Helvetica,sans-Serif" font-size="10.00">ServiceTest\it_generates</text>
<text text-anchor="start" x="36.5" y="-714.5" font-family="Helvetica,sans-Serif" font-size="10.00">_thumbnail_from_local_video</text>
<text text-anchor="middle" x="111.5" y="-703.5" font-family="Helvetica,sans-Serif" font-size="10.00">_file_when_forced</text>
</a>
</g>
</g>
<!-- Node1&#45;&gt;Node5 -->
<g id="edge4_Node000001_Node000005" class="edge">
<title>Node1&#45;&gt;Node5</title>
<g id="a_edge4_Node000001_Node000005"><a xlink:title=" ">
<path fill="none" stroke="#63b8ff" d="M335,-482.64C322.45,-529.78 288.98,-631.73 223,-687.5 214.62,-694.58 204.81,-700.23 194.54,-704.74"/>
<polygon fill="#63b8ff" stroke="#63b8ff" points="338.46,-483.22 337.56,-472.66 331.68,-481.48 338.46,-483.22"/>
</a>
</g>
</g>
<!-- Node6 -->
<g id="Node000006" class="node">
<title>Node6</title>
<g id="a_Node000006"><a xlink:href="classTests_1_1Feature_1_1MediaThumbnailServiceTest.html#a1bc2b9290d59d373f6024c98663a3e57" target="_top" xlink:title=" ">
<polygon fill="white" stroke="#666666" points="210.5,-678 12.5,-678 12.5,-637 210.5,-637 210.5,-678"/>
<text text-anchor="start" x="20.5" y="-666" font-family="Helvetica,sans-Serif" font-size="10.00">Tests\Feature\MediaThumbnail</text>
<text text-anchor="start" x="20.5" y="-655" font-family="Helvetica,sans-Serif" font-size="10.00">ServiceTest\it_generates</text>
<text text-anchor="middle" x="111.5" y="-644" font-family="Helvetica,sans-Serif" font-size="10.00">_thumbnail_with_custom_video_path</text>
</a>
</g>
</g>
<!-- Node1&#45;&gt;Node6 -->
<g id="edge5_Node000001_Node000006" class="edge">
<title>Node1&#45;&gt;Node6</title>
<g id="a_edge5_Node000001_Node000006"><a xlink:title=" ">
<path fill="none" stroke="#63b8ff" d="M330.61,-482.23C313.67,-519.51 276.53,-589.72 223,-627.5 217.97,-631.05 212.53,-634.19 206.86,-636.95"/>
<polygon fill="#63b8ff" stroke="#63b8ff" points="334.01,-483.21 334.85,-472.65 327.61,-480.38 334.01,-483.21"/>
</a>
</g>
</g>
<!-- Node7 -->
<g id="Node000007" class="node">
<title>Node7</title>
<g id="a_Node000007"><a xlink:href="classTests_1_1Feature_1_1MediaThumbnailServiceTest.html#a9d4bc50559be10557da600e53f4bddcb" target="_top" xlink:title=" ">
<polygon fill="white" stroke="#666666" points="198.5,-618.5 24.5,-618.5 24.5,-566.5 198.5,-566.5 198.5,-618.5"/>
<text text-anchor="start" x="32.5" y="-606.5" font-family="Helvetica,sans-Serif" font-size="10.00">Tests\Feature\MediaThumbnail</text>
<text text-anchor="start" x="32.5" y="-595.5" font-family="Helvetica,sans-Serif" font-size="10.00">ServiceTest\it_regenerates</text>
<text text-anchor="start" x="32.5" y="-584.5" font-family="Helvetica,sans-Serif" font-size="10.00">_missing_thumbnails_and_skips</text>
<text text-anchor="middle" x="111.5" y="-573.5" font-family="Helvetica,sans-Serif" font-size="10.00">_existing_ones</text>
</a>
</g>
</g>
<!-- Node1&#45;&gt;Node7 -->
<g id="edge6_Node000001_Node000007" class="edge">
<title>Node1&#45;&gt;Node7</title>
<g id="a_edge6_Node000001_Node000007"><a xlink:title=" ">
<path fill="none" stroke="#63b8ff" d="M319.95,-479.95C297.76,-502.42 260.84,-536.59 223,-557.5 215.34,-561.73 207.09,-565.54 198.68,-568.94"/>
<polygon fill="#63b8ff" stroke="#63b8ff" points="322.7,-482.14 327.16,-472.53 317.68,-477.26 322.7,-482.14"/>
</a>
</g>
</g>
<!-- Node8 -->
<g id="Node000008" class="node">
<title>Node8</title>
<g id="a_Node000008"><a xlink:href="classTests_1_1Feature_1_1MediaThumbnailServiceTest.html#a64c9d33832f54b88684145fc2c4af012" target="_top" xlink:title=" ">
<polygon fill="white" stroke="#666666" points="202,-548.5 21,-548.5 21,-496.5 202,-496.5 202,-548.5"/>
<text text-anchor="start" x="29" y="-536.5" font-family="Helvetica,sans-Serif" font-size="10.00">Tests\Feature\MediaThumbnail</text>
<text text-anchor="start" x="29" y="-525.5" font-family="Helvetica,sans-Serif" font-size="10.00">ServiceTest\it_returns_existing</text>
<text text-anchor="start" x="29" y="-514.5" font-family="Helvetica,sans-Serif" font-size="10.00">_thumbnail_without_regenerating</text>
<text text-anchor="middle" x="111.5" y="-503.5" font-family="Helvetica,sans-Serif" font-size="10.00">_when_force_is_false</text>
</a>
</g>
</g>
<!-- Node1&#45;&gt;Node8 -->
<g id="edge7_Node000001_Node000008" class="edge">
<title>Node1&#45;&gt;Node8</title>
<g id="a_edge7_Node000001_Node000008"><a xlink:title=" ">
<path fill="none" stroke="#63b8ff" d="M278.21,-475.36C254.79,-482.02 227.73,-489.72 202.36,-496.94"/>
<polygon fill="#63b8ff" stroke="#63b8ff" points="279.34,-478.68 288,-472.58 277.43,-471.95 279.34,-478.68"/>
</a>
</g>
</g>
<!-- Node9 -->
<g id="Node000009" class="node">
<title>Node9</title>
<g id="a_Node000009"><a xlink:href="classTests_1_1Feature_1_1MediaThumbnailServiceTest.html#a3b00ac52c532d90342d5890e04da3592" target="_top" xlink:title=" ">
<polygon fill="white" stroke="#666666" points="195,-478 28,-478 28,-437 195,-437 195,-478"/>
<text text-anchor="start" x="36" y="-466" font-family="Helvetica,sans-Serif" font-size="10.00">Tests\Feature\MediaThumbnail</text>
<text text-anchor="start" x="36" y="-455" font-family="Helvetica,sans-Serif" font-size="10.00">ServiceTest\it_returns_null</text>
<text text-anchor="middle" x="111.5" y="-444" font-family="Helvetica,sans-Serif" font-size="10.00">_when_ffmpeg_execution_fails</text>
</a>
</g>
</g>
<!-- Node1&#45;&gt;Node9 -->
<g id="edge8_Node000001_Node000009" class="edge">
<title>Node1&#45;&gt;Node9</title>
<g id="a_edge8_Node000001_Node000009"><a xlink:title=" ">
<path fill="none" stroke="#63b8ff" d="M248.52,-457.5C230.84,-457.5 212.44,-457.5 195.09,-457.5"/>
<polygon fill="#63b8ff" stroke="#63b8ff" points="248.83,-461 258.83,-457.5 248.83,-454 248.83,-461"/>
</a>
</g>
</g>
<!-- Node10 -->
<g id="Node000010" class="node">
<title>Node10</title>
<g id="a_Node000010"><a xlink:href="classTests_1_1Feature_1_1MediaThumbnailServiceTest.html#af44218428ce6db7604c6ec446724fe92" target="_top" xlink:title=" ">
<polygon fill="white" stroke="#666666" points="194.5,-419 28.5,-419 28.5,-378 194.5,-378 194.5,-419"/>
<text text-anchor="start" x="36.5" y="-407" font-family="Helvetica,sans-Serif" font-size="10.00">Tests\Feature\MediaThumbnail</text>
<text text-anchor="start" x="36.5" y="-396" font-family="Helvetica,sans-Serif" font-size="10.00">ServiceTest\it_returns_null</text>
<text text-anchor="middle" x="111.5" y="-385" font-family="Helvetica,sans-Serif" font-size="10.00">_when_ftp_config_is_missing</text>
</a>
</g>
</g>
<!-- Node1&#45;&gt;Node10 -->
<g id="edge9_Node000001_Node000010" class="edge">
<title>Node1&#45;&gt;Node10</title>
<g id="a_edge9_Node000001_Node000010"><a xlink:title=" ">
<path fill="none" stroke="#63b8ff" d="M272.86,-439.91C247.5,-433.36 218.5,-425.87 192.2,-419.08"/>
<polygon fill="#63b8ff" stroke="#63b8ff" points="272.19,-443.35 282.75,-442.46 273.94,-436.57 272.19,-443.35"/>
</a>
</g>
</g>
<!-- Node11 -->
<g id="Node000011" class="node">
<title>Node11</title>
<g id="a_Node000011"><a xlink:href="classTests_1_1Feature_1_1MediaThumbnailServiceTest.html#a2a304cacdc02375138fabc543ebe7cec" target="_top" xlink:title=" ">
<polygon fill="white" stroke="#666666" points="205.5,-360 17.5,-360 17.5,-319 205.5,-319 205.5,-360"/>
<text text-anchor="start" x="25.5" y="-348" font-family="Helvetica,sans-Serif" font-size="10.00">Tests\Feature\MediaThumbnail</text>
<text text-anchor="start" x="25.5" y="-337" font-family="Helvetica,sans-Serif" font-size="10.00">ServiceTest\it_returns_null</text>
<text text-anchor="middle" x="111.5" y="-326" font-family="Helvetica,sans-Serif" font-size="10.00">_when_no_video_path_is_available</text>
</a>
</g>
</g>
<!-- Node1&#45;&gt;Node11 -->
<g id="edge10_Node000001_Node000011" class="edge">
<title>Node1&#45;&gt;Node11</title>
<g id="a_edge10_Node000001_Node000011"><a xlink:title=" ">
<path fill="none" stroke="#63b8ff" d="M317.01,-435.3C294.35,-415.43 258.61,-386.83 223,-369.5 215.85,-366.02 208.24,-362.9 200.48,-360.1"/>
<polygon fill="#63b8ff" stroke="#63b8ff" points="314.95,-438.15 324.74,-442.19 319.6,-432.92 314.95,-438.15"/>
</a>
</g>
</g>
<!-- Node12 -->
<g id="Node000012" class="node">
<title>Node12</title>
<g id="a_Node000012"><a xlink:href="classTests_1_1Feature_1_1MediaThumbnailServiceTest.html#aad0803e7c150380319e60ef2163a76dd" target="_top" xlink:title=" ">
<polygon fill="white" stroke="#666666" points="198,-300.5 25,-300.5 25,-248.5 198,-248.5 198,-300.5"/>
<text text-anchor="start" x="33" y="-288.5" font-family="Helvetica,sans-Serif" font-size="10.00">Tests\Feature\MediaThumbnail</text>
<text text-anchor="start" x="33" y="-277.5" font-family="Helvetica,sans-Serif" font-size="10.00">ServiceTest\it_returns_true</text>
<text text-anchor="start" x="33" y="-266.5" font-family="Helvetica,sans-Serif" font-size="10.00">_when_deleting_thumbnail_that</text>
<text text-anchor="middle" x="111.5" y="-255.5" font-family="Helvetica,sans-Serif" font-size="10.00">_does_not_exist</text>
</a>
</g>
</g>
<!-- Node1&#45;&gt;Node12 -->
<g id="edge11_Node000001_Node000012" class="edge">
<title>Node1&#45;&gt;Node12</title>
<g id="a_edge11_Node000001_Node000012"><a xlink:title=" ">
<path fill="none" stroke="#63b8ff" d="M327.7,-433.31C308.64,-400.82 270.54,-343.35 223,-310.5 215.36,-305.22 206.91,-300.68 198.16,-296.78"/>
<polygon fill="#63b8ff" stroke="#63b8ff" points="324.76,-435.23 332.78,-442.16 330.83,-431.75 324.76,-435.23"/>
</a>
</g>
</g>
<!-- Node13 -->
<g id="Node000013" class="node">
<title>Node13</title>
<g id="a_Node000013"><a xlink:href="classTests_1_1Feature_1_1MediaThumbnailServiceTest.html#acb4d68a90e1ce5157e57e113b1f2ce00" target="_top" xlink:title=" ">
<polygon fill="white" stroke="#666666" points="204.5,-230 18.5,-230 18.5,-189 204.5,-189 204.5,-230"/>
<text text-anchor="start" x="26.5" y="-218" font-family="Helvetica,sans-Serif" font-size="10.00">Tests\Feature\MediaThumbnail</text>
<text text-anchor="start" x="26.5" y="-207" font-family="Helvetica,sans-Serif" font-size="10.00">ServiceTest\it_uses_archive</text>
<text text-anchor="middle" x="111.5" y="-196" font-family="Helvetica,sans-Serif" font-size="10.00">_path_when_local_path_not_exists</text>
</a>
</g>
</g>
<!-- Node1&#45;&gt;Node13 -->
<g id="edge12_Node000001_Node000013" class="edge">
<title>Node1&#45;&gt;Node13</title>
<g id="a_edge12_Node000001_Node000013"><a xlink:title=" ">
<path fill="none" stroke="#63b8ff" d="M334.54,-432.47C321.47,-386.94 287.49,-290.58 223,-239.5 217.39,-235.06 211.17,-231.27 204.63,-228.04"/>
<polygon fill="#63b8ff" stroke="#63b8ff" points="331.24,-433.69 337.28,-442.39 337.99,-431.82 331.24,-433.69"/>
</a>
</g>
</g>
<!-- Node14 -->
<g id="Node000014" class="node">
<title>Node14</title>
<g id="a_Node000014"><a xlink:href="classTests_1_1Feature_1_1MediaThumbnailServiceTest.html#a72fe0aa90b16e60fa54fc264f0f533da" target="_top" xlink:title=" ">
<polygon fill="white" stroke="#666666" points="203,-170.5 20,-170.5 20,-118.5 203,-118.5 203,-170.5"/>
<text text-anchor="start" x="28" y="-158.5" font-family="Helvetica,sans-Serif" font-size="10.00">Tests\Feature\MediaThumbnail</text>
<text text-anchor="start" x="28" y="-147.5" font-family="Helvetica,sans-Serif" font-size="10.00">ServiceTest\it_uses_default</text>
<text text-anchor="start" x="28" y="-136.5" font-family="Helvetica,sans-Serif" font-size="10.00">_timecode_when_duration_cannot</text>
<text text-anchor="middle" x="111.5" y="-125.5" font-family="Helvetica,sans-Serif" font-size="10.00">_be_determined</text>
</a>
</g>
</g>
<!-- Node1&#45;&gt;Node14 -->
<g id="edge13_Node000001_Node000014" class="edge">
<title>Node1&#45;&gt;Node14</title>
<g id="a_edge13_Node000001_Node000014"><a xlink:title=" ">
<path fill="none" stroke="#63b8ff" d="M337.37,-432.33C328.27,-378.31 299.45,-250.52 223,-180.5 217.05,-175.05 210.26,-170.42 203.04,-166.5"/>
<polygon fill="#63b8ff" stroke="#63b8ff" points="333.95,-433.08 338.98,-442.4 340.86,-431.97 333.95,-433.08"/>
</a>
</g>
</g>
<!-- Node15 -->
<g id="Node000015" class="node">
<title>Node15</title>
<g id="a_Node000015"><a xlink:href="classTests_1_1Feature_1_1MediaThumbnailServiceTest.html#a79cc79f75b7189adb40557540b94d25d" target="_top" xlink:title=" ">
<polygon fill="white" stroke="#666666" points="205.5,-100 17.5,-100 17.5,-59 205.5,-59 205.5,-100"/>
<text text-anchor="start" x="25.5" y="-88" font-family="Helvetica,sans-Serif" font-size="10.00">Tests\Feature\MediaThumbnail</text>
<text text-anchor="start" x="25.5" y="-77" font-family="Helvetica,sans-Serif" font-size="10.00">ServiceTest\it_uses_pad</text>
<text text-anchor="middle" x="111.5" y="-66" font-family="Helvetica,sans-Serif" font-size="10.00">_path_when_archive_not_available</text>
</a>
</g>
</g>
<!-- Node1&#45;&gt;Node15 -->
<g id="edge14_Node000001_Node000015" class="edge">
<title>Node1&#45;&gt;Node15</title>
<g id="a_edge14_Node000001_Node000015"><a xlink:title=" ">
<path fill="none" stroke="#63b8ff" d="M340.15,-431.96C336.58,-367.86 318.15,-198.95 223,-109.5 217.79,-104.6 211.85,-100.48 205.51,-97.03"/>
<polygon fill="#63b8ff" stroke="#63b8ff" points="336.67,-432.51 340.64,-442.33 343.66,-432.18 336.67,-432.51"/>
</a>
</g>
</g>
<!-- Node16 -->
<g id="Node000016" class="node">
<title>Node16</title>
<g id="a_Node000016"><a xlink:href="classTests_1_1Feature_1_1MediaThumbnailServiceTest.html#a37830e5107eaba66d0578cc20a309c0a" target="_top" xlink:title=" ">
<polygon fill="white" stroke="#666666" points="223,-41 0,-41 0,0 223,0 223,-41"/>
<text text-anchor="start" x="8" y="-29" font-family="Helvetica,sans-Serif" font-size="10.00">Tests\Feature\MediaThumbnail</text>
<text text-anchor="start" x="8" y="-18" font-family="Helvetica,sans-Serif" font-size="10.00">ServiceTest\regenerateMissingThumbnails</text>
<text text-anchor="middle" x="111.5" y="-7" font-family="Helvetica,sans-Serif" font-size="10.00">_tracks_failed_generations</text>
</a>
</g>
</g>
<!-- Node1&#45;&gt;Node16 -->
<g id="edge15_Node000001_Node000016" class="edge">
<title>Node1&#45;&gt;Node16</title>
<g id="a_edge15_Node000001_Node000016"><a xlink:title=" ">
<path fill="none" stroke="#63b8ff" d="M341.62,-432.11C341.9,-361.02 332.56,-158.2 223,-50.5 219.39,-46.95 215.39,-43.8 211.14,-41.02"/>
<polygon fill="#63b8ff" stroke="#63b8ff" points="338.11,-432.31 341.5,-442.35 345.11,-432.39 338.11,-432.31"/>
</a>
</g>
</g>
</g>
</svg>

<g id="navigator" transform="translate(0 0)" fill="#404254">
  <rect fill="#f2f5e9" fill-opacity="0.5" stroke="#606060" stroke-width=".5" x="0" y="0" width="60" height="60"/>
  <use id="zoomplus" xlink:href="#zoomPlus" x="17" y="9" onmousedown="handleZoom(evt,'in')"/>
  <use id="zoomminus" xlink:href="#zoomMin" x="42" y="9" onmousedown="handleZoom(evt,'out')"/>
  <use id="reset" xlink:href="#resetDef" x="30" y="36" onmousedown="handleReset()"/>
   <use id="arrowup" xlink:href="#arrowUp" x="0" y="0" onmousedown="handlePan(0,-1)"/>
  <use id="arrowright" xlink:href="#arrowRight" x="0" y="0" onmousedown="handlePan(1,0)"/>
  <use id="arrowdown" xlink:href="#arrowDown" x="0" y="0" onmousedown="handlePan(0,1)"/>
  <use id="arrowleft" xlink:href="#arrowLeft" x="0" y="0" onmousedown="handlePan(-1,0)"/>
</g>
<svg viewBox="0 0 15 15" width="100%" height="30px" preserveAspectRatio="xMaxYMin meet">
 <g id="arrow_out" transform="scale(0.3 0.3)">
  <a xlink:href="classTests_1_1Feature_1_1MediaThumbnailServiceTest_aaa9d9b3ab153bd5d85ea44607219d98f_icgraph_org.svg" target="_base">
   <rect id="button" ry="5" rx="5" y="6" x="6" height="38" width="38"
        fill="#f2f5e9" fill-opacity="0.5" stroke="#606060" stroke-width="1.0"/>
   <path id="arrow"
     d="M 11.500037,31.436501 C 11.940474,20.09759 22.043105,11.32322 32.158766,21.979434 L 37.068811,17.246167 C 37.068811,17.246167 37.088388,32 37.088388,32 L 22.160133,31.978069 C 22.160133,31.978069 26.997745,27.140456 26.997745,27.140456 C 18.528582,18.264221 13.291696,25.230495 11.500037,31.436501 z"
     style="fill:#404040;"/>
  </a>
 </g>
</svg>

<style type='text/css'>
<![CDATA[
[data-mouse-over-selected='false'] { opacity: 0.7; }
[data-mouse-over-selected='true']  { opacity: 1.0; }
]]>
</style>
<script type="application/ecmascript"><![CDATA[
document.addEventListener('DOMContentLoaded', (event) => {
  highlightEdges();
  highlightAdjacentNodes();
});
]]></script>
</svg>
