<?xml version="1.0" encoding="UTF-8" standalone="no"?>
<!DOCTYPE svg PUBLIC "-//W3C//DTD SVG 1.1//EN"
 "http://www.w3.org/Graphics/SVG/1.1/DTD/svg11.dtd">
<!-- Generated by graphviz version 2.42.4 (0)
 -->
<!-- Title: App\Services\MediaThumbnailService\regenerateMissingThumbnails Pages: 1 -->
<svg width="611pt" height="182pt"
 viewBox="0.00 0.00 611.00 182.00" xmlns="http://www.w3.org/2000/svg" xmlns:xlink="http://www.w3.org/1999/xlink">
<g id="graph0" class="graph" transform="scale(1 1) rotate(0) translate(4 178)">
<title>App\Services\MediaThumbnailService\regenerateMissingThumbnails</title>
<!-- Node1 -->
<g id="Node000001" class="node">
<title>Node1</title>
<g id="a_Node000001"><a xlink:title=" ">
<polygon fill="#999999" stroke="#666666" points="203,-102 0,-102 0,-72 203,-72 203,-102"/>
<text text-anchor="start" x="8" y="-90" font-family="Helvetica,sans-Serif" font-size="10.00">App\Services\MediaThumbnail</text>
<text text-anchor="middle" x="101.5" y="-79" font-family="Helvetica,sans-Serif" font-size="10.00">Service\regenerateMissingThumbnails</text>
</a>
</g>
</g>
<!-- Node2 -->
<g id="Node000002" class="node">
<title>Node2</title>
<g id="a_Node000002"><a xlink:href="classApp_1_1Services_1_1MediaThumbnailService.html#ae38ef6cc053f00e0cf9a79ca3e9f14ee" target="_top" xlink:title=" ">
<polygon fill="white" stroke="#666666" points="403,-102 239,-102 239,-72 403,-72 403,-102"/>
<text text-anchor="start" x="247" y="-90" font-family="Helvetica,sans-Serif" font-size="10.00">App\Services\MediaThumbnail</text>
<text text-anchor="middle" x="321" y="-79" font-family="Helvetica,sans-Serif" font-size="10.00">Service\generateThumbnail</text>
</a>
</g>
</g>
<!-- Node1&#45;&gt;Node2 -->
<g id="edge1_Node000001_Node000002" class="edge">
<title>Node1&#45;&gt;Node2</title>
<g id="a_edge1_Node000001_Node000002"><a xlink:title=" ">
<path fill="none" stroke="#63b8ff" d="M203.29,-87C211.74,-87 220.26,-87 228.64,-87"/>
<polygon fill="#63b8ff" stroke="#63b8ff" points="228.77,-90.5 238.77,-87 228.77,-83.5 228.77,-90.5"/>
</a>
</g>
</g>
<!-- Node3 -->
<g id="Node000003" class="node">
<title>Node3</title>
<g id="a_Node000003"><a xlink:href="classApp_1_1Services_1_1MediaThumbnailService.html#a2a4827992588678a676f2e291bf5af66" target="_top" xlink:title=" ">
<polygon fill="white" stroke="#666666" points="603,-174 439,-174 439,-144 603,-144 603,-174"/>
<text text-anchor="start" x="447" y="-162" font-family="Helvetica,sans-Serif" font-size="10.00">App\Services\MediaThumbnail</text>
<text text-anchor="middle" x="521" y="-151" font-family="Helvetica,sans-Serif" font-size="10.00">Service\buildFtpUrl</text>
</a>
</g>
</g>
<!-- Node2&#45;&gt;Node3 -->
<g id="edge2_Node000002_Node000003" class="edge">
<title>Node2&#45;&gt;Node3</title>
<g id="a_edge2_Node000002_Node000003"><a xlink:title=" ">
<path fill="none" stroke="#63b8ff" d="M356.2,-102.1C379.35,-112.06 410.73,-125.04 439,-135 444.58,-136.97 450.42,-138.91 456.29,-140.79"/>
<polygon fill="#63b8ff" stroke="#63b8ff" points="455.57,-144.23 466.16,-143.88 457.67,-137.55 455.57,-144.23"/>
</a>
</g>
</g>
<!-- Node4 -->
<g id="Node000004" class="node">
<title>Node4</title>
<g id="a_Node000004"><a xlink:href="classApp_1_1Services_1_1MediaThumbnailService.html#a572685b91171db3d0abeddcd7f731bad" target="_top" xlink:title=" ">
<polygon fill="white" stroke="#666666" points="603,-126 439,-126 439,-96 603,-96 603,-126"/>
<text text-anchor="start" x="447" y="-114" font-family="Helvetica,sans-Serif" font-size="10.00">App\Services\MediaThumbnail</text>
<text text-anchor="middle" x="521" y="-103" font-family="Helvetica,sans-Serif" font-size="10.00">Service\calculateTimecode</text>
</a>
</g>
</g>
<!-- Node2&#45;&gt;Node4 -->
<g id="edge3_Node000002_Node000004" class="edge">
<title>Node2&#45;&gt;Node4</title>
<g id="a_edge3_Node000002_Node000004"><a xlink:title=" ">
<path fill="none" stroke="#63b8ff" d="M403.11,-96.83C411.55,-97.85 420.17,-98.9 428.72,-99.94"/>
<polygon fill="#63b8ff" stroke="#63b8ff" points="428.35,-103.42 438.7,-101.15 429.19,-96.47 428.35,-103.42"/>
</a>
</g>
</g>
<!-- Node5 -->
<g id="Node000005" class="node">
<title>Node5</title>
<g id="a_Node000005"><a xlink:href="classApp_1_1Services_1_1MediaThumbnailService.html#af62155d768584b3f7493f83176bd4e07" target="_top" xlink:title=" ">
<polygon fill="white" stroke="#666666" points="603,-78 439,-78 439,-48 603,-48 603,-78"/>
<text text-anchor="start" x="447" y="-66" font-family="Helvetica,sans-Serif" font-size="10.00">App\Services\MediaThumbnail</text>
<text text-anchor="middle" x="521" y="-55" font-family="Helvetica,sans-Serif" font-size="10.00">Service\executeFfmpeg</text>
</a>
</g>
</g>
<!-- Node2&#45;&gt;Node5 -->
<g id="edge4_Node000002_Node000005" class="edge">
<title>Node2&#45;&gt;Node5</title>
<g id="a_edge4_Node000002_Node000005"><a xlink:title=" ">
<path fill="none" stroke="#63b8ff" d="M403.11,-77.17C411.55,-76.15 420.17,-75.1 428.72,-74.06"/>
<polygon fill="#63b8ff" stroke="#63b8ff" points="429.19,-77.53 438.7,-72.85 428.35,-70.58 429.19,-77.53"/>
</a>
</g>
</g>
<!-- Node6 -->
<g id="Node000006" class="node">
<title>Node6</title>
<g id="a_Node000006"><a xlink:href="classApp_1_1Services_1_1MediaThumbnailService.html#ad2157721da4b3d3d35e66e557a541b0d" target="_top" xlink:title=" ">
<polygon fill="white" stroke="#666666" points="603,-30 439,-30 439,0 603,0 603,-30"/>
<text text-anchor="start" x="447" y="-18" font-family="Helvetica,sans-Serif" font-size="10.00">App\Services\MediaThumbnail</text>
<text text-anchor="middle" x="521" y="-7" font-family="Helvetica,sans-Serif" font-size="10.00">Service\getVideoDuration</text>
</a>
</g>
</g>
<!-- Node2&#45;&gt;Node6 -->
<g id="edge5_Node000002_Node000006" class="edge">
<title>Node2&#45;&gt;Node6</title>
<g id="a_edge5_Node000002_Node000006"><a xlink:title=" ">
<path fill="none" stroke="#63b8ff" d="M356.2,-71.9C379.35,-61.94 410.73,-48.96 439,-39 444.58,-37.03 450.42,-35.09 456.29,-33.21"/>
<polygon fill="#63b8ff" stroke="#63b8ff" points="457.67,-36.45 466.16,-30.12 455.57,-29.77 457.67,-36.45"/>
</a>
</g>
</g>
</g>
</svg>
