<?xml version="1.0" encoding="UTF-8" standalone="no"?>
<!DOCTYPE svg PUBLIC "-//W3C//DTD SVG 1.1//EN"
 "http://www.w3.org/Graphics/SVG/1.1/DTD/svg11.dtd">
<!-- Generated by graphviz version 2.42.4 (0)
 -->
<!-- Title: Tests\Feature\TransfertControllerTest Pages: 1 -->
<svg width="196pt" height="502pt"
 viewBox="0.00 0.00 196.00 502.00" xmlns="http://www.w3.org/2000/svg" xmlns:xlink="http://www.w3.org/1999/xlink">
<g id="graph0" class="graph" transform="scale(1 1) rotate(0) translate(4 498)">
<title>Tests\Feature\TransfertControllerTest</title>
<!-- Node1 -->
<g id="Node000001" class="node">
<title>Node1</title>
<g id="a_Node000001"><a xlink:title=" ">
<polygon fill="#999999" stroke="transparent" points="188,-324 0,-324 0,0 188,0 188,-324"/>
<text text-anchor="start" x="5" y="-312" font-family="Helvetica,sans-Serif" font-size="10.00">Tests\Feature\TransfertControllerTest</text>
<text text-anchor="start" x="13" y="-297" font-family="Helvetica,sans-Serif" font-size="10.00">#</text>
<text text-anchor="start" x="35" y="-297" font-family="Helvetica,sans-Serif" font-size="10.00">User $user</text>
<text text-anchor="start" x="13" y="-282" font-family="Helvetica,sans-Serif" font-size="10.00">+</text>
<text text-anchor="start" x="35" y="-282" font-family="Helvetica,sans-Serif" font-size="10.00">index_displays_transfert</text>
<text text-anchor="start" x="35" y="-271" font-family="Helvetica,sans-Serif" font-size="10.00">_page()</text>
<text text-anchor="start" x="13" y="-256" font-family="Helvetica,sans-Serif" font-size="10.00">+</text>
<text text-anchor="start" x="35" y="-256" font-family="Helvetica,sans-Serif" font-size="10.00">list_returns_media</text>
<text text-anchor="start" x="35" y="-245" font-family="Helvetica,sans-Serif" font-size="10.00">_without_local_paths()</text>
<text text-anchor="start" x="13" y="-230" font-family="Helvetica,sans-Serif" font-size="10.00">+</text>
<text text-anchor="start" x="35" y="-230" font-family="Helvetica,sans-Serif" font-size="10.00">list_matches_active</text>
<text text-anchor="start" x="35" y="-219" font-family="Helvetica,sans-Serif" font-size="10.00">_jobs_with_media()</text>
<text text-anchor="start" x="13" y="-204" font-family="Helvetica,sans-Serif" font-size="10.00">+</text>
<text text-anchor="start" x="35" y="-204" font-family="Helvetica,sans-Serif" font-size="10.00">list_handles_ffastrans</text>
<text text-anchor="start" x="35" y="-193" font-family="Helvetica,sans-Serif" font-size="10.00">_error_gracefully()</text>
<text text-anchor="start" x="13" y="-178" font-family="Helvetica,sans-Serif" font-size="10.00">+</text>
<text text-anchor="start" x="35" y="-178" font-family="Helvetica,sans-Serif" font-size="10.00">list_prioritizes_arch</text>
<text text-anchor="start" x="35" y="-167" font-family="Helvetica,sans-Serif" font-size="10.00">_over_pad()</text>
<text text-anchor="start" x="13" y="-152" font-family="Helvetica,sans-Serif" font-size="10.00">+</text>
<text text-anchor="start" x="35" y="-152" font-family="Helvetica,sans-Serif" font-size="10.00">list_uses_pad_when</text>
<text text-anchor="start" x="35" y="-141" font-family="Helvetica,sans-Serif" font-size="10.00">_arch_not_available()</text>
<text text-anchor="start" x="13" y="-126" font-family="Helvetica,sans-Serif" font-size="10.00">+</text>
<text text-anchor="start" x="35" y="-126" font-family="Helvetica,sans-Serif" font-size="10.00">startJob_submits_job</text>
<text text-anchor="start" x="35" y="-115" font-family="Helvetica,sans-Serif" font-size="10.00">_to_ffastrans()</text>
<text text-anchor="start" x="13" y="-100" font-family="Helvetica,sans-Serif" font-size="10.00">+</text>
<text text-anchor="start" x="35" y="-100" font-family="Helvetica,sans-Serif" font-size="10.00">startJob_handles_ffastrans</text>
<text text-anchor="start" x="35" y="-89" font-family="Helvetica,sans-Serif" font-size="10.00">_error()</text>
<text text-anchor="start" x="13" y="-74" font-family="Helvetica,sans-Serif" font-size="10.00">+</text>
<text text-anchor="start" x="35" y="-74" font-family="Helvetica,sans-Serif" font-size="10.00">checkStatus_returns</text>
<text text-anchor="start" x="35" y="-63" font-family="Helvetica,sans-Serif" font-size="10.00">_job_progress()</text>
<text text-anchor="start" x="13" y="-48" font-family="Helvetica,sans-Serif" font-size="10.00">+</text>
<text text-anchor="start" x="35" y="-48" font-family="Helvetica,sans-Serif" font-size="10.00">checkStatus_detects</text>
<text text-anchor="start" x="35" y="-37" font-family="Helvetica,sans-Serif" font-size="10.00">_success_state()</text>
<text text-anchor="start" x="35" y="-22" font-family="Helvetica,sans-Serif" font-size="10.00">et 6 de plus...</text>
<text text-anchor="start" x="13" y="-7" font-family="Helvetica,sans-Serif" font-size="10.00">#</text>
<text text-anchor="start" x="35" y="-7" font-family="Helvetica,sans-Serif" font-size="10.00">setUp()</text>
<polygon fill="#666666" stroke="#666666" points="0,-307 0,-307 188,-307 188,-307 0,-307"/>
<polygon fill="#666666" stroke="#666666" points="0,-292 0,-292 33,-292 33,-292 0,-292"/>
<polygon fill="#666666" stroke="#666666" points="33,-292 33,-292 188,-292 188,-292 33,-292"/>
<polygon fill="none" stroke="#666666" points="0,0 0,-324 188,-324 188,0 0,0"/>
</a>
</g>
</g>
<!-- Node2 -->
<g id="Node000002" class="node">
<title>Node2</title>
<g id="a_Node000002"><a xlink:href="classTests_1_1TestCase.html" target="_top" xlink:title=" ">
<polygon fill="white" stroke="transparent" points="135,-409 53,-409 53,-360 135,-360 135,-409"/>
<text text-anchor="start" x="58" y="-396.5" font-family="Helvetica,sans-Serif" font-size="10.00">Tests\TestCase</text>
<text text-anchor="start" x="92" y="-381.5" font-family="Helvetica,sans-Serif" font-size="10.00"> </text>
<text text-anchor="start" x="92" y="-366.5" font-family="Helvetica,sans-Serif" font-size="10.00"> </text>
<polygon fill="#666666" stroke="#666666" points="53,-391.5 53,-391.5 135,-391.5 135,-391.5 53,-391.5"/>
<polygon fill="#666666" stroke="#666666" points="53,-376.5 53,-376.5 135,-376.5 135,-376.5 53,-376.5"/>
<polygon fill="none" stroke="#666666" points="53,-360 53,-409 135,-409 135,-360 53,-360"/>
</a>
</g>
</g>
<!-- Node2&#45;&gt;Node1 -->
<g id="edge1_Node000001_Node000002" class="edge">
<title>Node2&#45;&gt;Node1</title>
<g id="a_edge1_Node000001_Node000002"><a xlink:title=" ">
<path fill="none" stroke="#63b8ff" d="M94,-349.79C94,-342.15 94,-333.55 94,-324.34"/>
<polygon fill="none" stroke="#63b8ff" points="90.5,-349.9 94,-359.9 97.5,-349.9 90.5,-349.9"/>
</a>
</g>
</g>
<!-- Node3 -->
<g id="Node000003" class="node">
<title>Node3</title>
<g id="a_Node000003"><a xlink:title=" ">
<polygon fill="white" stroke="transparent" points="133,-494 55,-494 55,-445 133,-445 133,-494"/>
<text text-anchor="start" x="60" y="-481.5" font-family="Helvetica,sans-Serif" font-size="10.00">BaseTestCase</text>
<text text-anchor="start" x="92" y="-466.5" font-family="Helvetica,sans-Serif" font-size="10.00"> </text>
<text text-anchor="start" x="92" y="-451.5" font-family="Helvetica,sans-Serif" font-size="10.00"> </text>
<polygon fill="#666666" stroke="#666666" points="55,-476.5 55,-476.5 133,-476.5 133,-476.5 55,-476.5"/>
<polygon fill="#666666" stroke="#666666" points="55,-461.5 55,-461.5 133,-461.5 133,-461.5 55,-461.5"/>
<polygon fill="none" stroke="#666666" points="55,-445 55,-494 133,-494 133,-445 55,-445"/>
</a>
</g>
</g>
<!-- Node3&#45;&gt;Node2 -->
<g id="edge2_Node000002_Node000003" class="edge">
<title>Node3&#45;&gt;Node2</title>
<g id="a_edge2_Node000002_Node000003"><a xlink:title=" ">
<path fill="none" stroke="#63b8ff" d="M94,-434.77C94,-426.17 94,-417.1 94,-409.12"/>
<polygon fill="none" stroke="#63b8ff" points="90.5,-434.94 94,-444.94 97.5,-434.94 90.5,-434.94"/>
</a>
</g>
</g>
</g>
</svg>
