<?xml version="1.0" encoding="UTF-8" standalone="no"?>
<!DOCTYPE svg PUBLIC "-//W3C//DTD SVG 1.1//EN"
 "http://www.w3.org/Graphics/SVG/1.1/DTD/svg11.dtd">
<!-- Generated by graphviz version 2.42.4 (0)
 -->
<!-- Title: App\Http\Controllers\AdminController\updateEnvFile Pages: 1 -->
<svg width="391pt" height="98pt"
 viewBox="0.00 0.00 391.00 97.50" xmlns="http://www.w3.org/2000/svg" xmlns:xlink="http://www.w3.org/1999/xlink">
<g id="graph0" class="graph" transform="scale(1 1) rotate(0) translate(4 93.5)">
<title>App\Http\Controllers\AdminController\updateEnvFile</title>
<!-- Node1 -->
<g id="Node000001" class="node">
<title>Node1</title>
<g id="a_Node000001"><a xlink:title="HELPER: UPDATE .ENV FILE.">
<polygon fill="#999999" stroke="#666666" points="383,-57 212,-57 212,-27 383,-27 383,-57"/>
<text text-anchor="start" x="220" y="-45" font-family="Helvetica,sans-Serif" font-size="10.00">App\Http\Controllers</text>
<text text-anchor="middle" x="297.5" y="-34" font-family="Helvetica,sans-Serif" font-size="10.00">\AdminController\updateEnvFile</text>
</a>
</g>
</g>
<!-- Node2 -->
<g id="Node000002" class="node">
<title>Node2</title>
<g id="a_Node000002"><a xlink:href="classApp_1_1Http_1_1Controllers_1_1AdminController.html#ab6297a2cede2f08d8c873f43540a26e4" target="_top" xlink:title=" ">
<polygon fill="white" stroke="#666666" points="168.5,-89.5 7.5,-89.5 7.5,-48.5 168.5,-48.5 168.5,-89.5"/>
<text text-anchor="start" x="15.5" y="-77.5" font-family="Helvetica,sans-Serif" font-size="10.00">App\Http\Controllers</text>
<text text-anchor="start" x="15.5" y="-66.5" font-family="Helvetica,sans-Serif" font-size="10.00">\AdminController\saveBackup</text>
<text text-anchor="middle" x="88" y="-55.5" font-family="Helvetica,sans-Serif" font-size="10.00">Settings</text>
</a>
</g>
</g>
<!-- Node1&#45;&gt;Node2 -->
<g id="edge1_Node000001_Node000002" class="edge">
<title>Node1&#45;&gt;Node2</title>
<g id="a_edge1_Node000001_Node000002"><a xlink:title=" ">
<path fill="none" stroke="#63b8ff" d="M201.73,-54.33C190.7,-55.77 179.54,-57.22 168.74,-58.62"/>
<polygon fill="#63b8ff" stroke="#63b8ff" points="202.34,-57.78 211.8,-53.02 201.43,-50.84 202.34,-57.78"/>
</a>
</g>
</g>
<!-- Node3 -->
<g id="Node000003" class="node">
<title>Node3</title>
<g id="a_Node000003"><a xlink:href="classApp_1_1Http_1_1Controllers_1_1AdminController.html#a6f38af8b92f1669acb33e2314f7af015" target="_top" xlink:title="HANDLE SETTINGS UPDATE.">
<polygon fill="white" stroke="#666666" points="176,-30 0,-30 0,0 176,0 176,-30"/>
<text text-anchor="start" x="8" y="-18" font-family="Helvetica,sans-Serif" font-size="10.00">App\Http\Controllers</text>
<text text-anchor="middle" x="88" y="-7" font-family="Helvetica,sans-Serif" font-size="10.00">\AdminController\updateSettings</text>
</a>
</g>
</g>
<!-- Node1&#45;&gt;Node3 -->
<g id="edge2_Node000001_Node000003" class="edge">
<title>Node1&#45;&gt;Node3</title>
<g id="a_edge2_Node000001_Node000003"><a xlink:title=" ">
<path fill="none" stroke="#63b8ff" d="M201.81,-29.68C193.25,-28.57 184.61,-27.44 176.12,-26.34"/>
<polygon fill="#63b8ff" stroke="#63b8ff" points="201.43,-33.16 211.8,-30.98 202.34,-26.22 201.43,-33.16"/>
</a>
</g>
</g>
</g>
</svg>
