<?xml version="1.0" encoding="UTF-8" standalone="no"?>
<!DOCTYPE svg PUBLIC "-//W3C//DTD SVG 1.1//EN"
 "http://www.w3.org/Graphics/SVG/1.1/DTD/svg11.dtd">
<!-- Generated by graphviz version 2.42.4 (0)
 -->
<!-- Title: App\Services\MediaThumbnailService\generateThumbnail Pages: 1 -->
<svg width="372pt" height="182pt"
 viewBox="0.00 0.00 372.00 182.00" xmlns="http://www.w3.org/2000/svg" xmlns:xlink="http://www.w3.org/1999/xlink">
<g id="graph0" class="graph" transform="scale(1 1) rotate(0) translate(4 178)">
<title>App\Services\MediaThumbnailService\generateThumbnail</title>
<!-- Node1 -->
<g id="Node000001" class="node">
<title>Node1</title>
<g id="a_Node000001"><a xlink:title=" ">
<polygon fill="#999999" stroke="#666666" points="164,-102 0,-102 0,-72 164,-72 164,-102"/>
<text text-anchor="start" x="8" y="-90" font-family="Helvetica,sans-Serif" font-size="10.00">App\Services\MediaThumbnail</text>
<text text-anchor="middle" x="82" y="-79" font-family="Helvetica,sans-Serif" font-size="10.00">Service\generateThumbnail</text>
</a>
</g>
</g>
<!-- Node2 -->
<g id="Node000002" class="node">
<title>Node2</title>
<g id="a_Node000002"><a xlink:href="classApp_1_1Services_1_1MediaThumbnailService.html#a2a4827992588678a676f2e291bf5af66" target="_top" xlink:title=" ">
<polygon fill="white" stroke="#666666" points="364,-174 200,-174 200,-144 364,-144 364,-174"/>
<text text-anchor="start" x="208" y="-162" font-family="Helvetica,sans-Serif" font-size="10.00">App\Services\MediaThumbnail</text>
<text text-anchor="middle" x="282" y="-151" font-family="Helvetica,sans-Serif" font-size="10.00">Service\buildFtpUrl</text>
</a>
</g>
</g>
<!-- Node1&#45;&gt;Node2 -->
<g id="edge1_Node000001_Node000002" class="edge">
<title>Node1&#45;&gt;Node2</title>
<g id="a_edge1_Node000001_Node000002"><a xlink:title=" ">
<path fill="none" stroke="#63b8ff" d="M117.2,-102.1C140.35,-112.06 171.73,-125.04 200,-135 205.58,-136.97 211.42,-138.91 217.29,-140.79"/>
<polygon fill="#63b8ff" stroke="#63b8ff" points="216.57,-144.23 227.16,-143.88 218.67,-137.55 216.57,-144.23"/>
</a>
</g>
</g>
<!-- Node3 -->
<g id="Node000003" class="node">
<title>Node3</title>
<g id="a_Node000003"><a xlink:href="classApp_1_1Services_1_1MediaThumbnailService.html#a572685b91171db3d0abeddcd7f731bad" target="_top" xlink:title=" ">
<polygon fill="white" stroke="#666666" points="364,-126 200,-126 200,-96 364,-96 364,-126"/>
<text text-anchor="start" x="208" y="-114" font-family="Helvetica,sans-Serif" font-size="10.00">App\Services\MediaThumbnail</text>
<text text-anchor="middle" x="282" y="-103" font-family="Helvetica,sans-Serif" font-size="10.00">Service\calculateTimecode</text>
</a>
</g>
</g>
<!-- Node1&#45;&gt;Node3 -->
<g id="edge2_Node000001_Node000003" class="edge">
<title>Node1&#45;&gt;Node3</title>
<g id="a_edge2_Node000001_Node000003"><a xlink:title=" ">
<path fill="none" stroke="#63b8ff" d="M164.11,-96.83C172.55,-97.85 181.17,-98.9 189.72,-99.94"/>
<polygon fill="#63b8ff" stroke="#63b8ff" points="189.35,-103.42 199.7,-101.15 190.19,-96.47 189.35,-103.42"/>
</a>
</g>
</g>
<!-- Node4 -->
<g id="Node000004" class="node">
<title>Node4</title>
<g id="a_Node000004"><a xlink:href="classApp_1_1Services_1_1MediaThumbnailService.html#af62155d768584b3f7493f83176bd4e07" target="_top" xlink:title=" ">
<polygon fill="white" stroke="#666666" points="364,-78 200,-78 200,-48 364,-48 364,-78"/>
<text text-anchor="start" x="208" y="-66" font-family="Helvetica,sans-Serif" font-size="10.00">App\Services\MediaThumbnail</text>
<text text-anchor="middle" x="282" y="-55" font-family="Helvetica,sans-Serif" font-size="10.00">Service\executeFfmpeg</text>
</a>
</g>
</g>
<!-- Node1&#45;&gt;Node4 -->
<g id="edge3_Node000001_Node000004" class="edge">
<title>Node1&#45;&gt;Node4</title>
<g id="a_edge3_Node000001_Node000004"><a xlink:title=" ">
<path fill="none" stroke="#63b8ff" d="M164.11,-77.17C172.55,-76.15 181.17,-75.1 189.72,-74.06"/>
<polygon fill="#63b8ff" stroke="#63b8ff" points="190.19,-77.53 199.7,-72.85 189.35,-70.58 190.19,-77.53"/>
</a>
</g>
</g>
<!-- Node5 -->
<g id="Node000005" class="node">
<title>Node5</title>
<g id="a_Node000005"><a xlink:href="classApp_1_1Services_1_1MediaThumbnailService.html#ad2157721da4b3d3d35e66e557a541b0d" target="_top" xlink:title=" ">
<polygon fill="white" stroke="#666666" points="364,-30 200,-30 200,0 364,0 364,-30"/>
<text text-anchor="start" x="208" y="-18" font-family="Helvetica,sans-Serif" font-size="10.00">App\Services\MediaThumbnail</text>
<text text-anchor="middle" x="282" y="-7" font-family="Helvetica,sans-Serif" font-size="10.00">Service\getVideoDuration</text>
</a>
</g>
</g>
<!-- Node1&#45;&gt;Node5 -->
<g id="edge4_Node000001_Node000005" class="edge">
<title>Node1&#45;&gt;Node5</title>
<g id="a_edge4_Node000001_Node000005"><a xlink:title=" ">
<path fill="none" stroke="#63b8ff" d="M117.2,-71.9C140.35,-61.94 171.73,-48.96 200,-39 205.58,-37.03 211.42,-35.09 217.29,-33.21"/>
<polygon fill="#63b8ff" stroke="#63b8ff" points="218.67,-36.45 227.16,-30.12 216.57,-29.77 218.67,-36.45"/>
</a>
</g>
</g>
</g>
</svg>
