<?xml version="1.0" encoding="UTF-8" standalone="no"?>
<!DOCTYPE svg PUBLIC "-//W3C//DTD SVG 1.1//EN"
 "http://www.w3.org/Graphics/SVG/1.1/DTD/svg11.dtd">
<!-- Generated by graphviz version 2.42.4 (0)
 -->
<!-- Title: Tests\Unit\Services\MediaServiceTest Pages: 1 -->
<svg width="286pt" height="1070pt"
 viewBox="0.00 0.00 285.50 1070.00" xmlns="http://www.w3.org/2000/svg" xmlns:xlink="http://www.w3.org/1999/xlink">
<g id="graph0" class="graph" transform="scale(1 1) rotate(0) translate(4 1066)">
<title>Tests\Unit\Services\MediaServiceTest</title>
<!-- Node1 -->
<g id="Node000001" class="node">
<title>Node1</title>
<g id="a_Node000001"><a xlink:title=" ">
<polygon fill="#999999" stroke="transparent" points="204,-357 26,-357 26,0 204,0 204,-357"/>
<text text-anchor="start" x="68.5" y="-344.5" font-family="Helvetica,sans-Serif" font-size="10.00">Tests\Unit\Services</text>
<text text-anchor="start" x="70.5" y="-333.5" font-family="Helvetica,sans-Serif" font-size="10.00">\MediaServiceTest</text>
<text text-anchor="start" x="113" y="-318.5" font-family="Helvetica,sans-Serif" font-size="10.00"> </text>
<text text-anchor="start" x="30" y="-303.5" font-family="Helvetica,sans-Serif" font-size="10.00">+</text>
<text text-anchor="start" x="43" y="-303.5" font-family="Helvetica,sans-Serif" font-size="10.00">extractVideoTitle</text>
<text text-anchor="start" x="43" y="-292.5" font-family="Helvetica,sans-Serif" font-size="10.00">_extracts_title_from</text>
<text text-anchor="start" x="43" y="-281.5" font-family="Helvetica,sans-Serif" font-size="10.00">_standard_format()</text>
<text text-anchor="start" x="30" y="-266.5" font-family="Helvetica,sans-Serif" font-size="10.00">+</text>
<text text-anchor="start" x="43" y="-266.5" font-family="Helvetica,sans-Serif" font-size="10.00">extractVideoTitle</text>
<text text-anchor="start" x="43" y="-255.5" font-family="Helvetica,sans-Serif" font-size="10.00">_returns_filename_when</text>
<text text-anchor="start" x="43" y="-244.5" font-family="Helvetica,sans-Serif" font-size="10.00">_no_pattern_match()</text>
<text text-anchor="start" x="30" y="-229.5" font-family="Helvetica,sans-Serif" font-size="10.00">+</text>
<text text-anchor="start" x="43" y="-229.5" font-family="Helvetica,sans-Serif" font-size="10.00">extractFirstName_extracts</text>
<text text-anchor="start" x="43" y="-218.5" font-family="Helvetica,sans-Serif" font-size="10.00">_first_name_correctly()</text>
<text text-anchor="start" x="30" y="-203.5" font-family="Helvetica,sans-Serif" font-size="10.00">+</text>
<text text-anchor="start" x="43" y="-203.5" font-family="Helvetica,sans-Serif" font-size="10.00">extractLastName_extracts</text>
<text text-anchor="start" x="43" y="-192.5" font-family="Helvetica,sans-Serif" font-size="10.00">_last_name_correctly()</text>
<text text-anchor="start" x="30" y="-177.5" font-family="Helvetica,sans-Serif" font-size="10.00">+</text>
<text text-anchor="start" x="43" y="-177.5" font-family="Helvetica,sans-Serif" font-size="10.00">extractLastName_returns</text>
<text text-anchor="start" x="43" y="-166.5" font-family="Helvetica,sans-Serif" font-size="10.00">_full_name_when_single_word()</text>
<text text-anchor="start" x="30" y="-151.5" font-family="Helvetica,sans-Serif" font-size="10.00">+</text>
<text text-anchor="start" x="43" y="-151.5" font-family="Helvetica,sans-Serif" font-size="10.00">deleteMedia_deletes</text>
<text text-anchor="start" x="43" y="-140.5" font-family="Helvetica,sans-Serif" font-size="10.00">_media_and_participations()</text>
<text text-anchor="start" x="30" y="-125.5" font-family="Helvetica,sans-Serif" font-size="10.00">+</text>
<text text-anchor="start" x="43" y="-125.5" font-family="Helvetica,sans-Serif" font-size="10.00">deleteMedia_rolls</text>
<text text-anchor="start" x="43" y="-114.5" font-family="Helvetica,sans-Serif" font-size="10.00">_back_on_error()</text>
<text text-anchor="start" x="30" y="-99.5" font-family="Helvetica,sans-Serif" font-size="10.00">+</text>
<text text-anchor="start" x="43" y="-99.5" font-family="Helvetica,sans-Serif" font-size="10.00">assignRoles_creates</text>
<text text-anchor="start" x="43" y="-88.5" font-family="Helvetica,sans-Serif" font-size="10.00">_roles_and_participations()</text>
<text text-anchor="start" x="30" y="-73.5" font-family="Helvetica,sans-Serif" font-size="10.00">+</text>
<text text-anchor="start" x="43" y="-73.5" font-family="Helvetica,sans-Serif" font-size="10.00">assignRoles_updates</text>
<text text-anchor="start" x="43" y="-62.5" font-family="Helvetica,sans-Serif" font-size="10.00">_existing_participation()</text>
<text text-anchor="start" x="30" y="-47.5" font-family="Helvetica,sans-Serif" font-size="10.00">+</text>
<text text-anchor="start" x="43" y="-47.5" font-family="Helvetica,sans-Serif" font-size="10.00">searchMedia_finds</text>
<text text-anchor="start" x="43" y="-36.5" font-family="Helvetica,sans-Serif" font-size="10.00">_by_title()</text>
<text text-anchor="start" x="43" y="-21.5" font-family="Helvetica,sans-Serif" font-size="10.00">et 22 de plus...</text>
<text text-anchor="start" x="30" y="-6.5" font-family="Helvetica,sans-Serif" font-size="10.00">#</text>
<text text-anchor="start" x="43" y="-6.5" font-family="Helvetica,sans-Serif" font-size="10.00">setUp()</text>
<polygon fill="#666666" stroke="#666666" points="26,-328.5 26,-328.5 204,-328.5 204,-328.5 26,-328.5"/>
<polygon fill="#666666" stroke="#666666" points="26,-313.5 26,-313.5 204,-313.5 204,-313.5 26,-313.5"/>
<polygon fill="none" stroke="#666666" points="26,0 26,-357 204,-357 204,0 26,0"/>
</a>
</g>
</g>
<!-- Node2 -->
<g id="Node000002" class="node">
<title>Node2</title>
<g id="a_Node000002"><a xlink:href="classTests_1_1TestCase.html" target="_top" xlink:title=" ">
<polygon fill="white" stroke="transparent" points="82,-714.5 0,-714.5 0,-665.5 82,-665.5 82,-714.5"/>
<text text-anchor="start" x="5" y="-702" font-family="Helvetica,sans-Serif" font-size="10.00">Tests\TestCase</text>
<text text-anchor="start" x="39" y="-687" font-family="Helvetica,sans-Serif" font-size="10.00"> </text>
<text text-anchor="start" x="39" y="-672" font-family="Helvetica,sans-Serif" font-size="10.00"> </text>
<polygon fill="#666666" stroke="#666666" points="0,-697 0,-697 82,-697 82,-697 0,-697"/>
<polygon fill="#666666" stroke="#666666" points="0,-682 0,-682 82,-682 82,-682 0,-682"/>
<polygon fill="none" stroke="#666666" points="0,-665.5 0,-714.5 82,-714.5 82,-665.5 0,-665.5"/>
</a>
</g>
</g>
<!-- Node2&#45;&gt;Node1 -->
<g id="edge1_Node000001_Node000002" class="edge">
<title>Node2&#45;&gt;Node1</title>
<g id="a_edge1_Node000001_Node000002"><a xlink:title=" ">
<path fill="none" stroke="#63b8ff" d="M45.88,-655.41C54.59,-595.42 73.4,-465.92 89.2,-357.14"/>
<polygon fill="none" stroke="#63b8ff" points="42.39,-655.05 44.42,-665.45 49.32,-656.05 42.39,-655.05"/>
</a>
</g>
</g>
<!-- Node3 -->
<g id="Node000003" class="node">
<title>Node3</title>
<g id="a_Node000003"><a xlink:title=" ">
<polygon fill="white" stroke="transparent" points="80,-1062 2,-1062 2,-1013 80,-1013 80,-1062"/>
<text text-anchor="start" x="7" y="-1049.5" font-family="Helvetica,sans-Serif" font-size="10.00">BaseTestCase</text>
<text text-anchor="start" x="39" y="-1034.5" font-family="Helvetica,sans-Serif" font-size="10.00"> </text>
<text text-anchor="start" x="39" y="-1019.5" font-family="Helvetica,sans-Serif" font-size="10.00"> </text>
<polygon fill="#666666" stroke="#666666" points="2,-1044.5 2,-1044.5 80,-1044.5 80,-1044.5 2,-1044.5"/>
<polygon fill="#666666" stroke="#666666" points="2,-1029.5 2,-1029.5 80,-1029.5 80,-1029.5 2,-1029.5"/>
<polygon fill="none" stroke="#666666" points="2,-1013 2,-1062 80,-1062 80,-1013 2,-1013"/>
</a>
</g>
</g>
<!-- Node3&#45;&gt;Node2 -->
<g id="edge2_Node000002_Node000003" class="edge">
<title>Node3&#45;&gt;Node2</title>
<g id="a_edge2_Node000002_Node000003"><a xlink:title=" ">
<path fill="none" stroke="#63b8ff" d="M41,-1002.33C41,-932.5 41,-775.01 41,-714.91"/>
<polygon fill="none" stroke="#63b8ff" points="37.5,-1002.75 41,-1012.75 44.5,-1002.75 37.5,-1002.75"/>
</a>
</g>
</g>
<!-- Node4 -->
<g id="Node000004" class="node">
<title>Node4</title>
<g id="a_Node000004"><a xlink:href="classApp_1_1Services_1_1MediaService.html" target="_top" xlink:title="Media management service Contains all business logic for media operations.">
<polygon fill="white" stroke="transparent" points="277.5,-976 100.5,-976 100.5,-404 277.5,-404 277.5,-976"/>
<text text-anchor="start" x="123" y="-964" font-family="Helvetica,sans-Serif" font-size="10.00">App\Services\MediaService</text>
<text text-anchor="start" x="187.5" y="-949" font-family="Helvetica,sans-Serif" font-size="10.00"> </text>
<text text-anchor="start" x="105" y="-934" font-family="Helvetica,sans-Serif" font-size="10.00">+</text>
<text text-anchor="start" x="118" y="-934" font-family="Helvetica,sans-Serif" font-size="10.00">getMediaInfo(int </text>
<text text-anchor="start" x="118" y="-923" font-family="Helvetica,sans-Serif" font-size="10.00">$idMedia)</text>
<text text-anchor="start" x="105" y="-908" font-family="Helvetica,sans-Serif" font-size="10.00">+</text>
<text text-anchor="start" x="118" y="-908" font-family="Helvetica,sans-Serif" font-size="10.00">updateMetadata(int</text>
<text text-anchor="start" x="118" y="-897" font-family="Helvetica,sans-Serif" font-size="10.00"> $idMedia, string $profReferent,</text>
<text text-anchor="start" x="118" y="-886" font-family="Helvetica,sans-Serif" font-size="10.00"> ?string $promotion, ?string</text>
<text text-anchor="start" x="118" y="-875" font-family="Helvetica,sans-Serif" font-size="10.00"> $projet, ?string $description,</text>
<text text-anchor="start" x="118" y="-864" font-family="Helvetica,sans-Serif" font-size="10.00"> array $roles)</text>
<text text-anchor="start" x="105" y="-849" font-family="Helvetica,sans-Serif" font-size="10.00">+</text>
<text text-anchor="start" x="118" y="-849" font-family="Helvetica,sans-Serif" font-size="10.00">assignRoles(int $idMedia,</text>
<text text-anchor="start" x="118" y="-838" font-family="Helvetica,sans-Serif" font-size="10.00"> string $nomRole, array</text>
<text text-anchor="start" x="118" y="-827" font-family="Helvetica,sans-Serif" font-size="10.00"> $personnes)</text>
<text text-anchor="start" x="105" y="-812" font-family="Helvetica,sans-Serif" font-size="10.00">+</text>
<text text-anchor="start" x="118" y="-812" font-family="Helvetica,sans-Serif" font-size="10.00">deleteMedia(int $idMedia)</text>
<text text-anchor="start" x="105" y="-797" font-family="Helvetica,sans-Serif" font-size="10.00">+</text>
<text text-anchor="start" x="118" y="-797" font-family="Helvetica,sans-Serif" font-size="10.00">clearLocalFiles(int</text>
<text text-anchor="start" x="118" y="-786" font-family="Helvetica,sans-Serif" font-size="10.00"> $idMedia)</text>
<text text-anchor="start" x="105" y="-771" font-family="Helvetica,sans-Serif" font-size="10.00">+</text>
<text text-anchor="start" x="118" y="-771" font-family="Helvetica,sans-Serif" font-size="10.00">getRecentMedia(int</text>
<text text-anchor="start" x="118" y="-760" font-family="Helvetica,sans-Serif" font-size="10.00"> $limit=20)</text>
<text text-anchor="start" x="105" y="-745" font-family="Helvetica,sans-Serif" font-size="10.00">+</text>
<text text-anchor="start" x="118" y="-745" font-family="Helvetica,sans-Serif" font-size="10.00">searchMedia(array</text>
<text text-anchor="start" x="118" y="-734" font-family="Helvetica,sans-Serif" font-size="10.00"> $filtres)</text>
<text text-anchor="start" x="105" y="-719" font-family="Helvetica,sans-Serif" font-size="10.00">+</text>
<text text-anchor="start" x="118" y="-719" font-family="Helvetica,sans-Serif" font-size="10.00">getTechnicalMetadata</text>
<text text-anchor="start" x="118" y="-708" font-family="Helvetica,sans-Serif" font-size="10.00">(Media $media)</text>
<text text-anchor="start" x="105" y="-693" font-family="Helvetica,sans-Serif" font-size="10.00">+</text>
<text text-anchor="start" x="118" y="-693" font-family="Helvetica,sans-Serif" font-size="10.00">syncLocalPath(string</text>
<text text-anchor="start" x="118" y="-682" font-family="Helvetica,sans-Serif" font-size="10.00"> $path)</text>
<text text-anchor="start" x="107.5" y="-667" font-family="Helvetica,sans-Serif" font-size="10.00">&#45;</text>
<text text-anchor="start" x="118" y="-667" font-family="Helvetica,sans-Serif" font-size="10.00">findOrCreateProfessor</text>
<text text-anchor="start" x="118" y="-656" font-family="Helvetica,sans-Serif" font-size="10.00">(string $fullName)</text>
<text text-anchor="start" x="107.5" y="-641" font-family="Helvetica,sans-Serif" font-size="10.00">&#45;</text>
<text text-anchor="start" x="118" y="-641" font-family="Helvetica,sans-Serif" font-size="10.00">findOrCreateProject</text>
<text text-anchor="start" x="118" y="-630" font-family="Helvetica,sans-Serif" font-size="10.00">(string $libelle)</text>
<text text-anchor="start" x="107.5" y="-615" font-family="Helvetica,sans-Serif" font-size="10.00">&#45;</text>
<text text-anchor="start" x="118" y="-615" font-family="Helvetica,sans-Serif" font-size="10.00">updateParticipations</text>
<text text-anchor="start" x="118" y="-604" font-family="Helvetica,sans-Serif" font-size="10.00">(int $idMedia, array</text>
<text text-anchor="start" x="118" y="-593" font-family="Helvetica,sans-Serif" font-size="10.00"> $roles)</text>
<text text-anchor="start" x="107.5" y="-578" font-family="Helvetica,sans-Serif" font-size="10.00">&#45;</text>
<text text-anchor="start" x="118" y="-578" font-family="Helvetica,sans-Serif" font-size="10.00">formatParticipations</text>
<text text-anchor="start" x="118" y="-567" font-family="Helvetica,sans-Serif" font-size="10.00">($participations)</text>
<text text-anchor="start" x="107.5" y="-552" font-family="Helvetica,sans-Serif" font-size="10.00">&#45;</text>
<text text-anchor="start" x="118" y="-552" font-family="Helvetica,sans-Serif" font-size="10.00">extractVideoTitle</text>
<text text-anchor="start" x="118" y="-541" font-family="Helvetica,sans-Serif" font-size="10.00">(string $filename)</text>
<text text-anchor="start" x="107.5" y="-526" font-family="Helvetica,sans-Serif" font-size="10.00">&#45;</text>
<text text-anchor="start" x="118" y="-526" font-family="Helvetica,sans-Serif" font-size="10.00">extractLastName(string</text>
<text text-anchor="start" x="118" y="-515" font-family="Helvetica,sans-Serif" font-size="10.00"> $fullName)</text>
<text text-anchor="start" x="107.5" y="-500" font-family="Helvetica,sans-Serif" font-size="10.00">&#45;</text>
<text text-anchor="start" x="118" y="-500" font-family="Helvetica,sans-Serif" font-size="10.00">extractFirstName(string</text>
<text text-anchor="start" x="118" y="-489" font-family="Helvetica,sans-Serif" font-size="10.00"> $fullName)</text>
<text text-anchor="start" x="107.5" y="-474" font-family="Helvetica,sans-Serif" font-size="10.00">&#45;</text>
<text text-anchor="start" x="118" y="-474" font-family="Helvetica,sans-Serif" font-size="10.00">formatFileSize(int</text>
<text text-anchor="start" x="118" y="-463" font-family="Helvetica,sans-Serif" font-size="10.00"> $bytes)</text>
<text text-anchor="start" x="107.5" y="-448" font-family="Helvetica,sans-Serif" font-size="10.00">&#45;</text>
<text text-anchor="start" x="118" y="-448" font-family="Helvetica,sans-Serif" font-size="10.00">extractMetadataFromFile</text>
<text text-anchor="start" x="118" y="-437" font-family="Helvetica,sans-Serif" font-size="10.00">(string $filePath)</text>
<text text-anchor="start" x="107.5" y="-422" font-family="Helvetica,sans-Serif" font-size="10.00">&#45;</text>
<text text-anchor="start" x="118" y="-422" font-family="Helvetica,sans-Serif" font-size="10.00">sanitizeForDisplay</text>
<text text-anchor="start" x="118" y="-411" font-family="Helvetica,sans-Serif" font-size="10.00">(?string $value)</text>
<polygon fill="#666666" stroke="#666666" points="101,-959 101,-959 278,-959 278,-959 101,-959"/>
<polygon fill="#666666" stroke="#666666" points="101,-944 101,-944 278,-944 278,-944 101,-944"/>
<polygon fill="none" stroke="#666666" points="100.5,-404 100.5,-976 277.5,-976 277.5,-404 100.5,-404"/>
</a>
</g>
</g>
<!-- Node4&#45;&gt;Node1 -->
<g id="edge3_Node000001_Node000004" class="edge">
<title>Node4&#45;&gt;Node1</title>
<g id="a_edge3_Node000001_Node000004"><a xlink:title=" ">
<path fill="none" stroke="#63b8ff" d="M147.57,-403.72C145.88,-392.11 144.21,-380.59 142.56,-369.25"/>
<polygon fill="none" stroke="#63b8ff" points="142.51,-368.91 137.69,-363.54 140.78,-357.03 145.61,-362.39 142.51,-368.91"/>
</a>
</g>
<text text-anchor="middle" x="171.5" y="-378" font-family="Helvetica,sans-Serif" font-size="10.00" fill="grey"> #$service</text>
</g>
</g>
</svg>
