<?xml version="1.0" encoding="UTF-8" standalone="no"?>
<!DOCTYPE svg PUBLIC "-//W3C//DTD SVG 1.1//EN"
 "http://www.w3.org/Graphics/SVG/1.1/DTD/svg11.dtd">
<!-- Generated by graphviz version 2.42.4 (0)
 -->
<!-- Title: App\View\Components\GuestLayout Pages: 1 -->
<svg width="129pt" height="153pt"
 viewBox="0.00 0.00 129.00 153.00" xmlns="http://www.w3.org/2000/svg" xmlns:xlink="http://www.w3.org/1999/xlink">
<g id="graph0" class="graph" transform="scale(1 1) rotate(0) translate(4 149)">
<title>App\View\Components\GuestLayout</title>
<!-- Node1 -->
<g id="Node000001" class="node">
<title>Node1</title>
<g id="a_Node000001"><a xlink:title=" ">
<polygon fill="#999999" stroke="transparent" points="121,-60 0,-60 0,0 121,0 121,-60"/>
<text text-anchor="start" x="5.5" y="-48" font-family="Helvetica,sans-Serif" font-size="10.00">App\View\Components</text>
<text text-anchor="start" x="28.5" y="-37" font-family="Helvetica,sans-Serif" font-size="10.00">\GuestLayout</text>
<text text-anchor="start" x="59" y="-22" font-family="Helvetica,sans-Serif" font-size="10.00"> </text>
<text text-anchor="start" x="19.5" y="-7" font-family="Helvetica,sans-Serif" font-size="10.00">+</text>
<text text-anchor="start" x="47.5" y="-7" font-family="Helvetica,sans-Serif" font-size="10.00">render()</text>
<polygon fill="#666666" stroke="#666666" points="0.5,-32 0.5,-32 121.5,-32 121.5,-32 0.5,-32"/>
<polygon fill="#666666" stroke="#666666" points="0.5,-17 0.5,-17 121.5,-17 121.5,-17 0.5,-17"/>
<polygon fill="none" stroke="#666666" points="0,0 0,-60 121,-60 121,0 0,0"/>
</a>
</g>
</g>
<!-- Node2 -->
<g id="Node000002" class="node">
<title>Node2</title>
<g id="a_Node000002"><a xlink:title=" ">
<polygon fill="white" stroke="transparent" points="94,-145 27,-145 27,-96 94,-96 94,-145"/>
<text text-anchor="start" x="32.5" y="-132.5" font-family="Helvetica,sans-Serif" font-size="10.00">Component</text>
<text text-anchor="start" x="59" y="-117.5" font-family="Helvetica,sans-Serif" font-size="10.00"> </text>
<text text-anchor="start" x="59" y="-102.5" font-family="Helvetica,sans-Serif" font-size="10.00"> </text>
<polygon fill="#666666" stroke="#666666" points="27.5,-127.5 27.5,-127.5 94.5,-127.5 94.5,-127.5 27.5,-127.5"/>
<polygon fill="#666666" stroke="#666666" points="27.5,-112.5 27.5,-112.5 94.5,-112.5 94.5,-112.5 27.5,-112.5"/>
<polygon fill="none" stroke="#666666" points="27,-96 27,-145 94,-145 94,-96 27,-96"/>
</a>
</g>
</g>
<!-- Node2&#45;&gt;Node1 -->
<g id="edge1_Node000001_Node000002" class="edge">
<title>Node2&#45;&gt;Node1</title>
<g id="a_edge1_Node000001_Node000002"><a xlink:title=" ">
<path fill="none" stroke="#63b8ff" d="M60.5,-85.55C60.5,-77.18 60.5,-68.28 60.5,-60.16"/>
<polygon fill="none" stroke="#63b8ff" points="57,-85.78 60.5,-95.78 64,-85.78 57,-85.78"/>
</a>
</g>
</g>
</g>
</svg>
