<?xml version="1.0" encoding="UTF-8" standalone="no"?>
<!DOCTYPE svg PUBLIC "-//W3C//DTD SVG 1.1//EN"
 "http://www.w3.org/Graphics/SVG/1.1/DTD/svg11.dtd">
<!-- Generated by graphviz version 2.42.4 (0)
 -->
<!-- Title: App\Http\Controllers\AdminController\saveBackupSettings Pages: 1 -->
<svg width="376pt" height="98pt"
 viewBox="0.00 0.00 376.00 97.50" xmlns="http://www.w3.org/2000/svg" xmlns:xlink="http://www.w3.org/1999/xlink">
<g id="graph0" class="graph" transform="scale(1 1) rotate(0) translate(4 93.5)">
<title>App\Http\Controllers\AdminController\saveBackupSettings</title>
<!-- Node1 -->
<g id="Node000001" class="node">
<title>Node1</title>
<g id="a_Node000001"><a xlink:title=" ">
<polygon fill="#999999" stroke="#666666" points="161,-62.5 0,-62.5 0,-21.5 161,-21.5 161,-62.5"/>
<text text-anchor="start" x="8" y="-50.5" font-family="Helvetica,sans-Serif" font-size="10.00">App\Http\Controllers</text>
<text text-anchor="start" x="8" y="-39.5" font-family="Helvetica,sans-Serif" font-size="10.00">\AdminController\saveBackup</text>
<text text-anchor="middle" x="80.5" y="-28.5" font-family="Helvetica,sans-Serif" font-size="10.00">Settings</text>
</a>
</g>
</g>
<!-- Node2 -->
<g id="Node000002" class="node">
<title>Node2</title>
<g id="a_Node000002"><a xlink:href="classApp_1_1Http_1_1Controllers_1_1AdminController.html#ad730b5c6ea161056a400d2da532bc5c7" target="_top" xlink:title="Vérifie que l&#39;utilisateur a accès à l&#39;admin.">
<polygon fill="white" stroke="#666666" points="363.5,-89.5 201.5,-89.5 201.5,-48.5 363.5,-48.5 363.5,-89.5"/>
<text text-anchor="start" x="209.5" y="-77.5" font-family="Helvetica,sans-Serif" font-size="10.00">App\Http\Controllers</text>
<text text-anchor="start" x="209.5" y="-66.5" font-family="Helvetica,sans-Serif" font-size="10.00">\AdminController\checkAdmin</text>
<text text-anchor="middle" x="282.5" y="-55.5" font-family="Helvetica,sans-Serif" font-size="10.00">Access</text>
</a>
</g>
</g>
<!-- Node1&#45;&gt;Node2 -->
<g id="edge1_Node000001_Node000002" class="edge">
<title>Node1&#45;&gt;Node2</title>
<g id="a_edge1_Node000001_Node000002"><a xlink:title=" ">
<path fill="none" stroke="#63b8ff" d="M161.12,-52.75C171.01,-54.08 181.17,-55.46 191.2,-56.81"/>
<polygon fill="#63b8ff" stroke="#63b8ff" points="190.79,-60.29 201.17,-58.16 191.73,-53.35 190.79,-60.29"/>
</a>
</g>
</g>
<!-- Node3 -->
<g id="Node000003" class="node">
<title>Node3</title>
<g id="a_Node000003"><a xlink:href="classApp_1_1Http_1_1Controllers_1_1AdminController.html#a7952b5ffe43638e3515737d54d7deeef" target="_top" xlink:title="HELPER: UPDATE .ENV FILE.">
<polygon fill="white" stroke="#666666" points="368,-30 197,-30 197,0 368,0 368,-30"/>
<text text-anchor="start" x="205" y="-18" font-family="Helvetica,sans-Serif" font-size="10.00">App\Http\Controllers</text>
<text text-anchor="middle" x="282.5" y="-7" font-family="Helvetica,sans-Serif" font-size="10.00">\AdminController\updateEnvFile</text>
</a>
</g>
</g>
<!-- Node1&#45;&gt;Node3 -->
<g id="edge2_Node000001_Node000003" class="edge">
<title>Node1&#45;&gt;Node3</title>
<g id="a_edge2_Node000001_Node000003"><a xlink:title=" ">
<path fill="none" stroke="#63b8ff" d="M161.12,-31.25C169.58,-30.11 178.23,-28.94 186.84,-27.78"/>
<polygon fill="#63b8ff" stroke="#63b8ff" points="187.46,-31.23 196.9,-26.42 186.53,-24.29 187.46,-31.23"/>
</a>
</g>
</g>
</g>
</svg>
