<?xml version="1.0" encoding="UTF-8" standalone="no"?>
<!DOCTYPE svg PUBLIC "-//W3C//DTD SVG 1.1//EN"
 "http://www.w3.org/Graphics/SVG/1.1/DTD/svg11.dtd">
<!-- Generated by graphviz version 2.42.4 (0)
 -->
<!-- Title: Graphe hiérarchique des classes Pages: 1 -->
<svg width="313pt" height="101pt"
 viewBox="0.00 0.00 313.00 101.00" xmlns="http://www.w3.org/2000/svg" xmlns:xlink="http://www.w3.org/1999/xlink">
<g id="graph0" class="graph" transform="scale(1 1) rotate(0) translate(4 97)">
<title>Graphe hiérarchique des classes</title>
<!-- Node0 -->
<g id="Node000000" class="node">
<title>Node0</title>
<g id="a_Node000000"><a xlink:title=" ">
<polygon fill="#e0e0e0" stroke="#999999" points="81,-56 0,-56 0,-37 81,-37 81,-56"/>
<text text-anchor="middle" x="40.5" y="-44" font-family="Helvetica,sans-Serif" font-size="10.00">ShouldQueue</text>
</a>
</g>
</g>
<!-- Node1 -->
<g id="Node000001" class="node">
<title>Node1</title>
<g id="a_Node000001"><a xlink:href="classApp_1_1Jobs_1_1GenerateMediaThumbnail.html" target="_top" xlink:title=" ">
<polygon fill="white" stroke="#666666" points="305,-93 117,-93 117,-74 305,-74 305,-93"/>
<text text-anchor="middle" x="211" y="-81" font-family="Helvetica,sans-Serif" font-size="10.00">App\Jobs\GenerateMediaThumbnail</text>
</a>
</g>
</g>
<!-- Node0&#45;&gt;Node1 -->
<g id="edge58_Node000000_Node000001" class="edge">
<title>Node0&#45;&gt;Node1</title>
<g id="a_edge58_Node000000_Node000001"><a xlink:title=" ">
<path fill="none" stroke="#63b8ff" d="M87.72,-58.56C97.37,-60.96 107.5,-63.39 117,-65.5 130.16,-68.43 144.44,-71.33 157.76,-73.92"/>
<polygon fill="#63b8ff" stroke="#63b8ff" points="88.44,-55.13 77.88,-56.09 86.73,-61.92 88.44,-55.13"/>
</a>
</g>
</g>
<!-- Node2 -->
<g id="Node000002" class="node">
<title>Node2</title>
<g id="a_Node000002"><a xlink:href="classApp_1_1Jobs_1_1ScanDiskJob.html" target="_top" xlink:title=" ">
<polygon fill="white" stroke="#666666" points="272,-56 150,-56 150,-37 272,-37 272,-56"/>
<text text-anchor="middle" x="211" y="-44" font-family="Helvetica,sans-Serif" font-size="10.00">App\Jobs\ScanDiskJob</text>
</a>
</g>
</g>
<!-- Node0&#45;&gt;Node2 -->
<g id="edge59_Node000000_Node000002" class="edge">
<title>Node0&#45;&gt;Node2</title>
<g id="a_edge59_Node000000_Node000002"><a xlink:title=" ">
<path fill="none" stroke="#63b8ff" d="M91.22,-46.5C109.64,-46.5 130.71,-46.5 149.95,-46.5"/>
<polygon fill="#63b8ff" stroke="#63b8ff" points="91.01,-43 81.01,-46.5 91.01,-50 91.01,-43"/>
</a>
</g>
</g>
<!-- Node3 -->
<g id="Node000003" class="node">
<title>Node3</title>
<g id="a_Node000003"><a xlink:href="classApp_1_1Jobs_1_1SyncMediaFromDiskJob.html" target="_top" xlink:title=" ">
<polygon fill="white" stroke="#666666" points="299,-19 123,-19 123,0 299,0 299,-19"/>
<text text-anchor="middle" x="211" y="-7" font-family="Helvetica,sans-Serif" font-size="10.00">App\Jobs\SyncMediaFromDiskJob</text>
</a>
</g>
</g>
<!-- Node0&#45;&gt;Node3 -->
<g id="edge60_Node000000_Node000003" class="edge">
<title>Node0&#45;&gt;Node3</title>
<g id="a_edge60_Node000000_Node000003"><a xlink:title=" ">
<path fill="none" stroke="#63b8ff" d="M90.43,-34.59C99.26,-32.51 108.4,-30.4 117,-28.5 131.48,-25.3 147.27,-22 161.67,-19.06"/>
<polygon fill="#63b8ff" stroke="#63b8ff" points="89.55,-31.2 80.63,-36.92 91.17,-38.01 89.55,-31.2"/>
</a>
</g>
</g>
</g>
</svg>
