<?xml version="1.0" encoding="UTF-8" standalone="no"?>
<!DOCTYPE svg PUBLIC "-//W3C//DTD SVG 1.1//EN"
 "http://www.w3.org/Graphics/SVG/1.1/DTD/svg11.dtd">
<!-- Generated by graphviz version 2.42.4 (0)
 -->
<!-- Title: Graphe hiérarchique des classes Pages: 1 -->
<svg width="228pt" height="212pt"
 viewBox="0.00 0.00 228.00 212.00" xmlns="http://www.w3.org/2000/svg" xmlns:xlink="http://www.w3.org/1999/xlink">
<g id="graph0" class="graph" transform="scale(1 1) rotate(0) translate(4 208)">
<title>Graphe hiérarchique des classes</title>
<!-- Node0 -->
<g id="Node000000" class="node">
<title>Node0</title>
<g id="a_Node000000"><a xlink:title=" ">
<polygon fill="#e0e0e0" stroke="#999999" points="47,-111 0,-111 0,-92 47,-92 47,-111"/>
<text text-anchor="middle" x="23.5" y="-99" font-family="Helvetica,sans-Serif" font-size="10.00">Model</text>
</a>
</g>
</g>
<!-- Node1 -->
<g id="Node000001" class="node">
<title>Node1</title>
<g id="a_Node000001"><a xlink:href="classApp_1_1Models_1_1Eleve.html" target="_top" xlink:title=" ">
<polygon fill="white" stroke="#666666" points="203.5,-204 99.5,-204 99.5,-185 203.5,-185 203.5,-204"/>
<text text-anchor="middle" x="151.5" y="-192" font-family="Helvetica,sans-Serif" font-size="10.00">App\Models\Eleve</text>
</a>
</g>
</g>
<!-- Node0&#45;&gt;Node1 -->
<g id="edge44_Node000000_Node000001" class="edge">
<title>Node0&#45;&gt;Node1</title>
<g id="a_edge44_Node000000_Node000001"><a xlink:title=" ">
<path fill="none" stroke="#63b8ff" d="M34.41,-120.28C44.42,-137.44 61.47,-162.26 83,-176.5 88.16,-179.91 93.94,-182.68 99.89,-184.92"/>
<polygon fill="#63b8ff" stroke="#63b8ff" points="37.27,-118.23 29.35,-111.2 31.16,-121.63 37.27,-118.23"/>
</a>
</g>
</g>
<!-- Node2 -->
<g id="Node000002" class="node">
<title>Node2</title>
<g id="a_Node000002"><a xlink:href="classApp_1_1Models_1_1Media.html" target="_top" xlink:title=" ">
<polygon fill="white" stroke="#666666" points="205,-167 98,-167 98,-148 205,-148 205,-167"/>
<text text-anchor="middle" x="151.5" y="-155" font-family="Helvetica,sans-Serif" font-size="10.00">App\Models\Media</text>
</a>
</g>
</g>
<!-- Node0&#45;&gt;Node2 -->
<g id="edge45_Node000000_Node000002" class="edge">
<title>Node0&#45;&gt;Node2</title>
<g id="a_edge45_Node000000_Node000002"><a xlink:title=" ">
<path fill="none" stroke="#63b8ff" d="M45.16,-117.22C55.96,-124.83 69.69,-133.58 83,-139.5 90.43,-142.8 98.59,-145.61 106.59,-147.95"/>
<polygon fill="#63b8ff" stroke="#63b8ff" points="46.99,-114.23 36.84,-111.18 42.88,-119.89 46.99,-114.23"/>
</a>
</g>
</g>
<!-- Node3 -->
<g id="Node000003" class="node">
<title>Node3</title>
<g id="a_Node000003"><a xlink:href="classApp_1_1Models_1_1Participation.html" target="_top" xlink:title=" ">
<polygon fill="white" stroke="#666666" points="220,-130 83,-130 83,-111 220,-111 220,-130"/>
<text text-anchor="middle" x="151.5" y="-118" font-family="Helvetica,sans-Serif" font-size="10.00">App\Models\Participation</text>
</a>
</g>
</g>
<!-- Node0&#45;&gt;Node3 -->
<g id="edge46_Node000000_Node000003" class="edge">
<title>Node0&#45;&gt;Node3</title>
<g id="a_edge46_Node000000_Node000003"><a xlink:title=" ">
<path fill="none" stroke="#63b8ff" d="M57,-106.4C66.33,-107.81 76.84,-109.39 87.35,-110.98"/>
<polygon fill="#63b8ff" stroke="#63b8ff" points="57.44,-102.93 47.03,-104.9 56.39,-109.85 57.44,-102.93"/>
</a>
</g>
</g>
<!-- Node4 -->
<g id="Node000004" class="node">
<title>Node4</title>
<g id="a_Node000004"><a xlink:href="classApp_1_1Models_1_1Professeur.html" target="_top" xlink:title=" ">
<polygon fill="white" stroke="#666666" points="215.5,-93 87.5,-93 87.5,-74 215.5,-74 215.5,-93"/>
<text text-anchor="middle" x="151.5" y="-81" font-family="Helvetica,sans-Serif" font-size="10.00">App\Models\Professeur</text>
</a>
</g>
</g>
<!-- Node0&#45;&gt;Node4 -->
<g id="edge47_Node000000_Node000004" class="edge">
<title>Node0&#45;&gt;Node4</title>
<g id="a_edge47_Node000000_Node000004"><a xlink:title=" ">
<path fill="none" stroke="#63b8ff" d="M57,-96.86C66.33,-95.52 76.84,-94.02 87.35,-92.52"/>
<polygon fill="#63b8ff" stroke="#63b8ff" points="56.43,-93.4 47.03,-98.28 57.42,-100.33 56.43,-93.4"/>
</a>
</g>
</g>
<!-- Node5 -->
<g id="Node000005" class="node">
<title>Node5</title>
<g id="a_Node000005"><a xlink:href="classApp_1_1Models_1_1Projet.html" target="_top" xlink:title=" ">
<polygon fill="white" stroke="#666666" points="204,-56 99,-56 99,-37 204,-37 204,-56"/>
<text text-anchor="middle" x="151.5" y="-44" font-family="Helvetica,sans-Serif" font-size="10.00">App\Models\Projet</text>
</a>
</g>
</g>
<!-- Node0&#45;&gt;Node5 -->
<g id="edge48_Node000000_Node000005" class="edge">
<title>Node0&#45;&gt;Node5</title>
<g id="a_edge48_Node000000_Node000005"><a xlink:title=" ">
<path fill="none" stroke="#63b8ff" d="M46.16,-86.17C56.86,-79.13 70.2,-71.11 83,-65.5 91.36,-61.84 100.62,-58.69 109.53,-56.07"/>
<polygon fill="#63b8ff" stroke="#63b8ff" points="44.18,-83.29 37.86,-91.79 48.1,-89.08 44.18,-83.29"/>
</a>
</g>
</g>
<!-- Node6 -->
<g id="Node000006" class="node">
<title>Node6</title>
<g id="a_Node000006"><a xlink:href="classApp_1_1Models_1_1Role.html" target="_top" xlink:title=" ">
<polygon fill="white" stroke="#666666" points="200.5,-19 102.5,-19 102.5,0 200.5,0 200.5,-19"/>
<text text-anchor="middle" x="151.5" y="-7" font-family="Helvetica,sans-Serif" font-size="10.00">App\Models\Role</text>
</a>
</g>
</g>
<!-- Node0&#45;&gt;Node6 -->
<g id="edge49_Node000000_Node000006" class="edge">
<title>Node0&#45;&gt;Node6</title>
<g id="a_edge49_Node000000_Node000006"><a xlink:title=" ">
<path fill="none" stroke="#63b8ff" d="M34.74,-83.02C44.89,-66.38 61.94,-42.44 83,-28.5 88.89,-24.6 95.57,-21.5 102.39,-19.02"/>
<polygon fill="#63b8ff" stroke="#63b8ff" points="31.6,-81.45 29.58,-91.85 37.65,-84.98 31.6,-81.45"/>
</a>
</g>
</g>
</g>
</svg>
