<?xml version="1.0" encoding="UTF-8" standalone="no"?>
<!DOCTYPE svg PUBLIC "-//W3C//DTD SVG 1.1//EN"
 "http://www.w3.org/Graphics/SVG/1.1/DTD/svg11.dtd">
<!-- Generated by graphviz version 2.42.4 (0)
 -->
<!-- Title: Graphe hiérarchique des classes Pages: 1 -->
<svg width="226pt" height="326pt"
 viewBox="0.00 0.00 226.00 326.00" xmlns="http://www.w3.org/2000/svg" xmlns:xlink="http://www.w3.org/1999/xlink">
<g id="graph0" class="graph" transform="scale(1 1) rotate(0) translate(4 322)">
<title>Graphe hiérarchique des classes</title>
<!-- Node0 -->
<g id="Node000000" class="node">
<title>Node0</title>
<g id="a_Node000000"><a xlink:title=" ">
<polygon fill="#e0e0e0" stroke="#999999" points="66,-312.5 0,-312.5 0,-293.5 66,-293.5 66,-312.5"/>
<text text-anchor="middle" x="33" y="-300.5" font-family="Helvetica,sans-Serif" font-size="10.00">Illuminate</text>
</a>
</g>
</g>
<!-- Node1 -->
<g id="Node000001" class="node">
<title>Node1</title>
<g id="a_Node000001"><a xlink:href="classDatabase_1_1Factories_1_1UserFactory.html" target="_top" xlink:title="\Databaseloquent\Factories\Factory&lt;\App\Models\User&gt;">
<polygon fill="white" stroke="#666666" points="215,-318 105,-318 105,-288 215,-288 215,-318"/>
<text text-anchor="start" x="113" y="-306" font-family="Helvetica,sans-Serif" font-size="10.00">Database\Factories</text>
<text text-anchor="middle" x="160" y="-295" font-family="Helvetica,sans-Serif" font-size="10.00">\UserFactory</text>
</a>
</g>
</g>
<!-- Node0&#45;&gt;Node1 -->
<g id="edge36_Node000000_Node000001" class="edge">
<title>Node0&#45;&gt;Node1</title>
<g id="a_edge36_Node000000_Node000001"><a xlink:title=" ">
<path fill="none" stroke="#63b8ff" d="M76.47,-303C85.52,-303 95.19,-303 104.61,-303"/>
<polygon fill="#63b8ff" stroke="#63b8ff" points="76.19,-299.5 66.19,-303 76.19,-306.5 76.19,-299.5"/>
</a>
</g>
</g>
<!-- Node2 -->
<g id="Node000002" class="node">
<title>Node2</title>
<g id="a_Node000002"><a xlink:title=" ">
<polygon fill="#e0e0e0" stroke="#999999" points="59,-168.5 7,-168.5 7,-149.5 59,-149.5 59,-168.5"/>
<text text-anchor="middle" x="33" y="-156.5" font-family="Helvetica,sans-Serif" font-size="10.00">Factory</text>
</a>
</g>
</g>
<!-- Node2&#45;&gt;Node1 -->
<g id="edge43_Node000002_Node000001" class="edge">
<title>Node2&#45;&gt;Node1</title>
<g id="a_edge43_Node000002_Node000001"><a xlink:title=" ">
<path fill="none" stroke="#63b8ff" d="M40.44,-178.33C50.02,-204.43 70.39,-250.89 102,-279 105.85,-282.42 110.26,-285.41 114.89,-288"/>
<polygon fill="#63b8ff" stroke="#63b8ff" points="43.71,-177.08 37.09,-168.81 37.1,-179.4 43.71,-177.08"/>
</a>
</g>
</g>
<!-- Node3 -->
<g id="Node000003" class="node">
<title>Node3</title>
<g id="a_Node000003"><a xlink:href="classDatabase_1_1Factories_1_1EleveFactory.html" target="_top" xlink:title=" ">
<polygon fill="white" stroke="#666666" points="215,-270 105,-270 105,-240 215,-240 215,-270"/>
<text text-anchor="start" x="113" y="-258" font-family="Helvetica,sans-Serif" font-size="10.00">Database\Factories</text>
<text text-anchor="middle" x="160" y="-247" font-family="Helvetica,sans-Serif" font-size="10.00">\EleveFactory</text>
</a>
</g>
</g>
<!-- Node2&#45;&gt;Node3 -->
<g id="edge37_Node000002_Node000003" class="edge">
<title>Node2&#45;&gt;Node3</title>
<g id="a_edge37_Node000002_Node000003"><a xlink:title=" ">
<path fill="none" stroke="#63b8ff" d="M47.11,-176.61C59.72,-192.55 80.06,-215.79 102,-231 106.76,-234.3 112.06,-237.28 117.44,-239.92"/>
<polygon fill="#63b8ff" stroke="#63b8ff" points="49.82,-174.39 40.94,-168.6 44.28,-178.66 49.82,-174.39"/>
</a>
</g>
</g>
<!-- Node4 -->
<g id="Node000004" class="node">
<title>Node4</title>
<g id="a_Node000004"><a xlink:href="classDatabase_1_1Factories_1_1MediaFactory.html" target="_top" xlink:title=" ">
<polygon fill="white" stroke="#666666" points="215,-222 105,-222 105,-192 215,-192 215,-222"/>
<text text-anchor="start" x="113" y="-210" font-family="Helvetica,sans-Serif" font-size="10.00">Database\Factories</text>
<text text-anchor="middle" x="160" y="-199" font-family="Helvetica,sans-Serif" font-size="10.00">\MediaFactory</text>
</a>
</g>
</g>
<!-- Node2&#45;&gt;Node4 -->
<g id="edge38_Node000002_Node000004" class="edge">
<title>Node2&#45;&gt;Node4</title>
<g id="a_edge38_Node000002_Node000004"><a xlink:title=" ">
<path fill="none" stroke="#63b8ff" d="M68.45,-172.23C84.36,-178.34 103.32,-185.62 119.77,-191.94"/>
<polygon fill="#63b8ff" stroke="#63b8ff" points="69.59,-168.92 59,-168.6 67.08,-175.45 69.59,-168.92"/>
</a>
</g>
</g>
<!-- Node5 -->
<g id="Node000005" class="node">
<title>Node5</title>
<g id="a_Node000005"><a xlink:href="classDatabase_1_1Factories_1_1ParticipationFactory.html" target="_top" xlink:title=" ">
<polygon fill="white" stroke="#666666" points="218,-174 102,-174 102,-144 218,-144 218,-174"/>
<text text-anchor="start" x="110" y="-162" font-family="Helvetica,sans-Serif" font-size="10.00">Database\Factories</text>
<text text-anchor="middle" x="160" y="-151" font-family="Helvetica,sans-Serif" font-size="10.00">\ParticipationFactory</text>
</a>
</g>
</g>
<!-- Node2&#45;&gt;Node5 -->
<g id="edge39_Node000002_Node000005" class="edge">
<title>Node2&#45;&gt;Node5</title>
<g id="a_edge39_Node000002_Node000005"><a xlink:title=" ">
<path fill="none" stroke="#63b8ff" d="M69.39,-159C79.54,-159 90.88,-159 101.98,-159"/>
<polygon fill="#63b8ff" stroke="#63b8ff" points="69.3,-155.5 59.3,-159 69.3,-162.5 69.3,-155.5"/>
</a>
</g>
</g>
<!-- Node6 -->
<g id="Node000006" class="node">
<title>Node6</title>
<g id="a_Node000006"><a xlink:href="classDatabase_1_1Factories_1_1ProfesseurFactory.html" target="_top" xlink:title=" ">
<polygon fill="white" stroke="#666666" points="215,-126 105,-126 105,-96 215,-96 215,-126"/>
<text text-anchor="start" x="113" y="-114" font-family="Helvetica,sans-Serif" font-size="10.00">Database\Factories</text>
<text text-anchor="middle" x="160" y="-103" font-family="Helvetica,sans-Serif" font-size="10.00">\ProfesseurFactory</text>
</a>
</g>
</g>
<!-- Node2&#45;&gt;Node6 -->
<g id="edge40_Node000002_Node000006" class="edge">
<title>Node2&#45;&gt;Node6</title>
<g id="a_edge40_Node000002_Node000006"><a xlink:title=" ">
<path fill="none" stroke="#63b8ff" d="M68.45,-145.77C84.36,-139.66 103.32,-132.38 119.77,-126.06"/>
<polygon fill="#63b8ff" stroke="#63b8ff" points="67.08,-142.55 59,-149.4 69.59,-149.08 67.08,-142.55"/>
</a>
</g>
</g>
<!-- Node7 -->
<g id="Node000007" class="node">
<title>Node7</title>
<g id="a_Node000007"><a xlink:href="classDatabase_1_1Factories_1_1ProjetFactory.html" target="_top" xlink:title=" ">
<polygon fill="white" stroke="#666666" points="215,-78 105,-78 105,-48 215,-48 215,-78"/>
<text text-anchor="start" x="113" y="-66" font-family="Helvetica,sans-Serif" font-size="10.00">Database\Factories</text>
<text text-anchor="middle" x="160" y="-55" font-family="Helvetica,sans-Serif" font-size="10.00">\ProjetFactory</text>
</a>
</g>
</g>
<!-- Node2&#45;&gt;Node7 -->
<g id="edge41_Node000002_Node000007" class="edge">
<title>Node2&#45;&gt;Node7</title>
<g id="a_edge41_Node000002_Node000007"><a xlink:title=" ">
<path fill="none" stroke="#63b8ff" d="M47.11,-141.39C59.72,-125.45 80.06,-102.21 102,-87 106.76,-83.7 112.06,-80.72 117.44,-78.08"/>
<polygon fill="#63b8ff" stroke="#63b8ff" points="44.28,-139.34 40.94,-149.4 49.82,-143.61 44.28,-139.34"/>
</a>
</g>
</g>
<!-- Node8 -->
<g id="Node000008" class="node">
<title>Node8</title>
<g id="a_Node000008"><a xlink:href="classDatabase_1_1Factories_1_1RoleFactory.html" target="_top" xlink:title=" ">
<polygon fill="white" stroke="#666666" points="215,-30 105,-30 105,0 215,0 215,-30"/>
<text text-anchor="start" x="113" y="-18" font-family="Helvetica,sans-Serif" font-size="10.00">Database\Factories</text>
<text text-anchor="middle" x="160" y="-7" font-family="Helvetica,sans-Serif" font-size="10.00">\RoleFactory</text>
</a>
</g>
</g>
<!-- Node2&#45;&gt;Node8 -->
<g id="edge42_Node000002_Node000008" class="edge">
<title>Node2&#45;&gt;Node8</title>
<g id="a_edge42_Node000002_Node000008"><a xlink:title=" ">
<path fill="none" stroke="#63b8ff" d="M40.44,-139.67C50.02,-113.57 70.39,-67.11 102,-39 105.85,-35.58 110.26,-32.59 114.89,-30"/>
<polygon fill="#63b8ff" stroke="#63b8ff" points="37.1,-138.6 37.09,-149.19 43.71,-140.92 37.1,-138.6"/>
</a>
</g>
</g>
</g>
</svg>
