<?xml version="1.0" encoding="UTF-8" standalone="no"?>
<!DOCTYPE svg PUBLIC "-//W3C//DTD SVG 1.1//EN"
 "http://www.w3.org/Graphics/SVG/1.1/DTD/svg11.dtd">
<!-- Generated by graphviz version 2.42.4 (0)
 -->
<!-- Title: Graphe hiérarchique des classes Pages: 1 -->
<svg width="266pt" height="284pt"
 viewBox="0.00 0.00 266.00 284.00" xmlns="http://www.w3.org/2000/svg" xmlns:xlink="http://www.w3.org/1999/xlink">
<g id="graph0" class="graph" transform="scale(1 1) rotate(0) translate(4 280)">
<title>Graphe hiérarchique des classes</title>
<!-- Node0 -->
<g id="Node000000" class="node">
<title>Node0</title>
<g id="a_Node000000"><a xlink:title=" ">
<polygon fill="#e0e0e0" stroke="#999999" points="50,-147.5 0,-147.5 0,-128.5 50,-128.5 50,-147.5"/>
<text text-anchor="middle" x="25" y="-135.5" font-family="Helvetica,sans-Serif" font-size="10.00">Seeder</text>
</a>
</g>
</g>
<!-- Node1 -->
<g id="Node000001" class="node">
<title>Node1</title>
<g id="a_Node000001"><a xlink:href="classDatabase_1_1Seeders_1_1DatabaseSeeder.html" target="_top" xlink:title=" ">
<polygon fill="white" stroke="#666666" points="249.5,-276 94.5,-276 94.5,-246 249.5,-246 249.5,-276"/>
<text text-anchor="start" x="102.5" y="-264" font-family="Helvetica,sans-Serif" font-size="10.00">Database\Seeders\Database</text>
<text text-anchor="middle" x="172" y="-253" font-family="Helvetica,sans-Serif" font-size="10.00">Seeder</text>
</a>
</g>
</g>
<!-- Node0&#45;&gt;Node1 -->
<g id="edge50_Node000000_Node000001" class="edge">
<title>Node0&#45;&gt;Node1</title>
<g id="a_edge50_Node000000_Node000001"><a xlink:title=" ">
<path fill="none" stroke="#63b8ff" d="M32.55,-156.98C41.26,-179.41 58.8,-216.3 86,-237 90.51,-240.44 95.5,-243.38 100.73,-245.9"/>
<polygon fill="#63b8ff" stroke="#63b8ff" points="35.81,-155.71 29.07,-147.53 29.24,-158.12 35.81,-155.71"/>
</a>
</g>
</g>
<!-- Node2 -->
<g id="Node000002" class="node">
<title>Node2</title>
<g id="a_Node000002"><a xlink:href="classDatabase_1_1Seeders_1_1EleveSeeder.html" target="_top" xlink:title=" ">
<polygon fill="white" stroke="#666666" points="256.5,-227.5 87.5,-227.5 87.5,-208.5 256.5,-208.5 256.5,-227.5"/>
<text text-anchor="middle" x="172" y="-215.5" font-family="Helvetica,sans-Serif" font-size="10.00">Database\Seeders\EleveSeeder</text>
</a>
</g>
</g>
<!-- Node0&#45;&gt;Node2 -->
<g id="edge51_Node000000_Node000002" class="edge">
<title>Node0&#45;&gt;Node2</title>
<g id="a_edge51_Node000000_Node000002"><a xlink:title=" ">
<path fill="none" stroke="#63b8ff" d="M38.43,-155.76C49.33,-169.95 66.46,-189.19 86,-200 92.2,-203.43 98.99,-206.21 105.95,-208.46"/>
<polygon fill="#63b8ff" stroke="#63b8ff" points="41.24,-153.67 32.49,-147.7 35.61,-157.82 41.24,-153.67"/>
</a>
</g>
</g>
<!-- Node3 -->
<g id="Node000003" class="node">
<title>Node3</title>
<g id="a_Node000003"><a xlink:href="classDatabase_1_1Seeders_1_1MediaSeeder.html" target="_top" xlink:title=" ">
<polygon fill="white" stroke="#666666" points="258,-190.5 86,-190.5 86,-171.5 258,-171.5 258,-190.5"/>
<text text-anchor="middle" x="172" y="-178.5" font-family="Helvetica,sans-Serif" font-size="10.00">Database\Seeders\MediaSeeder</text>
</a>
</g>
</g>
<!-- Node0&#45;&gt;Node3 -->
<g id="edge52_Node000000_Node000003" class="edge">
<title>Node0&#45;&gt;Node3</title>
<g id="a_edge52_Node000000_Node000003"><a xlink:title=" ">
<path fill="none" stroke="#63b8ff" d="M56.63,-151.35C65.95,-155.11 76.3,-159 86,-162 97.56,-165.58 110.19,-168.77 122.1,-171.48"/>
<polygon fill="#63b8ff" stroke="#63b8ff" points="57.94,-148.11 47.36,-147.52 55.26,-154.57 57.94,-148.11"/>
</a>
</g>
</g>
<!-- Node4 -->
<g id="Node000004" class="node">
<title>Node4</title>
<g id="a_Node000004"><a xlink:href="classDatabase_1_1Seeders_1_1ProfesseurSeeder.html" target="_top" xlink:title=" ">
<polygon fill="white" stroke="#666666" points="252,-153 92,-153 92,-123 252,-123 252,-153"/>
<text text-anchor="start" x="100" y="-141" font-family="Helvetica,sans-Serif" font-size="10.00">Database\Seeders\Professeur</text>
<text text-anchor="middle" x="172" y="-130" font-family="Helvetica,sans-Serif" font-size="10.00">Seeder</text>
</a>
</g>
</g>
<!-- Node0&#45;&gt;Node4 -->
<g id="edge53_Node000000_Node000004" class="edge">
<title>Node0&#45;&gt;Node4</title>
<g id="a_edge53_Node000000_Node000004"><a xlink:title=" ">
<path fill="none" stroke="#63b8ff" d="M60.49,-138C70.06,-138 80.85,-138 91.85,-138"/>
<polygon fill="#63b8ff" stroke="#63b8ff" points="60.27,-134.5 50.27,-138 60.27,-141.5 60.27,-134.5"/>
</a>
</g>
</g>
<!-- Node5 -->
<g id="Node000005" class="node">
<title>Node5</title>
<g id="a_Node000005"><a xlink:href="classDatabase_1_1Seeders_1_1ProjetSeeder.html" target="_top" xlink:title=" ">
<polygon fill="white" stroke="#666666" points="257,-104.5 87,-104.5 87,-85.5 257,-85.5 257,-104.5"/>
<text text-anchor="middle" x="172" y="-92.5" font-family="Helvetica,sans-Serif" font-size="10.00">Database\Seeders\ProjetSeeder</text>
</a>
</g>
</g>
<!-- Node0&#45;&gt;Node5 -->
<g id="edge54_Node000000_Node000005" class="edge">
<title>Node0&#45;&gt;Node5</title>
<g id="a_edge54_Node000000_Node000005"><a xlink:title=" ">
<path fill="none" stroke="#63b8ff" d="M56.63,-124.65C65.95,-120.89 76.3,-117 86,-114 97.56,-110.42 110.19,-107.23 122.1,-104.52"/>
<polygon fill="#63b8ff" stroke="#63b8ff" points="55.26,-121.43 47.36,-128.48 57.94,-127.89 55.26,-121.43"/>
</a>
</g>
</g>
<!-- Node6 -->
<g id="Node000006" class="node">
<title>Node6</title>
<g id="a_Node000006"><a xlink:href="classDatabase_1_1Seeders_1_1RoleSeeder.html" target="_top" xlink:title=" ">
<polygon fill="white" stroke="#666666" points="254,-67.5 90,-67.5 90,-48.5 254,-48.5 254,-67.5"/>
<text text-anchor="middle" x="172" y="-55.5" font-family="Helvetica,sans-Serif" font-size="10.00">Database\Seeders\RoleSeeder</text>
</a>
</g>
</g>
<!-- Node0&#45;&gt;Node6 -->
<g id="edge55_Node000000_Node000006" class="edge">
<title>Node0&#45;&gt;Node6</title>
<g id="a_edge55_Node000000_Node000006"><a xlink:title=" ">
<path fill="none" stroke="#63b8ff" d="M38.84,-120.19C49.81,-106.3 66.82,-87.65 86,-77 93.01,-73.11 100.76,-70.02 108.64,-67.56"/>
<polygon fill="#63b8ff" stroke="#63b8ff" points="35.8,-118.41 32.54,-128.49 41.37,-122.64 35.8,-118.41"/>
</a>
</g>
</g>
<!-- Node7 -->
<g id="Node000007" class="node">
<title>Node7</title>
<g id="a_Node000007"><a xlink:href="classDatabase_1_1Seeders_1_1SecurityRoleSeeder.html" target="_top" xlink:title=" ">
<polygon fill="white" stroke="#666666" points="246,-30 98,-30 98,0 246,0 246,-30"/>
<text text-anchor="start" x="106" y="-18" font-family="Helvetica,sans-Serif" font-size="10.00">Database\Seeders\Security</text>
<text text-anchor="middle" x="172" y="-7" font-family="Helvetica,sans-Serif" font-size="10.00">RoleSeeder</text>
</a>
</g>
</g>
<!-- Node0&#45;&gt;Node7 -->
<g id="edge56_Node000000_Node000007" class="edge">
<title>Node0&#45;&gt;Node7</title>
<g id="a_edge56_Node000000_Node000007"><a xlink:title=" ">
<path fill="none" stroke="#63b8ff" d="M32.77,-118.92C41.62,-96.73 59.2,-60.53 86,-40 91.01,-36.16 96.59,-32.92 102.44,-30.17"/>
<polygon fill="#63b8ff" stroke="#63b8ff" points="29.49,-117.7 29.23,-128.29 36.04,-120.18 29.49,-117.7"/>
</a>
</g>
</g>
</g>
</svg>
